<?xml version="1.0" encoding="utf-8"?>
<!-- Generator: Adobe Illustrator 24.3.0, SVG Export Plug-In . SVG Version: 6.00 Build 0)  -->
<svg version="1.1" id="圖層_1" xmlns="http://www.w3.org/2000/svg" xmlns:xlink="http://www.w3.org/1999/xlink" x="0px" y="0px"
	 viewBox="0 0 500 450" style="enable-background:new 0 0 500 450;" xml:space="preserve">
<style type="text/css">
	.st0{display:none;}
	.st1{display:inline;fill:#0A2F35;}
	.st2{opacity:0.3;}
	.st3{fill:#FFFFFF;}
	.st4{fill:#E6E6E6;stroke:#040000;stroke-miterlimit:10;}
</style>
<g id="圖層_2_1_" class="st0">
	<rect x="-641.5" y="-91.6" class="st1" width="1919.5" height="1079.7"/>
</g>
<g class="st2">
	<g>
		<g>
			<g>
				<g>
					<path class="st3" d="M500,338.4c1.2,0,2.1,0.9,2.1,2.1s-0.9,2.1-2.1,2.1s-2.1-0.9-2.1-2.1S498.8,338.4,500,338.4z"/>
					<path class="st3" d="M500,324.3c1.2,0,2.1,0.9,2.1,2.1s-0.9,2.1-2.1,2.1s-2.1-0.9-2.1-2.1C497.9,325.2,498.8,324.3,500,324.3z"
						/>
					<path class="st3" d="M500,310.2c1.2,0,2.1,0.9,2.1,2.1s-0.9,2.1-2.1,2.1s-2.1-0.9-2.1-2.1C497.9,311.2,498.8,310.2,500,310.2z"
						/>
					<path class="st3" d="M500,296.2c1.2,0,2.1,0.9,2.1,2.1s-0.9,2.1-2.1,2.1s-2.1-0.9-2.1-2.1S498.8,296.2,500,296.2z"/>
					<path class="st3" d="M500,282.1c1.2,0,2.1,0.9,2.1,2.1s-0.9,2.1-2.1,2.1s-2.1-0.9-2.1-2.1S498.8,282.1,500,282.1z"/>
					<path class="st3" d="M500,268c1.2,0,2.1,0.9,2.1,2.1s-0.9,2.1-2.1,2.1s-2.1-0.9-2.1-2.1C497.9,269,498.8,268,500,268z"/>
					<path class="st3" d="M500,254c1.2,0,2.1,0.9,2.1,2.1c0,1.2-0.9,2.1-2.1,2.1s-2.1-0.9-2.1-2.1C497.9,254.9,498.8,254,500,254z"
						/>
					<path class="st3" d="M500,239.9c1.2,0,2.1,0.9,2.1,2.1c0,1.2-0.9,2.1-2.1,2.1s-2.1-0.9-2.1-2.1
						C497.9,240.9,498.8,239.9,500,239.9z"/>
					<path class="st3" d="M500,225.8c1.2,0,2.1,0.9,2.1,2.1c0,1.2-0.9,2.1-2.1,2.1s-2.1-0.9-2.1-2.1
						C497.9,226.8,498.8,225.8,500,225.8z"/>
					<path class="st3" d="M500,211.8c1.2,0,2.1,0.9,2.1,2.1c0,1.2-0.9,2.1-2.1,2.1s-2.1-0.9-2.1-2.1S498.8,211.8,500,211.8z"/>
					<path class="st3" d="M500,197.7c1.2,0,2.1,0.9,2.1,2.1c0,1.2-0.9,2.1-2.1,2.1s-2.1-0.9-2.1-2.1
						C497.9,198.7,498.8,197.7,500,197.7z"/>
				</g>
			</g>
		</g>
		<g>
			<g>
				<g>
					<path class="st3" d="M488.6,338.4c1.2,0,2.1,0.9,2.1,2.1s-0.9,2.1-2.1,2.1s-2.1-0.9-2.1-2.1S487.5,338.4,488.6,338.4z"/>
					<path class="st3" d="M488.6,324.3c1.2,0,2.1,0.9,2.1,2.1s-0.9,2.1-2.1,2.1s-2.1-0.9-2.1-2.1
						C486.5,325.2,487.5,324.3,488.6,324.3z"/>
					<path class="st3" d="M488.6,310.2c1.2,0,2.1,0.9,2.1,2.1s-0.9,2.1-2.1,2.1s-2.1-0.9-2.1-2.1
						C486.5,311.2,487.5,310.2,488.6,310.2z"/>
					<path class="st3" d="M488.6,296.2c1.2,0,2.1,0.9,2.1,2.1s-0.9,2.1-2.1,2.1s-2.1-0.9-2.1-2.1S487.5,296.2,488.6,296.2z"/>
					<path class="st3" d="M488.6,282.1c1.2,0,2.1,0.9,2.1,2.1s-0.9,2.1-2.1,2.1s-2.1-0.9-2.1-2.1S487.5,282.1,488.6,282.1z"/>
					<path class="st3" d="M488.6,268c1.2,0,2.1,0.9,2.1,2.1s-0.9,2.1-2.1,2.1s-2.1-0.9-2.1-2.1C486.5,269,487.5,268,488.6,268z"/>
					<path class="st3" d="M488.6,254c1.2,0,2.1,0.9,2.1,2.1c0,1.2-0.9,2.1-2.1,2.1s-2.1-0.9-2.1-2.1
						C486.5,254.9,487.5,254,488.6,254z"/>
					<path class="st3" d="M488.6,239.9c1.2,0,2.1,0.9,2.1,2.1c0,1.2-0.9,2.1-2.1,2.1s-2.1-0.9-2.1-2.1
						C486.5,240.9,487.5,239.9,488.6,239.9z"/>
					<path class="st3" d="M488.6,225.8c1.2,0,2.1,0.9,2.1,2.1c0,1.2-0.9,2.1-2.1,2.1s-2.1-0.9-2.1-2.1
						C486.5,226.8,487.5,225.8,488.6,225.8z"/>
					<path class="st3" d="M488.6,211.8c1.2,0,2.1,0.9,2.1,2.1c0,1.2-0.9,2.1-2.1,2.1s-2.1-0.9-2.1-2.1S487.5,211.8,488.6,211.8z"/>
					<path class="st3" d="M488.6,197.7c1.2,0,2.1,0.9,2.1,2.1c0,1.2-0.9,2.1-2.1,2.1s-2.1-0.9-2.1-2.1
						C486.5,198.7,487.5,197.7,488.6,197.7z"/>
				</g>
			</g>
		</g>
		<g>
			<g>
				<g>
					<path class="st3" d="M477.3,338.4c1.2,0,2.1,0.9,2.1,2.1s-0.9,2.1-2.1,2.1s-2.1-0.9-2.1-2.1
						C475.2,339.3,476.1,338.4,477.3,338.4z"/>
					<path class="st3" d="M477.3,324.3c1.2,0,2.1,0.9,2.1,2.1s-0.9,2.1-2.1,2.1s-2.1-0.9-2.1-2.1
						C475.2,325.2,476.1,324.3,477.3,324.3z"/>
					<path class="st3" d="M477.3,310.2c1.2,0,2.1,0.9,2.1,2.1s-0.9,2.1-2.1,2.1s-2.1-0.9-2.1-2.1
						C475.2,311.2,476.1,310.2,477.3,310.2z"/>
					<path class="st3" d="M477.3,296.2c1.2,0,2.1,0.9,2.1,2.1s-0.9,2.1-2.1,2.1s-2.1-0.9-2.1-2.1
						C475.2,297.1,476.1,296.2,477.3,296.2z"/>
					<path class="st3" d="M477.3,282.1c1.2,0,2.1,0.9,2.1,2.1s-0.9,2.1-2.1,2.1s-2.1-0.9-2.1-2.1C475.2,283,476.1,282.1,477.3,282.1
						z"/>
					<path class="st3" d="M477.3,268c1.2,0,2.1,0.9,2.1,2.1s-0.9,2.1-2.1,2.1s-2.1-0.9-2.1-2.1C475.2,269,476.1,268,477.3,268z"/>
					<path class="st3" d="M477.3,254c1.2,0,2.1,0.9,2.1,2.1c0,1.2-0.9,2.1-2.1,2.1s-2.1-0.9-2.1-2.1
						C475.2,254.9,476.1,254,477.3,254z"/>
					<path class="st3" d="M477.3,239.9c1.2,0,2.1,0.9,2.1,2.1c0,1.2-0.9,2.1-2.1,2.1s-2.1-0.9-2.1-2.1
						C475.2,240.9,476.1,239.9,477.3,239.9z"/>
					<path class="st3" d="M477.3,225.8c1.2,0,2.1,0.9,2.1,2.1c0,1.2-0.9,2.1-2.1,2.1s-2.1-0.9-2.1-2.1
						C475.2,226.8,476.1,225.8,477.3,225.8z"/>
					<path class="st3" d="M477.3,211.8c1.2,0,2.1,0.9,2.1,2.1c0,1.2-0.9,2.1-2.1,2.1s-2.1-0.9-2.1-2.1
						C475.2,212.7,476.1,211.8,477.3,211.8z"/>
					<path class="st3" d="M477.3,197.7c1.2,0,2.1,0.9,2.1,2.1c0,1.2-0.9,2.1-2.1,2.1s-2.1-0.9-2.1-2.1
						C475.2,198.7,476.1,197.7,477.3,197.7z"/>
				</g>
			</g>
		</g>
		<g>
			<g>
				<g>
					<path class="st3" d="M465.9,338.4c1.2,0,2.1,0.9,2.1,2.1s-0.9,2.1-2.1,2.1s-2.1-0.9-2.1-2.1S464.8,338.4,465.9,338.4z"/>
					<path class="st3" d="M465.9,324.3c1.2,0,2.1,0.9,2.1,2.1s-0.9,2.1-2.1,2.1s-2.1-0.9-2.1-2.1
						C463.8,325.2,464.8,324.3,465.9,324.3z"/>
					<path class="st3" d="M465.9,310.2c1.2,0,2.1,0.9,2.1,2.1s-0.9,2.1-2.1,2.1s-2.1-0.9-2.1-2.1
						C463.8,311.2,464.8,310.2,465.9,310.2z"/>
					<path class="st3" d="M465.9,296.2c1.2,0,2.1,0.9,2.1,2.1s-0.9,2.1-2.1,2.1s-2.1-0.9-2.1-2.1S464.8,296.2,465.9,296.2z"/>
					<path class="st3" d="M465.9,282.1c1.2,0,2.1,0.9,2.1,2.1s-0.9,2.1-2.1,2.1s-2.1-0.9-2.1-2.1S464.8,282.1,465.9,282.1z"/>
					<path class="st3" d="M465.9,268c1.2,0,2.1,0.9,2.1,2.1s-0.9,2.1-2.1,2.1s-2.1-0.9-2.1-2.1C463.8,269,464.8,268,465.9,268z"/>
					<path class="st3" d="M465.9,254c1.2,0,2.1,0.9,2.1,2.1c0,1.2-0.9,2.1-2.1,2.1s-2.1-0.9-2.1-2.1
						C463.8,254.9,464.8,254,465.9,254z"/>
					<path class="st3" d="M465.9,239.9c1.2,0,2.1,0.9,2.1,2.1c0,1.2-0.9,2.1-2.1,2.1s-2.1-0.9-2.1-2.1
						C463.8,240.9,464.8,239.9,465.9,239.9z"/>
					<path class="st3" d="M465.9,225.8c1.2,0,2.1,0.9,2.1,2.1c0,1.2-0.9,2.1-2.1,2.1s-2.1-0.9-2.1-2.1
						C463.8,226.8,464.8,225.8,465.9,225.8z"/>
					<path class="st3" d="M465.9,211.8c1.2,0,2.1,0.9,2.1,2.1c0,1.2-0.9,2.1-2.1,2.1s-2.1-0.9-2.1-2.1S464.8,211.8,465.9,211.8z"/>
					<path class="st3" d="M465.9,197.7c1.2,0,2.1,0.9,2.1,2.1c0,1.2-0.9,2.1-2.1,2.1s-2.1-0.9-2.1-2.1
						C463.8,198.7,464.8,197.7,465.9,197.7z"/>
				</g>
			</g>
		</g>
		<g>
			<g>
				<g>
					<circle class="st3" cx="454.6" cy="340.5" r="2.1"/>
					<circle class="st3" cx="454.6" cy="326.4" r="2.1"/>
					<path class="st3" d="M454.6,310.2c1.2,0,2.1,0.9,2.1,2.1s-0.9,2.1-2.1,2.1s-2.1-0.9-2.1-2.1
						C452.5,311.2,453.4,310.2,454.6,310.2z"/>
					<path class="st3" d="M454.6,296.2c1.2,0,2.1,0.9,2.1,2.1s-0.9,2.1-2.1,2.1s-2.1-0.9-2.1-2.1S453.4,296.2,454.6,296.2z"/>
					<circle class="st3" cx="454.6" cy="284.2" r="2.1"/>
					<circle class="st3" cx="454.6" cy="270.1" r="2.1"/>
					<circle class="st3" cx="454.6" cy="256.1" r="2.1"/>
					<circle class="st3" cx="454.6" cy="242" r="2.1"/>
					<circle class="st3" cx="454.6" cy="228" r="2.1"/>
					<path class="st3" d="M454.6,211.8c1.2,0,2.1,0.9,2.1,2.1c0,1.2-0.9,2.1-2.1,2.1s-2.1-0.9-2.1-2.1S453.4,211.8,454.6,211.8z"/>
					<circle class="st3" cx="454.6" cy="199.8" r="2.1"/>
				</g>
			</g>
		</g>
	</g>
	<g>
		<g>
			<g>
				<g>
					<path class="st3" d="M500,464.8c1.2,0,2.1,0.9,2.1,2.1s-0.9,2.1-2.1,2.1s-2.1-0.9-2.1-2.1C497.9,465.8,498.8,464.8,500,464.8z"
						/>
					<path class="st3" d="M500,450.8c1.2,0,2.1,0.9,2.1,2.1s-0.9,2.1-2.1,2.1s-2.1-0.9-2.1-2.1C497.9,451.7,498.8,450.8,500,450.8z"
						/>
					<path class="st3" d="M500,436.7c1.2,0,2.1,0.9,2.1,2.1s-0.9,2.1-2.1,2.1s-2.1-0.9-2.1-2.1S498.8,436.7,500,436.7z"/>
					<path class="st3" d="M500,422.6c1.2,0,2.1,0.9,2.1,2.1s-0.9,2.1-2.1,2.1s-2.1-0.9-2.1-2.1C497.9,423.6,498.8,422.6,500,422.6z"
						/>
					<path class="st3" d="M500,408.6c1.2,0,2.1,0.9,2.1,2.1s-0.9,2.1-2.1,2.1s-2.1-0.9-2.1-2.1S498.8,408.6,500,408.6z"/>
					<path class="st3" d="M500,394.5c1.2,0,2.1,0.9,2.1,2.1s-0.9,2.1-2.1,2.1s-2.1-0.9-2.1-2.1S498.8,394.5,500,394.5z"/>
					<path class="st3" d="M500,380.4c1.2,0,2.1,0.9,2.1,2.1s-0.9,2.1-2.1,2.1s-2.1-0.9-2.1-2.1C497.9,381.4,498.8,380.4,500,380.4z"
						/>
					<path class="st3" d="M500,366.4c1.2,0,2.1,0.9,2.1,2.1s-0.9,2.1-2.1,2.1s-2.1-0.9-2.1-2.1S498.8,366.4,500,366.4z"/>
					<path class="st3" d="M500,352.3c1.2,0,2.1,0.9,2.1,2.1s-0.9,2.1-2.1,2.1s-2.1-0.9-2.1-2.1C497.9,353.2,498.8,352.3,500,352.3z"
						/>
					<path class="st3" d="M500,338.2c1.2,0,2.1,0.9,2.1,2.1s-0.9,2.1-2.1,2.1s-2.1-0.9-2.1-2.1C497.9,339.2,498.8,338.2,500,338.2z"
						/>
				</g>
			</g>
		</g>
		<g>
			<g>
				<g>
					<path class="st3" d="M488.6,464.8c1.2,0,2.1,0.9,2.1,2.1s-0.9,2.1-2.1,2.1s-2.1-0.9-2.1-2.1
						C486.5,465.8,487.5,464.8,488.6,464.8z"/>
					<path class="st3" d="M488.6,450.8c1.2,0,2.1,0.9,2.1,2.1s-0.9,2.1-2.1,2.1s-2.1-0.9-2.1-2.1
						C486.5,451.7,487.5,450.8,488.6,450.8z"/>
					<path class="st3" d="M488.6,436.7c1.2,0,2.1,0.9,2.1,2.1s-0.9,2.1-2.1,2.1s-2.1-0.9-2.1-2.1S487.5,436.7,488.6,436.7z"/>
					<path class="st3" d="M488.6,422.6c1.2,0,2.1,0.9,2.1,2.1s-0.9,2.1-2.1,2.1s-2.1-0.9-2.1-2.1
						C486.5,423.6,487.5,422.6,488.6,422.6z"/>
					<path class="st3" d="M488.6,408.6c1.2,0,2.1,0.9,2.1,2.1s-0.9,2.1-2.1,2.1s-2.1-0.9-2.1-2.1S487.5,408.6,488.6,408.6z"/>
					<path class="st3" d="M488.6,394.5c1.2,0,2.1,0.9,2.1,2.1s-0.9,2.1-2.1,2.1s-2.1-0.9-2.1-2.1S487.5,394.5,488.6,394.5z"/>
					<path class="st3" d="M488.6,380.4c1.2,0,2.1,0.9,2.1,2.1s-0.9,2.1-2.1,2.1s-2.1-0.9-2.1-2.1
						C486.5,381.4,487.5,380.4,488.6,380.4z"/>
					<path class="st3" d="M488.6,366.4c1.2,0,2.1,0.9,2.1,2.1s-0.9,2.1-2.1,2.1s-2.1-0.9-2.1-2.1S487.5,366.4,488.6,366.4z"/>
					<path class="st3" d="M488.6,352.3c1.2,0,2.1,0.9,2.1,2.1s-0.9,2.1-2.1,2.1s-2.1-0.9-2.1-2.1
						C486.5,353.2,487.5,352.3,488.6,352.3z"/>
					<path class="st3" d="M488.6,338.2c1.2,0,2.1,0.9,2.1,2.1s-0.9,2.1-2.1,2.1s-2.1-0.9-2.1-2.1
						C486.5,339.2,487.5,338.2,488.6,338.2z"/>
				</g>
			</g>
		</g>
		<g>
			<g>
				<g>
					<path class="st3" d="M477.3,464.8c1.2,0,2.1,0.9,2.1,2.1s-0.9,2.1-2.1,2.1s-2.1-0.9-2.1-2.1
						C475.2,465.8,476.1,464.8,477.3,464.8z"/>
					<path class="st3" d="M477.3,450.8c1.2,0,2.1,0.9,2.1,2.1s-0.9,2.1-2.1,2.1s-2.1-0.9-2.1-2.1
						C475.2,451.7,476.1,450.8,477.3,450.8z"/>
					<path class="st3" d="M477.3,436.7c1.2,0,2.1,0.9,2.1,2.1s-0.9,2.1-2.1,2.1s-2.1-0.9-2.1-2.1
						C475.2,437.6,476.1,436.7,477.3,436.7z"/>
					<path class="st3" d="M477.3,422.6c1.2,0,2.1,0.9,2.1,2.1s-0.9,2.1-2.1,2.1s-2.1-0.9-2.1-2.1
						C475.2,423.6,476.1,422.6,477.3,422.6z"/>
					<path class="st3" d="M477.3,408.6c1.2,0,2.1,0.9,2.1,2.1s-0.9,2.1-2.1,2.1s-2.1-0.9-2.1-2.1
						C475.2,409.5,476.1,408.6,477.3,408.6z"/>
					<path class="st3" d="M477.3,394.5c1.2,0,2.1,0.9,2.1,2.1s-0.9,2.1-2.1,2.1s-2.1-0.9-2.1-2.1
						C475.2,395.4,476.1,394.5,477.3,394.5z"/>
					<path class="st3" d="M477.3,380.4c1.2,0,2.1,0.9,2.1,2.1s-0.9,2.1-2.1,2.1s-2.1-0.9-2.1-2.1
						C475.2,381.4,476.1,380.4,477.3,380.4z"/>
					<path class="st3" d="M477.3,366.4c1.2,0,2.1,0.9,2.1,2.1s-0.9,2.1-2.1,2.1s-2.1-0.9-2.1-2.1
						C475.2,367.3,476.1,366.4,477.3,366.4z"/>
					<path class="st3" d="M477.3,352.3c1.2,0,2.1,0.9,2.1,2.1s-0.9,2.1-2.1,2.1s-2.1-0.9-2.1-2.1
						C475.2,353.2,476.1,352.3,477.3,352.3z"/>
					<path class="st3" d="M477.3,338.2c1.2,0,2.1,0.9,2.1,2.1s-0.9,2.1-2.1,2.1s-2.1-0.9-2.1-2.1
						C475.2,339.2,476.1,338.2,477.3,338.2z"/>
				</g>
			</g>
		</g>
		<g>
			<g>
				<g>
					<path class="st3" d="M465.9,464.8c1.2,0,2.1,0.9,2.1,2.1s-0.9,2.1-2.1,2.1s-2.1-0.9-2.1-2.1
						C463.8,465.8,464.8,464.8,465.9,464.8z"/>
					<path class="st3" d="M465.9,450.8c1.2,0,2.1,0.9,2.1,2.1s-0.9,2.1-2.1,2.1s-2.1-0.9-2.1-2.1
						C463.8,451.7,464.8,450.8,465.9,450.8z"/>
					<path class="st3" d="M465.9,436.7c1.2,0,2.1,0.9,2.1,2.1s-0.9,2.1-2.1,2.1s-2.1-0.9-2.1-2.1S464.8,436.7,465.9,436.7z"/>
					<path class="st3" d="M465.9,422.6c1.2,0,2.1,0.9,2.1,2.1s-0.9,2.1-2.1,2.1s-2.1-0.9-2.1-2.1
						C463.8,423.6,464.8,422.6,465.9,422.6z"/>
					<path class="st3" d="M465.9,408.6c1.2,0,2.1,0.9,2.1,2.1s-0.9,2.1-2.1,2.1s-2.1-0.9-2.1-2.1S464.8,408.6,465.9,408.6z"/>
					<path class="st3" d="M465.9,394.5c1.2,0,2.1,0.9,2.1,2.1s-0.9,2.1-2.1,2.1s-2.1-0.9-2.1-2.1S464.8,394.5,465.9,394.5z"/>
					<path class="st3" d="M465.9,380.4c1.2,0,2.1,0.9,2.1,2.1s-0.9,2.1-2.1,2.1s-2.1-0.9-2.1-2.1
						C463.8,381.4,464.8,380.4,465.9,380.4z"/>
					<path class="st3" d="M465.9,366.4c1.2,0,2.1,0.9,2.1,2.1s-0.9,2.1-2.1,2.1s-2.1-0.9-2.1-2.1S464.8,366.4,465.9,366.4z"/>
					<path class="st3" d="M465.9,352.3c1.2,0,2.1,0.9,2.1,2.1s-0.9,2.1-2.1,2.1s-2.1-0.9-2.1-2.1
						C463.8,353.2,464.8,352.3,465.9,352.3z"/>
					<path class="st3" d="M465.9,338.2c1.2,0,2.1,0.9,2.1,2.1s-0.9,2.1-2.1,2.1s-2.1-0.9-2.1-2.1
						C463.8,339.2,464.8,338.2,465.9,338.2z"/>
				</g>
			</g>
		</g>
		<g>
			<g>
				<g>
					<path class="st3" d="M454.6,464.8c1.2,0,2.1,0.9,2.1,2.1s-0.9,2.1-2.1,2.1s-2.1-0.9-2.1-2.1
						C452.5,465.8,453.4,464.8,454.6,464.8z"/>
					<circle class="st3" cx="454.6" cy="452.9" r="2.1"/>
					<circle class="st3" cx="454.6" cy="438.8" r="2.1"/>
					<circle class="st3" cx="454.6" cy="424.7" r="2.1"/>
					<circle class="st3" cx="454.6" cy="410.7" r="2.1"/>
					<circle class="st3" cx="454.6" cy="396.6" r="2.1"/>
					<path class="st3" d="M454.6,380.4c1.2,0,2.1,0.9,2.1,2.1s-0.9,2.1-2.1,2.1s-2.1-0.9-2.1-2.1
						C452.5,381.4,453.4,380.4,454.6,380.4z"/>
					<path class="st3" d="M454.6,366.4c1.2,0,2.1,0.9,2.1,2.1s-0.9,2.1-2.1,2.1s-2.1-0.9-2.1-2.1S453.4,366.4,454.6,366.4z"/>
					<circle class="st3" cx="454.6" cy="354.4" r="2.1"/>
					<circle class="st3" cx="454.6" cy="340.3" r="2.1"/>
				</g>
			</g>
		</g>
	</g>
</g>
<g class="st2">
	<g>
		<g>
			<g>
				<g>
					<path class="st3" d="M500,56.3c1.2,0,2.1,0.9,2.1,2.1c0,1.2-0.9,2.1-2.1,2.1s-2.1-0.9-2.1-2.1C497.9,57.3,498.8,56.3,500,56.3z
						"/>
					<path class="st3" d="M500,42.3c1.2,0,2.1,0.9,2.1,2.1c0,1.2-0.9,2.1-2.1,2.1s-2.1-0.9-2.1-2.1S498.8,42.3,500,42.3z"/>
					<path class="st3" d="M500,28.2c1.2,0,2.1,0.9,2.1,2.1s-0.9,2.1-2.1,2.1s-2.1-0.9-2.1-2.1C497.9,29.2,498.8,28.2,500,28.2z"/>
					<path class="st3" d="M500,14.2c1.2,0,2.1,0.9,2.1,2.1s-0.9,2.1-2.1,2.1s-2.1-0.9-2.1-2.1C497.9,15.1,498.8,14.2,500,14.2z"/>
					<path class="st3" d="M500,0.1c1.2,0,2.1,0.9,2.1,2.1s-0.9,2.1-2.1,2.1s-2.1-0.9-2.1-2.1S498.8,0.1,500,0.1z"/>
					<path class="st3" d="M500-14c1.2,0,2.1,0.9,2.1,2.1s-0.9,2.1-2.1,2.1s-2.1-0.9-2.1-2.1C497.9-13,498.8-14,500-14z"/>
					<path class="st3" d="M500-28c1.2,0,2.1,0.9,2.1,2.1s-0.9,2.1-2.1,2.1s-2.1-0.9-2.1-2.1S498.8-28,500-28z"/>
					<path class="st3" d="M500-42.1c1.2,0,2.1,0.9,2.1,2.1c0,1.2-0.9,2.1-2.1,2.1s-2.1-0.9-2.1-2.1C497.9-41.2,498.8-42.1,500-42.1z
						"/>
					<path class="st3" d="M500-56.2c1.2,0,2.1,0.9,2.1,2.1c0,1.2-0.9,2.1-2.1,2.1s-2.1-0.9-2.1-2.1C497.9-55.2,498.8-56.2,500-56.2z
						"/>
					<path class="st3" d="M500-70.2c1.2,0,2.1,0.9,2.1,2.1S501.2-66,500-66s-2.1-0.9-2.1-2.1C497.9-69.3,498.8-70.2,500-70.2z"/>
					<path class="st3" d="M500-84.3c1.2,0,2.1,0.9,2.1,2.1s-0.9,2.1-2.1,2.1s-2.1-0.9-2.1-2.1C497.9-83.3,498.8-84.3,500-84.3z"/>
				</g>
			</g>
		</g>
		<g>
			<g>
				<g>
					<path class="st3" d="M488.6,56.3c1.2,0,2.1,0.9,2.1,2.1c0,1.2-0.9,2.1-2.1,2.1s-2.1-0.9-2.1-2.1
						C486.5,57.3,487.5,56.3,488.6,56.3z"/>
					<path class="st3" d="M488.6,42.3c1.2,0,2.1,0.9,2.1,2.1c0,1.2-0.9,2.1-2.1,2.1s-2.1-0.9-2.1-2.1S487.5,42.3,488.6,42.3z"/>
					<path class="st3" d="M488.6,28.2c1.2,0,2.1,0.9,2.1,2.1s-0.9,2.1-2.1,2.1s-2.1-0.9-2.1-2.1C486.5,29.2,487.5,28.2,488.6,28.2z"
						/>
					<path class="st3" d="M488.6,14.2c1.2,0,2.1,0.9,2.1,2.1s-0.9,2.1-2.1,2.1s-2.1-0.9-2.1-2.1C486.5,15.1,487.5,14.2,488.6,14.2z"
						/>
					<path class="st3" d="M488.6,0.1c1.2,0,2.1,0.9,2.1,2.1s-0.9,2.1-2.1,2.1s-2.1-0.9-2.1-2.1S487.5,0.1,488.6,0.1z"/>
					<path class="st3" d="M488.6-14c1.2,0,2.1,0.9,2.1,2.1s-0.9,2.1-2.1,2.1s-2.1-0.9-2.1-2.1C486.5-13,487.5-14,488.6-14z"/>
					<path class="st3" d="M488.6-28c1.2,0,2.1,0.9,2.1,2.1s-0.9,2.1-2.1,2.1s-2.1-0.9-2.1-2.1S487.5-28,488.6-28z"/>
					<path class="st3" d="M488.6-42.1c1.2,0,2.1,0.9,2.1,2.1c0,1.2-0.9,2.1-2.1,2.1s-2.1-0.9-2.1-2.1
						C486.5-41.2,487.5-42.1,488.6-42.1z"/>
					<path class="st3" d="M488.6-56.2c1.2,0,2.1,0.9,2.1,2.1c0,1.2-0.9,2.1-2.1,2.1s-2.1-0.9-2.1-2.1
						C486.5-55.2,487.5-56.2,488.6-56.2z"/>
					<path class="st3" d="M488.6-70.2c1.2,0,2.1,0.9,2.1,2.1s-0.9,2.1-2.1,2.1s-2.1-0.9-2.1-2.1C486.5-69.3,487.5-70.2,488.6-70.2z"
						/>
					<path class="st3" d="M488.6-84.3c1.2,0,2.1,0.9,2.1,2.1s-0.9,2.1-2.1,2.1s-2.1-0.9-2.1-2.1C486.5-83.3,487.5-84.3,488.6-84.3z"
						/>
				</g>
			</g>
		</g>
		<g>
			<g>
				<g>
					<path class="st3" d="M477.3,56.3c1.2,0,2.1,0.9,2.1,2.1c0,1.2-0.9,2.1-2.1,2.1s-2.1-0.9-2.1-2.1
						C475.2,57.3,476.1,56.3,477.3,56.3z"/>
					<path class="st3" d="M477.3,42.3c1.2,0,2.1,0.9,2.1,2.1c0,1.2-0.9,2.1-2.1,2.1s-2.1-0.9-2.1-2.1
						C475.2,43.2,476.1,42.3,477.3,42.3z"/>
					<path class="st3" d="M477.3,28.2c1.2,0,2.1,0.9,2.1,2.1s-0.9,2.1-2.1,2.1s-2.1-0.9-2.1-2.1C475.2,29.2,476.1,28.2,477.3,28.2z"
						/>
					<path class="st3" d="M477.3,14.2c1.2,0,2.1,0.9,2.1,2.1s-0.9,2.1-2.1,2.1s-2.1-0.9-2.1-2.1C475.2,15.1,476.1,14.2,477.3,14.2z"
						/>
					<path class="st3" d="M477.3,0.1c1.2,0,2.1,0.9,2.1,2.1s-0.9,2.1-2.1,2.1s-2.1-0.9-2.1-2.1C475.2,1,476.1,0.1,477.3,0.1z"/>
					<path class="st3" d="M477.3-14c1.2,0,2.1,0.9,2.1,2.1s-0.9,2.1-2.1,2.1s-2.1-0.9-2.1-2.1C475.2-13,476.1-14,477.3-14z"/>
					<path class="st3" d="M477.3-28c1.2,0,2.1,0.9,2.1,2.1s-0.9,2.1-2.1,2.1s-2.1-0.9-2.1-2.1S476.1-28,477.3-28z"/>
					<path class="st3" d="M477.3-42.1c1.2,0,2.1,0.9,2.1,2.1c0,1.2-0.9,2.1-2.1,2.1s-2.1-0.9-2.1-2.1
						C475.2-41.2,476.1-42.1,477.3-42.1z"/>
					<path class="st3" d="M477.3-56.2c1.2,0,2.1,0.9,2.1,2.1c0,1.2-0.9,2.1-2.1,2.1s-2.1-0.9-2.1-2.1
						C475.2-55.2,476.1-56.2,477.3-56.2z"/>
					<path class="st3" d="M477.3-70.2c1.2,0,2.1,0.9,2.1,2.1s-0.9,2.1-2.1,2.1s-2.1-0.9-2.1-2.1C475.2-69.3,476.1-70.2,477.3-70.2z"
						/>
					<path class="st3" d="M477.3-84.3c1.2,0,2.1,0.9,2.1,2.1s-0.9,2.1-2.1,2.1s-2.1-0.9-2.1-2.1C475.2-83.3,476.1-84.3,477.3-84.3z"
						/>
				</g>
			</g>
		</g>
		<g>
			<g>
				<g>
					<path class="st3" d="M465.9,56.3c1.2,0,2.1,0.9,2.1,2.1c0,1.2-0.9,2.1-2.1,2.1s-2.1-0.9-2.1-2.1
						C463.8,57.3,464.8,56.3,465.9,56.3z"/>
					<path class="st3" d="M465.9,42.3c1.2,0,2.1,0.9,2.1,2.1c0,1.2-0.9,2.1-2.1,2.1s-2.1-0.9-2.1-2.1S464.8,42.3,465.9,42.3z"/>
					<path class="st3" d="M465.9,28.2c1.2,0,2.1,0.9,2.1,2.1s-0.9,2.1-2.1,2.1s-2.1-0.9-2.1-2.1C463.8,29.2,464.8,28.2,465.9,28.2z"
						/>
					<path class="st3" d="M465.9,14.2c1.2,0,2.1,0.9,2.1,2.1s-0.9,2.1-2.1,2.1s-2.1-0.9-2.1-2.1C463.8,15.1,464.8,14.2,465.9,14.2z"
						/>
					<path class="st3" d="M465.9,0.1c1.2,0,2.1,0.9,2.1,2.1s-0.9,2.1-2.1,2.1s-2.1-0.9-2.1-2.1S464.8,0.1,465.9,0.1z"/>
					<path class="st3" d="M465.9-14c1.2,0,2.1,0.9,2.1,2.1s-0.9,2.1-2.1,2.1s-2.1-0.9-2.1-2.1C463.8-13,464.8-14,465.9-14z"/>
					<path class="st3" d="M465.9-28c1.2,0,2.1,0.9,2.1,2.1s-0.9,2.1-2.1,2.1s-2.1-0.9-2.1-2.1S464.8-28,465.9-28z"/>
					<path class="st3" d="M465.9-42.1c1.2,0,2.1,0.9,2.1,2.1c0,1.2-0.9,2.1-2.1,2.1s-2.1-0.9-2.1-2.1
						C463.8-41.2,464.8-42.1,465.9-42.1z"/>
					<path class="st3" d="M465.9-56.2c1.2,0,2.1,0.9,2.1,2.1c0,1.2-0.9,2.1-2.1,2.1s-2.1-0.9-2.1-2.1
						C463.8-55.2,464.8-56.2,465.9-56.2z"/>
					<path class="st3" d="M465.9-70.2c1.2,0,2.1,0.9,2.1,2.1s-0.9,2.1-2.1,2.1s-2.1-0.9-2.1-2.1C463.8-69.3,464.8-70.2,465.9-70.2z"
						/>
					<path class="st3" d="M465.9-84.3c1.2,0,2.1,0.9,2.1,2.1s-0.9,2.1-2.1,2.1s-2.1-0.9-2.1-2.1C463.8-83.3,464.8-84.3,465.9-84.3z"
						/>
				</g>
			</g>
		</g>
		<g>
			<g>
				<g>
					<circle class="st3" cx="454.6" cy="58.5" r="2.1"/>
					<circle class="st3" cx="454.6" cy="44.4" r="2.1"/>
					<path class="st3" d="M454.6,28.2c1.2,0,2.1,0.9,2.1,2.1s-0.9,2.1-2.1,2.1s-2.1-0.9-2.1-2.1C452.5,29.2,453.4,28.2,454.6,28.2z"
						/>
					<path class="st3" d="M454.6,14.2c1.2,0,2.1,0.9,2.1,2.1s-0.9,2.1-2.1,2.1s-2.1-0.9-2.1-2.1C452.5,15.1,453.4,14.2,454.6,14.2z"
						/>
					<circle class="st3" cx="454.6" cy="2.2" r="2.1"/>
					<circle class="st3" cx="454.6" cy="-11.9" r="2.1"/>
					<circle class="st3" cx="454.6" cy="-25.9" r="2.1"/>
					<circle class="st3" cx="454.6" cy="-40" r="2.1"/>
					<circle class="st3" cx="454.6" cy="-54.1" r="2.1"/>
					<path class="st3" d="M454.6-70.2c1.2,0,2.1,0.9,2.1,2.1s-0.9,2.1-2.1,2.1s-2.1-0.9-2.1-2.1C452.5-69.3,453.4-70.2,454.6-70.2z"
						/>
					<circle class="st3" cx="454.6" cy="-82.2" r="2.1"/>
				</g>
			</g>
		</g>
	</g>
	<g>
		<g>
			<g>
				<g>
					<path class="st3" d="M500,182.8c1.2,0,2.1,0.9,2.1,2.1c0,1.2-0.9,2.1-2.1,2.1s-2.1-0.9-2.1-2.1
						C497.9,183.8,498.8,182.8,500,182.8z"/>
					<path class="st3" d="M500,168.7c1.2,0,2.1,0.9,2.1,2.1c0,1.2-0.9,2.1-2.1,2.1s-2.1-0.9-2.1-2.1
						C497.9,169.7,498.8,168.7,500,168.7z"/>
					<path class="st3" d="M500,154.7c1.2,0,2.1,0.9,2.1,2.1c0,1.2-0.9,2.1-2.1,2.1s-2.1-0.9-2.1-2.1
						C497.9,155.6,498.8,154.7,500,154.7z"/>
					<path class="st3" d="M500,140.6c1.2,0,2.1,0.9,2.1,2.1s-0.9,2.1-2.1,2.1s-2.1-0.9-2.1-2.1S498.8,140.6,500,140.6z"/>
					<path class="st3" d="M500,126.6c1.2,0,2.1,0.9,2.1,2.1c0,1.2-0.9,2.1-2.1,2.1s-2.1-0.9-2.1-2.1
						C497.9,127.5,498.8,126.6,500,126.6z"/>
					<path class="st3" d="M500,112.5c1.2,0,2.1,0.9,2.1,2.1s-0.9,2.1-2.1,2.1s-2.1-0.9-2.1-2.1S498.8,112.5,500,112.5z"/>
					<path class="st3" d="M500,98.4c1.2,0,2.1,0.9,2.1,2.1s-0.9,2.1-2.1,2.1s-2.1-0.9-2.1-2.1C497.9,99.4,498.8,98.4,500,98.4z"/>
					<path class="st3" d="M500,84.4c1.2,0,2.1,0.9,2.1,2.1s-0.9,2.1-2.1,2.1s-2.1-0.9-2.1-2.1S498.8,84.4,500,84.4z"/>
					<path class="st3" d="M500,70.3c1.2,0,2.1,0.9,2.1,2.1s-0.9,2.1-2.1,2.1s-2.1-0.9-2.1-2.1C497.9,71.2,498.8,70.3,500,70.3z"/>
					<path class="st3" d="M500,56.2c1.2,0,2.1,0.9,2.1,2.1c0,1.2-0.9,2.1-2.1,2.1s-2.1-0.9-2.1-2.1C497.9,57.2,498.8,56.2,500,56.2z
						"/>
				</g>
			</g>
		</g>
		<g>
			<g>
				<g>
					<path class="st3" d="M488.6,182.8c1.2,0,2.1,0.9,2.1,2.1c0,1.2-0.9,2.1-2.1,2.1s-2.1-0.9-2.1-2.1
						C486.5,183.8,487.5,182.8,488.6,182.8z"/>
					<path class="st3" d="M488.6,168.7c1.2,0,2.1,0.9,2.1,2.1c0,1.2-0.9,2.1-2.1,2.1s-2.1-0.9-2.1-2.1
						C486.5,169.7,487.5,168.7,488.6,168.7z"/>
					<path class="st3" d="M488.6,154.7c1.2,0,2.1,0.9,2.1,2.1c0,1.2-0.9,2.1-2.1,2.1s-2.1-0.9-2.1-2.1
						C486.5,155.6,487.5,154.7,488.6,154.7z"/>
					<path class="st3" d="M488.6,140.6c1.2,0,2.1,0.9,2.1,2.1s-0.9,2.1-2.1,2.1s-2.1-0.9-2.1-2.1S487.5,140.6,488.6,140.6z"/>
					<path class="st3" d="M488.6,126.6c1.2,0,2.1,0.9,2.1,2.1c0,1.2-0.9,2.1-2.1,2.1s-2.1-0.9-2.1-2.1
						C486.5,127.5,487.5,126.6,488.6,126.6z"/>
					<path class="st3" d="M488.6,112.5c1.2,0,2.1,0.9,2.1,2.1s-0.9,2.1-2.1,2.1s-2.1-0.9-2.1-2.1S487.5,112.5,488.6,112.5z"/>
					<path class="st3" d="M488.6,98.4c1.2,0,2.1,0.9,2.1,2.1s-0.9,2.1-2.1,2.1s-2.1-0.9-2.1-2.1C486.5,99.4,487.5,98.4,488.6,98.4z"
						/>
					<path class="st3" d="M488.6,84.4c1.2,0,2.1,0.9,2.1,2.1s-0.9,2.1-2.1,2.1s-2.1-0.9-2.1-2.1S487.5,84.4,488.6,84.4z"/>
					<path class="st3" d="M488.6,70.3c1.2,0,2.1,0.9,2.1,2.1s-0.9,2.1-2.1,2.1s-2.1-0.9-2.1-2.1C486.5,71.2,487.5,70.3,488.6,70.3z"
						/>
					<path class="st3" d="M488.6,56.2c1.2,0,2.1,0.9,2.1,2.1c0,1.2-0.9,2.1-2.1,2.1s-2.1-0.9-2.1-2.1
						C486.5,57.2,487.5,56.2,488.6,56.2z"/>
				</g>
			</g>
		</g>
		<g>
			<g>
				<g>
					<path class="st3" d="M477.3,182.8c1.2,0,2.1,0.9,2.1,2.1c0,1.2-0.9,2.1-2.1,2.1s-2.1-0.9-2.1-2.1
						C475.2,183.8,476.1,182.8,477.3,182.8z"/>
					<path class="st3" d="M477.3,168.7c1.2,0,2.1,0.9,2.1,2.1c0,1.2-0.9,2.1-2.1,2.1s-2.1-0.9-2.1-2.1
						C475.2,169.7,476.1,168.7,477.3,168.7z"/>
					<path class="st3" d="M477.3,154.7c1.2,0,2.1,0.9,2.1,2.1c0,1.2-0.9,2.1-2.1,2.1s-2.1-0.9-2.1-2.1
						C475.2,155.6,476.1,154.7,477.3,154.7z"/>
					<path class="st3" d="M477.3,140.6c1.2,0,2.1,0.9,2.1,2.1s-0.9,2.1-2.1,2.1s-2.1-0.9-2.1-2.1S476.1,140.6,477.3,140.6z"/>
					<path class="st3" d="M477.3,126.6c1.2,0,2.1,0.9,2.1,2.1c0,1.2-0.9,2.1-2.1,2.1s-2.1-0.9-2.1-2.1
						C475.2,127.5,476.1,126.6,477.3,126.6z"/>
					<path class="st3" d="M477.3,112.5c1.2,0,2.1,0.9,2.1,2.1s-0.9,2.1-2.1,2.1s-2.1-0.9-2.1-2.1
						C475.2,113.4,476.1,112.5,477.3,112.5z"/>
					<path class="st3" d="M477.3,98.4c1.2,0,2.1,0.9,2.1,2.1s-0.9,2.1-2.1,2.1s-2.1-0.9-2.1-2.1C475.2,99.4,476.1,98.4,477.3,98.4z"
						/>
					<path class="st3" d="M477.3,84.4c1.2,0,2.1,0.9,2.1,2.1s-0.9,2.1-2.1,2.1s-2.1-0.9-2.1-2.1C475.2,85.3,476.1,84.4,477.3,84.4z"
						/>
					<path class="st3" d="M477.3,70.3c1.2,0,2.1,0.9,2.1,2.1s-0.9,2.1-2.1,2.1s-2.1-0.9-2.1-2.1C475.2,71.2,476.1,70.3,477.3,70.3z"
						/>
					<path class="st3" d="M477.3,56.2c1.2,0,2.1,0.9,2.1,2.1c0,1.2-0.9,2.1-2.1,2.1s-2.1-0.9-2.1-2.1
						C475.2,57.2,476.1,56.2,477.3,56.2z"/>
				</g>
			</g>
		</g>
		<g>
			<g>
				<g>
					<path class="st3" d="M465.9,182.8c1.2,0,2.1,0.9,2.1,2.1c0,1.2-0.9,2.1-2.1,2.1s-2.1-0.9-2.1-2.1
						C463.8,183.8,464.8,182.8,465.9,182.8z"/>
					<path class="st3" d="M465.9,168.7c1.2,0,2.1,0.9,2.1,2.1c0,1.2-0.9,2.1-2.1,2.1s-2.1-0.9-2.1-2.1
						C463.8,169.7,464.8,168.7,465.9,168.7z"/>
					<path class="st3" d="M465.9,154.7c1.2,0,2.1,0.9,2.1,2.1c0,1.2-0.9,2.1-2.1,2.1s-2.1-0.9-2.1-2.1
						C463.8,155.6,464.8,154.7,465.9,154.7z"/>
					<path class="st3" d="M465.9,140.6c1.2,0,2.1,0.9,2.1,2.1s-0.9,2.1-2.1,2.1s-2.1-0.9-2.1-2.1S464.8,140.6,465.9,140.6z"/>
					<path class="st3" d="M465.9,126.6c1.2,0,2.1,0.9,2.1,2.1c0,1.2-0.9,2.1-2.1,2.1s-2.1-0.9-2.1-2.1
						C463.8,127.5,464.8,126.6,465.9,126.6z"/>
					<path class="st3" d="M465.9,112.5c1.2,0,2.1,0.9,2.1,2.1s-0.9,2.1-2.1,2.1s-2.1-0.9-2.1-2.1S464.8,112.5,465.9,112.5z"/>
					<path class="st3" d="M465.9,98.4c1.2,0,2.1,0.9,2.1,2.1s-0.9,2.1-2.1,2.1s-2.1-0.9-2.1-2.1C463.8,99.4,464.8,98.4,465.9,98.4z"
						/>
					<path class="st3" d="M465.9,84.4c1.2,0,2.1,0.9,2.1,2.1s-0.9,2.1-2.1,2.1s-2.1-0.9-2.1-2.1S464.8,84.4,465.9,84.4z"/>
					<path class="st3" d="M465.9,70.3c1.2,0,2.1,0.9,2.1,2.1s-0.9,2.1-2.1,2.1s-2.1-0.9-2.1-2.1C463.8,71.2,464.8,70.3,465.9,70.3z"
						/>
					<path class="st3" d="M465.9,56.2c1.2,0,2.1,0.9,2.1,2.1c0,1.2-0.9,2.1-2.1,2.1s-2.1-0.9-2.1-2.1
						C463.8,57.2,464.8,56.2,465.9,56.2z"/>
				</g>
			</g>
		</g>
		<g>
			<g>
				<g>
					<path class="st3" d="M454.6,182.8c1.2,0,2.1,0.9,2.1,2.1c0,1.2-0.9,2.1-2.1,2.1s-2.1-0.9-2.1-2.1
						C452.5,183.8,453.4,182.8,454.6,182.8z"/>
					<circle class="st3" cx="454.6" cy="170.9" r="2.1"/>
					<circle class="st3" cx="454.6" cy="156.8" r="2.1"/>
					<circle class="st3" cx="454.6" cy="142.7" r="2.1"/>
					<circle class="st3" cx="454.6" cy="128.7" r="2.1"/>
					<circle class="st3" cx="454.6" cy="114.6" r="2.1"/>
					<path class="st3" d="M454.6,98.4c1.2,0,2.1,0.9,2.1,2.1s-0.9,2.1-2.1,2.1s-2.1-0.9-2.1-2.1C452.5,99.4,453.4,98.4,454.6,98.4z"
						/>
					<path class="st3" d="M454.6,84.4c1.2,0,2.1,0.9,2.1,2.1s-0.9,2.1-2.1,2.1s-2.1-0.9-2.1-2.1S453.4,84.4,454.6,84.4z"/>
					<circle class="st3" cx="454.6" cy="72.4" r="2.1"/>
					<circle class="st3" cx="454.6" cy="58.3" r="2.1"/>
				</g>
			</g>
		</g>
	</g>
</g>
<circle class="st4" cx="192.8" cy="80.5" r="231.1"/>
<g>
	<g>
		<g>
			<g>
				<path class="st3" d="M-13.2,166.9c0,1.3-1,2.3-2.3,2.3s-2.3-1-2.3-2.3s1-2.3,2.3-2.3S-13.2,165.6-13.2,166.9z"/>
				<path class="st3" d="M2.3,166.9c0,1.3-1,2.3-2.3,2.3s-2.3-1-2.3-2.3s1-2.3,2.3-2.3C1.3,164.5,2.3,165.6,2.3,166.9z"/>
				<path class="st3" d="M17.9,166.9c0,1.3-1,2.3-2.3,2.3s-2.3-1-2.3-2.3s1-2.3,2.3-2.3S17.9,165.6,17.9,166.9z"/>
				<path class="st3" d="M33.5,166.9c0,1.3-1,2.3-2.3,2.3s-2.3-1-2.3-2.3s1-2.3,2.3-2.3S33.5,165.6,33.5,166.9z"/>
				<path class="st3" d="M49,166.9c0,1.3-1,2.3-2.3,2.3s-2.3-1-2.3-2.3s1-2.3,2.3-2.3S49,165.6,49,166.9z"/>
				<path class="st3" d="M64.6,166.9c0,1.3-1,2.3-2.3,2.3s-2.3-1-2.3-2.3s1-2.3,2.3-2.3S64.6,165.6,64.6,166.9z"/>
				<path class="st3" d="M80.1,166.9c0,1.3-1,2.3-2.3,2.3s-2.3-1-2.3-2.3s1-2.3,2.3-2.3C79.1,164.5,80.1,165.6,80.1,166.9z"/>
			</g>
		</g>
	</g>
	<g>
		<g>
			<g>
				<path class="st3" d="M-13.2,178.9c0,1.3-1,2.3-2.3,2.3s-2.3-1-2.3-2.3s1-2.3,2.3-2.3S-13.2,177.7-13.2,178.9z"/>
				<path class="st3" d="M2.3,178.9c0,1.3-1,2.3-2.3,2.3s-2.3-1-2.3-2.3s1-2.3,2.3-2.3C1.3,176.6,2.3,177.7,2.3,178.9z"/>
				<path class="st3" d="M17.9,178.9c0,1.3-1,2.3-2.3,2.3s-2.3-1-2.3-2.3s1-2.3,2.3-2.3S17.9,177.7,17.9,178.9z"/>
				<path class="st3" d="M33.5,178.9c0,1.3-1,2.3-2.3,2.3s-2.3-1-2.3-2.3s1-2.3,2.3-2.3S33.5,177.7,33.5,178.9z"/>
				<path class="st3" d="M49,178.9c0,1.3-1,2.3-2.3,2.3s-2.3-1-2.3-2.3s1-2.3,2.3-2.3S49,177.7,49,178.9z"/>
				<path class="st3" d="M64.6,178.9c0,1.3-1,2.3-2.3,2.3s-2.3-1-2.3-2.3s1-2.3,2.3-2.3S64.6,177.7,64.6,178.9z"/>
				<path class="st3" d="M80.1,178.9c0,1.3-1,2.3-2.3,2.3s-2.3-1-2.3-2.3s1-2.3,2.3-2.3C79.1,176.6,80.1,177.7,80.1,178.9z"/>
			</g>
		</g>
	</g>
</g>
<g>
	<g>
		<g>
			<g>
				<path class="st3" d="M334.2,492.8c1,0,1.9,0.8,1.9,1.9s-0.8,1.9-1.9,1.9c-1,0-1.9-0.8-1.9-1.9S333.1,492.8,334.2,492.8z"/>
				<path class="st3" d="M334.2,480.3c1,0,1.9,0.8,1.9,1.9c0,1-0.8,1.9-1.9,1.9c-1,0-1.9-0.8-1.9-1.9
					C332.3,481.2,333.1,480.3,334.2,480.3z"/>
				<path class="st3" d="M334.2,467.8c1,0,1.9,0.8,1.9,1.9s-0.8,1.9-1.9,1.9c-1,0-1.9-0.8-1.9-1.9S333.1,467.8,334.2,467.8z"/>
				<path class="st3" d="M334.2,455.3c1,0,1.9,0.8,1.9,1.9c0,1-0.8,1.9-1.9,1.9c-1,0-1.9-0.8-1.9-1.9
					C332.3,456.2,333.1,455.3,334.2,455.3z"/>
				<path class="st3" d="M334.2,442.8c1,0,1.9,0.8,1.9,1.9c0,1-0.8,1.9-1.9,1.9c-1,0-1.9-0.8-1.9-1.9
					C332.3,443.7,333.1,442.8,334.2,442.8z"/>
				<path class="st3" d="M334.2,430.3c1,0,1.9,0.8,1.9,1.9s-0.8,1.9-1.9,1.9c-1,0-1.9-0.8-1.9-1.9S333.1,430.3,334.2,430.3z"/>
				<path class="st3" d="M334.2,417.8c1,0,1.9,0.8,1.9,1.9c0,1-0.8,1.9-1.9,1.9c-1,0-1.9-0.8-1.9-1.9
					C332.3,418.7,333.1,417.8,334.2,417.8z"/>
			</g>
		</g>
	</g>
	<g>
		<g>
			<g>
				<path class="st3" d="M343.9,492.8c1,0,1.9,0.8,1.9,1.9s-0.8,1.9-1.9,1.9c-1,0-1.9-0.8-1.9-1.9S342.8,492.8,343.9,492.8z"/>
				<path class="st3" d="M343.9,480.3c1,0,1.9,0.8,1.9,1.9c0,1-0.8,1.9-1.9,1.9c-1,0-1.9-0.8-1.9-1.9
					C342,481.2,342.8,480.3,343.9,480.3z"/>
				<path class="st3" d="M343.9,467.8c1,0,1.9,0.8,1.9,1.9s-0.8,1.9-1.9,1.9c-1,0-1.9-0.8-1.9-1.9S342.8,467.8,343.9,467.8z"/>
				<path class="st3" d="M343.9,455.3c1,0,1.9,0.8,1.9,1.9c0,1-0.8,1.9-1.9,1.9c-1,0-1.9-0.8-1.9-1.9
					C342,456.2,342.8,455.3,343.9,455.3z"/>
				<path class="st3" d="M343.9,442.8c1,0,1.9,0.8,1.9,1.9c0,1-0.8,1.9-1.9,1.9c-1,0-1.9-0.8-1.9-1.9
					C342,443.7,342.8,442.8,343.9,442.8z"/>
				<path class="st3" d="M343.9,430.3c1,0,1.9,0.8,1.9,1.9s-0.8,1.9-1.9,1.9c-1,0-1.9-0.8-1.9-1.9S342.8,430.3,343.9,430.3z"/>
				<path class="st3" d="M343.9,417.8c1,0,1.9,0.8,1.9,1.9c0,1-0.8,1.9-1.9,1.9c-1,0-1.9-0.8-1.9-1.9
					C342,418.7,342.8,417.8,343.9,417.8z"/>
			</g>
		</g>
	</g>
</g>
</svg>
