<?xml version="1.0" encoding="utf-8"?>
<!-- Generator: Adobe Illustrator 24.3.0, SVG Export Plug-In . SVG Version: 6.00 Build 0)  -->
<svg version="1.1" id="圖層_1" xmlns="http://www.w3.org/2000/svg" xmlns:xlink="http://www.w3.org/1999/xlink" x="0px" y="0px"
	 viewBox="0 0 1920 1080" style="enable-background:new 0 0 1920 1080;" xml:space="preserve">
<style type="text/css">
	.st0{opacity:0.2;}
	.st1{fill:#FFFFFF;}
	.st2{fill:#E6E6E6;stroke:#040000;stroke-width:1.5;stroke-miterlimit:10;}
</style>
<g class="st0">
	<g>
		<g>
			<g>
				<g>
					<circle class="st1" cx="1565.8" cy="232.4" r="5.4"/>
					<circle class="st1" cx="1601.5" cy="232.4" r="5.4"/>
					<circle class="st1" cx="1637.2" cy="232.4" r="5.4"/>
					<circle class="st1" cx="1672.8" cy="232.4" r="5.4"/>
					<circle class="st1" cx="1708.5" cy="232.4" r="5.4"/>
					<circle class="st1" cx="1744.2" cy="232.4" r="5.4"/>
					<circle class="st1" cx="1779.8" cy="232.4" r="5.4"/>
					<circle class="st1" cx="1815.5" cy="232.4" r="5.4"/>
					<circle class="st1" cx="1851.2" cy="232.4" r="5.4"/>
					<circle class="st1" cx="1886.8" cy="232.4" r="5.4"/>
					<circle class="st1" cx="1922.5" cy="232.4" r="5.4"/>
				</g>
			</g>
		</g>
		<g>
			<g>
				<g>
					<circle class="st1" cx="1565.8" cy="203.6" r="5.4"/>
					<circle class="st1" cx="1601.5" cy="203.6" r="5.4"/>
					<circle class="st1" cx="1637.2" cy="203.6" r="5.4"/>
					<circle class="st1" cx="1672.8" cy="203.6" r="5.4"/>
					<circle class="st1" cx="1708.5" cy="203.6" r="5.4"/>
					<circle class="st1" cx="1744.2" cy="203.6" r="5.4"/>
					<circle class="st1" cx="1779.8" cy="203.6" r="5.4"/>
					<circle class="st1" cx="1815.5" cy="203.6" r="5.4"/>
					<circle class="st1" cx="1851.2" cy="203.6" r="5.4"/>
					<circle class="st1" cx="1886.8" cy="203.6" r="5.4"/>
					<circle class="st1" cx="1922.5" cy="203.6" r="5.4"/>
				</g>
			</g>
		</g>
		<g>
			<g>
				<g>
					<circle class="st1" cx="1565.8" cy="174.8" r="5.4"/>
					<circle class="st1" cx="1601.5" cy="174.8" r="5.4"/>
					<circle class="st1" cx="1637.2" cy="174.8" r="5.4"/>
					<circle class="st1" cx="1672.8" cy="174.8" r="5.4"/>
					<circle class="st1" cx="1708.5" cy="174.8" r="5.4"/>
					<circle class="st1" cx="1744.2" cy="174.8" r="5.4"/>
					<circle class="st1" cx="1779.8" cy="174.8" r="5.4"/>
					<circle class="st1" cx="1815.5" cy="174.8" r="5.4"/>
					<circle class="st1" cx="1851.2" cy="174.8" r="5.4"/>
					<circle class="st1" cx="1886.8" cy="174.8" r="5.4"/>
					<circle class="st1" cx="1922.5" cy="174.8" r="5.4"/>
				</g>
			</g>
		</g>
		<g>
			<g>
				<g>
					<circle class="st1" cx="1565.8" cy="146" r="5.4"/>
					<circle class="st1" cx="1601.5" cy="146" r="5.4"/>
					<circle class="st1" cx="1637.2" cy="146" r="5.4"/>
					<circle class="st1" cx="1672.8" cy="146" r="5.4"/>
					<circle class="st1" cx="1708.5" cy="146" r="5.4"/>
					<circle class="st1" cx="1744.2" cy="146" r="5.4"/>
					<circle class="st1" cx="1779.8" cy="146" r="5.4"/>
					<circle class="st1" cx="1815.5" cy="146" r="5.4"/>
					<circle class="st1" cx="1851.2" cy="146" r="5.4"/>
					<circle class="st1" cx="1886.8" cy="146" r="5.4"/>
					<circle class="st1" cx="1922.5" cy="146" r="5.4"/>
				</g>
			</g>
		</g>
		<g>
			<g>
				<g>
					<circle class="st1" cx="1565.8" cy="117.3" r="5.4"/>
					<circle class="st1" cx="1601.5" cy="117.3" r="5.4"/>
					<circle class="st1" cx="1637.2" cy="117.3" r="5.4"/>
					<circle class="st1" cx="1672.8" cy="117.3" r="5.4"/>
					<circle class="st1" cx="1708.5" cy="117.3" r="5.4"/>
					<circle class="st1" cx="1744.2" cy="117.3" r="5.4"/>
					<circle class="st1" cx="1779.8" cy="117.3" r="5.4"/>
					<circle class="st1" cx="1815.5" cy="117.3" r="5.4"/>
					<circle class="st1" cx="1851.2" cy="117.3" r="5.4"/>
					<circle class="st1" cx="1886.8" cy="117.3" r="5.4"/>
					<circle class="st1" cx="1922.5" cy="117.3" r="5.4"/>
				</g>
			</g>
		</g>
	</g>
	<g>
		<g>
			<g>
				<g>
					<circle class="st1" cx="1245.1" cy="232.4" r="5.4"/>
					<circle class="st1" cx="1280.8" cy="232.4" r="5.4"/>
					<circle class="st1" cx="1316.4" cy="232.4" r="5.4"/>
					<circle class="st1" cx="1352.1" cy="232.4" r="5.4"/>
					<circle class="st1" cx="1387.8" cy="232.4" r="5.4"/>
					<circle class="st1" cx="1423.5" cy="232.4" r="5.4"/>
					<circle class="st1" cx="1459.1" cy="232.4" r="5.4"/>
					<circle class="st1" cx="1494.8" cy="232.4" r="5.4"/>
					<circle class="st1" cx="1530.5" cy="232.4" r="5.4"/>
					<circle class="st1" cx="1566.1" cy="232.4" r="5.4"/>
				</g>
			</g>
		</g>
		<g>
			<g>
				<g>
					<circle class="st1" cx="1245.1" cy="203.6" r="5.4"/>
					<circle class="st1" cx="1280.8" cy="203.6" r="5.4"/>
					<circle class="st1" cx="1316.4" cy="203.6" r="5.4"/>
					<circle class="st1" cx="1352.1" cy="203.6" r="5.4"/>
					<circle class="st1" cx="1387.8" cy="203.6" r="5.4"/>
					<circle class="st1" cx="1423.5" cy="203.6" r="5.4"/>
					<circle class="st1" cx="1459.1" cy="203.6" r="5.4"/>
					<circle class="st1" cx="1494.8" cy="203.6" r="5.4"/>
					<circle class="st1" cx="1530.5" cy="203.6" r="5.4"/>
					<circle class="st1" cx="1566.1" cy="203.6" r="5.4"/>
				</g>
			</g>
		</g>
		<g>
			<g>
				<g>
					<circle class="st1" cx="1245.1" cy="174.8" r="5.4"/>
					<circle class="st1" cx="1280.8" cy="174.8" r="5.4"/>
					<circle class="st1" cx="1316.4" cy="174.8" r="5.4"/>
					<circle class="st1" cx="1352.1" cy="174.8" r="5.4"/>
					<circle class="st1" cx="1387.8" cy="174.8" r="5.4"/>
					<circle class="st1" cx="1423.5" cy="174.8" r="5.4"/>
					<circle class="st1" cx="1459.1" cy="174.8" r="5.4"/>
					<circle class="st1" cx="1494.8" cy="174.8" r="5.4"/>
					<circle class="st1" cx="1530.5" cy="174.8" r="5.4"/>
					<circle class="st1" cx="1566.1" cy="174.8" r="5.4"/>
				</g>
			</g>
		</g>
		<g>
			<g>
				<g>
					<circle class="st1" cx="1245.1" cy="146" r="5.4"/>
					<circle class="st1" cx="1280.8" cy="146" r="5.4"/>
					<circle class="st1" cx="1316.4" cy="146" r="5.4"/>
					<circle class="st1" cx="1352.1" cy="146" r="5.4"/>
					<circle class="st1" cx="1387.8" cy="146" r="5.4"/>
					<circle class="st1" cx="1423.5" cy="146" r="5.4"/>
					<circle class="st1" cx="1459.1" cy="146" r="5.4"/>
					<circle class="st1" cx="1494.8" cy="146" r="5.4"/>
					<circle class="st1" cx="1530.5" cy="146" r="5.4"/>
					<circle class="st1" cx="1566.1" cy="146" r="5.4"/>
				</g>
			</g>
		</g>
		<g>
			<g>
				<g>
					<circle class="st1" cx="1245.1" cy="117.3" r="5.4"/>
					<circle class="st1" cx="1280.8" cy="117.3" r="5.4"/>
					<circle class="st1" cx="1316.4" cy="117.3" r="5.4"/>
					<circle class="st1" cx="1352.1" cy="117.3" r="5.4"/>
					<circle class="st1" cx="1387.8" cy="117.3" r="5.4"/>
					<circle class="st1" cx="1423.5" cy="117.3" r="5.4"/>
					<circle class="st1" cx="1459.1" cy="117.3" r="5.4"/>
					<circle class="st1" cx="1494.8" cy="117.3" r="5.4"/>
					<circle class="st1" cx="1530.5" cy="117.3" r="5.4"/>
					<circle class="st1" cx="1566.1" cy="117.3" r="5.4"/>
				</g>
			</g>
		</g>
	</g>
</g>
<circle class="st2" cx="960" cy="438.4" r="601.2"/>
<g>
	<g>
		<g>
			<g>
				<circle class="st1" cx="267.8" cy="527.3" r="4.9"/>
				<circle class="st1" cx="300.7" cy="527.3" r="4.9"/>
				<circle class="st1" cx="333.5" cy="527.3" r="4.9"/>
				<circle class="st1" cx="366.3" cy="527.3" r="4.9"/>
				<circle class="st1" cx="399.1" cy="527.3" r="4.9"/>
				<circle class="st1" cx="431.9" cy="527.3" r="4.9"/>
				<circle class="st1" cx="464.7" cy="527.3" r="4.9"/>
			</g>
		</g>
	</g>
	<g>
		<g>
			<g>
				<circle class="st1" cx="267.8" cy="552.7" r="4.9"/>
				<circle class="st1" cx="300.7" cy="552.7" r="4.9"/>
				<circle class="st1" cx="333.5" cy="552.7" r="4.9"/>
				<circle class="st1" cx="366.3" cy="552.7" r="4.9"/>
				<circle class="st1" cx="399.1" cy="552.7" r="4.9"/>
				<circle class="st1" cx="431.9" cy="552.7" r="4.9"/>
				<circle class="st1" cx="464.7" cy="552.7" r="4.9"/>
			</g>
		</g>
	</g>
</g>
</svg>
