<?xml version="1.0" encoding="utf-8"?>
<!-- Generator: Adobe Illustrator 24.3.0, SVG Export Plug-In . SVG Version: 6.00 Build 0)  -->
<svg version="1.1" id="Capa_1" xmlns="http://www.w3.org/2000/svg" xmlns:xlink="http://www.w3.org/1999/xlink" x="0px" y="0px"
	 viewBox="0 0 100 100" style="enable-background:new 0 0 100 100;" xml:space="preserve">
<style type="text/css">
	.st0{fill:#FFFFFF;stroke:#000000;stroke-width:2;stroke-miterlimit:10;}
	.st1{fill:none;stroke:#000000;stroke-width:2;stroke-miterlimit:10;}
</style>
<g>
	<circle class="st0" cx="63.4" cy="39" r="11.5"/>
	<path class="st0" d="M90,93.8l3.8-35.9H33l3.8,35.9H90z M63.4,71.3c3.1,0,5.7,2.5,5.7,5.7c0,3.1-2.5,5.7-5.7,5.7s-5.7-2.5-5.7-5.7
		C57.7,73.8,60.3,71.3,63.4,71.3z"/>
	<path class="st0" d="M76.7,49.4H50.1c-4.2,0-7.6,4.4-7.6,8.6h41.8C84.3,53.7,80.9,49.4,76.7,49.4z"/>
</g>
<path class="st1" d="M89,93.8H10.6c-3.2,0-5.8-2.6-5.8-5.8V12c0-3.2,2.6-5.8,5.8-5.8H89c3.2,0,5.8,2.6,5.8,5.8v76
	C94.8,91.2,92.2,93.8,89,93.8z"/>
<path class="st0" d="M4.8,18.8V13c0-3.8,3-6.8,6.8-6.8H88c3.8,0,6.8,3.1,6.8,6.8v5.8H4.8z"/>
<circle class="st0" cx="14" cy="13.2" r="2"/>
<circle class="st0" cx="20.6" cy="13.2" r="2"/>
<circle class="st0" cx="27.3" cy="13.2" r="2"/>
</svg>
