<?xml version="1.0" encoding="utf-8"?>
<!-- Generator: Adobe Illustrator 24.3.0, SVG Export Plug-In . SVG Version: 6.00 Build 0)  -->
<svg version="1.1" id="Capa_1" xmlns="http://www.w3.org/2000/svg" xmlns:xlink="http://www.w3.org/1999/xlink" x="0px" y="0px"
	 viewBox="0 0 100 100" style="enable-background:new 0 0 100 100;" xml:space="preserve">
<style type="text/css">
	.st0{fill:#FFFFFF;stroke:#000000;stroke-width:2;stroke-miterlimit:10;}
	.st1{fill:#FFFFFF;}
	.st2{fill:none;stroke:#000000;stroke-width:2;stroke-miterlimit:10;}
</style>
<g>
	<path class="st0" d="M32.1,66c-1.1,2.3-0.2,4.9,1.9,5.9c2.2,1,4.8,0,5.8-2.3l18-38.3c1-2.3,0.1-5-2.1-5.9c-2.2-1-4.8,0-5.8,2.3
		L32.1,66"/>
	<g>
		<path class="st1" d="M63.5,68.8c-5.2-1.8-10.6-2.8-15.9-2.8c-2.1,0-4.1,0.1-6.1,0.4l15.1-32.3c3.8,6.2,9.2,11.5,15.7,15.6
			L63.5,68.8z"/>
		<path d="M56.8,36.3c3.6,5.4,8.5,10.1,14.3,13.9L63,67.6c-5-1.7-10.3-2.6-15.4-2.6c-1.5,0-2.9,0.1-4.4,0.2L56.8,36.3 M56.6,32
			L39.8,67.8l1.1-0.2c2.2-0.4,4.5-0.5,6.7-0.5c5.6,0,11.2,1.1,16.4,3l9.7-20.7c-6.7-4-12.6-9.6-16.6-16.4L56.6,32L56.6,32z"/>
	</g>
	<g>
		<path class="st1" d="M83.5,77.4c-0.8,0-1.5-0.2-2.2-0.5l-12.8-6.1l8.7-18.5l12.9,6.1c2.7,1.4,3.9,4.8,2.5,7.6l-3.8,8.1
			C87.8,76.1,85.7,77.4,83.5,77.4C83.5,77.4,83.5,77.4,83.5,77.4z M77.8,60.7c-1.3,0-2.4,0.7-2.9,1.9c-0.4,0.8-0.4,1.8,0,2.7
			c0.3,0.7,0.9,1.3,1.6,1.6l3.8,1.8c0.4,0.2,0.9,0.3,1.3,0.3c1.3,0,2.4-0.7,2.9-1.9c0.4-0.8,0.4-1.8,0-2.7c-0.3-0.7-0.9-1.3-1.6-1.6
			L79.1,61C78.7,60.8,78.3,60.7,77.8,60.7z"/>
		<path d="M77.7,53.7l11.9,5.6c2.2,1.1,3.2,4,2.1,6.3l-3.8,8.1c-0.9,1.7-2.6,2.8-4.4,2.8c-0.6,0-1.2-0.1-1.8-0.4l-11.9-5.6
			L77.7,53.7 M76,67.7l3.8,1.8c0.5,0.2,1.1,0.4,1.7,0.4c1.6,0,3.1-1,3.8-2.5c0.5-1.1,0.5-2.4,0.1-3.5c-0.4-1-1.2-1.7-2.1-2.1
			l-3.8-1.8c-0.5-0.2-1.1-0.4-1.7-0.4c-1.6,0-3.1,1-3.8,2.5c-0.5,1.1-0.5,2.4-0.1,3.5C74.3,66.6,75.1,67.4,76,67.7 M76.7,51
			l-9.5,20.3l13.7,6.5c0.8,0.4,1.7,0.6,2.6,0.6c2.5,0,4.9-1.5,6.2-3.9l3.8-8.1c1.6-3.3,0.2-7.3-3-8.9L76.7,51L76.7,51z M81.6,67.9
			c-0.3,0-0.6-0.1-0.9-0.2l-3.9-1.8c-1.1-0.4-1.5-1.8-1-2.9c0.4-0.8,1.2-1.3,2-1.3c0.3,0,0.6,0.1,0.9,0.2l3.9,1.8
			c1.1,0.4,1.5,1.8,1,2.9C83.2,67.4,82.4,67.9,81.6,67.9L81.6,67.9z"/>
	</g>
	<g>
		<path class="st1" d="M65.2,92.4c-0.5,0-1-0.1-1.4-0.3c-0.8-0.3-1.4-0.9-1.7-1.7c-0.4-0.9-0.3-2,0.1-2.9l1.9-4l-4.7-2.1
			c-2.7-1.4-3.9-4.8-2.5-7.5l1.1-2.2c0.8,0.2,1.5,0.4,2.3,0.7L59,74.9c-0.4,0.8-0.4,1.8-0.1,2.7c0.3,0.7,0.9,1.3,1.6,1.6l4.6,2.2
			l2.8-5.7l6.1,2.9l-5.9,11.9C67.6,91.6,66.5,92.4,65.2,92.4L65.2,92.4z"/>
		<path d="M58.4,72.9c0.1,0,0.3,0.1,0.4,0.1l-0.7,1.5c-0.5,1.1-0.5,2.4-0.1,3.5c0.4,1,1.1,1.7,2.1,2.1l3.7,1.8l1.8,0.8l0.9-1.8
			l1.9-3.9l4.3,2l-5.4,11l0,0l0,0c-0.4,0.9-1.2,1.4-2.1,1.4c-0.3,0-0.7-0.1-1-0.2l-0.1,0l-0.1,0c-0.6-0.3-0.9-0.7-1.1-1.1
			c-0.3-0.7-0.3-1.4,0-2.1l1.5-3.1l0.9-1.9l-1.9-0.8l-3.8-1.7c-2.2-1.1-3.2-4-2.1-6.2L58.4,72.9 M57.3,70.5l-1.4,2.9
			c-1.6,3.3-0.2,7.3,3,8.9l3.8,1.7l-1.5,3.1c-1,2.3-0.1,5,2.1,5.9c0.6,0.3,1.2,0.4,1.9,0.4c1.6,0,3.2-1,3.9-2.6L75.4,78l-7.9-3.7
			L64.7,80l-3.8-1.8c-1.1-0.4-1.5-1.8-1-2.9l1.6-3.5C60.1,71.3,58.7,70.8,57.3,70.5L57.3,70.5z"/>
	</g>
</g>
<path class="st2" d="M89,93.8H10.6c-3.2,0-5.8-2.6-5.8-5.8V12c0-3.2,2.6-5.8,5.8-5.8H89c3.2,0,5.8,2.6,5.8,5.8v76
	C94.8,91.2,92.2,93.8,89,93.8z"/>
<path class="st0" d="M4.8,18.8V13c0-3.8,3-6.8,6.8-6.8H88c3.8,0,6.8,3.1,6.8,6.8v5.8H4.8z"/>
<circle class="st0" cx="14" cy="13.2" r="2"/>
<circle class="st0" cx="20.6" cy="13.2" r="2"/>
<circle class="st0" cx="27.3" cy="13.2" r="2"/>
</svg>
