<?xml version="1.0" encoding="utf-8"?>
<!-- Generator: Adobe Illustrator 24.3.0, SVG Export Plug-In . SVG Version: 6.00 Build 0)  -->
<svg version="1.1" id="Capa_1" xmlns="http://www.w3.org/2000/svg" xmlns:xlink="http://www.w3.org/1999/xlink" x="0px" y="0px"
	 viewBox="0 0 100 100" style="enable-background:new 0 0 100 100;" xml:space="preserve">
<style type="text/css">
	.st0{fill:#FFFFFF;}
	.st1{fill:#FFFFFF;stroke:#000000;stroke-width:2;stroke-miterlimit:10;}
	.st2{fill:none;stroke:#000000;stroke-width:2;stroke-miterlimit:10;}
</style>
<g>
	<g>
		<path class="st0" d="M55.8,70.1v-7.9L21.7,50.7V40.1h21.5V28.4h32.3v11.9h19.3v9.7L62,62.7v7.5H55.8z M46.1,40.2h26.2v-8.8H46.1
			V40.2z"/>
		<path d="M74.5,29.4v9.9v2h2h4.9h12.4v8L62.3,61.5L61,62v1.4v5.8h-4.2v-6.2v-1.4L55.4,61L22.7,49.9v-8.8h16.1h3.4h2v-2v-9.7H74.5
			 M45.1,41.2h2h24.2h2v-2v-6.8v-2h-2H47.1h-2v2v6.8V41.2 M76.5,27.4H42.2v11.7h-3.4H20.7v12.1l0.5,0.3l33.6,11.4v8.2H63v-7.8
			l32.8-12.6V39.3H81.4h0c0,0,0,0,0,0h-4.9V27.4L76.5,27.4z M47.1,39.2v-6.8c0.1,0,24.2,0,24.2,0v6.8H47.1L47.1,39.2z"/>
	</g>
	<polygon class="st1" points="65.9,74.7 50.2,74.7 50.3,65.2 20.7,55.1 20.7,70.7 20.7,86.1 94.8,86.1 94.8,70.7 94.8,54.2 
		65.9,65.4 	"/>
</g>
<path class="st2" d="M89,93.8H10.6c-3.2,0-5.8-2.6-5.8-5.8V12c0-3.2,2.6-5.8,5.8-5.8H89c3.2,0,5.8,2.6,5.8,5.8v76
	C94.8,91.2,92.2,93.8,89,93.8z"/>
<path class="st1" d="M4.8,18.8V13c0-3.8,3-6.8,6.8-6.8H88c3.8,0,6.8,3.1,6.8,6.8v5.8H4.8z"/>
<circle class="st1" cx="14" cy="13.2" r="2"/>
<circle class="st1" cx="20.6" cy="13.2" r="2"/>
<circle class="st1" cx="27.3" cy="13.2" r="2"/>
</svg>
