<?xml version="1.0" encoding="utf-8"?>
<!-- Generator: Adobe Illustrator 24.3.0, SVG Export Plug-In . SVG Version: 6.00 Build 0)  -->
<svg version="1.1" id="圖層_1" xmlns="http://www.w3.org/2000/svg" xmlns:xlink="http://www.w3.org/1999/xlink" x="0px" y="0px"
	 viewBox="0 0 650 571.4" style="enable-background:new 0 0 650 571.4;" xml:space="preserve">
<style type="text/css">
	.st0{fill:#7C7C7C;stroke:#000000;stroke-width:1.5;stroke-miterlimit:10;}
	.st1{fill:#FFE500;stroke:#000000;stroke-width:1.5;stroke-miterlimit:10;}
	.st2{fill:#7DD676;stroke:#000000;stroke-width:1.5;stroke-miterlimit:10;}
	.st3{fill:#56B552;stroke:#000000;stroke-width:1.5;stroke-miterlimit:10;}
	.st4{fill:#FFFFFF;}
	.st5{fill:#595959;}
	.st6{fill:#7C7C7C;}
	.st7{fill:#E6E6E6;}
	.st8{fill:#FFE500;stroke:#000000;stroke-width:1.5;stroke-miterlimit:9.9999;}
	.st9{fill:#7C7C7C;stroke:#000000;stroke-width:1.5;stroke-miterlimit:9.9999;}
	.st10{enable-background:new    ;}
	.st11{fill:#56B552;}
	.st12{fill:none;stroke:#000000;stroke-miterlimit:10;}
</style>
<path class="st0" d="M6.1,57.6l45.2,78.3h409.1l45.3-78.4c3.1-5.4-0.8-12.3-7-12.3H13.1C6.9,45.3,3,52.1,6.1,57.6z"/>
<polygon class="st1" points="103.6,226.6 408.2,226.6 460.5,135.9 51.3,135.9 "/>
<polygon class="st2" points="156,317.2 355.9,317.2 408.2,226.6 103.6,226.6 "/>
<path class="st3" d="M248.9,478c3.1,5.4,10.9,5.4,14.2,0l92.8-160.8H156L248.9,478z"/>
<g>
	<path class="st4" d="M204.1,75.3l2.6,1.5c-1,2.7-2.2,5.9-3.3,8.3c2.3,2.6,2.8,4.8,2.8,6.8s-0.5,3.5-1.6,4.3c-0.5,0.4-1.2,0.6-2,0.7
		c-0.7,0.1-1.6,0.1-2.5,0c0-1-0.4-2.4-1-3.4c0.7,0.1,1.3,0.1,1.8,0c0.4,0,0.8-0.1,1.1-0.3c0.4-0.3,0.7-1,0.7-1.9
		c0-1.6-0.6-3.6-2.8-5.9c0.8-1.9,1.6-4.4,2.2-6.6h-3v24.3h-3.5V75.3h7.8H204.1z M216.7,78.8c-0.3,1.4-0.6,2.8-1,3.9h6.8v20.4h-3.6
		v-2h-7.8v2h-3.6V82.8h4.8c0.2-1.2,0.4-2.6,0.5-3.9h-6.1v-3.5h16.6v3.5L216.7,78.8L216.7,78.8z M218.8,86.1H211v4.3h7.8V86.1z
		 M218.8,97.8v-4.3H211v4.3H218.8z"/>
	<path class="st4" d="M254.4,98.8v3.6h-28v-3.6h12v-6.2h-8.5V89h8.5v-5.5H232c-0.9,1.7-1.9,3.3-2.9,4.5c-0.7-0.6-2.4-1.7-3.3-2.2
		c2.4-2.6,4.4-6.9,5.5-11.1l3.8,0.8c-0.4,1.5-0.9,2.9-1.4,4.4h4.8v-5.6h3.9v5.6h10.5v3.6h-10.5V89h9.3v3.6h-9.3v6.2
		C242.4,98.8,254.4,98.8,254.4,98.8z"/>
	<path class="st4" d="M280.7,83.5c-1.4,2.2-3.3,4.2-5.5,5.8c3.2,1.2,6.9,2,10.9,2.3c-0.8,0.8-1.9,2.5-2.3,3.6
		c-1.2-0.2-2.2-0.4-3.3-0.5v8.7h-3.8v-0.9h-10.5v1h-3.6V95c-1.3,0.4-2.7,0.6-4.1,0.9c-0.4-1-1.2-2.5-1.8-3.3c3.8-0.5,7.7-1.5,11.1-3
		c-1-0.7-1.9-1.4-2.8-2.3c-1.2,0.7-2.4,1.4-3.8,2c-0.5-0.9-1.7-2.2-2.5-2.8c4.4-1.6,7.2-3.9,8.7-6.2h-5.8v3.5H258v-6.9h11.6
		c-0.4-0.7-0.7-1.4-1.1-2l3.7-0.9c0.4,0.9,1.1,2,1.6,2.9h10.9v6.9h-3.8v-3.5h-13l3.5,0.7c-0.3,0.4-0.6,0.8-1,1.2h6.9l0.6-0.2
		L280.7,83.5z M276.7,99.3v-2.7h-10.5v2.7H276.7z M276.8,93.6c-1.9-0.6-3.6-1.2-5.3-2c-1.5,0.8-3.2,1.5-4.9,2H276.8z M267.8,85.1
		c1.1,1,2.3,1.8,3.6,2.6c1.3-0.8,2.6-1.7,3.6-2.7h-7L267.8,85.1z"/>
	<path class="st4" d="M302,91.3v10.5h-7.3v1.5h-3.4v-7.2c-0.4,0.4-0.8,1-1.2,1.4c-0.4-0.7-1.6-2-2.3-2.7c1.6-1.6,2.7-3.6,3.5-6h-1.5
		v-3.1h2.3c0.1-0.6,0.2-1.2,0.4-2h-4.2v-3.1h4.4c0.1-0.6,0.1-1.3,0.1-2H290v-3.1h11.5v5.2h1.5v3.1h-1.5v5.1h-6.8
		c-0.2,0.8-0.4,1.6-0.7,2.4C294,91.3,302,91.3,302,91.3z M294.7,94.5v4.2h3.7v-4.2H294.7z M295.6,83.9c-0.1,0.6-0.2,1.2-0.3,2h2.6
		v-2H295.6z M296.1,78.8c-0.1,0.7-0.1,1.3-0.2,2h2v-2H296.1z M317.2,96.5h-5.6v6.9H308v-6.9h-5.3V93h5.3v-3.3h-4.2v-3.4h4.2v-2.8
		h-4.5v-3.3h1.9c-0.3-1.4-1-3.3-1.8-4.8l2.9-1.1c1,1.6,1.8,3.6,2.1,5.1l-2,0.7h6.8l-2.6-0.7c0.6-1.4,1.5-3.7,1.9-5.3l3.6,0.8
		c-0.8,1.9-1.6,3.8-2.3,5.2h2.7v3.3h-5v2.8h4.4v3.4h-4.4v3.3h5.6L317.2,96.5L317.2,96.5z"/>
</g>
<g>
	<path d="M199.2,180.8c-1-1-3.1-2.6-4.6-3.6l2.3-2.5c1.5,0.9,3.6,2.4,4.7,3.3L199.2,180.8z M195.2,192.8c1.2-2.4,2.8-6.3,4.1-10
		l3,1.9c-1.1,3.3-2.4,6.9-3.6,10L195.2,192.8z M199.9,172.5c-1-1.1-3-2.7-4.4-3.8l2.3-2.4c1.4,1,3.6,2.5,4.5,3.5L199.9,172.5z
		 M221.3,178.9c0.4,0,0.4-0.2,0.5-2c0.4,0.4,1.5,0.7,2.2,0.9c-0.3,2.8-0.9,3.5-2.3,3.5h-1.3c-1.9,0-2.3-0.6-2.3-2.8
		c-0.9,1.2-2.1,2.5-3.7,3.6c-0.4-0.6-1.2-1.4-1.9-2c-2.4,1.2-3,1.6-3.4,2c-0.3-0.5-0.9-1.4-1.3-1.9c0.5-0.4,1.2-1.3,1.2-2.8v-1.2
		c-1,2-2.5,3.9-5.2,5.6c-0.4-0.6-1.3-1.5-2-2c2.4-1.3,3.7-2.8,4.4-4.3h-3.4c0.3-1.6,0.4-3.9,0.6-6h-0.9V167h9.6v2.6H210v1
		c0,0.6,0,1.3-0.2,2.1h2.8v2.8h-1.5v2.4l1.7-0.7c0.2,0.6,0.5,1.4,0.7,2c1.6-1.2,2.5-2.4,3.1-3.6h-3.5c0.3-1.6,0.5-4,0.6-6.1h-1V167
		h10.1v2.6h-2.6v1.3c0,0.5,0,1.2-0.1,1.8h3v2.8h-3.6c-0.1,0.3-0.2,0.5-0.4,0.8h1.2v1.9c0,0.5,0,0.6,0.3,0.6L221.3,178.9L221.3,178.9
		z M204.1,182.2h17.4V195h-3.6v-1.2h-10.2v1.3h-3.5L204.1,182.2L204.1,182.2z M207.1,172.7c0.1-0.8,0.1-1.5,0.1-2.1v-1h-1.3
		c-0.1,1-0.2,2-0.4,3.1H207.1z M207.6,184.9v1.7h10.2v-1.7H207.6z M217.8,190.9v-1.8h-10.2v1.8H217.8z M217.4,172.8
		c0.1-0.6,0.1-1.2,0.1-1.9v-1.3h-1.3c-0.1,1.1-0.3,2.1-0.4,3.2H217.4z"/>
	<path d="M254.2,170.2v3.6h-16.6c-1.1,2.1-2.2,4.3-3.6,6.1v15h-3.7V184c-0.9,0.8-1.8,1.5-2.8,2.2c-0.4-1-1.2-2.7-1.9-3.6
		c3.3-2.1,5.9-5.4,7.7-9h-6.8V170h8.5c0.5-1.4,1-2.9,1.3-4.4l3.9,1c-0.4,1.2-0.7,2.3-1.2,3.4h15.2L254.2,170.2L254.2,170.2z
		 M246.7,190.8h7.4v3.5h-18.7v-3.5h7.6v-7.1h-6.3v-3.5h6.3V175h3.7v5.2h6.1v3.5h-6.1V190.8z"/>
	<path d="M280.7,175.2c-1.4,2.2-3.3,4.2-5.5,5.8c3.2,1.2,6.9,2,10.9,2.3c-0.8,0.8-1.9,2.5-2.3,3.6c-1.2-0.2-2.2-0.4-3.3-0.5v8.7
		h-3.8v-0.9h-10.5v1h-3.6v-8.5c-1.3,0.4-2.7,0.6-4.1,0.9c-0.4-1-1.2-2.5-1.8-3.3c3.8-0.5,7.7-1.5,11.1-3c-1-0.7-1.9-1.4-2.8-2.3
		c-1.2,0.7-2.4,1.4-3.8,2c-0.5-0.9-1.7-2.2-2.5-2.8c4.4-1.6,7.2-3.9,8.7-6.2h-5.8v3.5H258v-6.9h11.6c-0.4-0.7-0.7-1.4-1.1-2l3.7-0.9
		c0.4,0.9,1.1,2,1.6,2.9h10.9v6.9h-3.8V172h-13l3.5,0.7c-0.3,0.4-0.6,0.8-1,1.2h6.9l0.6-0.2L280.7,175.2z M276.7,191.1v-2.7h-10.5
		v2.7H276.7z M276.8,185.3c-1.9-0.6-3.6-1.2-5.3-2c-1.5,0.8-3.2,1.5-4.9,2H276.8z M267.8,176.7c1.1,1,2.3,1.8,3.6,2.6
		c1.3-0.8,2.6-1.7,3.6-2.7h-7L267.8,176.7z"/>
	<path d="M302,183.1v10.5h-7.3v1.5h-3.4v-7.2c-0.4,0.4-0.8,1-1.2,1.4c-0.4-0.7-1.6-2-2.3-2.7c1.6-1.6,2.7-3.6,3.5-6h-1.5v-3.1h2.3
		c0.1-0.6,0.2-1.2,0.4-2h-4.2v-3.1h4.4c0.1-0.6,0.1-1.3,0.1-2H290v-3.1h11.5v5.2h1.5v3.1h-1.5v5.1h-6.8c-0.2,0.8-0.4,1.6-0.7,2.4
		L302,183.1L302,183.1z M294.7,186.3v4.2h3.7v-4.2H294.7z M295.6,175.6c-0.1,0.6-0.2,1.2-0.3,2h2.6v-2H295.6z M296.1,170.5
		c-0.1,0.7-0.1,1.3-0.2,2h2v-2H296.1L296.1,170.5z M317.2,188.2h-5.6v6.9H308v-6.9h-5.3v-3.5h5.3v-3.3h-4.2V178h4.2v-2.8h-4.5v-3.3
		h1.9c-0.3-1.4-1-3.3-1.8-4.8l2.9-1.1c1,1.6,1.8,3.6,2.1,5.1l-2,0.7h6.8l-2.6-0.7c0.6-1.4,1.5-3.7,1.9-5.3l3.6,0.8
		c-0.8,1.9-1.6,3.8-2.3,5.2h2.7v3.3h-5v2.8h4.4v3.4h-4.4v3.3h5.6L317.2,188.2L317.2,188.2z"/>
</g>
<g>
	<path class="st4" d="M203.8,275c-0.4-0.9-0.9-2-1.4-3.3v14.2h-3.6v-11.5c-0.8,2.3-1.7,4.4-2.7,5.9c-0.4-1.1-1.2-2.8-1.8-3.7
		c1.9-2.4,3.6-6.8,4.4-10.5H195v-3.5h3.7v-5.8h3.6v5.8h3.1v3.5h-3.1v1c0.9,1.2,3.1,4.7,3.6,5.5L203.8,275z M223.5,272.9
		c-1.2,2-2.8,4-4.7,5.8c1.9,1.4,3.9,3.2,5.2,4.4l-2.8,2.4c-1.1-1.2-3-3.1-4.9-4.7c-2.9,2.1-6.2,3.8-10.1,5c-0.4-0.9-1.5-2.3-2.2-3.1
		c7.3-2,13.2-6.3,15.7-11.2L223.5,272.9z M221.4,266.7c-2.9,5.1-7.8,9.5-13.7,12.2c-0.4-0.8-1.4-2.1-2-2.8c2.8-1.2,5.5-2.8,7.7-4.8
		c-4.7,0.4-5.7,0.5-6.3,0.8c-0.1-0.9-0.6-2.6-0.9-3.4c0.7-0.2,1.9-0.4,2.5-1.1c0.5-0.5,1.7-2.4,2.7-4h-5.2v-3.4h7.3
		c-0.3-1-0.6-2-1.1-2.9l3.5-1.1c0.7,1.2,1.3,2.8,1.6,4h6.3v3.4h-8.5c-1,1.5-2,3.2-2.9,4.6l4.2-0.2c0.6-0.9,1.2-1.8,1.7-2.7
		L221.4,266.7z"/>
	<path class="st4" d="M232,268.1c-0.4,4-1.2,9.4-2.3,12.9l-3.7-1.5c1.1-3.3,2-8,2.4-12.1L232,268.1z M237.8,265.7v14.4
		c0,1.4,0.3,1.7,1.8,1.7h4.4c1.6,0,1.9-1,2-5.9c0.9,0.6,2.5,1.3,3.5,1.6c-0.4,6-1.4,7.7-5.3,7.7H239c-4.1,0-5.2-1.2-5.2-5.2v-14.4
		L237.8,265.7L237.8,265.7z M237.6,257.3c2.8,1.8,6.8,4.5,8.6,6.4l-2.8,2.9c-1.7-1.9-5.5-4.9-8.5-6.9L237.6,257.3z M251.2,266.5
		c1.8,3.7,3.4,8.4,4,11.6l-3.7,1.6c-0.4-3.2-2-8.1-3.7-11.7L251.2,266.5z"/>
	<path class="st4" d="M280.7,266c-1.4,2.2-3.3,4.2-5.5,5.8c3.2,1.2,6.9,2,10.9,2.3c-0.8,0.8-1.9,2.5-2.3,3.6
		c-1.2-0.2-2.2-0.4-3.3-0.5v8.7h-3.8V285h-10.5v1h-3.6v-8.5c-1.3,0.4-2.7,0.6-4.1,0.9c-0.4-1-1.2-2.5-1.8-3.3
		c3.8-0.5,7.7-1.5,11.1-3c-1-0.7-1.9-1.4-2.8-2.3c-1.2,0.7-2.4,1.4-3.8,2c-0.5-0.9-1.7-2.2-2.5-2.8c4.4-1.6,7.2-3.9,8.7-6.2h-5.8
		v3.5H258v-6.9h11.6c-0.4-0.7-0.7-1.4-1.1-2l3.7-0.9c0.4,0.9,1.1,2,1.6,2.9h10.9v6.9h-3.8v-3.5h-13l3.5,0.7c-0.3,0.4-0.6,0.8-1,1.2
		h6.9l0.6-0.2L280.7,266z M276.7,281.8v-2.7h-10.5v2.7H276.7z M276.8,276.2c-1.9-0.6-3.6-1.2-5.3-2c-1.5,0.8-3.2,1.5-4.9,2H276.8z
		 M267.8,267.6c1.1,1,2.3,1.8,3.6,2.6c1.3-0.8,2.6-1.7,3.6-2.7h-7L267.8,267.6z"/>
	<path class="st4" d="M302,273.8v10.5h-7.3v1.5h-3.4v-7.2c-0.4,0.4-0.8,1-1.2,1.4c-0.4-0.7-1.6-2-2.3-2.7c1.6-1.6,2.7-3.6,3.5-6
		h-1.5v-3.1h2.3c0.1-0.6,0.2-1.2,0.4-2h-4.2v-3.1h4.4c0.1-0.6,0.1-1.3,0.1-2H290V258h11.5v5.2h1.5v3.1h-1.5v5.1h-6.8
		c-0.2,0.8-0.4,1.6-0.7,2.4L302,273.8L302,273.8z M294.7,277v4.2h3.7V277H294.7z M295.6,266.5c-0.1,0.6-0.2,1.2-0.3,2h2.6v-2H295.6z
		 M296.1,261.3c-0.1,0.7-0.1,1.3-0.2,2h2v-2H296.1z M317.2,279h-5.6v6.9H308V279h-5.3v-3.4h5.3v-3.3h-4.2v-3.4h4.2v-2.8h-4.5v-3.3
		h1.9c-0.3-1.4-1-3.3-1.8-4.8l2.9-1.1c1,1.6,1.8,3.6,2.1,5.1l-2,0.7h6.8l-2.6-0.7c0.6-1.4,1.5-3.7,1.9-5.3l3.6,0.8
		c-0.8,1.9-1.6,3.8-2.3,5.2h2.7v3.3h-5v2.8h4.4v3.4h-4.4v3.3h5.6L317.2,279L317.2,279z"/>
</g>
<g>
	<path class="st4" d="M225.7,368.4c1.2-2.1,2.4-5.3,3.1-7.7l3.3,1.3c-0.8,2.4-1.9,5.8-2.8,7.9L225.7,368.4z M238.5,357.5h-9.8v-10.9
		h9.8v-3.5h3.7v3.5h10.1v10.9h-10.1v2.3h-0.7c1.2,1.2,2.6,2.6,3.4,3.6l-3,2.3c-0.9-1.2-2.7-3.1-4-4.4l1.9-1.3h-1.3L238.5,357.5
		L238.5,357.5z M238.5,354.2v-4.3h-6.2v4.3H238.5z M243.5,368c1.3,0,1.6-0.5,1.8-3.8c0.8,0.6,2.4,1.2,3.5,1.4
		c-0.4,4.6-1.5,5.8-5,5.8h-5.3c-4.2,0-5.3-1.2-5.3-4.5v-6.1h3.9v6.1c0,1.1,0.3,1.2,1.9,1.2L243.5,368L243.5,368z M242.2,349.9v4.3
		h6.3v-4.3H242.2z M250.1,360.3c1.5,2.2,3.7,5.3,4.7,7.2l-3.5,2c-0.9-2-2.9-5.2-4.4-7.5L250.1,360.3z"/>
	<path class="st4" d="M285.7,351.9v2.7h-5.6l-0.3,2.4h-17.9l0.4-2.4h-4.9v-2.7h5.3l0.3-2.4h17.6l-0.2,2.4H285.7z M277.5,368
		c2.8,0.7,5.5,1.6,7.3,2.1l-2.5,2.3c-2.2-0.8-5.9-2-9.4-3l1.2-1.4h-5.7l1.9,1.3c-2.6,1.3-6.9,2.6-10.6,3.1c-0.4-0.7-1.3-1.9-2-2.5
		c2.8-0.4,6-1.1,8.2-2h-4.4v-10.1h20.3V368H277.5z M261.6,351.1h-3.3v-5.4h11.4c-0.3-0.6-0.6-1.3-0.9-1.9l3.2-0.9
		c0.5,0.8,1.1,1.9,1.4,2.8h11.4v5.4h-3.5v-2.6h-19.8L261.6,351.1L261.6,351.1z M265,360.6h13v-0.9h-13V360.6z M265,363.4h13v-1h-13
		V363.4z M265,366.1h13v-1h-13V366.1z M265.5,355.2h4.1l0.1-1h-4.1L265.5,355.2z M266,351.4l-0.1,0.9h4.1l0.1-0.9H266z M276.7,355.2
		l0.1-1h-4l-0.1,1H276.7z M277,351.4h-3.9l-0.1,0.9h3.9L277,351.4z"/>
	<path class="st4" d="M249.6,389.8c-1.4,2.2-3.3,4.2-5.5,5.8c3.2,1.2,6.9,2,10.9,2.3c-0.8,0.8-1.9,2.5-2.3,3.6
		c-1.2-0.2-2.2-0.4-3.3-0.5v8.7h-3.8v-0.9h-10.5v1h-3.6v-8.6c-1.3,0.4-2.7,0.6-4.1,0.9c-0.4-0.9-1.2-2.5-1.8-3.3
		c3.8-0.5,7.7-1.5,11.1-3c-1-0.7-1.9-1.4-2.8-2.3c-1.2,0.7-2.4,1.4-3.8,2c-0.5-0.9-1.7-2.2-2.5-2.8c4.4-1.6,7.2-3.9,8.7-6.2h-5.8
		v3.5h-3.6v-7h11.6c-0.4-0.7-0.7-1.4-1.1-2l3.7-0.9c0.4,0.9,1.1,2,1.6,2.9h10.9v6.9h-3.8v-3.5h-13l3.5,0.7c-0.3,0.4-0.6,0.8-1,1.2
		h6.9l0.6-0.2L249.6,389.8z M245.6,405.6V403h-10.5v2.7h10.5V405.6z M245.7,399.9c-1.9-0.6-3.6-1.2-5.3-2c-1.5,0.8-3.2,1.5-4.9,2
		H245.7z M236.7,391.3c1.1,1,2.3,1.8,3.6,2.6c1.3-0.8,2.6-1.7,3.6-2.7h-7L236.7,391.3z"/>
	<path class="st4" d="M282.5,388.7v13h-3.8v-1.6h-14.4c-0.7,3.6-2,7-4.6,9.6c-0.5-0.7-2-2-2.8-2.5c4.1-4.1,4.4-10.2,4.4-14.8v-9.1
		c6.3-0.5,13.4-1.6,17.6-2.8l2.9,2.8c-4.8,1.3-11,2.2-16.8,2.8v2.6H282.5L282.5,388.7z M278.7,396.7v-4.5H265v0.4
		c0,1.2-0.1,2.8-0.2,4.3L278.7,396.7L278.7,396.7z"/>
</g>
<path class="st5" d="M472,306.9v2.1h-15.3v4.3c0,3.5-0.3,8.4-2.2,11.7c-0.5-0.4-1.5-1.1-2.1-1.2c1.7-3,1.9-7.4,1.9-10.5v-6.4h7.8
	c-0.1-0.4-0.2-0.8-0.4-1.2l2.6-0.5c0.2,0.5,0.4,1.2,0.6,1.6h7.1V306.9z M467.2,321.6c1.7,0.7,3.6,1.3,4.8,1.8l-1.2,1.7
	c-1.3-0.6-3.5-1.5-5.5-2.3l0.8-1.2h-4l1.4,1.2c-1.8,0.8-4.3,1.7-5.9,2.3c-0.3-0.5-0.9-1.2-1.3-1.7c1.4-0.5,3.5-1.2,4.9-1.9h-3.3v-6
	h13v6L467.2,321.6L467.2,321.6L467.2,321.6z M457.1,313.6H472v1.4h-14.9V313.6z M462.2,309.2v0.8h4v-0.8h2.5v0.8h2.6v1.4h-2.6v1.7
	h-8.9v-1.7h-2.4V310h2.4v-0.8H462.2z M460.1,317.8h3.1V317h-3.1V317.8z M460.1,320.1h3.1v-1h-3.1V320.1z M462.2,311.4v0.7h4v-0.7
	H462.2z M468.4,317h-3v0.9h3V317z M468.4,319.2h-3v1h3V319.2z"/>
<path class="st5" d="M477.9,312.7c0,3.5-0.3,8.8-2,12.3c-0.5-0.4-1.6-0.9-2.3-1.1c1.7-3.3,1.8-8,1.8-11.1v-5.7h7.9
	c-0.2-0.5-0.3-1-0.5-1.4l2.6-0.6c0.3,0.6,0.6,1.3,0.8,1.9h7v2.3h-15.1L477.9,312.7L477.9,312.7L477.9,312.7z M491.8,318.2
	c-0.9,1.6-2.1,2.9-3.7,3.9c1.6,0.4,3.4,0.6,5.3,0.8c-0.5,0.5-1.2,1.5-1.4,2.2c-2.6-0.3-4.9-0.8-6.8-1.5c-2,0.7-4.3,1.2-6.7,1.4
	c-0.2-0.6-0.7-1.5-1.1-2.1c1.7-0.2,3.5-0.4,5-0.8c-1-0.7-1.8-1.4-2.6-2.3l0.9-0.4h-2.2v-1.9h11.3l0.5-0.1L491.8,318.2z M481.1,316.7
	v-3.3h-2.9v-1.9h2.9v-1.4h2.4v1.4h3.8v-1.4h2.5v1.4h3.1v1.9h-3.1v3.3H481.1z M482.5,319.4c0.8,0.7,1.7,1.2,2.8,1.7
	c1.1-0.5,2-1.1,2.8-1.7H482.5z M483.4,313.3v1.4h3.8v-1.4H483.4z"/>
<path class="st5" d="M513.2,322c0,1.3-0.3,2.1-1.2,2.5s-2.2,0.5-4,0.5c-0.1-0.8-0.5-1.9-0.9-2.6c1.2,0.1,2.6,0.1,3,0.1
	s0.5-0.1,0.5-0.5v-3.7c-0.5,0.6-1.2,1.2-1.4,1.8c-2.2-1.3-3.6-3.4-4.6-5.8c-1,2.7-2.4,4.7-4.8,5.9c-0.2-0.4-0.7-1-1.1-1.4v6.1h-2.6
	v-15h7.5c-0.1-0.6-0.1-1.1-0.2-1.6h-3.6v-2.2h5.8c0.1,1.3,0.2,2.6,0.4,3.8h7.2L513.2,322L513.2,322z M498.7,318c2-1.2,3.4-3.1,4-5.5
	h-4V318z M506.6,312.4c0.8,2.3,2,4.1,4,5.3v-5.3H506.6z"/>
<path class="st5" d="M527.5,312.6c-0.1,0.2-0.2,0.4-0.4,0.5c2.4,2.5,5.2,3.9,8.4,5.1c-0.6,0.6-1.2,1.3-1.5,2.1
	c-0.8-0.4-1.4-0.7-2.1-1.1v5.8h-2.6v-0.6h-7.2v0.6h-2.5v-5.5c-0.8,0.4-1.4,0.7-2.3,1.1c-0.4-0.6-1-1.5-1.5-2
	c3.9-1.3,7.6-3.7,9.5-6.9L527.5,312.6z M519.1,311.6h-2.5V307h7.8c-0.2-0.5-0.4-1-0.6-1.3l2.7-0.6c0.3,0.6,0.7,1.2,0.9,1.9h7.3v4.5
	h-2.6v-2.3h-12.9v2.4H519.1z M524.2,310.5c-1.3,1.9-3.5,3.7-5.5,4.8c-0.4-0.5-1.2-1.4-1.7-1.9c1.8-0.9,3.7-2.2,4.8-3.6L524.2,310.5z
	 M529.3,322.2V320h-7.2v2.2H529.3z M529.3,317.8c-1.2-0.9-2.4-1.8-3.5-3c-1,1.2-2.1,2.1-3.3,3H529.3z M528.7,309.8
	c1.7,1.1,4.1,2.7,5.3,3.8l-1.8,1.6c-1.1-1.2-3.4-2.9-5.2-4L528.7,309.8z"/>
<path class="st5" d="M543.3,318.4c0-0.3-0.1-0.6-0.2-0.9c-4.2,0.7-5,0.8-5.5,1.1c-0.1-0.5-0.5-1.5-0.8-2.2c0.5-0.1,1-0.6,1.6-1.3
	c0.3-0.3,0.8-0.9,1.3-1.7c-1.6,0.2-2,0.3-2.4,0.5c-0.1-0.5-0.5-1.5-0.8-2.1c0.4-0.1,0.8-0.6,1.2-1.2c0.5-0.6,1.7-3,2.5-5.2l2.2,0.9
	c-0.8,1.7-1.7,3.5-2.8,5.1l1.4-0.1c0.5-0.9,1.1-1.8,1.4-2.8l2.1,1.2c-1.2,2.2-2.7,4.4-4.3,6.3l2.2-0.3c-0.2-0.6-0.4-1.2-0.5-1.6
	l1.8-0.6c0.5,1.4,1.1,3.3,1.3,4.3L543.3,318.4z M539.7,319.5c-0.2,1.9-0.5,4-1,5.4c-0.5-0.3-1.4-0.6-1.9-0.7c0.5-1.2,0.8-3.3,0.9-5
	L539.7,319.5z M541.9,319.2c0.3,1.4,0.5,3.2,0.6,4.3l-1.9,0.4c0-1.2-0.2-3-0.5-4.4L541.9,319.2z M544,318.5c0.4,1.1,0.8,2.3,1,3.2
	l-1.7,0.7c-0.2-0.9-0.6-2.2-0.9-3.3L544,318.5z M556.6,322.2v2.3h-12.1v-2.3h4.8v-2.9h-3.8v-2.2h10.3v2.2h-4v2.9H556.6z M549,309.3
	c-0.7,1.1-1.3,2.3-2,3.3c0.9,1.2,1.7,2.5,2.2,3.4l-2,0.8c-0.5-1.1-1.4-2.7-2.5-4.1c0.9-1.2,1.7-2.8,2.2-3.8L549,309.3z M556.4,308.4
	H545v-2.2h11.4V308.4z M550.8,316.7c-0.5-1.1-1.4-2.7-2.6-4c0.9-1.2,1.7-2.8,2.2-3.7l2.1,0.5c-0.7,1.1-1.3,2.3-2,3.3
	c0.9,1.2,1.7,2.4,2.2,3.3L550.8,316.7z M554.5,316.8c-0.5-1.1-1.6-2.7-2.8-4.1c0.9-1.2,1.8-2.8,2.3-3.8l2.1,0.5
	c-0.7,1.2-1.4,2.3-2.1,3.3c1,1.2,1.9,2.4,2.4,3.3L554.5,316.8z"/>
<path class="st5" d="M573.7,305.4c-0.1,1.3-0.2,2.4-0.5,3.4c1.3,0.7,3.1,1.5,4,2.2l-1.1,1.2h0.9v4h-2.5v-2.1h-13.1v2.1H559v-4h0.4
	c-0.3-0.5-0.7-1.1-1.1-1.4c3.6-0.9,4-2.4,4.2-5.4h2.2c-0.1,1.3-0.2,2.5-0.6,3.5c1.1,0.6,2.3,1.3,3,1.8l-1.5,1.5
	c-0.5-0.5-1.5-1.1-2.4-1.6c-0.6,0.7-1.4,1.2-2.6,1.6h7.8c-0.3-0.6-0.7-1.2-1.2-1.5c3.6-0.8,4-2.2,4.2-5.3L573.7,305.4L573.7,305.4z
	 M560.1,308.9c-0.4-0.6-1.1-1.4-1.6-2.1l1.5-1.2c0.6,0.6,1.3,1.4,1.7,1.9L560.1,308.9z M567.6,319.8h8v5.2h-2.5v-0.5H563v0.5h-2.4
	v-5.2h4.9c0.1-0.3,0.2-0.6,0.4-0.9h-3.7v-4.2h11.4v4.2h-5.5L567.6,319.8z M573.1,321.6H563v1.2h10.1V321.6z M564.5,317.4h6.6v-1.2
	h-6.6V317.4z M564.6,308.4c0.5-0.7,1.1-1.5,1.3-2.2l1.6,0.5l1.5-1.2c0.6,0.6,1.3,1.4,1.7,1.9l-1.5,1.2c-0.3-0.5-0.9-1.2-1.3-1.8
	c-0.7,0.8-1.2,1.5-1.7,1.9L564.6,308.4z M575,312.2c-0.8-0.5-1.9-1.2-2.9-1.6c-0.6,0.7-1.5,1.2-2.9,1.6H575z M577.3,306.9
	c-0.7,0.9-1.4,1.6-2,2.2l-1.5-0.6c0.5-0.7,1.1-1.6,1.3-2.3L577.3,306.9z"/>
<path class="st5" d="M581.7,310.3c0-1.2,0.9-2,2-2c1.2,0,2,0.9,2,2c0,1.2-0.9,1.9-2,1.9C582.6,312.4,581.7,311.5,581.7,310.3z
	 M581.7,320.4c0-1.2,0.9-2,2-2c1.2,0,2,0.9,2,2c0,1.2-0.9,1.9-2,1.9C582.6,322.4,581.7,321.6,581.7,320.4z"/>
<path class="st5" d="M452.9,340h7.7v1.2h-7.7V340z M459.9,344h-6.1v-1.2h6.1V344z M453.6,345.5h6.1v1.2h-6.1V345.5z M460.1,354.4
	h-4.9v1h-1.3v-7.1h6.3L460.1,354.4L460.1,354.4z M455.1,349.7v3.5h3.5v-3.5H455.1L455.1,349.7z M456.8,339.8c-0.3-0.8-1-1.9-1.5-2.8
	l1.2-0.6c0.6,0.9,1.3,1.9,1.6,2.7L456.8,339.8z M467.3,344.4v3.5h3.7v7.8h-1.5v-0.8h-6v0.9h-1.4v-7.9h3.7v-3.5h-4.6v-1.5h4.6v-3.7
	c-1.3,0.2-2.8,0.4-4,0.6c0-0.4-0.2-0.9-0.4-1.2c3.1-0.4,6.7-1.1,8.7-1.8l1.1,1.2c-1.1,0.4-2.4,0.8-3.8,1.1v4h4.9v1.5L467.3,344.4
	L467.3,344.4L467.3,344.4z M469.5,349.3h-6v4.1h6V349.3z"/>
<path class="st5" d="M479.6,352.7c1.6,0.7,3.8,0.9,6.3,0.9c0.8,0,6.3,0,7.4,0c-0.2,0.4-0.5,1-0.6,1.3h-6.8c-4.5,0-7.6-0.5-9.5-3.4
	c-0.3,1.4-0.8,2.8-1.6,3.8c-0.2-0.3-0.7-0.8-1-1c1.3-1.5,1.6-4.4,1.7-7h1.3c0,0.9-0.1,1.6-0.2,2.4c0.4,0.9,1,1.5,1.6,2V346H474v-1.2
	h9.5v1.2h-3.9v2.2h3.6v1.2h-3.6V352.7L479.6,352.7z M482.3,343.5h-7v-6.6h7V343.5z M480.9,338.1h-4.1v1.5h4.1V338.1z M480.9,340.7
	h-4.1v1.6h4.1V340.7z M487.3,349.9c-1,1.2-2.5,2.4-3.8,3.2c-0.2-0.3-0.7-0.8-1-1.1c1.3-0.7,2.7-1.5,3.5-2.5L487.3,349.9z
	 M486.9,339.9c0.2-0.5,0.3-1.1,0.5-1.6h-3.9v-1.2h9.6v1.2h-4.2c-0.2,0.6-0.4,1.1-0.6,1.6h3.9v9.3h-8v-9.3H486.9z M490.6,341h-5.1
	v1.5h5.1V341z M490.6,343.7h-5.1v1.6h5.1V343.7z M490.6,346.4h-5.1v1.6h5.1V346.4z M490,349.4c1.2,0.8,2.7,1.9,3.4,2.8l-1.1,0.8
	c-0.7-0.9-2.1-2.1-3.3-2.9L490,349.4z"/>
<path class="st5" d="M513.8,354.1v1.4h-18.3v-1.4H513.8z M497.5,342.9h-1.6v-4h8.1c-0.3-0.6-0.6-1.2-0.9-1.6l1.5-0.5
	c0.4,0.6,0.9,1.4,1.1,2.1h7.7v4h-1.5v-2.7h-14.5L497.5,342.9L497.5,342.9z M510.9,343.3h-12.4v-1.2h12.4V343.3z M498.8,352.6v-7.7
	h11.7v7.8L498.8,352.6L498.8,352.6z M500.3,348.1h8.6v-2h-8.6V348.1z M500.3,351.4h8.6v-2h-8.6V351.4z"/>
<path class="st5" d="M522.3,336.9c-0.6,1.5-1.3,3.1-2.2,4.5v14.1h-1.4v-11.8c-0.7,1-1.4,1.8-2.1,2.6c-0.2-0.4-0.7-1.1-1-1.4
	c2.1-2,4-5.2,5.3-8.3L522.3,336.9z M532.3,349.7h3v1.2h-3v3.1c0,0.9-0.2,1.2-0.9,1.4c-0.7,0.3-1.7,0.3-3.3,0.3
	c-0.1-0.4-0.3-1.1-0.5-1.4c1.2,0,2.4,0,2.7,0c0.4,0,0.4-0.1,0.4-0.4v-3h-6c1,0.8,2,1.9,2.6,2.7l-1.2,0.9c-0.5-0.8-1.6-2-2.7-2.9
	l1-0.7h-3.3v-1.2h9.5v-1.4c-3.4,0.1-6.6,0.2-9,0.3l-0.2-1.2c1.5,0,3.6,0,5.9-0.1v-1.2h-4.5v-5.6h4.9v-1.2H522v-1.2h5.8v-1.4h1.5v1.4
	h5.9v1.2h-5.9v1.2h5.1v5.6h-1.5c1.1,0.8,2.1,1.7,2.7,2.5l-1.1,0.8c-0.2-0.3-0.5-0.6-0.9-1h-1.1L532.3,349.7L532.3,349.7z
	 M524.2,342.7h3.5v-1.3h-3.5V342.7z M527.8,345v-1.3h-3.5v1.3H527.8z M529.2,341.3v1.3h3.5v-1.3H529.2z M532.8,345v-1.3h-3.5v1.3
	H532.8z M529.2,347.2l3.1-0.1c-0.4-0.4-0.8-0.7-1.2-1l0.3-0.2h-2.1L529.2,347.2L529.2,347.2z"/>
<path class="st5" d="M544.6,347.9l-1.4,1.2c-1.3-1.6-3.2-3.5-4.7-4.7l1.3-1.2C541.5,344.5,543.3,346.4,544.6,347.9z"/>
<path class="st5" d="M554.2,347.7v6c0,0.9-0.2,1.3-0.7,1.6c-0.5,0.3-1.2,0.3-2.6,0.3c-0.1-0.4-0.3-1.1-0.5-1.5c0.9,0,1.6,0,1.9,0
	s0.4-0.1,0.4-0.4v-5.5c-1,0.3-1.8,0.6-2.6,0.9l-0.4-1.5c0.9-0.2,1.8-0.6,3-0.9v-4.5h-2.8v-1.4h2.7v-4.2h1.4v4.2h2.2v1.4H554v4l2-0.7
	l0.2,1.4L554.2,347.7z M569.2,344.9v1.2h-10.8c0,3.1-0.4,7.1-2.5,9.8c-0.2-0.3-0.8-0.8-1.1-1c2-2.5,2.2-6.2,2.2-9.1V338h5.8
	c-0.2-0.5-0.4-1-0.6-1.3l1.4-0.4c0.3,0.6,0.6,1.2,0.8,1.7h4.5v1.2h-10.5v5.7L569.2,344.9L569.2,344.9z M562.8,353.7
	c-1.2,0.7-2.8,1.4-3.8,1.9c-0.2-0.3-0.5-0.8-0.8-1.1c1.1-0.5,2.6-1.2,3.5-1.8L562.8,353.7z M560.7,344.1V342H559v-1h1.7v-1.2h1.3
	v1.2h3.5v-1.2h1.3v1.2h1.8v1h-1.8v2.1H560.7z M568.5,352.5h-9.1v-5.7h9.1V352.5z M560.5,349.2h2.5v-1.3h-2.5V349.2z M560.5,351.5
	h2.5v-1.3h-2.5V351.5z M562,342v1.1h3.5V342H562z M567.1,347.8h-2.7v1.3h2.7V347.8z M567.1,350.1h-2.7v1.3h2.7V350.1z M565.6,352.8
	c1.2,0.7,2.7,1.4,3.5,1.9l-0.9,1c-0.9-0.6-2.2-1.3-3.5-2L565.6,352.8z"/>
<path class="st5" d="M581.3,344.2H571v-1.3h2.5v-2.5h-2.1v-1.3h2.1v-2.4h1.4v2.4h2.7v-2.4h1.4v2.4h2.1v1.3H579v2.5h2.2L581.3,344.2
	L581.3,344.2z M580.1,354c0,0.8-0.2,1.2-0.7,1.3c-0.5,0.2-1.3,0.3-2.6,0.3c-0.1-0.4-0.3-1-0.5-1.3c0.9,0,1.7,0,1.9,0
	c0.3,0,0.4-0.1,0.4-0.3v-2.6c-1.4,0.6-3,1.2-4.2,1.7l-0.6-1.2c1.2-0.4,3-1,4.8-1.6v-3.7H574v2.8c0,2-0.2,4.6-1.6,6.4
	c-0.3-0.3-0.9-0.7-1.2-0.9c1.2-1.6,1.3-3.8,1.3-5.6v-4h7.5L580.1,354L580.1,354L580.1,354z M575,347.3c1.2,0.6,2.5,1.2,3.2,1.7
	l-0.7,1.1c-0.7-0.5-2-1.3-3.2-1.9L575,347.3z M575,342.8h2.7v-2.5H575V342.8z M589,341.8c-0.5,3.5-1.2,6.3-2.4,8.6
	c1.1,1.7,2.3,3.2,3.9,4c-0.4,0.3-0.9,0.9-1.1,1.2c-1.5-0.9-2.8-2.2-3.7-3.8c-1.1,1.5-2.4,2.8-4.1,3.8c-0.1-0.3-0.6-1-0.9-1.2
	c1.8-1.1,3.2-2.4,4.2-4c-0.9-1.8-1.5-3.9-2-6.2c-0.4,1.1-0.9,1.9-1.4,2.8c-0.2-0.3-0.8-1-1.1-1.2c1.5-2.2,2.4-5.8,3-9.3l1.4,0.2
	c-0.2,1.2-0.5,2.5-0.8,3.6h6.1v1.4L589,341.8L589,341.8L589,341.8z M585.7,348.9c0.9-1.9,1.4-4.3,1.7-7h-3.7
	C584.2,344.4,584.8,346.8,585.7,348.9z"/>
<path class="st5" d="M457.2,378.2v5.9c0,0.9-0.2,1.3-0.8,1.5c-0.6,0.3-1.4,0.3-2.9,0.3c-0.1-0.4-0.3-1.1-0.5-1.4c1.1,0,1.9,0,2.2,0
	c0.3,0,0.4-0.1,0.4-0.4v-5.5c-1.1,0.3-1.9,0.6-2.8,0.9l-0.5-1.5c0.9-0.2,2-0.6,3.3-0.9v-4.5h-3v-1.4h3V367h1.5v4.2h2.6v1.4h-2.6v4.1
	c0.9-0.2,1.7-0.5,2.6-0.8l0.2,1.4L457.2,378.2z M470.4,375.5c-0.9,1.9-2.2,3.8-3.7,5.5c0.8,1.9,1.7,3.2,3,3.3c0.6,0,0.9-1.1,1.2-3.5
	c0.3,0.4,1,0.8,1.3,0.9c-0.5,3.5-1.3,4.5-2.4,4.4c-1.9-0.2-3.3-1.5-4.3-3.8c-1.4,1.3-3.1,2.5-4.8,3.2c-0.3-0.4-0.8-0.9-1.2-1.2
	c1.9-0.8,3.8-2,5.4-3.5c-0.7-1.8-1.1-4.1-1.4-6.7l-3.3,0.4l-0.2-1.4l3.3-0.4c-0.2-1.7-0.3-3.5-0.4-5.6h1.5c0.1,1.9,0.2,3.6,0.4,5.4
	l6.4-0.7l0.2,1.4l-6.4,0.7c0.3,2.1,0.7,4,1.1,5.6c1.2-1.4,2.3-3,3-4.6L470.4,375.5z M468.7,371.3c-0.6-0.9-1.8-2.2-2.8-3.2l1.2-0.8
	c1.1,0.9,2.3,2.1,2.9,3L468.7,371.3z"/>
<path class="st5" d="M480.4,382.5c1.4-0.3,3-0.6,4.4-0.9l0.1,1.3c-3.7,0.7-7.8,1.4-10.5,2l-0.4-1.4c1.2-0.2,3-0.5,4.8-0.9v-3.5h-4.1
	v-1.4h4.1v-2.3h1.5v2.3h4.2v1.4h-4.2L480.4,382.5L480.4,382.5z M474.3,368.3H485v1.4h-5.7c-0.7,1.4-1.6,2.8-2.4,3.9l5.4-0.5
	c-0.5-0.8-1.1-1.4-1.5-2.1l1.2-0.7c1.2,1.4,2.6,3.4,3.2,4.5l-1.2,0.8c-0.2-0.4-0.4-0.9-0.8-1.3c-6.5,0.7-7.3,0.7-7.9,1
	c-0.1-0.4-0.4-1.1-0.6-1.4c0.4-0.1,0.7-0.4,1.1-1c0.3-0.4,1.2-1.7,1.8-3.3h-3.4L474.3,368.3L474.3,368.3z M487.7,381.4h-1.4v-12.7
	h1.4V381.4z M491.9,367.3v16.4c0,1-0.2,1.4-0.9,1.7c-0.7,0.3-1.7,0.3-3.3,0.3c-0.1-0.4-0.4-1.2-0.6-1.5c1.2,0,2.4,0,2.8,0
	s0.5-0.1,0.5-0.5v-16.5L491.9,367.3L491.9,367.3z"/>
<path class="st5" d="M502.2,371.1c-0.4,0.9-0.9,1.6-1.2,2.5h10.2v10.6c0,1-0.2,1.4-0.9,1.6c-0.7,0.3-1.9,0.3-3.6,0.3
	c-0.1-0.5-0.3-1.1-0.6-1.5c1.4,0.1,2.7,0,3.1,0s0.5-0.1,0.5-0.5V382h-9.1c-0.3,1.5-0.9,3.2-2.1,4.3c-0.2-0.4-0.8-1-1.1-1.2
	c1.7-1.7,1.9-4,1.9-6v-3c-1,1.2-2.1,2.3-3.5,3.3c-0.2-0.4-0.7-0.9-1-1.2c2.5-1.6,4.4-4.1,5.7-6.9h-5.3v-1.4h5.9
	c0.4-0.9,0.7-1.8,1-2.7l1.5,0.4c-0.2,0.8-0.5,1.6-0.9,2.3h10.7v1.4L502.2,371.1L502.2,371.1z M509.6,380.7v-2.2h-8.9v0.7
	c0,0.5,0,1.1-0.1,1.5H509.6L509.6,380.7z M509.6,375h-8.9v2.1h8.8V375H509.6z"/>
<path class="st5" d="M534.9,379.8v1.4H516v-1.4h1.7l-0.4-11.2c1.2-0.4,2.7-0.9,3.6-1.3l0.8,1.3c-0.9,0.3-1.9,0.7-3,0.9l0.1,2.5h2.4
	v1.3h-2.3l0.1,2.6h2.4v1.3h-2.3l0.1,2.6h2.8V368h7.3v11.8h2.8c0-0.8,0.1-1.6,0.1-2.5h-2.4V376h2.4c0-0.9,0.1-1.7,0.1-2.6h-2.4V372
	h2.4c0-1,0-1.9,0-2.8h-2.6v-1.3h3.9c0,3.7-0.2,8.6-0.4,11.9L534.9,379.8L534.9,379.8z M523.4,382.5c-1.7,1.2-4.2,2.7-6.3,3.6
	c-0.2-0.3-0.6-0.9-1-1.2c2-0.9,4.6-2.2,5.8-3.4L523.4,382.5z M523,379.8h4.9v-10.5H523V379.8z M527.2,370.7v1.1h-3.6v-1.1H527.2z
	 M523.9,373.2h3.2v4.9h-3.2V373.2z M524.6,377.1h1.5v-2.8h-1.5V377.1z M528.4,381.5c2.2,1.1,4.6,2.4,6.1,3.4l-1.1,1.2
	c-1.4-1.1-3.7-2.4-5.9-3.5L528.4,381.5z"/>
<path class="st5" d="M542.4,383.2c1.3,0.7,3.2,1,5.6,1c1,0,7.2,0,8.4,0c-0.3,0.4-0.5,1.1-0.7,1.5h-7.8c-4.6,0-7.2-0.8-8.7-3.8
	c-0.3,1.5-0.7,3.1-1.5,4.3c-0.2-0.3-0.7-0.8-1.1-1c1.4-2.5,1.6-6,1.5-8.8l1.3,0.1c0,0.9,0,1.7,0,2.7c0.4,1.2,0.9,2.3,1.5,3v-7.4
	h-3.8v-1.4h3.4v-2.5h-2.8v-1.4h2.9V367h1.4v2.5h2.3v1.4H542v2.5h2.7v1.4h-2.3v2.8h2.2v1.4h-2.2V383.2L542.4,383.2z M545.4,369.1
	h-1.2v-1.3h7.1v1.3h-1.1v12.7c1.1-1.2,1.9-2.8,2.6-4.8c-0.7-1.5-1.5-3.1-2.3-4.4l1.2-0.4c0.6,1,1.2,2,1.6,3.1
	c0.4-1.3,0.7-2.9,0.9-4.5h-3.4v-1.3h3.7h0.3l0.9,0.3c-0.3,2.7-0.8,5.2-1.4,7.3c0.9,1.7,1.6,3.5,1.9,4.8l-1.2,0.5
	c-0.3-1-0.8-2.2-1.3-3.5c-0.7,1.7-1.5,3.2-2.4,4.2c-0.2-0.3-0.6-0.8-0.9-1v1.5h-1.3v-3.1c-1.6,0.4-3.2,0.9-4.4,1.2l-0.3-1.3l1.2-0.2
	v-10.9h-0.2L545.4,369.1L545.4,369.1z M549,369.1h-2.3v2.5h2.3V369.1z M549,372.8h-2.3v2.6h2.3V372.8z M546.8,379.8
	c0.7-0.2,1.4-0.4,2.3-0.6v-2.5h-2.3V379.8z"/>
<path class="st5" d="M563.8,367.2c-0.4,1.1-0.8,2.2-1.1,3.1h3.5V384h-5.8v1.6h-1.5v-15.3h2.4c0.3-1.1,0.7-2.4,0.9-3.5L563.8,367.2z
	 M564.8,371.7h-4.4v4.4h4.4V371.7z M564.8,382.5v-5.1h-4.4v5.1H564.8z M576.6,371c-0.4,9.6-0.6,12.8-1.4,13.9
	c-0.5,0.6-1,0.8-1.6,0.9c-0.8,0.1-1.9,0-3.2,0c0-0.5-0.2-1.1-0.5-1.5c1.3,0.1,2.7,0.1,3.2,0.1c0.4,0,0.7,0,0.9-0.3
	c0.7-0.8,1.1-3.9,1.2-12.4h-5.4c-0.6,1.4-1.2,2.7-2,3.7c-0.3-0.3-1-0.7-1.2-0.9c1.4-1.8,2.6-4.8,3.3-7.7l1.5,0.4
	c-0.3,1.1-0.6,2-0.9,3.1h6.3v0.7L576.6,371L576.6,371z M571.9,380.5c-0.7-1.2-2-3.4-3.2-4.9l1.2-0.7c1.2,1.5,2.7,3.5,3.4,4.8
	L571.9,380.5z"/>
<path class="st5" d="M595.1,377.4c-1.1,2.2-2.8,3.9-4.8,5.3c2.2,1.1,4.9,1.7,7.8,2c-0.4,0.4-0.8,1.1-1,1.4c-3.2-0.5-6-1.3-8.4-2.6
	c-2.5,1.3-5.5,2.1-8.5,2.6c-0.2-0.4-0.6-1.1-1-1.4c2.9-0.4,5.7-1.1,8-2.1c-1.7-1.2-3.2-2.7-4.2-4.3l0.2-0.1h-0.9v-1.4h11.4l0.3-0.1
	L595.1,377.4z M581.2,377.3h-1.5V373h3.4c-0.3-0.8-0.9-1.9-1.4-2.8l1.3-0.4c0.6,0.9,1.2,2,1.5,2.8l-1.2,0.4h9.2
	c0.7-1.1,1.5-2.5,1.9-3.5l1.6,0.5c-0.6,1.1-1.3,2.2-1.9,3.1h3.6v4.3h-1.5v-2.9h-15L581.2,377.3L581.2,377.3z M596.5,368.2
	c-4.2,0.9-10.7,1.4-16.2,1.6c0-0.4-0.2-1-0.4-1.3c5.4-0.2,11.9-0.8,15.4-1.5L596.5,368.2z M584.6,378.2c1.1,1.4,2.4,2.7,4.1,3.6
	c1.6-1,3.1-2.1,4-3.6H584.6z M588.4,372.8c-0.1-0.9-0.6-2.1-1.1-3.1l1.4-0.3c0.5,1,1,2.3,1.2,3.1L588.4,372.8z"/>
<path class="st5" d="M606,377.4c-0.2,0.8-0.4,1.6-0.8,2.5c1.2,0.9,2.5,1.9,3.2,2.8l-0.9,1.1c-0.6-0.7-1.7-1.8-2.8-2.7
	c-0.8,1.5-2,3.1-3.8,4c-0.2-0.4-0.7-0.9-1-1.2c3-1.5,4-4.6,4.5-6.6L606,377.4L606,377.4z M618.5,375.4c-2.1,0.4-5,0.7-8,0.9v10.2
	H609v-10.1c-2.4,0.2-4.9,0.2-7,0.3c-0.2-0.4-0.6-1.2-1-1.4c5.3,0.1,12.3-0.3,16.2-0.9L618.5,375.4z M618.1,373.3h-16.6v-5.6h16.6
	V373.3z M606.5,369.1H603v2.8h3.5V369.1z M611.5,369.1H608v2.8h3.5V369.1z M616.3,377c-0.2,0.9-0.4,1.8-0.7,2.7
	c0.8,1.3,2.2,3.2,3.7,4c-0.4,0.3-0.8,0.8-1.1,1.2c-1.2-0.9-2.5-2.5-3.4-3.7c-0.7,1.5-1.8,2.9-3.5,3.8c-0.2-0.4-0.7-1-1.1-1.2
	c2.9-1.6,3.7-4.7,4.2-6.9L616.3,377L616.3,377L616.3,377z M616.6,369.1H613v2.8h3.6V369.1z"/>
<g>
	<g>
		<path class="st5" d="M476.3,264.1c0.6,4.2,2.2,8.3,4.5,10.6c-0.8,0.5-1.8,1.5-2.5,2.3c-0.4,8.5-0.7,11.7-1.5,12.7
			c-0.6,0.8-1.3,1.1-2.1,1.3c-0.8,0.1-2,0.1-3.4,0.1c0-1-0.4-2.3-0.9-3.1c1,0.1,1.9,0.1,2.4,0.1c0.4,0,0.7-0.1,1-0.4
			c0.4-0.6,0.8-2.9,1-8.8h-3.3c-0.6,5.9-2.4,10-6.4,12.6c-0.4-0.7-1.6-2-2.3-2.5c3.4-1.9,4.9-5.3,5.3-10h-2.5v-2.2l-0.2,0.2
			c-0.4-0.4-1-1.1-1.7-1.7v1.6h-3.8v2.1l1.2-0.9c0.6,0.7,2.8,3.9,3.3,4.7l-2.3,2.5c-0.5-1.2-1.5-3.4-2.3-4.9v11.1h-3.3v-10.8
			c-0.7,2.9-1.8,6.1-3.3,7.8c-0.3-1.2-1-2.9-1.5-4c1.2-1.5,2.4-4.3,2.9-6.5l1.9,0.7v-1.8h-4.3v-3.3h4.3v-9.9h3.3v9.9h3.8v0.1
			c1.5-2.1,2.5-5.1,3.1-8.2l3.3,0.6c-0.7,3.7-1.9,7.2-3.7,9.8h10.2c-1.5-2.3-2.5-5.2-3.1-8.1h-2.9v-3.7L476.3,264.1L476.3,264.1z
			 M453.8,272.7c-0.1-1.9-0.6-4.8-1.3-7l2.5-0.6c0.8,2.2,1.4,5,1.5,6.9L453.8,272.7z M464.8,265.7c-0.8,2.4-1.7,5.2-2.4,7l-2.3-0.6
			c0.7-1.9,1.4-4.9,1.7-7L464.8,265.7z"/>
		<path class="st5" d="M486.5,283.6c-0.4,2.5-1.2,5.3-1.9,7.1c-0.6-0.3-1.9-0.7-2.6-0.8c0.8-1.8,1.5-4.4,1.8-6.8L486.5,283.6z
			 M492.7,281.4c-0.1-0.4-0.2-0.7-0.3-1.2c-7.2,1.1-8.3,1.4-9.1,1.8c-0.1-0.6-0.7-2.1-1-3c0.8-0.2,1.5-0.8,2.6-2
			c0.5-0.4,1.3-1.4,2.2-2.6c-2.8,0.3-3.5,0.5-4,0.7c-0.2-0.6-0.7-2.1-1-2.9c0.6-0.1,1.2-0.7,1.8-1.6c0.7-0.9,2.9-4.3,4.1-7.5
			l2.9,1.2c-1.3,2.5-2.9,5.2-4.5,7.4l2.8-0.2c0.9-1.4,1.8-2.8,2.6-4.3l2.7,1.8c-2,3.3-4.5,6.5-7,9.2l4.1-0.5
			c-0.3-0.8-0.6-1.7-0.9-2.5l2.5-0.7c0.8,1.9,1.8,4.4,2.1,6L492.7,281.4z M489.8,282.8c0.4,2,0.8,4.5,0.9,6.2l-2.7,0.7
			c-0.1-1.8-0.4-4.3-0.7-6.3L489.8,282.8z M493.1,281.9c0.8,1.6,1.5,3.8,1.9,5.2l-2.5,1c-0.3-1.4-1-3.6-1.7-5.3L493.1,281.9z
			 M500.5,281.9c-0.6,2.8-1.6,5.5-2.9,7.3c-0.6-0.4-2-1.1-2.8-1.4c1.3-1.6,2.1-4.1,2.6-6.5L500.5,281.9z M504.4,279.6v8.4
			c0,1.5-0.2,2.3-1.2,2.8c-0.9,0.4-2.1,0.5-3.8,0.5c-0.1-0.9-0.5-2.1-0.9-3c0.9,0.1,1.9,0.1,2.2,0c0.3,0,0.4-0.1,0.4-0.4v-8
			c-3.1,0.4-3.9,0.5-4.4,0.8c-0.2-0.6-0.7-2.2-1-3c0.8-0.1,1.5-0.8,2.6-1.9c0.5-0.4,1.3-1.3,2.3-2.6c-2.8,0.3-3.5,0.5-3.9,0.7
			c-0.2-0.6-0.7-2.1-1-2.8c0.5-0.1,1-0.6,1.6-1.4c0.6-0.7,2.5-3.5,3.6-6.3l2.9,1.3c-1,2-2.4,4.2-3.8,6l2.8-0.2
			c0.9-1.2,1.7-2.5,2.5-3.8l2.7,1.8c-2,3.1-4.6,6.2-7.2,8.8l5.2-0.4c-0.5-1-1-1.9-1.5-2.8l2.5-1.2c1.3,2.1,2.7,4.8,3.2,6.6l-2.7,1.3
			c-0.1-0.4-0.3-0.9-0.5-1.5L504.4,279.6z M507.9,281.2c1,2.1,2.1,4.8,2.6,6.6l-3,1.1c-0.4-1.8-1.4-4.6-2.4-6.7L507.9,281.2z"/>
		<path class="st5" d="M538.9,264.3v27h-3.4v-1.4h-18.6v1.5h-3.2v-27.1H538.9z M535.5,287.2V267h-18.6v20.2H535.5z M534.8,282.9
			h-3.9v1.9c0,1.1-0.2,1.5-1.1,1.8c-0.8,0.2-2,0.2-3.7,0.2c-0.1-0.6-0.4-1.3-0.7-1.8c0.8,0,1.8,0,2.1,0s0.4-0.1,0.4-0.4v-1.8h-5.3
			c0.8,0.8,1.6,1.7,2,2.4l-2.4,1.2c-0.4-0.7-1.3-1.9-2.1-2.7l1.9-0.9h-4.6v-1.9h10.5v-0.8h2.9v0.9h1.6c-0.2-0.3-0.5-0.7-0.9-1
			c-4.9,0.2-9.9,0.3-13.6,0.4l-0.1-1.9c1.9,0,4.2,0,6.7,0v-1h-5.9v-6.1h5.9v-0.9h-6.8v-1.9h6.8v-1.1h2.9v1.1h6.8v1.9h-6.8v0.9h6v6.1
			h-1.5c1,0.8,1.9,1.6,2.5,2.3l-1.6,1.2h1.8v1.9L534.8,282.9L534.8,282.9z M521.5,273.7h3.2v-0.9h-3.2V273.7z M524.7,276v-0.9h-3.2
			v0.9H524.7z M527.6,272.8v0.9h3.2v-0.9H527.6z M530.8,275.1h-3.2v0.9h3.2V275.1z M527.6,278.4h2.4l-0.3-0.3l1-0.7h-3.1
			L527.6,278.4L527.6,278.4z"/>
		<path class="st5" d="M549.1,264.6h2.9l-7.4,29.6h-2.9L549.1,264.6z"/>
		<path class="st5" d="M568.4,270.4c-0.6,1.4-1.2,3-1.8,4.3h3.5v3.2h-15.9v-3.2h3.8c-0.3-1.2-0.9-2.9-1.5-4.2l2.4-0.6h-4v-3.2h5.7
			c-0.2-0.9-0.6-1.8-1-2.6l3.3-0.9c0.5,1.1,1.1,2.5,1.4,3.5h5.1v3.2h-3.5L568.4,270.4z M555.6,280h13.3v11.1h-3.5v-1.2H559v1.4h-3.4
			V280L555.6,280z M559,283.2v3.7h6.4v-3.7H559z M559.7,269.8c0.7,1.4,1.3,3.1,1.6,4.3l-1.8,0.5h3.6c0.6-1.4,1.3-3.3,1.7-4.8H559.7z
			 M581.9,266.1c-1,2.9-2.3,6.3-3.4,8.9c2.4,2.7,2.8,5.1,2.8,7c0,2.2-0.5,3.6-1.6,4.4c-0.5,0.4-1.2,0.6-2,0.7
			c-0.7,0.1-1.5,0.1-2.3,0.1c-0.1-0.9-0.3-2.3-0.9-3.3c0.7,0.1,1.3,0.1,1.7,0.1s0.8-0.1,1.1-0.3c0.5-0.3,0.7-1,0.7-2.1
			c0-1.6-0.6-3.8-2.9-6.2c0.8-2.2,1.8-5.3,2.5-7.5h-3.4v23.3h-3v-26.5h7.7l0.5-0.1L581.9,266.1z"/>
		<path class="st5" d="M588.9,281.1c-1.1-0.8-3.4-2.3-5.1-3.3l2.1-2.4c1.6,0.9,3.9,2.2,5.1,3L588.9,281.1z M584.4,288.6
			c1.6-1.6,4-4.3,6-6.8l2.1,2.6c-1.7,2.3-3.7,4.8-5.5,7L584.4,288.6z M590.6,268.1h-6V265h6v-1.6h3.5v1.6h3.1v3.1h-3.1v2h-3.5V268.1
			z M587.8,269.6c1.5,0.9,3.9,2.2,5.2,2.9l-2.1,2.7c-1.2-0.8-3.5-2.2-5.1-3.1L587.8,269.6z M610.2,272.7c-1.3,1.9-3,3.6-5,5
			c2.2,0.8,4.7,1.4,7.2,1.8c-0.7,0.7-1.6,2-2.1,2.9c-0.5-0.1-0.9-0.2-1.4-0.3v9.2h-3.5v-1.2h-8v1.2H594v-8.8
			c-0.4,0.1-0.8,0.2-1.2,0.3c-0.3-0.8-1.1-2.2-1.7-2.9c2.6-0.5,5.2-1.3,7.6-2.3c-0.8-0.6-1.6-1.2-2.3-1.9c-0.9,0.9-1.8,1.7-2.9,2.5
			c-0.6-0.7-1.7-1.7-2.5-2.1c3-2,5.3-4.6,6.6-6.7l3.4,0.7c-0.3,0.4-0.6,0.9-1,1.4h7.1l0.6-0.2L610.2,272.7z M608.4,282
			c-2.3-0.6-4.4-1.4-6.4-2.4c-1.9,1-3.9,1.7-5.9,2.4H608.4z M605.4,287.4v-2.7h-8v2.7H605.4z M598.6,274c0.8,0.8,1.9,1.5,3.2,2.2
			c1.1-0.7,2.2-1.4,3.1-2.2H598.6z M601.6,268.1h-3V265h3v-1.6h3.5v1.6h6.1v3.1h-6.1v2h-3.5V268.1z"/>
		<path class="st5" d="M640.9,267.2c-1.2,2.9-3,5.3-5.3,7.2c2,1,4.1,1.7,6.5,2.2c-0.5,0.9-1,2.4-1.1,3.4c-3.1-0.8-5.8-1.9-8.2-3.4
			c-2.1,1.4-4.5,2.5-7,3.3h13.8v11.2H636v-1.5h-7.3v1.6h-3.4V280c-0.3,0.1-0.6,0.2-0.9,0.3c-0.2-0.5-0.6-1.3-1-2l-0.7,0.9
			c-0.4-0.7-1-1.9-1.6-2.9v15.1h-3.4v-11.9c-0.8,2.5-1.6,4.8-2.6,6.3c-0.3-1-1.1-2.7-1.7-3.6c1.7-2.3,3.1-6.4,3.9-9.9h-3.2V269h3.6
			v-5.6h3.4v5.6h2.7v1.6c2.1-1.8,4-4.6,5-7.5l3.1,0.9c-0.3,0.7-0.6,1.4-0.9,2.1h7l0.6-0.1L640.9,267.2z M630.1,274.4
			c-0.9-0.9-1.8-1.8-2.5-2.8c-0.5,0.7-1.1,1.4-1.7,1.9c-0.4-0.7-1.4-2.1-2-2.8v1.5h-2.7c0.8,0.7,3.1,3.6,3.6,4.3
			C626.7,276,628.5,275.2,630.1,274.4z M628.8,282.9v3.5h7.3v-3.5H628.8z M629.6,269.1c0.8,1.3,1.9,2.4,3.2,3.4
			c1.3-1,2.4-2.1,3.3-3.4H629.6z"/>
	</g>
</g>
<g>
	<path class="st6" d="M48.7,19.6c-0.9-0.8-2.5-1.9-3.7-2.7l1.6-1.8c1.2,0.7,2.9,1.7,3.8,2.5L48.7,19.6z M51.1,22
		c-0.9,2.4-2.2,4.9-3.3,7.1l-2.4-1.7c1-1.7,2.5-4.5,3.6-7.1L51.1,22z M49.8,13.7c-0.8-0.9-2.5-2-3.7-2.8l1.6-1.8
		c1.2,0.7,2.9,1.8,3.8,2.6L49.8,13.7z M61.1,22c1.3,1.6,3.1,3.2,4.9,4.1c-0.6,0.5-1.4,1.4-1.8,2.1c-1.7-1-3.3-2.7-4.6-4.5v5.9h-2.7
		v-5.8c-1.3,1.9-3.1,3.5-5.1,4.5c-0.4-0.7-1.2-1.6-1.8-2.1c2.1-0.9,4-2.4,5.2-4.2h-3.9v-2.4h5.6v-2.2h2.7v2.2h5.8V22H61.1z
		 M57.9,12.6c-0.2,3.2-1,5-5.8,5.9c-0.2-0.6-0.9-1.6-1.2-2.1c4-0.6,4.5-1.5,4.6-3.8C55.5,12.6,57.9,12.6,57.9,12.6z M54.1,14.3h-2.5
		V9.6h13.6v4.5h-2.6v-2.2H54C54.1,11.9,54.1,14.3,54.1,14.3z M64.2,15.6c0.5,0,1.1,0,1.5-0.2c0,0.7,0.1,1.6,0.2,2.2
		c-0.4,0.1-1,0.2-1.6,0.2h-2.2c-2.4,0-2.9-0.8-2.9-2.9v-2.4h2.4v2.4c0,0.5,0.1,0.8,0.5,0.8C62,15.6,64.2,15.6,64.2,15.6z"/>
	<path class="st6" d="M71.9,16.5c0,3.8-0.3,9.4-2.2,13.1c-0.6-0.4-1.7-0.9-2.5-1.1c1.8-3.4,2-8.4,2-11.8v-6h8.3
		c-0.2-0.5-0.4-1-0.6-1.5l2.8-0.6c0.3,0.7,0.7,1.4,0.9,2.1H88v2.5H72L71.9,16.5L71.9,16.5z M86.8,22.3c-0.9,1.7-2.3,3.1-4,4.2
		c1.7,0.4,3.6,0.7,5.6,0.9c-0.5,0.6-1.2,1.6-1.5,2.3c-2.7-0.3-5.1-0.8-7.3-1.6c-2.1,0.8-4.5,1.2-7.1,1.5c-0.2-0.7-0.7-1.6-1.1-2.2
		c1.9-0.2,3.7-0.4,5.3-0.8c-1-0.7-2-1.5-2.7-2.5l0.9-0.4h-2.4v-2.1h12l0.5-0.1L86.8,22.3z M75.4,20.6v-3.5h-3V15h3v-1.5H78V15h4.1
		v-1.5h2.7V15H88v2.1h-3.2v3.5H75.4z M76.9,23.6c0.8,0.8,1.8,1.3,2.9,1.8c1.1-0.5,2.1-1,2.9-1.8H76.9z M78,17.1v1.5h4.1v-1.5H78z"/>
	<path class="st6" d="M93.7,18.9c-0.8-0.8-2.5-1.7-3.8-2.3l1.4-2c1.3,0.5,3,1.3,3.9,2.1L93.7,18.9z M96.2,22.1
		c-0.9,2.4-2.2,5-3.3,7.2l-2.4-1.6c1-1.7,2.6-4.5,3.7-7.2L96.2,22.1z M94.9,13c-0.8-0.8-2.5-1.8-3.8-2.4l1.5-2
		c1.3,0.6,3,1.4,3.9,2.2L94.9,13z M110.9,26.1h-1.3V27c0,1.1-0.3,1.7-1,2.1c-0.8,0.4-1.9,0.4-3.4,0.4c-0.1-0.7-0.6-1.5-0.9-2.1
		c0.9,0,2.1,0,2.4,0s0.4-0.1,0.4-0.4v-0.9H100v3.3h-2.5v-3.3h-1.7V24h1.7v-5.6h4.6v-0.9h-6.3v-2.1h3.6v-0.9h-2.3v-1.8h2.3v-0.9h-2.7
		v-1.7h2.7V8.6h2.6V10h2.7V8.6h2.6V10h2.9v1.9h-2.9v0.9h2.6v1.8h-2.6v0.9h3.6v2.1h-6.3v0.7h5v5.6h1.3L110.9,26.1L110.9,26.1z
		 M99.9,20.3v1h2.2v-1H99.9z M99.9,24h2.2v-1h-2.2V24z M102,12.9h2.7V12H102V12.9z M102,15.5h2.7v-0.9H102V15.5z M104.5,20.3v1h2.5
		v-1H104.5z M107,24v-1h-2.5v1H107z"/>
	<path class="st6" d="M118.6,19.1c-0.4,2.1-0.9,4.2-1.7,5.9c0.4,0.2,0.8,0.6,1.4,0.9c1.5,0.9,3.6,1,6.3,1c2.6,0,6.6-0.2,9.1-0.6
		c-0.3,0.8-0.8,2-0.8,2.7c-1.9,0.1-5.8,0.3-8.4,0.3c-2.9,0-4.8-0.3-6.4-1.2c-0.9-0.5-1.7-1.2-2.2-1.2s-1.3,1.5-1.9,2.8l-1.8-2.6
		c0.8-0.9,1.6-1.7,2.4-2.1c0.5-1.1,0.9-2.6,1.3-3.9h-2.8c0.5-1.3,1.1-3.1,1.6-4.8h-2v-2.4h5.2c-0.5,1.6-1,3.4-1.5,4.9h0.9l0.4-0.1
		L118.6,19.1z M114.9,13.2c-0.3-1-0.9-2.7-1.2-3.9l2.4-0.8c0.4,1.2,0.9,2.7,1.3,3.7L114.9,13.2z M122.2,25.7h-2.6V14.3h5
		c-1-0.5-2.1-0.9-3-1.3l1.7-1.4c0.8,0.3,1.7,0.7,2.7,1c0.7-0.4,1.2-0.8,1.8-1.2h-8V9.3h10.4l0.6-0.1l1.6,1.2c-1.1,1-2.6,2.2-4,3
		c0.5,0.3,0.9,0.5,1.3,0.7h2.7v9.3c0,1.1-0.2,1.6-0.9,2s-1.7,0.4-3,0.4c-0.1-0.7-0.4-1.5-0.7-2.1c0.8,0,1.5,0,1.7,0
		c0.3,0,0.4-0.1,0.4-0.4v-1h-2.7v3.3h-2.4v-3.3h-2.6L122.2,25.7L122.2,25.7z M122.2,16.2v1.2h2.6v-1.2
		C124.8,16.2,122.2,16.2,122.2,16.2z M124.8,20.5v-1.2h-2.6v1.2H124.8z M129.8,16.2h-2.6v1.2h2.7L129.8,16.2L129.8,16.2z
		 M129.8,20.5v-1.2h-2.6v1.2H129.8z"/>
	<path class="st6" d="M143.2,14.5c-0.7,1.1-1.5,2.3-2.4,3.4v11.7h-2.6v-8.8c-0.7,0.6-1.2,1.1-1.8,1.7c-0.4-0.6-1.2-1.7-1.8-2.3
		c2.3-1.6,4.7-4.2,6.2-6.7L143.2,14.5z M142.3,9.7c-1.6,2.1-4.1,4.5-6.2,5.9c-0.4-0.6-1-1.7-1.5-2.2c1.9-1.2,4-3.2,5-4.7L142.3,9.7z
		 M155.5,18.6h-3v7.9c0,1.4-0.3,2.2-1.2,2.6s-2.4,0.5-4.4,0.5c-0.1-0.8-0.5-2-0.9-2.7c1.2,0.1,2.7,0.1,3.1,0c0.4,0,0.6-0.1,0.6-0.4
		v-7.8h-6.6v-2.6h12.4L155.5,18.6L155.5,18.6z M154.9,12.5H144V9.9h10.9V12.5z"/>
	<path class="st6" d="M165.6,27.1c-2.7,0.7-5.7,1.3-8,1.8l-0.6-2.5c0.9-0.1,2.1-0.3,3.4-0.5v-5.6h-3.1V18h3.1v-1.6h-1.7v-0.6
		c-0.3,0.3-0.5,0.5-0.8,0.8c-0.2-0.6-0.8-2.1-1.1-2.7c1.6-1.2,3.2-3.3,4.2-5.4l2.3,0.9c-0.1,0.3-0.2,0.5-0.4,0.8
		c1.2,1,2.7,2.2,3.5,3l-1.5,2.1c-0.2-0.2-0.3-0.4-0.5-0.6v1.9h-1.5v1.6h2.5v2.3h-2.5v5.3l2.7-0.5L165.6,27.1z M159.3,21.2
		c0.4,1.2,0.8,2.8,0.9,3.8l-1.8,0.5c-0.1-1-0.5-2.7-0.8-3.9L159.3,21.2z M164.1,14.2c-0.7-0.7-1.5-1.4-2.3-2.1
		c-0.5,0.8-0.9,1.4-1.5,2.1C160.3,14.2,164.1,14.2,164.1,14.2z M163.2,24.7c0.3-1,0.7-2.7,0.9-3.8l2,0.5c-0.5,1.3-0.9,2.7-1.2,3.8
		L163.2,24.7z M177.3,26.7c0,1.2-0.2,2-1,2.4s-2,0.4-3.6,0.4c-0.1-0.7-0.4-1.8-0.8-2.5c1,0.1,2.1,0.1,2.5,0c0.4,0,0.5-0.1,0.5-0.4
		v-2.7c-1.9,0.5-3.8,0.9-5.4,1.4l-0.6-1.5c-0.1,2.1-0.5,4.5-1.3,6c-0.5-0.5-1.5-1.2-2.1-1.5c1-1.8,1-4.4,1-6.4V15h4.2V8.7h2.6V15
		h4.2L177.3,26.7L177.3,26.7z M167.7,14.5c-0.3-1.1-1-2.8-1.9-4.2l2.1-0.9c0.9,1.2,1.8,2.8,2.1,4.1L167.7,14.5z M168.8,21.8
		c0,0.4,0,0.8,0,1.2c1.6-0.3,3.8-0.9,6-1.3v-4.5h-5.9L168.8,21.8L168.8,21.8z M170,18.1c1.5,0.3,3.5,1,4.5,1.6l-1.1,1.8
		c-0.9-0.7-2.9-1.4-4.5-1.8L170,18.1z M178,10c-0.7,1.5-1.5,3.1-2.1,4.2l-2.3-0.9c0.7-1.1,1.4-2.9,1.9-4.3L178,10z"/>
	<path class="st6" d="M188.2,20.8l-2.4,2.1c-1.3-1.7-3.3-3.6-4.8-4.9l2.4-2.1C184.8,17.2,186.9,19.4,188.2,20.8z"/>
	<path class="st6" d="M195.5,22.5c0.8-0.3,1.5-0.6,2.3-0.9l0.5,2.5c-2.3,0.9-4.8,2.1-6.7,2.8l-0.9-2.7c0.8-0.2,1.6-0.5,2.6-0.9v-6.9
		h-2.4v-2.6h2.3V9h2.4v5h2.2v2.6h-2.2v5.9H195.5z M211.7,17.2v2.4h-14v-2.4h3.1c-0.1-0.9-0.6-2.3-0.9-3.2l1.9-0.6h-3.3V11h4.9
		c-0.1-0.7-0.3-1.5-0.5-2.2l2.4-0.4c0.3,0.8,0.6,1.8,0.7,2.6h4.9v2.4h-3.3l2,0.5c-0.5,1.1-0.9,2.4-1.3,3.3
		C208.3,17.2,211.7,17.2,211.7,17.2z M199.5,21H210v8.4h-2.6v-0.7h-5.6v0.8h-2.4L199.5,21L199.5,21z M202.1,13.4
		c0.5,1,0.9,2.3,1,3.1l-1.9,0.7h4.6c0.5-1.1,0.9-2.7,1.2-3.8C207.1,13.4,202.1,13.4,202.1,13.4z M201.9,23.4v3.1h5.6v-3L201.9,23.4
		L201.9,23.4z"/>
	<path class="st6" d="M229.2,17.2c1.3,1.3,3.2,2.4,5.1,2.9c-0.6,0.5-1.3,1.4-1.7,2.1c-0.9-0.4-1.9-0.9-2.7-1.5v4.6
		c0.6-0.4,1.1-0.7,1.6-1l1.7,1.3c-0.9,0.5-1.9,0.9-2.7,1.3c1,0.4,2,0.7,2.7,0.9l-1.1,1.8c-2-0.8-5.9-2.1-8.8-2.8
		c0,0.5,0.1,0.9,0.1,1.2c-5,1-5.9,1.2-6.3,1.6c-0.2-0.6-0.7-1.7-1.1-2.1c0.5-0.3,0.9-0.8,0.9-1.8v-4.4c-0.7,0.5-1.4,0.9-2.1,1.2
		c-0.4-0.5-1.2-1.5-1.8-1.9c2-0.8,3.8-2,5.1-3.4h-4.3v-1.8h8.4v-0.8h-6.3V13h6.3v-0.8h-7.3v-1.8h3.6c-0.3-0.4-0.5-0.9-0.8-1.2
		l2.4-0.8c0.5,0.6,0.9,1.4,1.2,2h4.6c0.4-0.7,0.8-1.4,0.9-2l2.9,0.6c-0.4,0.5-0.8,1-1.1,1.4h3.5v1.9h-7.2v0.8h6.3v1.6h-6.3v0.8h8.5
		v1.8C233.5,17.2,229.2,17.2,229.2,17.2z M228.7,19.9c-0.7-0.6-1.2-1.2-1.8-1.9v1.1h-6.5v-1c-0.5,0.6-1,1.2-1.7,1.7L228.7,19.9
		L228.7,19.9z M219.8,22h7.3v-0.7h-7.3V22z M219.8,23.9h7.3v-0.8h-7.3V23.9z M223.2,26.5l0.9-1.1h-4.2v1.3l3.4-0.6L223.2,26.5
		L223.2,26.5z M221.1,17.2c-0.2,0.2-0.3,0.5-0.5,0.7h6.2c-0.2-0.2-0.4-0.5-0.5-0.7H221.1z M224.6,25.4c1,0.3,2.3,0.6,3.4,0.9
		c0.6-0.3,1.1-0.7,1.7-0.9H224.6z"/>
	<path class="st6" d="M235.6,26.8c0.9-1.5,1.7-3.8,2.2-5.6l2.4,0.9c-0.6,1.7-1.3,4.2-2.1,5.7L235.6,26.8z M244.8,18.9h-7.1v-7.8h7.1
		V8.7h2.7v2.5h7.2V19h-7.2v1.7H247c0.9,0.9,1.9,1.9,2.5,2.6l-2.2,1.6c-0.7-0.9-1.9-2.3-2.9-3.2l1.3-0.9h-0.9L244.8,18.9L244.8,18.9z
		 M244.8,16.5v-3.1h-4.5v3.1H244.8z M248.4,26.5c0.9,0,1.1-0.4,1.2-2.7c0.6,0.5,1.7,0.9,2.6,1c-0.4,3.3-1.1,4.2-3.6,4.2h-3.8
		c-3,0-3.8-0.9-3.8-3.3v-4.4h2.8v4.4c0,0.8,0.2,0.9,1.3,0.9L248.4,26.5L248.4,26.5z M247.4,13.5v3.1h4.5v-3.1H247.4z M253.1,21
		c1.1,1.6,2.7,3.8,3.4,5.1l-2.5,1.4c-0.7-1.4-2.1-3.7-3.2-5.4L253.1,21z"/>
	<path class="st6" d="M265.2,14.5h-7.5v-2.2h3.3c-0.4-0.9-1.1-1.9-1.7-2.7l2.1-1c0.9,0.9,1.6,2.1,2.1,2.9l-1.5,0.9h3.2V14.5z
		 M278.6,17.1c-0.7,2.7-1.7,5.1-2.8,7.2c0.3,1.3,0.6,2.1,1,2.2c0.3,0,0.6-1.1,0.7-3c0.4,0.5,1.3,1.1,1.7,1.3
		c-0.6,3.9-1.6,4.7-2.5,4.7c-1.1,0-2-1-2.7-2.7c-0.8,1-1.6,1.9-2.6,2.7c-0.3-0.4-1-1-1.6-1.3c1.2-1,2.5-2.4,3.4-4.1
		c-0.4-2.4-0.7-5.5-0.8-9.2h-4.2v2.4h3.8v0.9c-0.1,5-0.2,7.1-0.7,7.7c-0.4,0.5-0.7,0.7-1.2,0.9c-0.5,0.1-1.1,0.1-1.9,0.1
		c0-0.8-0.2-1.6-0.5-2.3c-0.3,1.8-0.8,3.6-1.5,5c-0.4-0.4-1.1-1-1.7-1.4v0.3h-3.9v0.8h-2.1v-7.7h6v5.9c1.2-2.7,1.3-6.4,1.3-9.2v-5.8
		h6.6c0-1.2,0-2.6-0.1-3.9h2.4c0,1.3,0,2.7,0,3.9h3.9v2.4h-3.9c0,2,0.2,3.9,0.3,5.5c0.5-1.3,0.9-2.7,1.2-4.3L278.6,17.1z
		 M264.6,17.5h-5.9v-2h5.9V17.5z M258.7,18.5h5.9v2h-5.9V18.5z M262.4,23.6h-1.7v2.6h1.7V23.6z M268.3,19.5c0,1.5-0.1,3.2-0.4,4.9
		c0.5,0,0.9,0.1,1.1,0.1s0.4-0.1,0.6-0.3c0.2-0.3,0.3-1.4,0.3-4.7H268.3z M277.1,12.5c-0.4-0.8-1.2-2-1.9-2.8l1.7-0.9
		c0.8,0.9,1.7,2,2.1,2.7L277.1,12.5z"/>
	<path class="st6" d="M292.8,9.3c-0.1,0.1-0.2,0.3-0.4,0.4c2.1,1.8,5.8,3.3,9.3,4.1c-0.6,0.5-1.3,1.4-1.7,2.1
		c-0.5-0.1-0.9-0.3-1.4-0.4v5.8h-15.5v-5.7c-0.5,0.2-0.9,0.3-1.4,0.4c-0.3-0.5-0.9-1.6-1.4-2.1c4.2-0.9,8.1-2.8,10.1-5.4L292.8,9.3z
		 M297.9,15.1c-1-0.4-2.1-0.9-3-1.3v0.6H287v-0.5c-0.9,0.5-1.8,0.9-2.7,1.2H297.9z M284.4,21.8h13.2v7.6h-2.7v-0.6H287v0.6h-2.7
		L284.4,21.8L284.4,21.8z M286.9,19.6c-0.1-0.7-0.4-1.6-0.8-2.4l1.7-0.5h-2.6v2.8h1.7L286.9,19.6L286.9,19.6z M287,23.6v0.9h7.9
		v-0.9H287z M294.8,27.2v-0.9h-7.9v0.9H294.8z M289.8,16.7h-1.7c0.4,0.8,0.8,1.7,0.9,2.4l-1.4,0.5h2.3L289.8,16.7L289.8,16.7z
		 M293,12.6c-0.7-0.5-1.3-0.9-1.9-1.4c-0.6,0.5-1.2,0.9-1.9,1.4H293z M291.9,16.7v2.8h2.1l-1.3-0.4c0.3-0.7,0.7-1.7,0.9-2.5
		C293.5,16.7,291.9,16.7,291.9,16.7z M296.3,16.7h-2.4l1.7,0.4c-0.5,0.9-0.9,1.8-1.2,2.4h1.8L296.3,16.7L296.3,16.7z"/>
	<path class="st6" d="M318,25.6c2.1,0.7,4.4,1.4,5.9,2.1l-2.4,1.9c-1.7-0.9-4.8-1.9-7.2-2.6l1.9-1.3h-6l1.7,1.2
		c-1.8,1-4.6,2.1-6.9,2.7c-0.5-0.6-1.4-1.4-2-1.9c1.9-0.4,4.2-1.2,5.8-2h-3.6v-9.9h16.4v9.9L318,25.6L318,25.6z M320.8,14.9h-14.6
		V9.3h14.6V14.9z M307.8,18.5h11v-0.9h-11V18.5z M307.8,21.2h11v-0.9h-11V21.2z M307.8,23.8h11v-0.9h-11V23.8z M317.9,11.4h-9.1v1.4
		h9.1V11.4z"/>
	<path class="st6" d="M327.6,22.2c1.7-0.6,2.7-1.5,2.9-2.7c-0.1,0-0.2,0-0.3,0c-1.1,0-2.1-0.8-2.1-2s1-2,2.2-2c1.6,0,2.5,1.2,2.5,3
		c0,2.6-1.6,4.6-4.5,5.4L327.6,22.2z"/>
	<path class="st6" d="M355.8,10.9v18.3h-2.9v-1.9h-11.8v1.8h-2.9V10.9H355.8z M352.9,24.5v-11h-11.8v11
		C341,24.5,352.9,24.5,352.9,24.5z"/>
	<path class="st6" d="M359.2,9.6h7.7v2.5h-2.7c-0.3,1.5-0.7,3-1.2,4.5h3.6v10.3h-3.7v1.7h-2.2v-7c-0.3,0.4-0.6,0.9-0.9,1.2
		c-0.1-0.8-0.6-2.5-0.9-3.2c1.4-1.9,2.3-4.6,2.9-7.6h-2.4L359.2,9.6L359.2,9.6z M364.2,18.9h-1.5v5.6h1.5V18.9z M379.7,25.4H376v4.2
		h-2.6v-4.2h-6.5v-2.3h2.1c-0.5-0.4-1-0.9-1.5-1.1c1.2-0.7,2.1-1.4,2.7-2.3h-2.5v-9.1h3.2c0.2-0.7,0.3-1.3,0.4-2l3.1,0.3
		c-0.3,0.6-0.5,1.1-0.8,1.7h5.2v9.1h-5.9c-0.7,1.2-1.7,2.5-3.1,3.4h3.4v-2.9h2.6v2.9h3.7L379.7,25.4z M370.2,14.2h1.9v-0.3v-1.1
		h-1.9V14.2z M371.4,17.6c0.2-0.5,0.4-1,0.5-1.5h-1.7v1.5H371.4z M376.4,16.1h-2.1c-0.1,0.5-0.2,0.9-0.4,1.5h2.5V16.1z M376.4,12.7
		h-1.9v1.2v0.3h1.9V12.7z"/>
	<path class="st6" d="M398.6,26.1h3v1.8h-3v1.7h-2.7v-1.7h-14.2v-1.8h3.2v-5.5h-2.6v-1.8h0.1c-0.4-0.3-0.9-0.5-1.1-0.7
		c1.1-1,1.3-2.3,1.3-3.3v-1.3h8.4v3.7h-6.7c-0.2,0.6-0.4,1.1-0.9,1.6h8.6c-0.2-0.6-0.6-1.2-0.9-1.7c1-0.1,2.1-0.3,3-0.6
		c-0.7-0.5-1.1-1-1.6-1.7l0.8-0.2h-1.1v-1.4c-0.3-0.4-0.7-0.8-0.9-0.9c1.7-0.6,2-1.2,2-2.1v-1h6.2V11c0,0.4,0,0.6,0.4,0.6h0.8
		c0.3,0,0.9,0,1.1-0.1c0,0.6,0.1,1,0.1,1.6c-0.3,0.1-0.9,0.1-1.2,0.1h-0.9l1.2,0.5c-0.5,1.2-1.2,2.2-2.3,2.9
		c0.9,0.3,2.1,0.5,3.2,0.6c-0.4,0.4-0.9,1.1-1.2,1.7h0.5v1.8h-2.6v5.5l0,0L398.6,26.1L398.6,26.1z M385.7,11h-3.8V9.5h3.8V8.6h2.4
		v0.9h3.7v1.3h-3.7v0.7h3.1v1.3h-8.6v-1.3h3.1V11L385.7,11z M384.8,14.7L384.8,14.7c0,0.4,0,0.8,0,1.1h1.2v-1.1H384.8z M387.5,20.6
		v0.8h8.4v-0.8H387.5z M387.5,23.7h8.4v-0.8h-8.4V23.7z M396,26.1v-0.8h-8.4v0.8H396z M389.1,14.7h-1.3v1.1h1.3V14.7z M400.1,18.8
		c-1.3-0.2-2.6-0.6-3.6-1c-1,0.5-2.3,0.8-3.5,1H400.1z M395.3,10.9c-0.1,0.9-0.5,1.7-1.3,2.4h5.2h0.1h-0.1c-1.6,0-1.9-0.8-1.9-2.2
		v-0.2H395.3z M394.9,14.7c0.4,0.4,0.9,0.8,1.4,1c0.6-0.3,1-0.7,1.4-1H394.9z"/>
	<path class="st6" d="M424.5,27.1V29H404v-1.9h8.8v-0.9H406v-1.7h6.8v-0.8h-6.4v-5.8H422v5.8h-6.5v0.8h6.9v1.7h-6.9v0.9H424.5z
		 M424.4,17.4h-20.3v-1.9h20.3V17.4z M421.4,14.8h-14.6V9.3h14.6V14.8z M409,20.2h3.9v-0.8H409V20.2z M412.9,22.4v-0.8H409v0.8
		H412.9z M418.8,10.7h-9.3v0.8h9.3V10.7z M418.8,12.8h-9.3v0.8h9.3V12.8z M419.4,19.5h-3.9v0.8h3.9V19.5z M419.4,21.6h-3.9v0.7h3.9
		V21.6z"/>
	<path class="st6" d="M444.3,22.8h2.8v2h-2.8v2.3c0,1.2-0.2,1.8-1.1,2.1c-0.9,0.4-2.1,0.4-3.7,0.4c-0.1-0.7-0.4-1.6-0.8-2.2
		c1,0,2.2,0,2.5,0c0.4,0,0.5-0.1,0.5-0.4v-2.3h-5c0.9,0.9,1.7,1.7,2.2,2.5l-2.1,1.3c-0.5-0.9-1.6-2.2-2.7-3l1.1-0.8h-3.1v-2h9.5
		v-0.9c-3.2,0.1-6.4,0.2-8.8,0.2l-0.2-2c1.6,0,3.6,0,5.9,0v-0.9h-4.9v-6.2h4.9V12h-5.9v-1c-0.5,1-0.9,2.1-1.5,3.1v15.4h-2.4V18.1
		c-0.5,0.7-1,1.2-1.5,1.8c-0.3-0.7-0.9-2.1-1.4-2.7c2-2,4-5.2,5.1-8.4l2.6,0.9l-0.3,0.7h5.5V8.8h2.6v1.3h5.8V12h-5.8v0.9h5.1v6.2
		h-0.9c0.9,0.8,1.7,1.7,2.1,2.4l-1.9,1c-0.1-0.2-0.4-0.5-0.6-0.8h-0.7v1.1H444.3z M436,15.3h2.6v-0.9H436V15.3z M438.5,17.6v-0.9
		h-2.6v0.9H438.5z M441.1,14.4v0.9h2.6v-0.9H441.1z M443.7,16.7h-2.6v0.9h2.6V16.7z M441.1,20h2.2c-0.3-0.3-0.6-0.5-0.8-0.8l0.2-0.1
		h-1.5L441.1,20L441.1,20z"/>
	<path class="st6" d="M454.1,19.1c-0.4,2.1-0.9,4.3-1.6,6.1c0.4,0.2,0.9,0.6,1.4,0.9c1.6,0.9,3.7,1,6.3,1c2.7,0,6.6-0.3,9.2-0.6
		c-0.3,0.7-0.7,1.9-0.8,2.7c-1.8,0.1-5.9,0.3-8.5,0.3c-3,0-4.9-0.2-6.6-1.1c-0.9-0.6-1.7-1.2-2.3-1.2c-0.4,0-1,1.5-1.4,2.7l-1.7-2.5
		c0.8-1,1.5-1.8,2.2-2.2c0.5-1.1,0.9-2.6,1-4h-2.5c0.4-1.3,0.9-3.1,1.4-4.8h-1.8V14h4.5c-0.4,1.6-0.9,3.4-1.3,4.9h0.9l0.4-0.1
		L454.1,19.1z M450.9,13.2c-0.3-1-0.8-2.7-1.1-3.9l2.1-0.6c0.4,1.2,0.9,2.7,1.2,3.8L450.9,13.2z M457.4,15c0,3-0.4,7.6-2.5,10.6
		c-0.3-0.5-1.1-1.5-1.5-1.7c1.6-2.6,1.8-6.2,1.8-8.8V9.9l0,0c4-0.2,8.6-0.7,11.2-1.3l2,1.7c-1.2,0.3-2.7,0.6-4.2,0.8v0.8h3.9v1.4
		h-3.9v0.8h3l0.4-0.1l1.6,0.3c-0.2,0.9-0.5,2-0.8,2.7l-1.7-0.5l0.1,1.1l-2.7,0.2c0,0.5,0.1,0.7,0.5,0.7h2.1c0.5,0,1,0,1.4-0.1
		c0,0.5,0.1,1.1,0.2,1.6c-0.3,0.1-0.9,0.1-1.5,0.1h-2.4c-1.7,0-2.2-0.7-2.2-2.2l-1.3,0.1l-0.1-1.4l1.4-0.1v-0.9h-1.8v1.7
		c0,2.7-0.5,6.6-2.7,9.2c-0.3-0.4-1.1-1.2-1.5-1.5c2-2.3,2.2-5.4,2.2-7.7v-3.2h3.8v-2.8c-1.6,0.2-3.2,0.3-4.7,0.4L457.4,15L457.4,15
		z M463.5,20.4c0,3.4-0.4,5.1-3,6c-0.2-0.5-0.7-1.2-1-1.6c1.9-0.7,2-1.7,2-4.4H463.5z M464.2,16.3l2.6-0.1c0-0.2,0.1-0.5,0.1-0.7
		h-2.7V16.3L464.2,16.3z M466.5,20.4v3.2c0,0.3,0,0.4,0.1,0.5c0,0.1,0.1,0.1,0.3,0.1h0.4c0.1,0,0.2,0,0.3-0.1c0.1,0,0.1-0.1,0.2-0.3
		c0.1-0.2,0.1-0.6,0.1-1.1c0.4,0.4,1.1,0.8,1.7,0.9c-0.1,0.7-0.2,1.2-0.3,1.5c-0.2,0.3-0.4,0.5-0.8,0.6c-0.3,0.1-0.7,0.2-1,0.2h-1
		c-0.5,0-1-0.1-1.3-0.5c-0.4-0.4-0.5-0.8-0.5-1.9v-3.2L466.5,20.4L466.5,20.4z"/>
</g>
<circle class="st7" cx="355.8" cy="317.7" r="54.6"/>
<circle class="st3" cx="355.8" cy="317.7" r="49.2"/>
<circle class="st7" cx="407.6" cy="226.6" r="54.6"/>
<circle class="st8" cx="407.6" cy="226.6" r="49.2"/>
<ellipse transform="matrix(0.7071 -0.7071 0.7071 0.7071 39.2729 366.6181)" class="st7" cx="462.2" cy="135.9" rx="54.6" ry="54.6"/>
<ellipse class="st9" cx="462.2" cy="135.9" rx="49.2" ry="49.2"/>
<g>
	<g class="st10">
		<path d="M384,220.6c0.4-1.3,0.8-3.5,1-5.1l1.4,0.5c-0.2,1.6-0.4,3.8-0.9,5.2L384,220.6z M393.7,212.4c0,0,0,0.6,0,0.9
			c-0.1,5.7-0.3,7.8-0.8,8.4c-0.4,0.5-0.7,0.7-1.3,0.8c-0.5,0.1-1.2,0.1-1.9,0.1c0-0.6-0.3-1.5-0.6-2.1c0.6,0.1,1.1,0.1,1.3,0.1
			s0.4,0,0.6-0.3c0.1-0.2,0.2-0.8,0.3-2.1l-0.9,0.3c-0.2-0.8-0.6-2.1-0.9-3.1l1-0.3c0.3,0.7,0.6,1.6,0.9,2.3c0-0.8,0.1-1.7,0.1-2.9
			h-6.2v-13.2h7.9v2.3H391v1.6h1.8v2.1H391v1.4h1.8v2.1H391v1.5L393.7,212.4L393.7,212.4z M387.8,215.9c0.1,1.3,0.2,3.1,0.2,4.3
			l-1.2,0.1c0-1.2,0-3-0.1-4.4L387.8,215.9z M387.5,203.8v1.6h1.4v-1.6H387.5z M388.9,207.5h-1.4v1.4h1.4V207.5z M387.5,212.4h1.4
			v-1.5h-1.4V212.4z M389.2,215.6c0.3,1.2,0.6,2.8,0.7,3.8l-1.2,0.2c-0.1-1-0.4-2.7-0.6-3.9L389.2,215.6z M403.7,219.9
			c0.8,0,1.9-0.1,2.4-0.2c0.1,0.6,0.2,1.7,0.3,2.2c-0.5,0.2-1.7,0.2-2.9,0.2h-5c-3,0-4.1-1.1-4.1-4.4v-13.8h-0.8v-2.2h12.3v2.2h-9.3
			v13.9c0,1.6,0.4,2.1,1.8,2.1H403.7z M397.3,211.8h3.8v6.8h-3.8V211.8z M404.6,210.6h-6.1v-5.8h6.1V210.6z M398.7,217h1v-3.5h-1
			V217z M402.5,206.5h-1.9v2.4h1.9V206.5z M405.8,218.6h-4v-6.8h4V218.6z M404.3,213.5h-1.1v3.5h1.1V213.5z"/>
		<path d="M423.5,214.1c-0.2,1.5-0.6,2.9-1.3,4.1c2.2,1,4.9,1.7,8.1,2c-0.6,0.6-1.3,1.8-1.7,2.5c-3.2-0.4-5.9-1.2-8.1-2.5
			c-1.1,1-2.7,1.9-4.9,2.5c-0.4-0.6-1.2-1.8-1.8-2.3c1.9-0.4,3.3-1,4.3-1.8c-1.2-1-2.1-2.2-2.9-3.5l2.3-0.7c0.6,0.9,1.3,1.7,2.2,2.4
			c0.5-0.9,0.7-1.7,0.9-2.7h-5.3v-6.9h5.4v-1.7h-5.9v-2.2c-0.4,0.9-0.9,1.8-1.4,2.7v16.7h-2.7V210c-0.6,0.8-1.3,1.6-1.9,2.2
			c-0.3-0.7-1-2.2-1.5-2.9c2.2-2.1,4.4-5.5,5.7-8.8l2.6,0.9c-0.2,0.5-0.4,1-0.6,1.5h5.8v-2.2h2.8v2.2h6.3v2.6h-6.3v1.7h5.6v6.9
			L423.5,214.1L423.5,214.1z M420.9,211.8v-0.3v-2H418v2.3H420.9z M423.7,209.4v2.1v0.3h2.9v-2.3h-2.9V209.4z"/>
	</g>
	<g class="st10">
		<path d="M393,235.2c-0.7,1.2-1.6,2.4-2.5,3.6v12.4h-2.8v-9.3c-0.7,0.6-1.3,1.2-1.9,1.8c-0.4-0.6-1.3-1.8-1.9-2.4
			c2.4-1.7,5-4.4,6.5-7.1L393,235.2z M392.2,230.1c-1.7,2.2-4.3,4.7-6.5,6.2c-0.4-0.6-1.1-1.8-1.6-2.3c2-1.3,4.2-3.4,5.3-5
			L392.2,230.1z M406.1,239.5h-3.2v8.3c0,1.5-0.3,2.3-1.3,2.7s-2.5,0.5-4.6,0.5c-0.1-0.8-0.5-2.1-0.9-2.9c1.3,0.1,2.9,0.1,3.3,0
			c0.4,0,0.6-0.1,0.6-0.5v-8.2h-7v-2.7h13.1V239.5z M405.5,233H394v-2.7h11.5V233z"/>
		<path d="M429.5,234.3c0,0,0,0.9,0,1.3c-0.2,9.7-0.4,13.1-1.2,14.2c-0.5,0.8-1.1,1-1.9,1.2c-0.7,0.1-1.8,0.1-2.9,0.1
			c0-0.8-0.4-1.9-0.8-2.7c1,0.1,1.9,0.1,2.4,0.1c0.4,0,0.6-0.1,0.8-0.4c0.5-0.6,0.7-3.5,0.9-11.2h-2.1c-0.3,6.3-1.4,11.2-5.4,14.4
			c-0.4-0.6-1-1.3-1.7-1.9c-3.4,0.4-6.8,0.7-9.4,0.9l-0.3-2.4c1.3-0.1,3-0.2,4.8-0.3v-1.4h-4.2v-2h4.2v-0.9h-4.1V236h4.1v-0.9H408
			v-2h4.7v-0.9c-1.4,0.1-2.7,0.2-4,0.2c-0.1-0.6-0.4-1.4-0.6-2c3.5-0.2,7.6-0.6,10.2-1.2l1.2,2.1c-1.3,0.3-2.7,0.5-4.3,0.6v1.2h4.5
			v1.3h2.2c0-1.6,0-3.2,0-4.9h2.7c0,1.7,0,3.4,0,4.9h4.9L429.5,234.3L429.5,234.3z M410.8,238.8h1.8v-1h-1.8V238.8z M412.7,241.6
			v-1.1h-1.8v1.1H412.7z M415.2,247.4c1.3-0.1,2.7-0.2,4.1-0.3c1.8-2.6,2.4-5.9,2.6-10.2h-2.2v-1.8h-4.5v0.9h4.2v7.3h-4.2v0.9h4.3v2
			h-4.3V247.4z M417.1,238.8v-1h-1.8v1H417.1z M415.2,240.5v1.1h1.8v-1.1H415.2z"/>
	</g>
</g>
<g>
	<g class="st10">
		<path class="st4" d="M340.1,304.3l0.5,2.5c-2.3,0.9-4.8,1.9-6.8,2.8l-0.9-2.8c0.7-0.2,1.6-0.5,2.6-0.8v-7.4h-2.2V296h2.2v-5.3h2.6
			v5.3h2.1v2.6h-2.1v6.5L340.1,304.3z M354,293.7v8.2h-13v-8.2h2.8c-0.4-0.8-0.9-1.7-1.5-2.5l2.4-1c0.6,0.8,1.3,2,1.7,2.7l-1.6,0.8
			h3.7c0.6-1,1.3-2.4,1.7-3.5l3,0.9c-0.6,0.9-1.3,1.8-1.8,2.6H354z M342.1,302.9h11v9.5h-2.7v-1.1h-5.8v1.1H342v-9.5H342.1z
			 M343.2,300.1h3.2v-4.5h-3.2V300.1z M344.8,295.9c0.6,1,1.2,2.3,1.4,3.3l-1.5,0.6c-0.2-0.9-0.7-2.3-1.3-3.3L344.8,295.9z
			 M344.6,304.9v1.3h5.8v-1.3H344.6z M350.4,309.3v-1.1h-5.8v1.1H350.4z M348.4,295.5v4.5h3.2v-4.5H348.4z M348.6,299.2
			c0.5-0.9,1.1-2.3,1.4-3.3l1.7,0.6c-0.6,1.1-1.3,2.4-1.8,3.2L348.6,299.2z"/>
		<path class="st4" d="M367.9,294.5c0,0,0,0.9,0,1.3c-0.4,10-0.7,13.7-1.5,14.8c-0.5,0.8-1.1,1.1-1.8,1.3c-0.7,0.1-1.7,0.1-2.7,0.1
			c0-0.9-0.4-2.1-0.8-2.9c0.8,0.1,1.6,0.1,2,0.1s0.6-0.1,0.8-0.4c0.5-0.7,0.9-3.6,1.2-11.5h-2.3c-0.3,6-1.2,11.4-4,15.2
			c-0.5-0.7-1.4-1.6-2.2-2c2.5-3.2,3.2-8,3.4-13.2h-2.8v-2.7h2.8c0-1.3,0-2.7,0-4.1h2.8c0,1.4,0,2.8,0,4.1L367.9,294.5z M377.9,293
			v18.7H375v-1.5h-3.2v1.6H369V293H377.9z M374.9,307.6v-11.9h-3.2v11.9H374.9z"/>
	</g>
	<g class="st10">
		<path class="st4" d="M354.9,337.5v2.7h-21.5v-2.7h13.1c0.1-1,0.3-2,0.5-3.1h-10.5c0.9-3.2,2-8.1,2.7-12.1h-5v-2.7h20.1v2.7h-12
			c-0.2,1-0.4,2-0.6,3.1h6.8l0.5-0.1l2.2,0.3c-0.4,3.4-1,8-1.7,11.9L354.9,337.5L354.9,337.5z M347.3,331.8c0.2-1.3,0.4-2.6,0.5-3.7
			H341c-0.3,1.3-0.6,2.6-0.8,3.7H347.3z"/>
		<path class="st4" d="M378.3,324c0,0,0,0.9,0,1.3c-0.2,9.7-0.4,13.1-1.2,14.2c-0.5,0.8-1.1,1-1.9,1.2c-0.7,0.1-1.8,0.1-2.9,0.1
			c0-0.8-0.4-1.9-0.8-2.7c1,0.1,1.9,0.1,2.4,0.1c0.4,0,0.6-0.1,0.8-0.4c0.5-0.6,0.7-3.5,0.9-11.2h-2.1c-0.3,6.3-1.4,11.2-5.4,14.4
			c-0.4-0.6-1-1.3-1.7-1.9c-3.4,0.4-6.8,0.7-9.4,0.9l-0.3-2.4c1.3-0.1,3-0.2,4.8-0.3v-1.4h-4.2v-2h4.2V333h-4.1v-7.3h4.1v-0.9h-4.7
			v-2h4.7v-0.9c-1.4,0.1-2.7,0.2-4,0.2c-0.1-0.6-0.4-1.4-0.6-2c3.5-0.2,7.6-0.6,10.2-1.2l1.2,2.1c-1.3,0.3-2.7,0.5-4.3,0.6v1.2h4.5
			v1.3h2.2c0-1.6,0-3.2,0-4.9h2.7c0,1.7,0,3.4,0,4.9h4.9L378.3,324L378.3,324z M359.6,328.5h1.8v-1h-1.8V328.5z M361.5,331.3v-1.1
			h-1.8v1.1H361.5z M364,337.1c1.3-0.1,2.7-0.2,4.1-0.3c1.8-2.6,2.4-5.9,2.6-10.2h-2.2v-1.8H364v0.9h4.2v7.3H364v0.9h4.3v2H364
			V337.1z M365.9,328.5v-1H364v1H365.9z M364,330.2v1.1h1.8v-1.1H364z"/>
	</g>
</g>
<g>
	<g class="st10">
		<path class="st4" d="M448.2,117.2c-0.3,0.6-0.6,1.3-0.9,1.9h11v11.7c0,1.4-0.3,2.2-1.2,2.6c-0.9,0.4-2.3,0.5-4.2,0.5
			c-0.1-0.8-0.5-2-0.9-2.7c1.2,0.1,2.6,0.1,3,0.1s0.5-0.1,0.5-0.5v-1.4h-8.9c-0.4,1.8-1.2,3.5-2.6,4.7c-0.4-0.6-1.4-1.8-2-2.2
			c2-1.8,2.2-4.3,2.2-6.5v-1.9c-0.9,0.9-1.8,1.8-2.9,2.6c-0.4-0.6-1.3-1.7-1.8-2.2c2.4-1.6,4.3-4,5.7-6.6h-5.1v-2.7h6.3
			c0.4-1,0.7-1.9,0.9-2.9l2.9,0.7c-0.2,0.7-0.5,1.5-0.8,2.2h11.5v2.7h-12.7V117.2z M455.5,126.9v-1.5H447c0,0.5,0,1,0,1.5H455.5z
			 M455.5,121.6H447v1.5h8.5V121.6z"/>
		<path class="st4" d="M483.8,118.4c-0.5,3.6-1.4,6.6-2.7,9.1c1.2,1.7,2.6,3.1,4.3,4.1c-0.6,0.5-1.5,1.5-1.9,2.2
			c-1.5-1-2.9-2.3-4-3.9c-1.3,1.6-3,2.9-5.1,4c-0.4-0.5-1.4-1.6-1.9-2.1c2.4-1,4.2-2.5,5.5-4.4c-0.7-1.3-1.2-2.7-1.7-4.2
			c-0.3,0.5-0.6,1-1,1.5c-0.3-0.5-1.1-1.6-1.6-2.2l-1.1,0.6c-0.1-0.3-0.2-0.6-0.4-1c-0.4,1.3-0.8,2.5-1.3,3.6
			c1.2,1.4,2.3,2.8,2.9,3.9l-2.2,1.8c-0.5-0.9-1.2-1.9-2.1-3.1c-1.2,2-2.8,3.7-4.7,4.9c-0.4-0.5-1.3-1.6-1.9-2.1
			c2-1.2,3.6-2.9,4.8-5c-0.8-0.9-1.6-1.8-2.4-2.6c-0.2,0.3-0.4,0.6-0.7,0.9c-0.4-0.5-1.3-1.3-1.9-1.8c1.2-1.3,2.4-3.4,3.1-5.3
			l2.4,0.8c-0.7,1.7-1.8,3.6-2.7,5.1l1.8-1.3c0.5,0.5,1.1,1.1,1.6,1.6c0.3-0.8,0.5-1.6,0.7-2.5l2.2,0.4c-0.6-1.1-1.3-2.2-2.1-3.2
			l1.7-1h-8.1V115h4.7c-0.3-0.8-0.8-1.7-1.2-2.5l2.4-0.9c0.6,0.9,1.2,2,1.5,2.7l-1.5,0.6h5.4v2.5h-2.7c0.9,1.1,1.8,2.5,2.4,3.7
			c1.4-2.5,2.3-5.9,2.8-9.5l2.6,0.4c-0.2,1.3-0.4,2.5-0.7,3.7h5.8v2.6h-1L483.8,118.4L483.8,118.4z M478.3,118.4
			c-0.2,0.5-0.3,1-0.5,1.5c0.4,1.7,1,3.3,1.7,4.8c0.8-1.8,1.3-3.9,1.6-6.3H478.3z"/>
	</g>
	<g class="st10">
		<path class="st4" d="M461,148.1c0,0,0,0.8,0,1c-0.1,8.4-0.3,11.2-0.9,12c-0.4,0.6-0.9,0.8-1.4,0.9c-0.5,0.1-1.2,0.1-2,0.1
			c0-0.5-0.2-1.2-0.4-1.7h-0.1c0-0.2-0.1-0.4-0.1-0.6c-2.4,0.3-4.7,0.6-6.7,0.9l-0.4-2c1-0.1,2.2-0.2,3.5-0.3v-1.7h-2.9v-4.4
			c-0.2-0.2-0.5-0.5-0.8-0.9v8.1c0,1-0.2,1.7-0.9,2.1c-0.7,0.4-1.6,0.5-2.9,0.5c-0.1-0.6-0.4-1.6-0.7-2.2c0.9,0,1.7,0,2,0
			s0.4-0.1,0.4-0.4V156h-4c-0.2,2.2-0.7,4.6-1.6,6.3c-0.4-0.3-1.3-0.9-1.8-1.1c1.4-2.5,1.5-6,1.5-8.7v-3.8c-0.5-0.4-1.2-1-1.6-1.3
			c1.5-1.7,2.6-4.4,3.2-7.2l2.4,0.5c-0.1,0.5-0.3,1.1-0.4,1.6h1.6l0.5-0.1l1.4,1c-0.4,1-0.8,2.1-1.3,3.1h2.3v3.8
			c0.9-0.9,1.7-2,2.2-3.1h-1.8v-6H461v5.8h-7.3c-0.2,0.4-0.4,0.9-0.6,1.3H461z M443.5,144.3c-0.3,0.6-0.5,1.3-0.8,1.8h1.6
			c0.2-0.5,0.4-1.2,0.6-1.8H443.5z M442.7,152.4c0,0.5,0,1,0,1.5h1.1V152h-1v0.4H442.7z M442.7,150h1v-1.8h-1V150z M446.5,148.2
			h-1.1v1.8h1.1V148.2z M446.5,153.9V152h-1.1v1.9H446.5z M457.3,160.2c0.3,0,0.4,0,0.6-0.4c0.3-0.5,0.5-2.9,0.6-9.6h-7
			c-0.5,0.7-1,1.3-1.5,1.8h2.4v-1.5h2v1.5h3.1v4.9h-3.1v1.5l1-0.1c-0.1-0.3-0.2-0.6-0.3-0.8l1.6-0.5c0.5,0.9,0.9,2.2,1.1,3l-0.8,0.3
			L457.3,160.2L457.3,160.2z M451.2,144.8h1.2V143h-1.2V144.8z M452.4,155.2v-1.6h-1.1v1.6H452.4z M454.3,144.8h1.2V143h-1.2V144.8z
			 M454.4,155.2h1.1v-1.6h-1.1V155.2z M457.4,144.8h1.2V143h-1.2V144.8z"/>
		<path class="st4" d="M484,148.5c-0.9,3.7-2.5,6.5-4.6,8.7c1.7,1.1,3.6,1.9,5.8,2.4c-0.7,0.6-1.5,1.9-2,2.7
			c-2.4-0.7-4.4-1.7-6.2-3.1c-2,1.5-4.4,2.5-7,3.3c-0.3-0.8-1-2-1.6-2.6c2.4-0.6,4.6-1.5,6.5-2.8c-1.6-1.8-2.8-4.1-3.8-6.7h-0.4
			c-0.5,3.9-2,8.2-5.8,11.5c-0.4-0.7-1.4-1.9-2-2.4c4.7-4,5.2-10,5.2-13.8v-1.8h-3.7v-2.7h15c-0.4,2.2-0.9,4.7-1.3,6.7h3.5l0.5-0.1
			L484,148.5z M471,145.7c0,0.7,0,1.3,0,2.1h3.8c0.3-1.2,0.7-2.6,1-3.9H471V145.7z M473.8,150.4c0.8,1.8,1.9,3.5,3.3,4.9
			c1.3-1.3,2.4-3,3.1-4.9H473.8z"/>
	</g>
</g>
<g>
	<g>
		<path class="st11" d="M330.7,435.8h4.4v18.5h9v3.7h-13.4V435.8z"/>
		<path class="st11" d="M348,435.8h4.4V458H348V435.8z"/>
		<path class="st11" d="M357.9,435.8h4.5l6.5,11.8l2.2,4.8h0.2c-0.2-2.3-0.6-5.3-0.6-7.8v-8.8h4.2V458h-4.5l-6.4-11.9l-2.3-4.8h-0.2
			c0.2,2.4,0.5,5.2,0.5,7.7v8.9h-4.1L357.9,435.8L357.9,435.8z"/>
		<path class="st11" d="M380.4,435.8H394v3.7h-9.2v5.1h7.8v3.7h-7.8v5.9h9.5v3.7h-13.9V435.8L380.4,435.8z"/>
		<path class="st11" d="M430.9,435v5.9h-3.8v-2.5h-18.8v2.5h-3.6V435h11.7c-0.2-0.7-0.5-1.3-0.8-1.9l3.6-0.8
			c0.5,0.8,0.9,1.8,1.1,2.7L430.9,435L430.9,435z M412.2,450.6h16v9.9h-3.7v-1.1h-12.3v1.2h-3.7v-20.4h18.6v8.4h-14.9V450.6
			L412.2,450.6z M412.2,443.2v2.3h11.3v-2.3H412.2z M412.2,453.6v2.6h12.3v-2.6H412.2z"/>
		<path class="st11" d="M446.1,440.9c-0.1,1.2-0.2,2.4-0.3,3.6h12.9c0,0,0,1.1-0.1,1.6c-0.5,8.1-1.2,11.5-2.4,12.7
			c-0.9,1-1.9,1.3-3.2,1.4c-1.2,0.1-3.2,0.1-5.2,0c-0.1-1-0.6-2.5-1.3-3.5c2,0.2,4.1,0.2,5,0.2c0.7,0,1-0.1,1.5-0.4
			c0.8-0.7,1.3-3.2,1.7-8.6h-9.4c-1,5-3.2,9.7-8.6,12.8c-0.5-1-1.7-2.2-2.6-3c7.2-3.8,7.8-10.6,8.1-16.9h-7.6v-3.5h12.7
			c-0.5-1.2-1.2-2.7-1.8-3.9l3.5-1.3c0.8,1.3,1.7,3.1,2.2,4.3l-2.1,0.9h12.3v3.5L446.1,440.9L446.1,440.9z"/>
		<path class="st11" d="M475,450.9c0,1.1-0.1,2-0.8,2.5c-0.6,0.5-1.3,0.6-2.4,0.6c0-0.8-0.3-1.9-0.7-2.7v9.3h-2.9v-19.4h-1.1v13.2
			h-2.6v-16.3h3.8v-5.5h2.9v5.5h3.8L475,450.9L475,450.9z M472.2,451.1c0.1,0,0.2-0.1,0.2-0.3v-9.5h-1.3v9.8H472.2z M491.3,451.3
			c-1.4,0.9-2.8,1.8-4,2.5c1.3,1.4,3,2.6,4.8,3.4c-0.8,0.7-1.8,2-2.4,2.9c-4.1-2.1-7-6.2-8.7-11.1h-1v7.1l4-1.1
			c0,0.9,0.1,2.2,0.2,2.9c-5.7,1.8-6.7,2.3-7.3,2.8c-0.2-0.9-1-2.5-1.6-3.2c0.6-0.4,1.5-1.3,1.5-2.6V449h-1.1v-3h1.7v-12.3H491v2.8
			h-10.2v1.4h8.9v2.5h-8.9v1.5h9v2.5h-9v1.5h10.9v3h-7.4c0.5,0.9,1,1.8,1.5,2.6c1.1-0.8,2.4-1.8,3.1-2.6L491.3,451.3z"/>
		<path class="st11" d="M504,449c0,0,0,0.8-0.1,1.2c-0.4,5.6-0.8,8-1.5,8.9c-0.5,0.7-1.1,0.9-2,1.1c-0.7,0.1-1.9,0.1-3.2,0
			c-0.1-0.9-0.4-2.1-0.8-2.9c1.1,0.1,2.1,0.1,2.6,0.1c0.4,0,0.7,0,0.9-0.3c0.4-0.5,0.7-1.9,0.9-5.3H498l0,0h-3.1
			c0.4-1.3,0.8-3.1,1.1-4.8h-2.1v-3.1h11.2v3.1h-5.9c-0.1,0.7-0.3,1.4-0.4,2L504,449L504,449z M504.4,442.2h-9.1v-8.5h9.1V442.2z
			 M501.7,436.2h-4v3.5h4V436.2z M518,446.3c0.6,0,1.7-0.1,2.1-0.2c0.1,0.9,0.1,1.7,0.2,2.5c-0.5,0.2-1.4,0.2-2.2,0.2h-3.2
			c-2.5,0-3-1.2-3.1-3.5l-2.1,0.2l-0.3-2.3l2.4-0.2v-1.8H509v4.9c0,4.3-0.5,10.5-2.9,14.5c-0.6-0.5-1.9-1.5-2.6-1.9
			c2.2-3.7,2.4-8.9,2.4-12.7v-7.7h5.8v-5.8h3.4v1.6h5.7v2.8h-5.7v1.3h4.3l0.5-0.1l2.2,0.5c-0.3,2-0.8,4.3-1.2,5.8l-2.6-0.7
			c0.1-0.7,0.3-1.7,0.4-2.7h-3.8v1.5l2.8-0.3l0.3,2.3l-3.1,0.3v0.2c0,0.8,0.1,1.1,0.7,1.1h2.4L518,446.3L518,446.3z M513.5,449.8
			c-0.2,4.9-0.8,8.6-4.2,10.9c-0.4-0.8-1.2-1.9-1.9-2.3c2.6-1.8,3-4.6,3.1-8.5h3V449.8L513.5,449.8z M519,457c0.2,0,0.4,0,0.5-0.1
			s0.2-0.3,0.3-0.6c0-0.5,0.1-1.5,0.1-2.8c0.5,0.5,1.6,1.1,2.4,1.4c-0.1,1.4-0.2,2.9-0.4,3.5s-0.5,1-1,1.3c-0.4,0.3-1.1,0.4-1.6,0.4
			h-1.6c-0.8,0-1.5-0.2-2-0.7s-0.6-1-0.6-2.7v-6.9h2.9v6.6c0,0.2,0.1,0.4,0.1,0.4c0.1,0.1,0.3,0.2,0.4,0.2L519,457L519,457z"/>
	</g>
</g>
<line class="st12" x1="356.3" y1="354.7" x2="356.3" y2="428.2"/>
<g>
	<path class="st11" d="M332.1,483.1c-0.8-0.8-2.3-1.8-3.5-2.5l1.4-1.7c1.2,0.7,2.8,1.6,3.5,2.3L332.1,483.1z M334.4,485.4
		c-1,2.2-2,4.6-3.1,6.6l-2.2-1.5c1-1.6,2.3-4.2,3.4-6.6L334.4,485.4z M333.1,477.6c-0.7-0.8-2.3-1.9-3.5-2.7l1.5-1.6
		c1.2,0.7,2.8,1.6,3.5,2.4L333.1,477.6z M343.8,485.5c1.2,1.5,3,3,4.7,3.8c-0.6,0.5-1.3,1.3-1.7,1.9c-1.6-1-3.2-2.5-4.4-4.2v5.5
		h-2.5v-5.4c-1.2,1.7-3,3.3-4.8,4.2c-0.4-0.6-1.2-1.5-1.6-2c1.9-0.8,3.7-2.2,4.9-3.8h-3.6v-2.2h5.3v-2.1h2.5v2.1h5.4v2.2H343.8z
		 M340.7,476.5c-0.2,3-1.1,4.7-5.5,5.5c-0.2-0.6-0.8-1.4-1.2-1.9c3.7-0.5,4.2-1.4,4.3-3.5h2.4L340.7,476.5L340.7,476.5z
		 M337.2,478.1h-2.3v-4.3h12.8v4.2h-2.4v-2h-8.1V478.1z M346.7,479.4c0.4,0,1.1,0,1.4-0.2c0,0.6,0.1,1.5,0.2,2.1
		c-0.4,0.1-1,0.2-1.5,0.2h-2.1c-2.2,0-2.7-0.7-2.7-2.8v-2.2h2.2v2.2c0,0.5,0.1,0.7,0.5,0.7L346.7,479.4L346.7,479.4z"/>
	<path class="st11" d="M354,480.3c0,3.5-0.3,8.8-2,12.3c-0.5-0.4-1.6-0.9-2.3-1.1c1.7-3.3,1.8-8,1.8-11.1v-5.7h7.9
		c-0.2-0.5-0.3-1-0.5-1.4l2.6-0.6c0.3,0.6,0.6,1.3,0.8,1.9h7v2.3h-15.2L354,480.3L354,480.3L354,480.3z M367.9,485.7
		c-0.9,1.6-2.1,2.9-3.7,3.9c1.6,0.4,3.4,0.6,5.3,0.8c-0.5,0.5-1.2,1.5-1.4,2.2c-2.6-0.3-4.9-0.8-6.8-1.5c-2,0.7-4.3,1.2-6.7,1.4
		c-0.2-0.6-0.7-1.5-1.1-2.1c1.7-0.2,3.5-0.4,5-0.8c-1-0.7-1.8-1.4-2.6-2.3l0.9-0.4h-2.2V485h11.3l0.5-0.1L367.9,485.7z M357.3,484.2
		v-3.3h-2.9V479h2.9v-1.5h2.4v1.4h3.8v-1.4h2.5v1.4h3.1v1.9H366v3.3L357.3,484.2L357.3,484.2z M358.6,487c0.8,0.7,1.7,1.2,2.8,1.7
		c1.1-0.5,2-1.1,2.8-1.7H358.6z M359.6,480.8v1.4h3.8v-1.4H359.6z"/>
	<path class="st11" d="M389.3,489.6c0,1.3-0.3,2.1-1.2,2.5c-0.9,0.4-2.2,0.5-4,0.5c-0.1-0.8-0.5-1.9-0.9-2.6c1.2,0.1,2.6,0.1,3,0.1
		s0.5-0.1,0.5-0.5v-3.7c-0.5,0.6-1.2,1.2-1.4,1.8c-2.2-1.3-3.6-3.4-4.6-5.8c-1,2.7-2.4,4.7-4.8,5.9c-0.2-0.4-0.7-1-1.1-1.4v6.1h-2.6
		v-15h7.5c-0.1-0.6-0.1-1.1-0.2-1.6H376v-2.2h5.8c0.1,1.3,0.2,2.6,0.4,3.8h7.2L389.3,489.6L389.3,489.6z M374.9,485.5
		c2-1.2,3.4-3.1,4-5.5h-4V485.5z M382.7,480c0.8,2.3,2,4.1,4,5.3V480H382.7z"/>
	<path class="st11" d="M403.6,480.2c-0.1,0.2-0.2,0.4-0.4,0.5c2.4,2.5,5.2,3.9,8.4,5.1c-0.6,0.6-1.2,1.3-1.5,2.1
		c-0.8-0.4-1.4-0.7-2.1-1.1v5.8h-2.6V492h-7.2v0.6h-2.5v-5.5c-0.8,0.4-1.4,0.7-2.3,1.1c-0.4-0.6-1-1.5-1.5-2
		c3.9-1.3,7.6-3.7,9.5-6.9L403.6,480.2z M395.3,479.1h-2.5v-4.5h7.8c-0.2-0.5-0.4-1-0.6-1.3l2.7-0.6c0.3,0.6,0.7,1.2,0.9,1.9h7.3
		v4.5h-2.6v-2.3h-12.9L395.3,479.1L395.3,479.1z M400.4,478.1c-1.3,1.9-3.5,3.7-5.5,4.8c-0.4-0.5-1.2-1.4-1.7-1.9
		c1.8-0.9,3.7-2.2,4.8-3.6L400.4,478.1z M405.4,489.7v-2.2h-7.2v2.2H405.4z M405.4,485.3c-1.2-0.9-2.4-1.8-3.5-3
		c-1,1.2-2.1,2.1-3.3,3H405.4z M404.9,477.3c1.7,1.1,4.1,2.7,5.3,3.8l-1.8,1.6c-1.1-1.2-3.4-2.9-5.2-4L404.9,477.3z"/>
	<path class="st11" d="M419.4,485.9c0-0.3-0.1-0.6-0.2-0.9c-4.2,0.7-5,0.8-5.5,1.1c-0.1-0.5-0.5-1.5-0.8-2.2c0.5-0.1,1-0.6,1.6-1.3
		c0.3-0.3,0.8-0.9,1.3-1.7c-1.6,0.2-2,0.3-2.4,0.5c-0.1-0.5-0.5-1.5-0.8-2.1c0.4-0.1,0.8-0.6,1.2-1.2c0.5-0.6,1.7-3,2.5-5.2l2.2,0.9
		c-0.8,1.7-1.7,3.5-2.8,5.1l1.4-0.1c0.5-0.9,1.1-1.8,1.4-2.8l2.1,1.2c-1.2,2.2-2.7,4.4-4.3,6.3l2.2-0.3c-0.2-0.6-0.4-1.2-0.5-1.6
		l1.8-0.6c0.5,1.4,1.1,3.3,1.3,4.3L419.4,485.9z M415.9,487.1c-0.2,1.9-0.5,4-1,5.4c-0.5-0.3-1.4-0.6-1.9-0.7c0.5-1.2,0.8-3.3,0.9-5
		L415.9,487.1z M418.1,486.7c0.3,1.4,0.5,3.2,0.6,4.3l-1.9,0.4c0-1.2-0.2-3-0.5-4.4L418.1,486.7z M420.2,486c0.4,1.1,0.8,2.3,1,3.2
		l-1.7,0.7c-0.2-0.9-0.6-2.2-0.9-3.3L420.2,486z M432.8,489.7v2.3h-12.1v-2.3h4.8v-2.9h-3.8v-2.2H432v2.2h-3.9v2.9H432.8z
		 M425.2,476.8c-0.7,1.1-1.3,2.3-2,3.3c0.9,1.2,1.7,2.5,2.2,3.4l-2,0.8c-0.5-1.1-1.4-2.7-2.5-4.1c0.9-1.2,1.7-2.8,2.2-3.8
		L425.2,476.8z M432.6,475.9h-11.4v-2.2h11.4V475.9z M426.9,484.2c-0.5-1.1-1.4-2.7-2.6-4c0.9-1.2,1.7-2.8,2.2-3.7l2.1,0.5
		c-0.7,1.1-1.3,2.3-2,3.3c0.9,1.2,1.7,2.4,2.2,3.3L426.9,484.2z M430.6,484.3c-0.5-1.1-1.6-2.7-2.8-4.1c0.9-1.2,1.8-2.8,2.3-3.8
		l2.1,0.5c-0.7,1.2-1.4,2.3-2.1,3.3c1,1.2,1.9,2.4,2.4,3.3L430.6,484.3z"/>
	<path class="st11" d="M449.8,472.9c-0.1,1.3-0.2,2.4-0.5,3.4c1.3,0.7,3.1,1.5,4,2.2l-1.1,1.2h0.9v4h-2.5v-2.1h-13.1v2.1h-2.4v-4
		h0.4c-0.3-0.5-0.7-1.1-1.1-1.4c3.6-0.9,4-2.4,4.2-5.4h2.2c-0.1,1.3-0.2,2.5-0.6,3.5c1.1,0.6,2.3,1.3,3,1.8l-1.5,1.5
		c-0.5-0.5-1.5-1.1-2.4-1.6c-0.6,0.7-1.4,1.2-2.6,1.6h7.8c-0.3-0.6-0.7-1.2-1.2-1.5c3.6-0.8,4-2.2,4.2-5.3L449.8,472.9L449.8,472.9z
		 M436.3,476.4c-0.4-0.6-1.1-1.4-1.6-2.1l1.5-1.2c0.6,0.6,1.3,1.4,1.7,1.9L436.3,476.4z M443.8,487.4h8v5.2h-2.5v-0.5h-10.1v0.5
		h-2.4v-5.2h4.9c0.1-0.3,0.2-0.6,0.4-0.9h-3.7v-4.2h11.4v4.2h-5.5L443.8,487.4z M449.2,489.1h-10.1v1.2h10.1V489.1z M440.6,485h6.6
		v-1.2h-6.6V485z M440.7,475.9c0.5-0.7,1.1-1.5,1.3-2.2l1.6,0.5l1.5-1.2c0.6,0.6,1.3,1.4,1.7,1.9l-1.5,1.2c-0.3-0.5-0.9-1.2-1.3-1.8
		c-0.7,0.8-1.2,1.5-1.7,1.9L440.7,475.9z M451.2,479.7c-0.8-0.5-1.9-1.2-2.9-1.6c-0.6,0.7-1.5,1.2-2.9,1.6H451.2z M453.5,474.4
		c-0.7,0.9-1.4,1.6-2,2.2L450,476c0.5-0.7,1.1-1.6,1.3-2.3L453.5,474.4z"/>
	<path class="st11" d="M457.9,477.9c0-1.2,0.9-2,2-2c1.2,0,2,0.9,2,2s-0.9,1.9-2,1.9C458.7,479.9,457.9,479,457.9,477.9z
		 M457.9,487.9c0-1.2,0.9-2,2-2c1.2,0,2,0.9,2,2c0,1.2-0.9,1.9-2,1.9C458.7,489.9,457.9,489.1,457.9,487.9z"/>
	<g>
		<path class="st11" d="M343,504.3c1,3.2,3.2,6.1,5.9,7.7c-0.5,0.4-1.1,1.2-1.4,1.8c-0.7-0.5-1.3-1-1.9-1.5c0,0.1,0,0.3,0,0.4
			c-0.3,6.4-0.6,8.8-1.2,9.7c-0.5,0.6-1,0.8-1.7,0.9c-0.7,0.1-2,0.1-3.3,0c0-0.6-0.3-1.4-0.7-2c1.2,0.1,2.5,0.2,3,0.2
			c0.4,0,0.7-0.1,0.9-0.3c0.5-0.5,0.8-2.5,1-7.4h-4.8c-0.6,4.1-1.9,7.8-7.3,9.8c-0.2-0.5-0.8-1.3-1.2-1.7c4.9-1.6,5.9-4.7,6.4-8.1
			h-3.9v-1.5c-0.6,0.6-1.2,1.2-1.7,1.6c-0.4-0.4-1.2-1.2-1.6-1.4c2.4-1.7,4.3-4.5,5.4-7.7l2,0.5c-0.9,2.5-2.1,4.8-3.6,6.6h12.2
			c-1.5-1.6-2.8-3.5-3.5-5.7h-3.9v-1.8L343,504.3L343,504.3z"/>
		<path class="st11" d="M356.4,514.7c-0.2,0.8-0.4,1.5-0.7,2.4c1.1,0.8,2.3,1.8,2.9,2.5l-1.1,1.4c-0.5-0.7-1.5-1.6-2.5-2.4
			c-0.8,1.4-1.9,2.8-3.6,3.7c-0.2-0.5-0.8-1.2-1.2-1.4c3-1.4,3.8-4.2,4.2-6.1L356.4,514.7L356.4,514.7L356.4,514.7z M366.9,514.2
			c-0.1,0.9-0.3,1.7-0.6,2.6c0.7,1.2,2.1,2.9,3.5,3.8c-0.4,0.3-1.1,1-1.3,1.4c-1.2-0.9-2.2-2.2-3-3.5c-0.7,1.3-1.7,2.7-3.3,3.6
			c-0.2-0.5-0.7-1.1-1.2-1.4v2.6h-1.9v-9.8c-2.3,0.2-4.6,0.3-6.6,0.3c-0.3-0.5-0.8-1.4-1.2-1.8c5.4,0.1,12.3-0.3,16.1-0.9l1.4,1.4
			c-2.1,0.4-5,0.7-7.9,0.9v7.1c2.7-1.5,3.5-4.4,3.8-6.4L366.9,514.2L366.9,514.2z M368.5,510.4h-16.7v-5.8h16.7V510.4z M356.6,506.4
			h-3v2.3h3V506.4z M361.6,506.4h-3.1v2.3h3.1V506.4z M366.5,506.4h-3.2v2.3h3.2V506.4z"/>
		<path class="st11" d="M379.3,509h-7.6v-1.5h3.5c-0.3-0.8-0.9-2-1.4-2.9l1.4-0.8c0.5,0.9,1.2,2,1.4,2.8l-1.3,0.9h3.9L379.3,509
			L379.3,509z M372.6,511.8v-1.5h5.9v1.5H372.6z M372.6,513h5.9v1.5h-5.9V513z M378.5,522.1h-4.4v1h-1.5V516h5.9V522.1L378.5,522.1z
			 M374.1,517.5v3h2.9v-3H374.1z M388.8,505.1c-0.2,7.8-0.2,15.6,0.9,15.9c0.1,0,0.3-1.3,0.4-2.8c0.3,0.5,0.8,1.2,1.1,1.5
			c-0.3,3-1.2,3.6-2.2,3.2c-2-0.7-2-7.8-2-16h-3.1v5.9h2.5v1.8h-2.5v8.6H382v-8.6h-2.6v-1.8h2.6v-5.9h-2.4v-1.8L388.8,505.1
			L388.8,505.1z"/>
		<path class="st11" d="M392.7,521.4c0.8-1.2,1.5-3,2.1-4.3l1.7,0.7c-0.5,1.3-1.2,3.3-2,4.4L392.7,521.4z M401.7,515.9h-5.8v-10.1
			h4.9c0.3-0.7,0.6-1.5,0.7-2.1l2.3,0.4c-0.3,0.7-0.7,1.2-1,1.7h6v10.1h-6.4c1,0.9,2,2.1,2.5,3l-1.6,1c-0.5-1-1.6-2.3-2.7-3.3
			L401.7,515.9z M404.9,521.1c1.1,0,1.2-0.3,1.3-2.4c0.5,0.3,1.2,0.6,1.8,0.7c-0.3,2.8-0.9,3.5-3.1,3.5h-4.4c-2.7,0-3.4-0.6-3.4-2.4
			v-3.2h1.9v3.2c0,0.6,0.2,0.7,1.5,0.7L404.9,521.1L404.9,521.1z M397.7,508.7h9.1v-1.3h-9.1V508.7z M397.7,511.5h9.1v-1.3h-9.1
			V511.5z M397.7,514.4h9.1V513h-9.1V514.4z M409.3,516.8c1,1.3,2,3.1,2.3,4.3l-1.8,0.9c-0.3-1.2-1.2-3-2.2-4.4L409.3,516.8z"/>
		<path class="st11" d="M421.3,515.3l-1.8,1.5c-1.3-1.6-3.2-3.5-4.6-4.7l1.7-1.5C418.2,511.9,420.1,513.9,421.3,515.3z"/>
		<path class="st11" d="M428.6,512.5c-1,1-2.1,1.9-3.3,2.4c-0.3-0.4-0.8-1-1.2-1.2c1.3-0.5,2.8-1.4,3.7-2.4H425v-3.7h3.5v-0.9h-3.9
			v-1.4h3.9V504h1.7v1.2h3.8v1.4h-3.8v0.9h3.4v1.6c1.3-1.2,2.4-3.1,2.9-5.1l1.7,0.4c-0.2,0.6-0.4,1.2-0.7,1.8h5.6v1.5h-1.3
			c-0.5,1.5-1.2,2.8-2,3.8c1,0.8,2.2,1.4,3.6,1.9c-0.4,0.4-0.9,1.1-1.1,1.5c-1.4-0.5-2.7-1.2-3.7-2.2c-1.1,1-2.4,1.6-3.9,2.2
			c-0.2-0.4-0.8-1.1-1.2-1.4c1.5-0.5,2.8-1.1,3.8-1.9c-0.7-0.8-1.2-1.6-1.5-2.4c-0.4,0.5-0.7,0.9-1.1,1.2c-0.3-0.4-0.9-1-1.2-1.3
			v2.1h-2.4c0.9,0.5,2,1.2,2.5,1.6l-0.9,1.2c-0.6-0.5-1.6-1.2-2.6-1.7v2.4h-1.7v-2.3L428.6,512.5L428.6,512.5z M434.8,521.1h8.5v1.6
			h-19v-1.6h3.3v-3.4h1.8v3.4h3.4v-4.3h-7.1v-1.6H442v1.6h-7.3v1.3h5.8v1.5h-5.8L434.8,521.1L434.8,521.1z M426.7,510h1.9v-1.3h-1.9
			V510z M430.4,508.6v1.3h1.7v-1.3H430.4L430.4,508.6z M430.9,511.2h-0.7v0.8L430.9,511.2z M437,507.8c0.4,0.9,1,1.8,1.7,2.7
			c0.6-0.8,1.1-1.6,1.3-2.7H437z"/>
		<path class="st11" d="M456.9,504.7c-0.2,0.3-0.4,0.7-0.7,1c2.6,2.5,5.5,4.1,8.5,5.4c-0.5,0.5-1.1,1.2-1.3,1.8
			c-1.2-0.6-2.2-1.1-3.3-1.7v1.3h-10.5v-1.1c-1,0.6-2,1.2-3.1,1.6c-0.4-0.5-0.9-1.2-1.4-1.7c3.9-1.5,7.9-4.2,10-7.5L456.9,504.7z
			 M448.5,514.7h13.1v8.4h-2.1v-1h-9.1v1.1h-2L448.5,514.7L448.5,514.7z M450.5,516.5v3.9h9.1v-3.9H450.5z M459.6,510.7
			c-1.5-1-3-2.1-4.5-3.6c-1.2,1.3-2.7,2.6-4.2,3.6H459.6z"/>
		<path class="st11" d="M477.4,504.4c-0.1,0.1-0.2,0.3-0.3,0.4c1.9,1.8,5.6,3.5,8.8,4.1c-0.4,0.4-1,1.1-1.2,1.5
			c-0.5-0.2-1.1-0.3-1.5-0.5v5.5h-14.3v-5.3c-0.5,0.2-1.1,0.4-1.5,0.5c-0.2-0.4-0.7-1.2-1.1-1.5c3.8-1,7.6-2.8,9.5-5.3L477.4,504.4z
			 M483,509.9c-1.2-0.4-2.3-0.9-3.4-1.5v0.6h-7.3v-0.5c-1,0.6-2,1-3.1,1.3L483,509.9L483,509.9z M470.1,516.2h12v6.9h-2v-0.6H472
			v0.7h-1.9V516.2z M472.9,511.3c0.5,0.7,1,1.7,1.1,2.3l-1.4,0.5h2.5v-2.9h-4.6v2.9h2c-0.2-0.7-0.6-1.6-1-2.4L472.9,511.3z
			 M472.1,517.6v1.2h8.1v-1.2H472.1z M480.1,521.3v-1.2h-8v1.2H480.1z M478.4,507.7c-0.9-0.5-1.6-1.2-2.3-1.7
			c-0.7,0.7-1.4,1.2-2.3,1.7H478.4z M481.4,511.2h-4.6v2.9h2.4l-1.3-0.4c0.4-0.7,0.9-1.7,1.1-2.5l1.6,0.5c-0.5,0.9-1,1.8-1.3,2.4
			h2.2L481.4,511.2L481.4,511.2z"/>
		<path class="st11" d="M500.6,519.8c2.1,0.6,4.6,1.5,6.2,2.2l-1.7,1.3c-1.5-0.7-4.4-1.8-6.6-2.4l1.5-1.2h-6.1l1.4,1
			c-1.7,1.1-4.4,2-6.5,2.6c-0.4-0.4-1-1.1-1.4-1.4c2-0.5,4.5-1.3,5.8-2.1h-3.6v-9.1h15.1v9.1L500.6,519.8L500.6,519.8z M503.8,509.6
			h-13.3v-4.9h13.3V509.6z M491.5,513.2h11V512h-11V513.2L491.5,513.2z M491.5,515.7h11v-1.2h-11V515.7L491.5,515.7z M491.5,518.3
			h11v-1.2h-11V518.3L491.5,518.3z M501.8,506.2h-9.3v1.8h9.3V506.2z"/>
		<path class="st11" d="M512,506.9c-0.7,1.1-1.4,1.9-2.2,2.7c-0.3-0.3-1-1-1.3-1.2c1.2-1.1,2.4-2.8,3.2-4.5l1.7,0.5
			c-0.2,0.4-0.3,0.7-0.5,1.1h5.1v1.5h-3.5c0.6,0.5,1.2,1.2,1.5,1.5l-1.2,1.1c-0.4-0.6-1.2-1.4-1.9-2l0.8-0.7H512L512,506.9
			L512,506.9z M518.5,508.2c0.4,0.5,0.7,1.1,0.9,1.6h7.6v3.5h-2v-2h-13.5v2h-1.9v-3.5h7.8c-0.2-0.4-0.4-0.9-0.6-1.2L518.5,508.2z
			 M514,518h11.5v5.2h-1.9v-0.6H514v0.7h-2v-10.9h12.4v4.4h-10.5L514,518L514,518z M514,513.8v1.4h8.5v-1.4H514z M514,519.5v1.6h9.6
			v-1.6H514z M527.7,505.4v1.5h-4.1c0.7,0.6,1.5,1.2,1.9,1.7l-1.3,1.2c-0.5-0.6-1.4-1.4-2.3-2.1l0.9-0.8h-2.2
			c-0.5,0.7-1,1.2-1.5,1.7c-0.3-0.3-1.1-0.9-1.4-1.2c1.2-0.9,2.1-2.2,2.6-3.6l1.8,0.5c-0.2,0.4-0.3,0.8-0.5,1.2L527.7,505.4
			L527.7,505.4L527.7,505.4z"/>
		<path class="st11" d="M536.5,519c-2.3,0.8-4.7,1.6-6.6,2.2l-0.5-2c0.8-0.2,1.7-0.5,2.7-0.8V513h-2.3v-1.8h2.3V507h-2.5v-1.8h6.7
			v1.8H534v4.2h2v1.8h-2v4.8c0.7-0.2,1.4-0.5,2.2-0.7L536.5,519z M549,520.8v1.8h-13.4v-1.8h6.1v-2.5h-4.6v-1.7h4.6v-2.2h-4.4v-9.5
			H548v9.5h-4.4v2.2h4.7v1.7h-4.7v2.5H549z M539.1,508.8h2.8v-2.3h-2.8V508.8z M539.1,512.7h2.8v-2.3h-2.8V512.7z M546.2,506.5h-2.7
			v2.3h2.7V506.5z M546.2,510.4h-2.7v2.3h2.7V510.4z"/>
		<path class="st11" d="M552.7,516.5c1.6-0.6,2.6-1.5,2.7-2.9c-0.1,0-0.2,0-0.3,0c-1,0-1.7-0.6-1.7-1.7c0-1.1,0.9-1.7,1.8-1.7
			c1.3,0,2,1.1,2,2.6c0,2.3-1.4,4.1-3.8,4.9L552.7,516.5z"/>
		<path class="st11" d="M336.8,545.2c1.1,1.7,2.4,4,2.9,5.4l-1.8,1c-0.2-0.5-0.5-1.2-0.9-1.9c-5.2,1.7-5.9,2-6.4,2.4
			c-0.1-0.6-0.5-1.5-0.8-2c0.4-0.2,1-0.6,1-1.4v-14.3h8.3v10.1h-6.3v4.7l3.5-1.1c-0.4-0.7-0.8-1.3-1.2-2L336.8,545.2z M332.8,536.1
			v2.3h4.4v-2.3H332.8z M337.2,542.6v-2.5h-4.4v2.5H337.2z M347.8,546.5c0,1-0.2,1.5-0.8,1.8c-0.7,0.4-1.6,0.4-3.1,0.4
			c-0.1-0.5-0.3-1.3-0.6-1.8c1,0,1.8,0,2.1,0s0.4-0.1,0.4-0.4v-10.2h-3.3v16.3h-1.9v-18.1h7.1L347.8,546.5L347.8,546.5z"/>
		<path class="st11" d="M357.4,548.5H353v1.8h-1.8v-15.7h6.2L357.4,548.5L357.4,548.5z M353,536.3v4.2h2.6v-4.2H353z M355.6,546.7
			v-4.4H353v4.4H355.6z M364.7,537.4v2.4h4.4v1.7h-1.7v2h2.3v1.7h-2.3v5.2c0,1.1-0.2,1.5-1,1.8s-1.8,0.4-3.5,0.4
			c-0.1-0.5-0.4-1.3-0.7-1.8c1.2,0,2.3,0,2.7,0c0.4,0,0.5-0.1,0.5-0.4v-5.2h-7.7v-1.7h7.7v-2h-6.9v-1.7h4.1v-2.4h-5v-1.7h5v-2.4h1.9
			v2.4h5.1v1.7H364.7z M360.6,545.7c1,1.1,2.1,2.5,2.6,3.5l-1.7,1.1c-0.5-1-1.6-2.5-2.5-3.6L360.6,545.7z"/>
		<path class="st11" d="M377.3,533.9c-0.5,1.3-1.1,2.8-1.6,4v14.7h-1.9v-11.4c-0.6,0.9-1.2,1.6-1.7,2.3c-0.2-0.5-0.7-1.5-1-2.1
			c1.8-2,3.5-5.1,4.4-8.1L377.3,533.9z M390.2,534.4v17.9h-1.8v-1.1h-8.7v1.2h-1.8v-18.1L390.2,534.4L390.2,534.4z M388.4,549.6
			v-13.4h-8.7v13.4H388.4z M384.8,540.4v2.1h2.2v5.6h-5.9v-5.6h2.1v-2.1h-2.8V539h2.8v-2.3h1.5v2.3h3v1.4H384.8z M385.5,543.9h-3
			v2.8h3V543.9z"/>
		<path class="st11" d="M403.3,533.3c0,0.8,0,1.9-0.2,3.2c0.3,2.6,1.5,11,8.9,14.3c-0.6,0.5-1.2,1.2-1.4,1.6c-5-2.3-7.3-7-8.3-10.7
			c-1.1,3.9-3.3,8.2-8.1,10.8c-0.4-0.5-1-1.2-1.6-1.5c8.6-4.5,8.3-14.3,8.4-17.6L403.3,533.3L403.3,533.3z"/>
		<path class="st11" d="M421,533.9c-0.6,1.3-1.2,2.7-2.1,4v14.7h-1.8v-12c-0.8,1.1-1.6,2-2.5,2.8c-0.2-0.5-0.7-1.5-1.1-2
			c2.2-1.9,4.4-5,5.8-8.1L421,533.9z M429.6,550.1c1.2,0,1.3-0.9,1.5-4.4c0.5,0.4,1.2,0.8,1.7,0.9c-0.3,3.9-0.8,5.4-3.2,5.4h-3.7
			c-2.3,0-3-0.7-3-3.3v-15.1h1.9v5.6h7.4v1.9h-7.4v7.8c0,1.2,0.2,1.4,1.2,1.4L429.6,550.1L429.6,550.1z"/>
		<path class="st11" d="M453.9,550v1.9H435V550h11.8c0.2-1,0.3-2,0.5-3.1h-9.4c0.8-2.8,1.7-7.3,2.3-10.7h-4.5v-1.9h17.5v1.9h-10.9
			c-0.2,1-0.4,2.1-0.6,3.2h6.7l0.4-0.1l1.4,0.2c-0.3,3-0.9,7.2-1.4,10.6L453.9,550L453.9,550z M447.6,545.1c0.2-1.4,0.4-2.8,0.5-4
			h-6.7c-0.3,1.4-0.6,2.8-0.9,4H447.6z"/>
		<path class="st11" d="M474.7,538.1c0,0,0,0.7,0,0.9c-0.2,8.7-0.4,11.7-1.1,12.6c-0.4,0.7-0.9,0.8-1.5,0.9c-0.7,0.1-1.6,0.1-2.6,0
			c0-0.5-0.3-1.3-0.6-1.8c1,0.1,1.8,0.1,2.2,0.1c0.4,0,0.6-0.1,0.8-0.4c0.5-0.6,0.7-3.3,0.9-10.5h-2.5c-0.3,5.6-1.2,10.1-4.9,12.8
			c-0.3-0.5-1-1.2-1.4-1.4c0.1-0.1,0.3-0.2,0.4-0.3c-3.1,0.4-6,0.7-8.3,0.9l-0.3-1.6c1.2-0.1,2.8-0.2,4.4-0.4V548h-3.8v-1.4h3.8
			v-0.9h-3.7v-6.3h3.7v-1.1h-4.3v-1.4h4.3v-1.2c-1.2,0.1-2.6,0.2-3.7,0.2c-0.1-0.4-0.3-1.1-0.5-1.4c3.2-0.2,6.8-0.6,9-1.1l1,1.4
			c-1.2,0.2-2.5,0.5-3.9,0.6v1.3h4.2v1.2h2.2c0-1.4,0-3,0-4.5h1.9c0,1.5,0,3.1,0,4.5h4.3V538.1z M458.1,541.9h2.2v-1.2h-2.2V541.9z
			 M460.3,544.4v-1.2h-2.2v1.2H460.3z M462,549.7c1.3-0.1,2.7-0.3,4-0.4c1.7-2.4,2.3-5.6,2.4-9.4h-2.2v-1.5H462v1.1h3.9v6.3H462v1.1
			h3.9v1.4H462V549.7L462,549.7z M464.3,541.9v-1.2H462v1.2H464.3z M462,543.2v1.2h2.3v-1.2H462z"/>
		<path class="st11" d="M479,545.8c1.6-0.6,2.6-1.5,2.7-2.9c-0.1,0-0.2,0-0.3,0c-1,0-1.7-0.6-1.7-1.7c0-1.1,0.9-1.7,1.8-1.7
			c1.3,0,2,1.1,2,2.6c0,2.3-1.4,4.1-3.8,4.9L479,545.8z"/>
		<path class="st11" d="M495.5,543.9l-2.9,0.9v5.5c0,1.1-0.2,1.5-0.9,1.8c-0.7,0.4-1.5,0.4-3.1,0.4c-0.1-0.5-0.4-1.3-0.6-1.8
			c1,0,1.8,0,2.1,0s0.4-0.1,0.4-0.4v-4.9l-2.6,0.7l-0.6-1.9c0.9-0.2,1.9-0.5,3.2-0.8v-4.1h-3v-1.8h3v-4.1h2v4.1h2.7v1.8h-2.7v3.5
			l2.7-0.7L495.5,543.9z M506.8,536.9h-3.5v12.9c0,1.2-0.3,1.9-1.2,2.2c-0.9,0.4-2.2,0.4-4.1,0.4c-0.1-0.6-0.5-1.5-0.8-2.1
			c1.4,0.1,3,0.1,3.5,0.1c0.4,0,0.6-0.2,0.6-0.5V537h-5.7v-1.9h11.3L506.8,536.9L506.8,536.9z"/>
		<path class="st11" d="M514.4,543.1c-0.5,2-1.2,4-2,5.7c0.4,0.2,0.8,0.5,1.2,0.9c1.4,0.9,3.4,1.1,5.8,1.1c2.6,0,6-0.2,8.4-0.5
			c-0.2,0.6-0.6,1.5-0.6,2c-1.6,0.1-5.5,0.2-8,0.2c-2.8,0-4.5-0.2-6-1.2c-0.9-0.5-1.6-1.2-2-1.2c-0.5,0-1.2,1.3-1.7,2.7l-1.3-1.8
			c0.9-1.2,1.7-2,2.5-2.4c0.6-1.1,1.2-2.5,1.4-3.9h-2.9c0.5-1.2,1.2-2.9,1.7-4.5h-2.5v-1.7h4.9c-0.5,1.4-1.2,3.2-1.6,4.6h1.5
			l0.3-0.1L514.4,543.1z M511,537.4c-0.3-0.9-0.8-2.3-1.2-3.5l1.8-0.5c0.4,1.1,0.9,2.4,1.2,3.4L511,537.4z M516.9,537.4
			c-0.5,0.8-1,1.4-1.5,2c-0.4-0.3-1.2-0.8-1.6-1c1.3-1.2,2.4-3.2,3-5.1l1.8,0.4c-0.2,0.6-0.5,1.2-0.8,1.8h2v-2.3h1.9v2.5h4.8v1.7
			h-4.8v2.3h5.8v1.6h-13.4v-1.6h5.8v-2.3L516.9,537.4L516.9,537.4z M524.1,549.2v-0.6h-6.4v0.7h-1.9v-6.5h10.3v6.4L524.1,549.2
			L524.1,549.2z M524.1,546.9v-2.6h-6.4v2.6H524.1z"/>
		<path class="st11" d="M535.5,549.6c1.2,0.5,2.8,0.6,4.7,0.6c1.2,0,7.3,0,8.9,0c-0.3,0.5-0.7,1.3-0.8,1.9h-8.1
			c-4.2,0-6.7-0.6-8.3-3.3c-0.2,1.4-0.6,2.8-1.1,3.7c-0.3-0.2-1.2-0.7-1.5-0.9c1.2-2.1,1.3-5.4,1.3-9l1.7,0.1c0,1.1-0.1,2-0.1,3
			c0.4,1.2,0.9,2.1,1.5,2.8v-7.1h-4v-1.7h3.6v-2.3H530v-1.7h3.3v-2.4h1.8v2.4h3.2v1.7H535v2.3h3.5v0.8c1.6-1,2.5-2.5,2.9-4.6h-2.3
			v-1.6h9.2c0,0,0,0.5,0,0.7c-0.2,3.6-0.4,5.2-0.9,5.7c-0.4,0.4-0.8,0.6-1.3,0.6s-1.3,0.1-2.3,0c0-0.5-0.2-1.2-0.5-1.6
			c0.8,0.1,1.5,0.1,1.8,0.1s0.5,0,0.7-0.2c0.3-0.3,0.4-1.2,0.5-3.5h-2.8c-0.5,2.9-1.6,4.8-3.7,6c-0.2-0.2-0.6-0.6-1-0.9v0.4h-3.3
			v2.7h3.1v1.7h-3.1L535.5,549.6L535.5,549.6z M539.7,542.1h8.1v6.5h-8.1V542.1z M541.5,547h4.3v-3.4h-4.3V547z"/>
		<path class="st11" d="M557.6,545.9c-0.1-0.4-0.1-0.7-0.3-1.2c-4.7,0.8-5.4,1-5.8,1.2c-0.1-0.4-0.4-1.3-0.7-1.8
			c0.5-0.1,1-0.6,1.6-1.4c0.3-0.4,0.9-1.1,1.5-2.1c-1.9,0.2-2.4,0.4-2.8,0.5c-0.1-0.4-0.4-1.2-0.6-1.7c0.4-0.1,0.8-0.5,1.2-1.2
			c0.5-0.6,1.8-3,2.7-5.2l1.8,0.8c-0.9,1.8-1.9,3.7-3.1,5.3l1.9-0.2c0.6-0.9,1.1-1.8,1.5-2.8l1.6,1.1c-1.3,2.3-3,4.6-4.6,6.4l3-0.4
			c-0.2-0.6-0.5-1.2-0.7-1.7l1.4-0.5c0.7,1.3,1.3,3.2,1.5,4.2L557.6,545.9z M553.3,547.1c-0.2,1.8-0.6,3.8-1.1,5.1
			c-0.4-0.2-1.1-0.4-1.4-0.6c0.5-1.2,0.8-3.2,1-4.8L553.3,547.1z M555.4,546.7c0.3,1.3,0.5,3.1,0.6,4.2l-1.4,0.4
			c0-1.2-0.2-2.9-0.5-4.2L555.4,546.7z M569.5,540.5c-0.5,3.1-1.5,5.7-2.9,7.7c1,1.2,2.1,2,3.5,2.6c-0.5,0.4-1.1,1.2-1.3,1.6
			c-1.3-0.7-2.4-1.6-3.4-2.7c-1.1,1.2-2.2,2.1-3.4,2.9c-0.3-0.5-0.9-1.2-1.2-1.5c1.2-0.7,2.5-1.7,3.5-3c-0.9-1.4-1.5-3.1-2-4.9
			c-0.4,3.7-1.2,6.8-2.9,9.2c-0.3-0.3-1.2-1-1.7-1.2c0.4-0.5,0.8-1.1,1.1-1.7l-1.4,0.5c-0.2-0.9-0.6-2.3-1-3.5l1.3-0.4
			c0.4,1.1,0.9,2.4,1.1,3.4c1.6-3.4,1.9-8,2-13.4h-1.9v-1.7h7.3l0.3-0.1l1.3,0.2c-0.2,1.7-0.6,4-1,5.8h1.2l0.4-0.1L569.5,540.5z
			 M562.6,536.1c0,1.4-0.1,2.8-0.2,4.1h2.4c0.3-1.3,0.5-2.8,0.7-4.1H562.6z M563.4,541.9c0.5,1.6,1.1,3.3,1.9,4.6
			c0.9-1.3,1.4-3,1.9-4.6H563.4z"/>
		<path class="st11" d="M580,546.5h-5.4l-1.3,4.4h-2.5l5.2-15.5h2.8l5.2,15.5h-2.7L580,546.5z M579.4,544.6l-0.6-2.1
			c-0.5-1.7-1-3.5-1.4-5.2h-0.1c-0.5,1.7-1,3.5-1.4,5.2l-0.7,2.1H579.4z"/>
		<path class="st11" d="M586,535.4h4.7c3.5,0,5.9,1.2,5.9,4.7c0,3.4-2.5,5-5.8,5h-2.3v5.8h-2.4L586,535.4L586,535.4z M590.5,543.1
			c2.5,0,3.6-1,3.6-3s-1.2-2.7-3.7-2.7h-2v5.8L590.5,543.1L590.5,543.1z"/>
		<path class="st11" d="M599.6,535.4h4.7c3.5,0,5.9,1.2,5.9,4.7c0,3.4-2.5,5-5.8,5h-2.3v5.8h-2.4L599.6,535.4L599.6,535.4z
			 M604.1,543.1c2.5,0,3.6-1,3.6-3s-1.2-2.7-3.7-2.7h-2v5.8L604.1,543.1L604.1,543.1z"/>
	</g>
</g>
<polyline class="st12" points="495,137 553.2,137 553.2,255.3 "/>
</svg>
