<?xml version="1.0" encoding="utf-8"?>
<!-- Generator: Adobe Illustrator 24.3.0, SVG Export Plug-In . SVG Version: 6.00 Build 0)  -->
<svg version="1.1" id="圖層_1" xmlns="http://www.w3.org/2000/svg" xmlns:xlink="http://www.w3.org/1999/xlink" x="0px" y="0px"
	 viewBox="0 0 885 487.1" style="enable-background:new 0 0 885 487.1;" xml:space="preserve">
<style type="text/css">
	.st0{fill:#7C7C7C;stroke:#000000;stroke-width:1.5;stroke-miterlimit:10;}
	.st1{fill:#FFE500;stroke:#000000;stroke-width:1.5;stroke-miterlimit:10;}
	.st2{fill:#7DD676;stroke:#000000;stroke-width:1.5;stroke-miterlimit:10;}
	.st3{fill:#56B552;stroke:#000000;stroke-width:1.5;stroke-miterlimit:10;}
	.st4{fill:#FFFFFF;}
	.st5{fill:#7C7C7C;}
	.st6{fill:#E6E6E6;}
	.st7{fill:#FFE500;stroke:#000000;stroke-width:1.5;stroke-miterlimit:9.9999;}
	.st8{fill:#7C7C7C;stroke:#000000;stroke-width:1.5;stroke-miterlimit:9.9998;}
	.st9{enable-background:new    ;}
	.st10{fill:#56B552;}
	.st11{fill:#595959;}
	.st12{fill:none;stroke:#000000;stroke-miterlimit:10;}
</style>
<path class="st0" d="M32.9,57.3l45.2,78.3h409.1l45.3-78.4c3.1-5.4-0.8-12.3-7-12.3H39.9C33.7,45,29.8,51.8,32.9,57.3z"/>
<polygon class="st1" points="130.4,226.3 435,226.3 487.3,135.6 78.1,135.6 "/>
<polygon class="st2" points="182.8,316.9 382.7,316.9 435,226.3 130.4,226.3 "/>
<path class="st3" d="M275.7,477.7c3.1,5.4,10.9,5.4,14.2,0l92.8-160.8H182.8L275.7,477.7z"/>
<g>
	<path class="st4" d="M230.9,75l2.6,1.5c-1,2.7-2.2,5.9-3.3,8.3c2.3,2.6,2.8,4.8,2.8,6.8s-0.5,3.5-1.6,4.3c-0.5,0.4-1.2,0.6-2,0.7
		c-0.7,0.1-1.6,0.1-2.5,0c0-1-0.4-2.4-1-3.4c0.7,0.1,1.3,0.1,1.8,0c0.4,0,0.8-0.1,1.1-0.3c0.4-0.3,0.7-1,0.7-1.9
		c0-1.6-0.6-3.6-2.8-5.9c0.8-1.9,1.6-4.4,2.2-6.6h-3v24.3h-3.5V75h7.8H230.9z M243.5,78.5c-0.3,1.4-0.6,2.8-1,3.9h6.8v20.4h-3.6v-2
		h-7.8v2h-3.6V82.5h4.8c0.2-1.2,0.4-2.6,0.5-3.9h-6.1v-3.5h16.6v3.5L243.5,78.5L243.5,78.5z M245.6,85.8h-7.8v4.3h7.8V85.8z
		 M245.6,97.5v-4.3h-7.8v4.3H245.6z"/>
	<path class="st4" d="M281.2,98.5v3.6h-28v-3.6h12v-6.2h-8.5v-3.6h8.5v-5.5h-6.4c-0.9,1.7-1.9,3.3-2.9,4.5c-0.7-0.6-2.4-1.7-3.3-2.2
		c2.4-2.6,4.4-6.9,5.5-11.1l3.8,0.8c-0.4,1.5-0.9,2.9-1.4,4.4h4.8V74h3.9v5.6h10.5v3.6h-10.5v5.5h9.3v3.6h-9.3v6.2
		C269.2,98.5,281.2,98.5,281.2,98.5z"/>
	<path class="st4" d="M307.5,83.2c-1.4,2.2-3.3,4.2-5.5,5.8c3.2,1.2,6.9,2,10.9,2.3c-0.8,0.8-1.9,2.5-2.3,3.6
		c-1.2-0.2-2.2-0.4-3.3-0.5v8.7h-3.8v-0.9H293v1h-3.6v-8.5c-1.3,0.4-2.7,0.6-4.1,0.9c-0.4-1-1.2-2.5-1.8-3.3c3.8-0.5,7.7-1.5,11.1-3
		c-1-0.7-1.9-1.4-2.8-2.3c-1.2,0.7-2.4,1.4-3.8,2c-0.5-0.9-1.7-2.2-2.5-2.8c4.4-1.6,7.2-3.9,8.7-6.2h-5.8v3.5h-3.6v-6.9h11.6
		c-0.4-0.7-0.7-1.4-1.1-2l3.7-0.9c0.4,0.9,1.1,2,1.6,2.9h10.9v6.9h-3.8V80h-13l3.5,0.7c-0.3,0.4-0.6,0.8-1,1.2h6.9l0.6-0.2
		L307.5,83.2z M303.5,99v-2.7H293V99H303.5z M303.6,93.3c-1.9-0.6-3.6-1.2-5.3-2c-1.5,0.8-3.2,1.5-4.9,2H303.6z M294.6,84.8
		c1.1,1,2.3,1.8,3.6,2.6c1.3-0.8,2.6-1.7,3.6-2.7h-7L294.6,84.8z"/>
	<path class="st4" d="M328.8,91v10.5h-7.3v1.5h-3.4v-7.2c-0.4,0.4-0.8,1-1.2,1.4c-0.4-0.7-1.6-2-2.3-2.7c1.6-1.6,2.7-3.6,3.5-6h-1.5
		v-3.1h2.3c0.1-0.6,0.2-1.2,0.4-2h-4.2v-3.1h4.4c0.1-0.6,0.1-1.3,0.1-2h-2.8v-3.1h11.5v5.2h1.5v3.1h-1.5v5.1h-6.8
		c-0.2,0.8-0.4,1.6-0.7,2.4C320.8,91,328.8,91,328.8,91z M321.5,94.2v4.2h3.7v-4.2H321.5z M322.4,83.6c-0.1,0.6-0.2,1.2-0.3,2h2.6
		v-2H322.4z M322.9,78.5c-0.1,0.7-0.1,1.3-0.2,2h2v-2H322.9z M344,96.2h-5.6v6.9h-3.6v-6.9h-5.3v-3.5h5.3v-3.3h-4.2V86h4.2v-2.8
		h-4.5v-3.3h1.9c-0.3-1.4-1-3.3-1.8-4.8l2.9-1.1c1,1.6,1.8,3.6,2.1,5.1l-2,0.7h6.8l-2.6-0.7c0.6-1.4,1.5-3.7,1.9-5.3l3.6,0.8
		c-0.8,1.9-1.6,3.8-2.3,5.2h2.7v3.3h-5v2.8h4.4v3.4h-4.4v3.3h5.6L344,96.2L344,96.2z"/>
</g>
<g>
	<path d="M226,180.5c-1-1-3.1-2.6-4.6-3.6l2.3-2.5c1.5,0.9,3.6,2.4,4.7,3.3L226,180.5z M222,192.5c1.2-2.4,2.8-6.3,4.1-10l3,1.9
		c-1.1,3.3-2.4,6.9-3.6,10L222,192.5z M226.7,172.2c-1-1.1-3-2.7-4.4-3.8l2.3-2.4c1.4,1,3.6,2.5,4.5,3.5L226.7,172.2z M248.1,178.6
		c0.4,0,0.4-0.2,0.5-2c0.4,0.4,1.5,0.7,2.2,0.9c-0.3,2.8-0.9,3.5-2.3,3.5h-1.3c-1.9,0-2.3-0.6-2.3-2.8c-0.9,1.2-2.1,2.5-3.7,3.6
		c-0.4-0.6-1.2-1.4-1.9-2c-2.4,1.2-3,1.6-3.4,2c-0.3-0.5-0.9-1.4-1.3-1.9c0.5-0.4,1.2-1.3,1.2-2.8v-1.2c-1,2-2.5,3.9-5.2,5.6
		c-0.4-0.6-1.3-1.5-2-2c2.4-1.3,3.7-2.8,4.4-4.3h-3.4c0.3-1.6,0.4-3.9,0.6-6h-0.9v-2.5h9.6v2.6h-2.1v1c0,0.6,0,1.3-0.2,2.1h2.8v2.8
		h-1.5v2.4l1.7-0.7c0.2,0.6,0.5,1.4,0.7,2c1.6-1.2,2.5-2.4,3.1-3.6h-3.5c0.3-1.6,0.5-4,0.6-6.1h-1v-2.5h10.1v2.6H247v1.3
		c0,0.5,0,1.2-0.1,1.8h3v2.8h-3.6c-0.1,0.3-0.2,0.5-0.4,0.8h1.2v1.9c0,0.5,0,0.6,0.3,0.6L248.1,178.6L248.1,178.6z M230.9,181.9
		h17.4v12.8h-3.6v-1.2h-10.2v1.3H231L230.9,181.9L230.9,181.9z M233.9,172.4c0.1-0.8,0.1-1.5,0.1-2.1v-1h-1.3c-0.1,1-0.2,2-0.4,3.1
		H233.9z M234.4,184.6v1.7h10.2v-1.7H234.4z M244.6,190.6v-1.8h-10.2v1.8H244.6z M244.2,172.5c0.1-0.6,0.1-1.2,0.1-1.9v-1.3H243
		c-0.1,1.1-0.3,2.1-0.4,3.2H244.2z"/>
	<path d="M281,169.9v3.6h-16.6c-1.1,2.1-2.2,4.3-3.6,6.1v15h-3.7v-10.9c-0.9,0.8-1.8,1.5-2.8,2.2c-0.4-1-1.2-2.7-1.9-3.6
		c3.3-2.1,5.9-5.4,7.7-9h-6.8v-3.6h8.5c0.5-1.4,1-2.9,1.3-4.4l3.9,1c-0.4,1.2-0.7,2.3-1.2,3.4H281V169.9z M273.5,190.5h7.4v3.5
		h-18.7v-3.5h7.6v-7.1h-6.3v-3.5h6.3v-5.2h3.7v5.2h6.1v3.5h-6.1V190.5z"/>
	<path d="M307.5,174.9c-1.4,2.2-3.3,4.2-5.5,5.8c3.2,1.2,6.9,2,10.9,2.3c-0.8,0.8-1.9,2.5-2.3,3.6c-1.2-0.2-2.2-0.4-3.3-0.5v8.7
		h-3.8v-0.9H293v1h-3.6v-8.5c-1.3,0.4-2.7,0.6-4.1,0.9c-0.4-1-1.2-2.5-1.8-3.3c3.8-0.5,7.7-1.5,11.1-3c-1-0.7-1.9-1.4-2.8-2.3
		c-1.2,0.7-2.4,1.4-3.8,2c-0.5-0.9-1.7-2.2-2.5-2.8c4.4-1.6,7.2-3.9,8.7-6.2h-5.8v3.5h-3.6v-6.9h11.6c-0.4-0.7-0.7-1.4-1.1-2
		l3.7-0.9c0.4,0.9,1.1,2,1.6,2.9h10.9v6.9h-3.8v-3.5h-13l3.5,0.7c-0.3,0.4-0.6,0.8-1,1.2h6.9l0.6-0.2L307.5,174.9z M303.5,190.8
		v-2.7H293v2.7H303.5z M303.6,185c-1.9-0.6-3.6-1.2-5.3-2c-1.5,0.8-3.2,1.5-4.9,2H303.6z M294.6,176.4c1.1,1,2.3,1.8,3.6,2.6
		c1.3-0.8,2.6-1.7,3.6-2.7h-7L294.6,176.4z"/>
	<path d="M328.8,182.8v10.5h-7.3v1.5h-3.4v-7.2c-0.4,0.4-0.8,1-1.2,1.4c-0.4-0.7-1.6-2-2.3-2.7c1.6-1.6,2.7-3.6,3.5-6h-1.5v-3.1h2.3
		c0.1-0.6,0.2-1.2,0.4-2h-4.2v-3.1h4.4c0.1-0.6,0.1-1.3,0.1-2h-2.8V167h11.5v5.2h1.5v3.1h-1.5v5.1h-6.8c-0.2,0.8-0.4,1.6-0.7,2.4
		H328.8L328.8,182.8z M321.5,186v4.2h3.7V186H321.5z M322.4,175.3c-0.1,0.6-0.2,1.2-0.3,2h2.6v-2H322.4z M322.9,170.2
		c-0.1,0.7-0.1,1.3-0.2,2h2v-2H322.9L322.9,170.2z M344,187.9h-5.6v6.9h-3.6v-6.9h-5.3v-3.5h5.3v-3.3h-4.2v-3.4h4.2v-2.8h-4.5v-3.3
		h1.9c-0.3-1.4-1-3.3-1.8-4.8l2.9-1.1c1,1.6,1.8,3.6,2.1,5.1l-2,0.7h6.8l-2.6-0.7c0.6-1.4,1.5-3.7,1.9-5.3l3.6,0.8
		c-0.8,1.9-1.6,3.8-2.3,5.2h2.7v3.3h-5v2.8h4.4v3.4h-4.4v3.3h5.6L344,187.9L344,187.9z"/>
</g>
<g>
	<path class="st4" d="M230.6,274.7c-0.4-0.9-0.9-2-1.4-3.3v14.2h-3.6v-11.5c-0.8,2.3-1.7,4.4-2.7,5.9c-0.4-1.1-1.2-2.8-1.8-3.7
		c1.9-2.4,3.6-6.8,4.4-10.5h-3.7v-3.5h3.7v-5.8h3.6v5.8h3.1v3.5h-3.1v1c0.9,1.2,3.1,4.7,3.6,5.5L230.6,274.7z M250.3,272.6
		c-1.2,2-2.8,4-4.7,5.8c1.9,1.4,3.9,3.2,5.2,4.4l-2.8,2.4c-1.1-1.2-3-3.1-4.9-4.7c-2.9,2.1-6.2,3.8-10.1,5c-0.4-0.9-1.5-2.3-2.2-3.1
		c7.3-2,13.2-6.3,15.7-11.2L250.3,272.6z M248.2,266.4c-2.9,5.1-7.8,9.5-13.7,12.2c-0.4-0.8-1.4-2.1-2-2.8c2.8-1.2,5.5-2.8,7.7-4.8
		c-4.7,0.4-5.7,0.5-6.3,0.8c-0.1-0.9-0.6-2.6-0.9-3.4c0.7-0.2,1.9-0.4,2.5-1.1c0.5-0.5,1.7-2.4,2.7-4H233v-3.4h7.3
		c-0.3-1-0.6-2-1.1-2.9l3.5-1.1c0.7,1.2,1.3,2.8,1.6,4h6.3v3.4h-8.5c-1,1.5-2,3.2-2.9,4.6l4.2-0.2c0.6-0.9,1.2-1.8,1.7-2.7
		L248.2,266.4z"/>
	<path class="st4" d="M258.8,267.8c-0.4,4-1.2,9.4-2.3,12.9l-3.7-1.5c1.1-3.3,2-8,2.4-12.1L258.8,267.8z M264.6,265.4v14.4
		c0,1.4,0.3,1.7,1.8,1.7h4.4c1.6,0,1.9-1,2-5.9c0.9,0.6,2.5,1.3,3.5,1.6c-0.4,6-1.4,7.7-5.3,7.7h-5.2c-4.1,0-5.2-1.2-5.2-5.2v-14.4
		L264.6,265.4L264.6,265.4z M264.4,257c2.8,1.8,6.8,4.5,8.6,6.4l-2.8,2.9c-1.7-1.9-5.5-4.9-8.5-6.9L264.4,257z M278,266.2
		c1.8,3.7,3.4,8.4,4,11.6l-3.7,1.6c-0.4-3.2-2-8.1-3.7-11.7L278,266.2z"/>
	<path class="st4" d="M307.5,265.7c-1.4,2.2-3.3,4.2-5.5,5.8c3.2,1.2,6.9,2,10.9,2.3c-0.8,0.8-1.9,2.5-2.3,3.6
		c-1.2-0.2-2.2-0.4-3.3-0.5v8.7h-3.8v-0.9H293v1h-3.6v-8.5c-1.3,0.4-2.7,0.6-4.1,0.9c-0.4-1-1.2-2.5-1.8-3.3c3.8-0.5,7.7-1.5,11.1-3
		c-1-0.7-1.9-1.4-2.8-2.3c-1.2,0.7-2.4,1.4-3.8,2c-0.5-0.9-1.7-2.2-2.5-2.8c4.4-1.6,7.2-3.9,8.7-6.2h-5.8v3.5h-3.6v-6.9h11.6
		c-0.4-0.7-0.7-1.4-1.1-2l3.7-0.9c0.4,0.9,1.1,2,1.6,2.9h10.9v6.9h-3.8v-3.5h-13l3.5,0.7c-0.3,0.4-0.6,0.8-1,1.2h6.9l0.6-0.2
		L307.5,265.7z M303.5,281.5v-2.7H293v2.7H303.5z M303.6,275.9c-1.9-0.6-3.6-1.2-5.3-2c-1.5,0.8-3.2,1.5-4.9,2H303.6z M294.6,267.3
		c1.1,1,2.3,1.8,3.6,2.6c1.3-0.8,2.6-1.7,3.6-2.7h-7L294.6,267.3z"/>
	<path class="st4" d="M328.8,273.5V284h-7.3v1.5h-3.4v-7.2c-0.4,0.4-0.8,1-1.2,1.4c-0.4-0.7-1.6-2-2.3-2.7c1.6-1.6,2.7-3.6,3.5-6
		h-1.5v-3.1h2.3c0.1-0.6,0.2-1.2,0.4-2h-4.2v-3.1h4.4c0.1-0.6,0.1-1.3,0.1-2h-2.8v-3.1h11.5v5.2h1.5v3.1h-1.5v5.1h-6.8
		c-0.2,0.8-0.4,1.6-0.7,2.4L328.8,273.5L328.8,273.5z M321.5,276.7v4.2h3.7v-4.2H321.5z M322.4,266.2c-0.1,0.6-0.2,1.2-0.3,2h2.6v-2
		H322.4z M322.9,261c-0.1,0.7-0.1,1.3-0.2,2h2v-2H322.9z M344,278.7h-5.6v6.9h-3.6v-6.9h-5.3v-3.4h5.3V272h-4.2v-3.4h4.2v-2.8h-4.5
		v-3.3h1.9c-0.3-1.4-1-3.3-1.8-4.8l2.9-1.1c1,1.6,1.8,3.6,2.1,5.1l-2,0.7h6.8l-2.6-0.7c0.6-1.4,1.5-3.7,1.9-5.3l3.6,0.8
		c-0.8,1.9-1.6,3.8-2.3,5.2h2.7v3.3h-5v2.8h4.4v3.4h-4.4v3.3h5.6L344,278.7L344,278.7z"/>
</g>
<g>
	<path class="st4" d="M252.5,368.1c1.2-2.1,2.4-5.3,3.1-7.7l3.3,1.3c-0.8,2.4-1.9,5.8-2.8,7.9L252.5,368.1z M265.3,357.2h-9.8v-10.9
		h9.8v-3.5h3.7v3.5h10.1v10.9H269v2.3h-0.7c1.2,1.2,2.6,2.6,3.4,3.6l-3,2.3c-0.9-1.2-2.7-3.1-4-4.4l1.9-1.3h-1.3V357.2L265.3,357.2z
		 M265.3,353.9v-4.3h-6.2v4.3H265.3z M270.3,367.7c1.3,0,1.6-0.5,1.8-3.8c0.8,0.6,2.4,1.2,3.5,1.4c-0.4,4.6-1.5,5.8-5,5.8h-5.3
		c-4.2,0-5.3-1.2-5.3-4.5v-6.1h3.9v6.1c0,1.1,0.3,1.2,1.9,1.2L270.3,367.7L270.3,367.7z M269,349.6v4.3h6.3v-4.3H269z M276.9,360
		c1.5,2.2,3.7,5.3,4.7,7.2l-3.5,2c-0.9-2-2.9-5.2-4.4-7.5L276.9,360z"/>
	<path class="st4" d="M312.5,351.6v2.7h-5.6l-0.3,2.4h-17.9l0.4-2.4h-4.9v-2.7h5.3l0.3-2.4h17.6l-0.2,2.4H312.5z M304.3,367.7
		c2.8,0.7,5.5,1.6,7.3,2.1l-2.5,2.3c-2.2-0.8-5.9-2-9.4-3l1.2-1.4h-5.7l1.9,1.3c-2.6,1.3-6.9,2.6-10.6,3.1c-0.4-0.7-1.3-1.9-2-2.5
		c2.8-0.4,6-1.1,8.2-2h-4.4v-10.1h20.3v10.2H304.3z M288.4,350.8h-3.3v-5.4h11.4c-0.3-0.6-0.6-1.3-0.9-1.9l3.2-0.9
		c0.5,0.8,1.1,1.9,1.4,2.8h11.4v5.4h-3.5v-2.6h-19.8L288.4,350.8L288.4,350.8z M291.8,360.3h13v-0.9h-13V360.3z M291.8,363.1h13v-1
		h-13V363.1z M291.8,365.8h13v-1h-13V365.8z M292.3,354.9h4.1l0.1-1h-4.1L292.3,354.9z M292.8,351.1l-0.1,0.9h4.1l0.1-0.9H292.8z
		 M303.5,354.9l0.1-1h-4l-0.1,1H303.5z M303.8,351.1h-3.9l-0.1,0.9h3.9L303.8,351.1z"/>
	<path class="st4" d="M276.4,389.5c-1.4,2.2-3.3,4.2-5.5,5.8c3.2,1.2,6.9,2,10.9,2.3c-0.8,0.8-1.9,2.5-2.3,3.6
		c-1.2-0.2-2.2-0.4-3.3-0.5v8.7h-3.8v-0.9h-10.5v1h-3.6v-8.6c-1.3,0.4-2.7,0.6-4.1,0.9c-0.4-0.9-1.2-2.5-1.8-3.3
		c3.8-0.5,7.7-1.5,11.1-3c-1-0.7-1.9-1.4-2.8-2.3c-1.2,0.7-2.4,1.4-3.8,2c-0.5-0.9-1.7-2.2-2.5-2.8c4.4-1.6,7.2-3.9,8.7-6.2h-5.8
		v3.5h-3.6v-7h11.6c-0.4-0.7-0.7-1.4-1.1-2l3.7-0.9c0.4,0.9,1.1,2,1.6,2.9h10.9v6.9h-3.8v-3.5h-13l3.5,0.7c-0.3,0.4-0.6,0.8-1,1.2
		h6.9l0.6-0.2L276.4,389.5z M272.4,405.3v-2.6h-10.5v2.7h10.5V405.3z M272.5,399.6c-1.9-0.6-3.6-1.2-5.3-2c-1.5,0.8-3.2,1.5-4.9,2
		H272.5z M263.5,391c1.1,1,2.3,1.8,3.6,2.6c1.3-0.8,2.6-1.7,3.6-2.7h-7L263.5,391z"/>
	<path class="st4" d="M309.3,388.4v13h-3.8v-1.6h-14.4c-0.7,3.6-2,7-4.6,9.6c-0.5-0.7-2-2-2.8-2.5c4.1-4.1,4.4-10.2,4.4-14.8V383
		c6.3-0.5,13.4-1.6,17.6-2.8l2.9,2.8c-4.8,1.3-11,2.2-16.8,2.8v2.6H309.3L309.3,388.4z M305.5,396.4v-4.5h-13.7v0.4
		c0,1.2-0.1,2.8-0.2,4.3L305.5,396.4L305.5,396.4z"/>
</g>
<g>
	<path class="st5" d="M75.5,19.3c-0.9-0.8-2.5-1.9-3.7-2.7l1.6-1.8c1.2,0.7,2.9,1.7,3.8,2.5L75.5,19.3z M77.9,21.7
		c-0.9,2.4-2.2,4.9-3.3,7.1l-2.4-1.7c1-1.7,2.5-4.5,3.6-7.1L77.9,21.7z M76.6,13.4c-0.8-0.9-2.5-2-3.7-2.8l1.6-1.8
		c1.2,0.7,2.9,1.8,3.8,2.6L76.6,13.4z M87.9,21.7c1.3,1.6,3.1,3.2,4.9,4.1c-0.6,0.5-1.4,1.4-1.8,2.1c-1.7-1-3.3-2.7-4.6-4.5v5.9
		h-2.7v-5.8c-1.3,1.9-3.1,3.5-5.1,4.5c-0.4-0.7-1.2-1.6-1.8-2.1c2.1-0.9,4-2.4,5.2-4.2h-3.9v-2.4h5.6v-2.2h2.7v2.2h5.8v2.4H87.9z
		 M84.7,12.3c-0.2,3.2-1,5-5.8,5.9c-0.2-0.6-0.9-1.6-1.2-2.1c4-0.6,4.5-1.5,4.6-3.8H84.7z M80.9,14h-2.5V9.3H92v4.5h-2.6v-2.2h-8.6
		C80.9,11.6,80.9,14,80.9,14z M91,15.3c0.5,0,1.1,0,1.5-0.2c0,0.7,0.1,1.6,0.2,2.2c-0.4,0.1-1,0.2-1.6,0.2h-2.2
		c-2.4,0-2.9-0.8-2.9-2.9v-2.4h2.4v2.4c0,0.5,0.1,0.8,0.5,0.8C88.8,15.3,91,15.3,91,15.3z"/>
	<path class="st5" d="M98.7,16.2c0,3.8-0.3,9.4-2.2,13.1c-0.6-0.4-1.7-0.9-2.5-1.1c1.8-3.4,2-8.4,2-11.8v-6h8.3
		c-0.2-0.5-0.4-1-0.6-1.5l2.8-0.6c0.3,0.7,0.7,1.4,0.9,2.1h7.4v2.5h-16L98.7,16.2L98.7,16.2z M113.6,22c-0.9,1.7-2.3,3.1-4,4.2
		c1.7,0.4,3.6,0.7,5.6,0.9c-0.5,0.6-1.2,1.6-1.5,2.3c-2.7-0.3-5.1-0.8-7.3-1.6c-2.1,0.8-4.5,1.2-7.1,1.5c-0.2-0.7-0.7-1.6-1.1-2.2
		c1.9-0.2,3.7-0.4,5.3-0.8c-1-0.7-2-1.5-2.7-2.5l0.9-0.4h-2.4v-2.1h12l0.5-0.1L113.6,22z M102.2,20.3v-3.5h-3v-2.1h3v-1.5h2.6v1.5
		h4.1v-1.5h2.7v1.5h3.2v2.1h-3.2v3.5H102.2z M103.7,23.3c0.8,0.8,1.8,1.3,2.9,1.8c1.1-0.5,2.1-1,2.9-1.8H103.7z M104.8,16.8v1.5h4.1
		v-1.5H104.8z"/>
	<path class="st5" d="M120.5,18.6c-0.8-0.8-2.5-1.7-3.8-2.3l1.4-2c1.3,0.5,3,1.3,3.9,2.1L120.5,18.6z M123,21.8
		c-0.9,2.4-2.2,5-3.3,7.2l-2.4-1.6c1-1.7,2.6-4.5,3.7-7.2L123,21.8z M121.7,12.7c-0.8-0.8-2.5-1.8-3.8-2.4l1.5-2
		c1.3,0.6,3,1.4,3.9,2.2L121.7,12.7z M137.7,25.8h-1.3v0.9c0,1.1-0.3,1.7-1,2.1c-0.8,0.4-1.9,0.4-3.4,0.4c-0.1-0.7-0.6-1.5-0.9-2.1
		c0.9,0,2.1,0,2.4,0s0.4-0.1,0.4-0.4v-0.9h-7.1v3.3h-2.5v-3.3h-1.7v-2.1h1.7v-5.6h4.6v-0.9h-6.3v-2.1h3.6v-0.9h-2.3v-1.8h2.3v-0.9
		h-2.7V9.8h2.7V8.3h2.6v1.4h2.7V8.3h2.6v1.4h2.9v1.9h-2.9v0.9h2.6v1.8h-2.6v0.9h3.6v2.1h-6.3V18h5v5.6h1.3V25.8L137.7,25.8z
		 M126.7,20v1h2.2v-1H126.7z M126.7,23.7h2.2v-1h-2.2V23.7z M128.8,12.6h2.7v-0.9h-2.7V12.6z M128.8,15.2h2.7v-0.9h-2.7V15.2z
		 M131.3,20v1h2.5v-1H131.3z M133.8,23.7v-1h-2.5v1H133.8z"/>
	<path class="st5" d="M145.4,18.8c-0.4,2.1-0.9,4.2-1.7,5.9c0.4,0.2,0.8,0.6,1.4,0.9c1.5,0.9,3.6,1,6.3,1c2.6,0,6.6-0.2,9.1-0.6
		c-0.3,0.8-0.8,2-0.8,2.7c-1.9,0.1-5.8,0.3-8.4,0.3c-2.9,0-4.8-0.3-6.4-1.2c-0.9-0.5-1.7-1.2-2.2-1.2s-1.3,1.5-1.9,2.8l-1.8-2.6
		c0.8-0.9,1.6-1.7,2.4-2.1c0.5-1.1,0.9-2.6,1.3-3.9h-2.8c0.5-1.3,1.1-3.1,1.6-4.8h-2v-2.4h5.2c-0.5,1.6-1,3.4-1.5,4.9h0.9l0.4-0.1
		L145.4,18.8z M141.7,12.9c-0.3-1-0.9-2.7-1.2-3.9l2.4-0.8c0.4,1.2,0.9,2.7,1.3,3.7L141.7,12.9z M149,25.4h-2.6V14h5
		c-1-0.5-2.1-0.9-3-1.3l1.7-1.4c0.8,0.3,1.7,0.7,2.7,1c0.7-0.4,1.2-0.8,1.8-1.2h-8V9H157l0.6-0.1l1.6,1.2c-1.1,1-2.6,2.2-4,3
		c0.5,0.3,0.9,0.5,1.3,0.7h2.7v9.3c0,1.1-0.2,1.6-0.9,2s-1.7,0.4-3,0.4c-0.1-0.7-0.4-1.5-0.7-2.1c0.8,0,1.5,0,1.7,0
		c0.3,0,0.4-0.1,0.4-0.4v-1H154v3.3h-2.4V22H149V25.4L149,25.4z M149,15.9v1.2h2.6v-1.2C151.6,15.9,149,15.9,149,15.9z M151.6,20.2
		V19H149v1.2H151.6z M156.6,15.9H154v1.2h2.7L156.6,15.9L156.6,15.9z M156.6,20.2V19H154v1.2H156.6z"/>
	<path class="st5" d="M170,14.2c-0.7,1.1-1.5,2.3-2.4,3.4v11.7H165v-8.8c-0.7,0.6-1.2,1.1-1.8,1.7c-0.4-0.6-1.2-1.7-1.8-2.3
		c2.3-1.6,4.7-4.2,6.2-6.7L170,14.2z M169.1,9.4c-1.6,2.1-4.1,4.5-6.2,5.9c-0.4-0.6-1-1.7-1.5-2.2c1.9-1.2,4-3.2,5-4.7L169.1,9.4z
		 M182.3,18.3h-3v7.9c0,1.4-0.3,2.2-1.2,2.6s-2.4,0.5-4.4,0.5c-0.1-0.8-0.5-2-0.9-2.7c1.2,0.1,2.7,0.1,3.1,0c0.4,0,0.6-0.1,0.6-0.4
		v-7.8h-6.6v-2.6h12.4L182.3,18.3L182.3,18.3z M181.7,12.2h-10.9V9.6h10.9V12.2z"/>
	<path class="st5" d="M192.4,26.8c-2.7,0.7-5.7,1.3-8,1.8l-0.6-2.5c0.9-0.1,2.1-0.3,3.4-0.5V20h-3.1v-2.3h3.1v-1.6h-1.7v-0.6
		c-0.3,0.3-0.5,0.5-0.8,0.8c-0.2-0.6-0.8-2.1-1.1-2.7c1.6-1.2,3.2-3.3,4.2-5.4l2.3,0.9c-0.1,0.3-0.2,0.5-0.4,0.8
		c1.2,1,2.7,2.2,3.5,3l-1.5,2.1c-0.2-0.2-0.3-0.4-0.5-0.6v1.9h-1.5v1.6h2.5v2.3h-2.5v5.3l2.7-0.5L192.4,26.8z M186.1,20.9
		c0.4,1.2,0.8,2.8,0.9,3.8l-1.8,0.5c-0.1-1-0.5-2.7-0.8-3.9L186.1,20.9z M190.9,13.9c-0.7-0.7-1.5-1.4-2.3-2.1
		c-0.5,0.8-0.9,1.4-1.5,2.1H190.9z M190,24.4c0.3-1,0.7-2.7,0.9-3.8l2,0.5c-0.5,1.3-0.9,2.7-1.2,3.8L190,24.4z M204.1,26.4
		c0,1.2-0.2,2-1,2.4s-2,0.4-3.6,0.4c-0.1-0.7-0.4-1.8-0.8-2.5c1,0.1,2.1,0.1,2.5,0c0.4,0,0.5-0.1,0.5-0.4v-2.7
		c-1.9,0.5-3.8,0.9-5.4,1.4l-0.6-1.5c-0.1,2.1-0.5,4.5-1.3,6c-0.5-0.5-1.5-1.2-2.1-1.5c1-1.8,1-4.4,1-6.4v-6.9h4.2V8.4h2.6v6.3h4.2
		L204.1,26.4L204.1,26.4z M194.5,14.2c-0.3-1.1-1-2.8-1.9-4.2l2.1-0.9c0.9,1.2,1.8,2.8,2.1,4.1L194.5,14.2z M195.6,21.5
		c0,0.4,0,0.8,0,1.2c1.6-0.3,3.8-0.9,6-1.3v-4.5h-5.9L195.6,21.5L195.6,21.5z M196.8,17.8c1.5,0.3,3.5,1,4.5,1.6l-1.1,1.8
		c-0.9-0.7-2.9-1.4-4.5-1.8L196.8,17.8z M204.8,9.7c-0.7,1.5-1.5,3.1-2.1,4.2l-2.3-0.9c0.7-1.1,1.4-2.9,1.9-4.3L204.8,9.7z"/>
	<path class="st5" d="M215,20.5l-2.4,2.1c-1.3-1.7-3.3-3.6-4.8-4.9l2.4-2.1C211.6,16.9,213.7,19.1,215,20.5z"/>
	<path class="st5" d="M222.3,22.2c0.8-0.3,1.5-0.6,2.3-0.9l0.5,2.5c-2.3,0.9-4.8,2.1-6.7,2.8l-0.9-2.7c0.8-0.2,1.6-0.5,2.6-0.9v-6.9
		h-2.4v-2.6h2.3V8.7h2.4v5h2.2v2.6h-2.2v5.9C222.4,22.2,222.3,22.2,222.3,22.2z M238.5,16.9v2.4h-14v-2.4h3.1
		c-0.1-0.9-0.6-2.3-0.9-3.2l1.9-0.6h-3.3v-2.4h4.9c-0.1-0.7-0.3-1.5-0.5-2.2l2.4-0.4c0.3,0.8,0.6,1.8,0.7,2.6h4.9v2.4h-3.3l2,0.5
		c-0.5,1.1-0.9,2.4-1.3,3.3C235.1,16.9,238.5,16.9,238.5,16.9z M226.3,20.7h10.5v8.4h-2.6v-0.7h-5.6v0.8h-2.4L226.3,20.7L226.3,20.7
		z M228.9,13.1c0.5,1,0.9,2.3,1,3.1l-1.9,0.7h4.6c0.5-1.1,0.9-2.7,1.2-3.8C233.9,13.1,228.9,13.1,228.9,13.1z M228.7,23.1v3.1h5.6
		v-3L228.7,23.1L228.7,23.1z"/>
	<path class="st5" d="M256,16.9c1.3,1.3,3.2,2.4,5.1,2.9c-0.6,0.5-1.3,1.4-1.7,2.1c-0.9-0.4-1.9-0.9-2.7-1.5V25
		c0.6-0.4,1.1-0.7,1.6-1l1.7,1.3c-0.9,0.5-1.9,0.9-2.7,1.3c1,0.4,2,0.7,2.7,0.9l-1.1,1.8c-2-0.8-5.9-2.1-8.8-2.8
		c0,0.5,0.1,0.9,0.1,1.2c-5,1-5.9,1.2-6.3,1.6c-0.2-0.6-0.7-1.7-1.1-2.1c0.5-0.3,0.9-0.8,0.9-1.8V21c-0.7,0.5-1.4,0.9-2.1,1.2
		c-0.4-0.5-1.2-1.5-1.8-1.9c2-0.8,3.8-2,5.1-3.4h-4.3v-1.8h8.4v-0.8h-6.3v-1.6h6.3v-0.8h-7.3v-1.8h3.6c-0.3-0.4-0.5-0.9-0.8-1.2
		l2.4-0.8c0.5,0.6,0.9,1.4,1.2,2h4.6c0.4-0.7,0.8-1.4,0.9-2l2.9,0.6c-0.4,0.5-0.8,1-1.1,1.4h3.5V12h-7.2v0.8h6.3v1.6h-6.3v0.8h8.5
		V17C260.3,16.9,256,16.9,256,16.9z M255.5,19.6c-0.7-0.6-1.2-1.2-1.8-1.9v1.1h-6.5v-1c-0.5,0.6-1,1.2-1.7,1.7L255.5,19.6
		L255.5,19.6z M246.6,21.7h7.3V21h-7.3V21.7z M246.6,23.6h7.3v-0.8h-7.3V23.6z M250,26.2l0.9-1.1h-4.2v1.3l3.4-0.6L250,26.2
		L250,26.2z M247.9,16.9c-0.2,0.2-0.3,0.5-0.5,0.7h6.2c-0.2-0.2-0.4-0.5-0.5-0.7H247.9z M251.4,25.1c1,0.3,2.3,0.6,3.4,0.9
		c0.6-0.3,1.1-0.7,1.7-0.9H251.4z"/>
	<path class="st5" d="M262.4,26.5c0.9-1.5,1.7-3.8,2.2-5.6l2.4,0.9c-0.6,1.7-1.3,4.2-2.1,5.7L262.4,26.5z M271.6,18.6h-7.1v-7.8h7.1
		V8.4h2.7v2.5h7.2v7.8h-7.2v1.7h-0.5c0.9,0.9,1.9,1.9,2.5,2.6l-2.2,1.6c-0.7-0.9-1.9-2.3-2.9-3.2l1.3-0.9h-0.9V18.6z M271.6,16.2
		v-3.1h-4.5v3.1H271.6z M275.2,26.2c0.9,0,1.1-0.4,1.2-2.7c0.6,0.5,1.7,0.9,2.6,1c-0.4,3.3-1.1,4.2-3.6,4.2h-3.8
		c-3,0-3.8-0.9-3.8-3.3V21h2.8v4.4c0,0.8,0.2,0.9,1.3,0.9L275.2,26.2L275.2,26.2z M274.2,13.2v3.1h4.5v-3.1
		C278.7,13.2,274.2,13.2,274.2,13.2z M279.9,20.7c1.1,1.6,2.7,3.8,3.4,5.1l-2.5,1.4c-0.7-1.4-2.1-3.7-3.2-5.4L279.9,20.7z"/>
	<path class="st5" d="M292,14.2h-7.5V12h3.3c-0.4-0.9-1.1-1.9-1.7-2.7l2.1-1c0.9,0.9,1.6,2.1,2.1,2.9l-1.5,0.9h3.2V14.2z
		 M305.4,16.8c-0.7,2.7-1.7,5.1-2.8,7.2c0.3,1.3,0.6,2.1,1,2.2c0.3,0,0.6-1.1,0.7-3c0.4,0.5,1.3,1.1,1.7,1.3
		c-0.6,3.9-1.6,4.7-2.5,4.7c-1.1,0-2-1-2.7-2.7c-0.8,1-1.6,1.9-2.6,2.7c-0.3-0.4-1-1-1.6-1.3c1.2-1,2.5-2.4,3.4-4.1
		c-0.4-2.4-0.7-5.5-0.8-9.2H295V17h3.8v0.9c-0.1,5-0.2,7.1-0.7,7.7c-0.4,0.5-0.7,0.7-1.2,0.9c-0.5,0.1-1.1,0.1-1.9,0.1
		c0-0.8-0.2-1.6-0.5-2.3c-0.3,1.8-0.8,3.6-1.5,5c-0.4-0.4-1.1-1-1.7-1.4v0.3h-3.9V29h-2.1v-7.7h6v5.9c1.2-2.7,1.3-6.4,1.3-9.2v-5.8
		h6.6c0-1.2,0-2.6-0.1-3.9h2.4c0,1.3,0,2.7,0,3.9h3.9v2.4h-3.9c0,2,0.2,3.9,0.3,5.5c0.5-1.3,0.9-2.7,1.2-4.3L305.4,16.8z
		 M291.4,17.2h-5.9v-2h5.9V17.2z M285.5,18.2h5.9v2h-5.9V18.2z M289.2,23.3h-1.7v2.6h1.7V23.3z M295.1,19.2c0,1.5-0.1,3.2-0.4,4.9
		c0.5,0,0.9,0.1,1.1,0.1s0.4-0.1,0.6-0.3c0.2-0.3,0.3-1.4,0.3-4.7H295.1z M303.9,12.2c-0.4-0.8-1.2-2-1.9-2.8l1.7-0.9
		c0.8,0.9,1.7,2,2.1,2.7L303.9,12.2z"/>
	<path class="st5" d="M319.6,9c-0.1,0.1-0.2,0.3-0.4,0.4c2.1,1.8,5.8,3.3,9.3,4.1c-0.6,0.5-1.3,1.4-1.7,2.1
		c-0.5-0.1-0.9-0.3-1.4-0.4V21h-15.5v-5.7c-0.5,0.2-0.9,0.3-1.4,0.4c-0.3-0.5-0.9-1.6-1.4-2.1c4.2-0.9,8.1-2.8,10.1-5.4L319.6,9z
		 M324.7,14.8c-1-0.4-2.1-0.9-3-1.3v0.6h-7.9v-0.5c-0.9,0.5-1.8,0.9-2.7,1.2H324.7z M311.2,21.5h13.2v7.6h-2.7v-0.6h-7.9v0.6h-2.7
		L311.2,21.5L311.2,21.5z M313.7,19.3c-0.1-0.7-0.4-1.6-0.8-2.4l1.7-0.5H312v2.8h1.7V19.3z M313.8,23.3v0.9h7.9v-0.9H313.8z
		 M321.6,26.9V26h-7.9v0.9H321.6z M316.6,16.4h-1.7c0.4,0.8,0.8,1.7,0.9,2.4l-1.4,0.5h2.3L316.6,16.4L316.6,16.4z M319.8,12.3
		c-0.7-0.5-1.3-0.9-1.9-1.4c-0.6,0.5-1.2,0.9-1.9,1.4H319.8z M318.7,16.4v2.8h2.1l-1.3-0.4c0.3-0.7,0.7-1.7,0.9-2.5
		C320.3,16.4,318.7,16.4,318.7,16.4z M323.1,16.4h-2.4l1.7,0.4c-0.5,0.9-0.9,1.8-1.2,2.4h1.8L323.1,16.4L323.1,16.4z"/>
	<path class="st5" d="M344.8,25.3c2.1,0.7,4.4,1.4,5.9,2.1l-2.4,1.9c-1.7-0.9-4.8-1.9-7.2-2.6l1.9-1.3h-6l1.7,1.2
		c-1.8,1-4.6,2.1-6.9,2.7c-0.5-0.6-1.4-1.4-2-1.9c1.9-0.4,4.2-1.2,5.8-2H332v-9.9h16.4v9.9L344.8,25.3L344.8,25.3z M347.6,14.6H333
		V9h14.6V14.6z M334.6,18.2h11v-0.9h-11V18.2z M334.6,20.9h11V20h-11V20.9z M334.6,23.5h11v-0.9h-11V23.5z M344.7,11.1h-9.1v1.4h9.1
		V11.1z"/>
	<path class="st5" d="M354.4,21.9c1.7-0.6,2.7-1.5,2.9-2.7c-0.1,0-0.2,0-0.3,0c-1.1,0-2.1-0.8-2.1-2s1-2,2.2-2c1.6,0,2.5,1.2,2.5,3
		c0,2.6-1.6,4.6-4.5,5.4L354.4,21.9z"/>
	<path class="st5" d="M382.6,10.6v18.3h-2.9V27h-11.8v1.8H365V10.6H382.6z M379.7,24.2v-11h-11.8v11
		C367.8,24.2,379.7,24.2,379.7,24.2z"/>
	<path class="st5" d="M386,9.3h7.7v2.5H391c-0.3,1.5-0.7,3-1.2,4.5h3.6v10.3h-3.7v1.7h-2.2v-7c-0.3,0.4-0.6,0.9-0.9,1.2
		c-0.1-0.8-0.6-2.5-0.9-3.2c1.4-1.9,2.3-4.6,2.9-7.6h-2.4L386,9.3L386,9.3z M391,18.6h-1.5v5.6h1.5V18.6z M406.5,25.1h-3.7v4.2h-2.6
		v-4.2h-6.5v-2.3h2.1c-0.5-0.4-1-0.9-1.5-1.1c1.2-0.7,2.1-1.4,2.7-2.3h-2.5v-9.1h3.2c0.2-0.7,0.3-1.3,0.4-2l3.1,0.3
		c-0.3,0.6-0.5,1.1-0.8,1.7h5.2v9.1h-5.9c-0.7,1.2-1.7,2.5-3.1,3.4h3.4v-2.9h2.6v2.9h3.7L406.5,25.1z M397,13.9h1.9v-0.3v-1.1H397
		V13.9z M398.2,17.3c0.2-0.5,0.4-1,0.5-1.5H397v1.5H398.2z M403.2,15.8h-2.1c-0.1,0.5-0.2,0.9-0.4,1.5h2.5V15.8z M403.2,12.4h-1.9
		v1.2v0.3h1.9V12.4z"/>
	<path class="st5" d="M425.4,25.8h3v1.8h-3v1.7h-2.7v-1.7h-14.2v-1.8h3.2v-5.5h-2.6v-1.8h0.1c-0.4-0.3-0.9-0.5-1.1-0.7
		c1.1-1,1.3-2.3,1.3-3.3v-1.3h8.4v3.7h-6.7c-0.2,0.6-0.4,1.1-0.9,1.6h8.6c-0.2-0.6-0.6-1.2-0.9-1.7c1-0.1,2.1-0.3,3-0.6
		c-0.7-0.5-1.1-1-1.6-1.7l0.8-0.2H419v-1.4c-0.3-0.4-0.7-0.8-0.9-0.9c1.7-0.6,2-1.2,2-2.1v-1h6.2v1.8c0,0.4,0,0.6,0.4,0.6h0.8
		c0.3,0,0.9,0,1.1-0.1c0,0.6,0.1,1,0.1,1.6c-0.3,0.1-0.9,0.1-1.2,0.1h-0.9l1.2,0.5c-0.5,1.2-1.2,2.2-2.3,2.9
		c0.9,0.3,2.1,0.5,3.2,0.6c-0.4,0.4-0.9,1.1-1.2,1.7h0.5v1.8h-2.6v5.5l0,0L425.4,25.8L425.4,25.8z M412.5,10.7h-3.8V9.2h3.8V8.3h2.4
		v0.9h3.7v1.3h-3.7v0.7h3.1v1.3h-8.6v-1.3h3.1V10.7L412.5,10.7z M411.6,14.4L411.6,14.4c0,0.4,0,0.8,0,1.1h1.2v-1.1
		C412.8,14.4,411.6,14.4,411.6,14.4z M414.3,20.3v0.8h8.4v-0.8H414.3z M414.3,23.4h8.4v-0.8h-8.4V23.4z M422.8,25.8V25h-8.4v0.8
		H422.8z M415.9,14.4h-1.3v1.1h1.3V14.4z M426.9,18.5c-1.3-0.2-2.6-0.6-3.6-1c-1,0.5-2.3,0.8-3.5,1H426.9z M422.1,10.6
		c-0.1,0.9-0.5,1.7-1.3,2.4h5.2h0.1H426c-1.6,0-1.9-0.8-1.9-2.2v-0.2H422.1z M421.7,14.4c0.4,0.4,0.9,0.8,1.4,1c0.6-0.3,1-0.7,1.4-1
		H421.7z"/>
	<path class="st5" d="M451.3,26.8v1.9h-20.5v-1.9h8.8v-0.9h-6.8v-1.7h6.8v-0.8h-6.4v-5.8h15.6v5.8h-6.5v0.8h6.9v1.7h-6.9v0.9
		C442.3,26.8,451.3,26.8,451.3,26.8z M451.2,17.1h-20.3v-1.9h20.3V17.1z M448.2,14.5h-14.6V9h14.6V14.5z M435.8,19.9h3.9v-0.8h-3.9
		V19.9z M439.7,22.1v-0.8h-3.9v0.8H439.7z M445.6,10.4h-9.3v0.8h9.3V10.4z M445.6,12.5h-9.3v0.8h9.3V12.5z M446.2,19.2h-3.9V20h3.9
		V19.2z M446.2,21.3h-3.9V22h3.9V21.3z"/>
	<path class="st5" d="M471.1,22.5h2.8v2h-2.8v2.3c0,1.2-0.2,1.8-1.1,2.1c-0.9,0.4-2.1,0.4-3.7,0.4c-0.1-0.7-0.4-1.6-0.8-2.2
		c1,0,2.2,0,2.5,0c0.4,0,0.5-0.1,0.5-0.4v-2.3h-5c0.9,0.9,1.7,1.7,2.2,2.5l-2.1,1.3c-0.5-0.9-1.6-2.2-2.7-3l1.1-0.8h-3.1v-2h9.5
		v-0.9c-3.2,0.1-6.4,0.2-8.8,0.2l-0.2-2c1.6,0,3.6,0,5.9,0v-0.9h-4.9v-6.2h4.9v-0.9h-5.9v-1c-0.5,1-0.9,2.1-1.5,3.1v15.4h-2.4V17.8
		c-0.5,0.7-1,1.2-1.5,1.8c-0.3-0.7-0.9-2.1-1.4-2.7c2-2,4-5.2,5.1-8.4l2.6,0.9l-0.3,0.7h5.5V8.5h2.6v1.3h5.8v1.9h-5.8v0.9h5.1v6.2
		h-0.9c0.9,0.8,1.7,1.7,2.1,2.4l-1.9,1c-0.1-0.2-0.4-0.5-0.6-0.8h-0.7v1.1H471.1z M462.8,15h2.6v-0.9h-2.6V15z M465.3,17.3v-0.9
		h-2.6v0.9H465.3z M467.9,14.1V15h2.6v-0.9H467.9z M470.5,16.4h-2.6v0.9h2.6V16.4z M467.9,19.7h2.2c-0.3-0.3-0.6-0.5-0.8-0.8
		l0.2-0.1H468L467.9,19.7L467.9,19.7z"/>
	<path class="st5" d="M480.9,18.8c-0.4,2.1-0.9,4.3-1.6,6.1c0.4,0.2,0.9,0.6,1.4,0.9c1.6,0.9,3.7,1,6.3,1c2.7,0,6.6-0.3,9.2-0.6
		c-0.3,0.7-0.7,1.9-0.8,2.7c-1.8,0.1-5.9,0.3-8.5,0.3c-3,0-4.9-0.2-6.6-1.1c-0.9-0.6-1.7-1.2-2.3-1.2c-0.4,0-1,1.5-1.4,2.7l-1.7-2.5
		c0.8-1,1.5-1.8,2.2-2.2c0.5-1.1,0.9-2.6,1-4h-2.5c0.4-1.3,0.9-3.1,1.4-4.8h-1.8v-2.4h4.5c-0.4,1.6-0.9,3.4-1.3,4.9h0.9l0.4-0.1
		L480.9,18.8z M477.7,12.9c-0.3-1-0.8-2.7-1.1-3.9l2.1-0.6c0.4,1.2,0.9,2.7,1.2,3.8L477.7,12.9z M484.2,14.7c0,3-0.4,7.6-2.5,10.6
		c-0.3-0.5-1.1-1.5-1.5-1.7c1.6-2.6,1.8-6.2,1.8-8.8V9.6l0,0c4-0.2,8.6-0.7,11.2-1.3l2,1.7c-1.2,0.3-2.7,0.6-4.2,0.8v0.8h3.9V13H491
		v0.8h3l0.4-0.1L496,14c-0.2,0.9-0.5,2-0.8,2.7l-1.7-0.5l0.1,1.1l-2.7,0.2c0,0.5,0.1,0.7,0.5,0.7h2.1c0.5,0,1,0,1.4-0.1
		c0,0.5,0.1,1.1,0.2,1.6c-0.3,0.1-0.9,0.1-1.5,0.1h-2.4c-1.7,0-2.2-0.7-2.2-2.2l-1.3,0.1l-0.1-1.4l1.4-0.1v-0.9h-1.8V17
		c0,2.7-0.5,6.6-2.7,9.2c-0.3-0.4-1.1-1.2-1.5-1.5c2-2.3,2.2-5.4,2.2-7.7v-3.2h3.8V11c-1.6,0.2-3.2,0.3-4.7,0.4L484.2,14.7
		L484.2,14.7z M490.3,20.1c0,3.4-0.4,5.1-3,6c-0.2-0.5-0.7-1.2-1-1.6c1.9-0.7,2-1.7,2-4.4H490.3z M491,16l2.6-0.1
		c0-0.2,0.1-0.5,0.1-0.7H491V16L491,16z M493.3,20.1v3.2c0,0.3,0,0.4,0.1,0.5c0,0.1,0.1,0.1,0.3,0.1h0.4c0.1,0,0.2,0,0.3-0.1
		c0.1,0,0.1-0.1,0.2-0.3c0.1-0.2,0.1-0.6,0.1-1.1c0.4,0.4,1.1,0.8,1.7,0.9c-0.1,0.7-0.2,1.2-0.3,1.5c-0.2,0.3-0.4,0.5-0.8,0.6
		c-0.3,0.1-0.7,0.2-1,0.2h-1c-0.5,0-1-0.1-1.3-0.5c-0.4-0.4-0.5-0.8-0.5-1.9V20L493.3,20.1L493.3,20.1z"/>
</g>
<text transform="matrix(1 0 0 1 59.8562 -121.1462)" style="font-family:'SourceHanSansTC-Bold-B5pc-H'; font-size:23.6651px;">深度溝通行銷、培養忠誠會員，口碑聲量傳遞</text>
<circle class="st6" cx="382.6" cy="316.9" r="54.6"/>
<circle class="st3" cx="382.6" cy="316.9" r="49.2"/>
<circle class="st6" cx="435.8" cy="226.3" r="54.6"/>
<circle class="st7" cx="435.8" cy="226.3" r="49.2"/>
<circle class="st6" cx="487.4" cy="134.9" r="54.6"/>
<ellipse transform="matrix(0.7071 -0.7071 0.7071 0.7071 47.3675 384.1551)" class="st8" cx="487.4" cy="134.9" rx="49.2" ry="49.2"/>
<g>
	<g class="st9">
		<path d="M412.2,220.3c0.4-1.3,0.8-3.5,1-5.1l1.4,0.5c-0.2,1.6-0.4,3.8-0.9,5.2L412.2,220.3z M421.9,212.1c0,0,0,0.6,0,0.9
			c-0.1,5.7-0.3,7.8-0.8,8.4c-0.4,0.5-0.7,0.7-1.3,0.8c-0.5,0.1-1.2,0.1-1.9,0.1c0-0.6-0.3-1.5-0.6-2.1c0.6,0.1,1.1,0.1,1.3,0.1
			s0.4,0,0.6-0.3c0.1-0.2,0.2-0.8,0.3-2.1l-0.9,0.3c-0.2-0.8-0.6-2.1-0.9-3.1l1-0.3c0.3,0.7,0.6,1.6,0.9,2.3c0-0.8,0.1-1.7,0.1-2.9
			h-6.2V201h7.9v2.3h-2.2v1.6h1.8v2.1h-1.8v1.4h1.8v2.1h-1.8v1.5L421.9,212.1L421.9,212.1z M416,215.6c0.1,1.3,0.2,3.1,0.2,4.3
			L415,220c0-1.2,0-3-0.1-4.4H416z M415.7,203.5v1.6h1.4v-1.6H415.7z M417.1,207.2h-1.4v1.4h1.4V207.2z M415.7,212.1h1.4v-1.5h-1.4
			V212.1z M417.4,215.3c0.3,1.2,0.6,2.8,0.7,3.8l-1.2,0.2c-0.1-1-0.4-2.7-0.6-3.9L417.4,215.3z M431.9,219.6c0.8,0,1.9-0.1,2.4-0.2
			c0.1,0.6,0.2,1.7,0.3,2.2c-0.5,0.2-1.7,0.2-2.9,0.2h-5c-3,0-4.1-1.1-4.1-4.4v-13.8h-0.8v-2.2h12.3v2.2h-9.3v13.9
			c0,1.6,0.4,2.1,1.8,2.1H431.9z M425.5,211.5h3.8v6.8h-3.8V211.5z M432.8,210.3h-6.1v-5.8h6.1V210.3z M426.9,216.7h1v-3.5h-1V216.7
			z M430.7,206.2h-1.9v2.4h1.9V206.2z M434,218.3h-4v-6.8h4V218.3z M432.5,213.2h-1.1v3.5h1.1V213.2z"/>
		<path d="M451.7,213.8c-0.2,1.5-0.6,2.9-1.3,4.1c2.2,1,4.9,1.7,8.1,2c-0.6,0.6-1.3,1.8-1.7,2.5c-3.2-0.4-5.9-1.2-8.1-2.5
			c-1.1,1-2.7,1.9-4.9,2.5c-0.4-0.6-1.2-1.8-1.8-2.3c1.9-0.4,3.3-1,4.3-1.8c-1.2-1-2.1-2.2-2.9-3.5l2.3-0.7c0.6,0.9,1.3,1.7,2.2,2.4
			c0.5-0.9,0.7-1.7,0.9-2.7h-5.3v-6.9h5.4v-1.7H443V203c-0.4,0.9-0.9,1.8-1.4,2.7v16.7h-2.7v-12.7c-0.6,0.8-1.3,1.6-1.9,2.2
			c-0.3-0.7-1-2.2-1.5-2.9c2.2-2.1,4.4-5.5,5.7-8.8l2.6,0.9c-0.2,0.5-0.4,1-0.6,1.5h5.8v-2.2h2.8v2.2h6.3v2.6h-6.3v1.7h5.6v6.9
			L451.7,213.8L451.7,213.8z M449.1,211.5v-0.3v-2h-2.9v2.3H449.1z M451.9,209.1v2.1v0.3h2.9v-2.3h-2.9V209.1z"/>
	</g>
	<g class="st9">
		<path d="M421.2,234.9c-0.7,1.2-1.6,2.4-2.5,3.6v12.4h-2.8v-9.3c-0.7,0.6-1.3,1.2-1.9,1.8c-0.4-0.6-1.3-1.8-1.9-2.4
			c2.4-1.7,5-4.4,6.5-7.1L421.2,234.9z M420.4,229.8c-1.7,2.2-4.3,4.7-6.5,6.2c-0.4-0.6-1.1-1.8-1.6-2.3c2-1.3,4.2-3.4,5.3-5
			L420.4,229.8z M434.3,239.2H431v8.3c0,1.5-0.3,2.3-1.3,2.7s-2.5,0.5-4.6,0.5c-0.1-0.8-0.5-2.1-0.9-2.9c1.3,0.1,2.9,0.1,3.3,0
			c0.4,0,0.6-0.1,0.6-0.5v-8.2h-7v-2.7h13.1L434.3,239.2L434.3,239.2z M433.7,232.7h-11.5V230h11.5V232.7z"/>
		<path d="M457.7,234c0,0,0,0.9,0,1.3c-0.2,9.7-0.4,13.1-1.2,14.2c-0.5,0.8-1.1,1-1.9,1.2c-0.7,0.1-1.8,0.1-2.9,0.1
			c0-0.8-0.4-1.9-0.8-2.7c1,0.1,1.9,0.1,2.4,0.1c0.4,0,0.6-0.1,0.8-0.4c0.5-0.6,0.7-3.5,0.9-11.2h-2.1c-0.3,6.3-1.4,11.2-5.4,14.4
			c-0.4-0.6-1-1.3-1.7-1.9c-3.4,0.4-6.8,0.7-9.4,0.9l-0.3-2.4c1.3-0.1,3-0.2,4.8-0.3v-1.4h-4.2v-2h4.2V243h-4.1v-7.3h4.1v-0.9h-4.7
			v-2h4.7v-0.9c-1.4,0.1-2.7,0.2-4,0.2c-0.1-0.6-0.4-1.4-0.6-2c3.5-0.2,7.6-0.6,10.2-1.2l1.2,2.1c-1.3,0.3-2.7,0.5-4.3,0.6v1.2h4.5
			v1.3h2.2c0-1.6,0-3.2,0-4.9h2.7c0,1.7,0,3.4,0,4.9h4.9L457.7,234L457.7,234z M439,238.5h1.8v-1H439V238.5z M440.9,241.3v-1.1H439
			v1.1H440.9z M443.4,247.1c1.3-0.1,2.7-0.2,4.1-0.3c1.8-2.6,2.4-5.9,2.6-10.2H448v-1.8h-4.5v0.9h4.2v7.3h-4.2v0.9h4.3v2h-4.3v1.2
			L443.4,247.1L443.4,247.1z M445.3,238.5v-1h-1.8v1H445.3z M443.4,240.2v1.1h1.8v-1.1H443.4z"/>
	</g>
</g>
<g class="st9">
	<path class="st4" d="M366.9,303.5l0.5,2.5c-2.3,0.9-4.8,1.9-6.8,2.8l-0.9-2.8c0.7-0.2,1.6-0.5,2.6-0.8v-7.4h-2.2v-2.6h2.2v-5.3h2.6
		v5.3h2.1v2.6h-2.1v6.5L366.9,303.5z M380.8,292.9v8.2h-13.1v-8.2h2.8c-0.4-0.8-0.9-1.7-1.5-2.5l2.4-1c0.6,0.8,1.3,2,1.7,2.7
		l-1.6,0.8h3.7c0.6-1,1.3-2.4,1.7-3.5l3,0.9c-0.6,0.9-1.3,1.8-1.8,2.6H380.8z M368.9,302.1h11v9.5h-2.7v-1.1h-5.8v1.1h-2.6v-9.5
		H368.9z M370,299.2h3.2v-4.5H370V299.2z M371.6,295.1c0.6,1,1.2,2.3,1.4,3.3l-1.5,0.6c-0.2-0.9-0.7-2.3-1.3-3.3L371.6,295.1z
		 M371.4,304.1v1.3h5.8v-1.3H371.4z M377.2,308.4v-1.1h-5.8v1.1H377.2z M375.2,294.7v4.5h3.2v-4.5H375.2z M375.4,298.4
		c0.5-0.9,1.1-2.3,1.4-3.3l1.7,0.6c-0.6,1.1-1.3,2.4-1.8,3.2L375.4,298.4z"/>
	<path class="st4" d="M394.7,293.6c0,0,0,0.9,0,1.3c-0.4,10-0.7,13.7-1.5,14.8c-0.5,0.8-1.1,1.1-1.8,1.3c-0.7,0.1-1.7,0.1-2.7,0.1
		c0-0.9-0.4-2.1-0.8-2.9c0.8,0.1,1.6,0.1,2,0.1s0.6-0.1,0.8-0.4c0.5-0.7,0.9-3.6,1.2-11.5h-2.3c-0.3,6-1.2,11.4-4,15.2
		c-0.5-0.7-1.4-1.6-2.2-2c2.5-3.2,3.2-8,3.4-13.2H384v-2.7h2.8c0-1.3,0-2.7,0-4.1h2.8c0,1.4,0,2.8,0,4.1L394.7,293.6z M404.7,292.2
		v18.7h-2.9v-1.5h-3.2v1.6h-2.8v-18.9L404.7,292.2L404.7,292.2z M401.7,306.7v-11.9h-3.2v11.9H401.7z"/>
</g>
<g class="st9">
	<path class="st4" d="M381.7,336.6v2.7h-21.5v-2.7h13.1c0.1-1,0.3-2,0.5-3.1h-10.5c0.9-3.2,2-8.1,2.7-12.1h-5v-2.7h20v2.7h-12
		c-0.2,1-0.4,2-0.6,3.1h6.8l0.5-0.1l2.2,0.3c-0.4,3.4-1,8-1.7,11.9L381.7,336.6L381.7,336.6z M374.1,331c0.2-1.3,0.4-2.6,0.5-3.7
		h-6.8c-0.3,1.3-0.6,2.6-0.8,3.7H374.1z"/>
	<path class="st4" d="M405.1,323.2c0,0,0,0.9,0,1.3c-0.2,9.7-0.4,13.1-1.2,14.2c-0.5,0.8-1.1,1-1.9,1.2c-0.7,0.1-1.8,0.1-2.9,0.1
		c0-0.8-0.4-1.9-0.8-2.7c1,0.1,1.9,0.1,2.4,0.1c0.4,0,0.6-0.1,0.8-0.4c0.5-0.6,0.7-3.5,0.9-11.2h-2.1c-0.3,6.3-1.4,11.2-5.4,14.4
		c-0.4-0.6-1-1.3-1.7-1.9c-3.4,0.4-6.8,0.7-9.4,0.9l-0.3-2.4c1.3-0.1,3-0.2,4.8-0.3v-1.4h-4.2v-2h4.2v-0.9h-4.1v-7.3h4.1V324h-4.7
		v-2h4.7v-0.9c-1.4,0.1-2.7,0.2-4,0.2c-0.1-0.6-0.4-1.4-0.6-2c3.5-0.2,7.6-0.6,10.2-1.2l1.2,2.1c-1.3,0.3-2.7,0.5-4.3,0.6v1.2h4.5
		v1.3h2.2c0-1.6,0-3.2,0-4.9h2.7c0,1.7,0,3.4,0,4.9h4.9L405.1,323.2L405.1,323.2z M386.4,327.7h1.8v-1h-1.8V327.7z M388.3,330.4
		v-1.1h-1.8v1.1H388.3z M390.8,336.3c1.3-0.1,2.7-0.2,4.1-0.3c1.8-2.6,2.4-5.9,2.6-10.2h-2.2V324h-4.5v0.9h4.2v7.3h-4.2v0.9h4.3v2
		h-4.3V336.3z M392.7,327.7v-1h-1.8v1H392.7z M390.8,329.3v1.1h1.8v-1.1H390.8z"/>
</g>
<g>
	<g class="st9">
		<path class="st4" d="M473.4,115.2c-0.3,0.6-0.6,1.3-0.9,1.9h11v11.7c0,1.4-0.3,2.2-1.2,2.6c-0.9,0.4-2.3,0.5-4.2,0.5
			c-0.1-0.8-0.5-2-0.9-2.7c1.2,0.1,2.6,0.1,3,0.1s0.5-0.1,0.5-0.5v-1.4h-8.9c-0.4,1.8-1.2,3.5-2.6,4.7c-0.4-0.6-1.4-1.8-2-2.2
			c2-1.8,2.2-4.3,2.2-6.5v-1.9c-0.9,0.9-1.8,1.8-2.9,2.6c-0.4-0.6-1.3-1.7-1.8-2.2c2.4-1.6,4.3-4,5.7-6.6h-5.1v-2.7h6.3
			c0.4-1,0.7-1.9,0.9-2.9l2.9,0.7c-0.2,0.7-0.5,1.5-0.8,2.2h11.5v2.7L473.4,115.2L473.4,115.2z M480.7,124.9v-1.5h-8.5
			c0,0.5,0,1,0,1.5H480.7z M480.7,119.6h-8.5v1.5h8.5V119.6z"/>
		<path class="st4" d="M509,116.4c-0.5,3.6-1.4,6.6-2.7,9.1c1.2,1.7,2.6,3.1,4.3,4.1c-0.6,0.5-1.5,1.5-1.9,2.2c-1.5-1-2.9-2.3-4-3.9
			c-1.3,1.6-3,2.9-5.1,4c-0.4-0.5-1.4-1.6-1.9-2.1c2.4-1,4.2-2.5,5.5-4.4c-0.7-1.3-1.2-2.7-1.7-4.2c-0.3,0.5-0.6,1-1,1.5
			c-0.3-0.5-1.1-1.6-1.6-2.2l-1.1,0.6c-0.1-0.3-0.2-0.6-0.4-1c-0.4,1.3-0.8,2.5-1.3,3.6c1.2,1.4,2.3,2.8,2.9,3.9l-2.2,1.8
			c-0.5-0.9-1.2-1.9-2.1-3.1c-1.2,2-2.8,3.7-4.7,4.9c-0.4-0.5-1.3-1.6-1.9-2.1c2-1.2,3.6-2.9,4.8-5c-0.8-0.9-1.6-1.8-2.4-2.6
			c-0.2,0.3-0.4,0.6-0.7,0.9c-0.4-0.5-1.3-1.3-1.9-1.8c1.2-1.3,2.4-3.4,3.1-5.3l2.4,0.8c-0.7,1.7-1.8,3.6-2.7,5.1l1.8-1.3
			c0.5,0.5,1.1,1.1,1.6,1.6c0.3-0.8,0.5-1.6,0.7-2.5l2.2,0.4c-0.6-1.1-1.3-2.2-2.1-3.2l1.7-1h-8.1V113h4.7c-0.3-0.8-0.8-1.7-1.2-2.5
			l2.4-0.9c0.6,0.9,1.2,2,1.5,2.7l-1.5,0.6h5.4v2.5h-2.7c0.9,1.1,1.8,2.5,2.4,3.7c1.4-2.5,2.3-5.9,2.8-9.5l2.6,0.4
			c-0.2,1.3-0.4,2.5-0.7,3.7h5.8v2.6h-1L509,116.4L509,116.4z M503.5,116.4c-0.2,0.5-0.3,1-0.5,1.5c0.4,1.7,1,3.3,1.7,4.8
			c0.8-1.8,1.3-3.9,1.6-6.3H503.5z"/>
	</g>
	<g class="st9">
		<path class="st4" d="M486.2,146.1c0,0,0,0.8,0,1c-0.1,8.4-0.3,11.2-0.9,12c-0.4,0.6-0.9,0.8-1.4,0.9c-0.5,0.1-1.2,0.1-2,0.1
			c0-0.5-0.2-1.2-0.4-1.7h-0.1c0-0.2-0.1-0.4-0.1-0.6c-2.4,0.3-4.7,0.6-6.7,0.9l-0.4-2c1-0.1,2.2-0.2,3.5-0.3v-1.7h-2.9v-4.4
			c-0.2-0.2-0.5-0.5-0.8-0.9v8.1c0,1-0.2,1.7-0.9,2.1c-0.7,0.4-1.6,0.5-2.9,0.5c-0.1-0.6-0.4-1.6-0.7-2.2c0.9,0,1.7,0,2,0
			s0.4-0.1,0.4-0.4V154h-4c-0.2,2.2-0.7,4.6-1.6,6.3c-0.4-0.3-1.3-0.9-1.8-1.1c1.4-2.5,1.5-6,1.5-8.7v-3.8c-0.5-0.4-1.2-1-1.6-1.3
			c1.5-1.7,2.6-4.4,3.2-7.2l2.4,0.5c-0.1,0.5-0.3,1.1-0.4,1.6h1.6l0.5-0.1l1.4,1c-0.4,1-0.8,2.1-1.3,3.1h2.3v3.8
			c0.9-0.9,1.7-2,2.2-3.1h-1.8v-6h11.7v5.8h-7.3c-0.2,0.4-0.4,0.9-0.6,1.3H486.2z M468.7,142.3c-0.3,0.6-0.5,1.3-0.8,1.8h1.6
			c0.2-0.5,0.4-1.2,0.6-1.8H468.7z M467.9,150.4c0,0.5,0,1,0,1.5h1.1V150h-1v0.4H467.9z M467.9,148h1v-1.8h-1V148z M471.7,146.2
			h-1.1v1.8h1.1V146.2z M471.7,151.9V150h-1.1v1.9H471.7z M482.5,158.2c0.3,0,0.4,0,0.6-0.4c0.3-0.5,0.5-2.9,0.6-9.6h-7
			c-0.5,0.7-1,1.3-1.5,1.8h2.4v-1.5h2v1.5h3.1v4.9h-3.1v1.5l1-0.1c-0.1-0.3-0.2-0.6-0.3-0.8l1.6-0.5c0.5,0.9,0.9,2.2,1.1,3l-0.8,0.3
			L482.5,158.2L482.5,158.2z M476.4,142.8h1.2V141h-1.2V142.8z M477.6,153.2v-1.6h-1.1v1.6H477.6z M479.5,142.8h1.2V141h-1.2V142.8z
			 M479.6,153.2h1.1v-1.6h-1.1V153.2z M482.6,142.8h1.2V141h-1.2V142.8z"/>
		<path class="st4" d="M509.2,146.5c-0.9,3.7-2.5,6.5-4.6,8.7c1.7,1.1,3.6,1.9,5.8,2.4c-0.7,0.6-1.5,1.9-2,2.7
			c-2.4-0.7-4.4-1.7-6.2-3.1c-2,1.5-4.4,2.5-7,3.3c-0.3-0.8-1-2-1.6-2.6c2.4-0.6,4.6-1.5,6.5-2.8c-1.6-1.8-2.8-4.1-3.8-6.7h-0.4
			c-0.5,3.9-2,8.2-5.8,11.5c-0.4-0.7-1.4-1.9-2-2.4c4.7-4,5.2-10,5.2-13.8v-1.8h-3.7v-2.7h15c-0.4,2.2-0.9,4.7-1.3,6.7h3.5l0.5-0.1
			L509.2,146.5z M496.2,143.7c0,0.7,0,1.3,0,2.1h3.8c0.3-1.2,0.7-2.6,1-3.9h-4.7L496.2,143.7L496.2,143.7z M499,148.4
			c0.8,1.8,1.9,3.5,3.3,4.9c1.3-1.3,2.4-3,3.1-4.9H499z"/>
	</g>
</g>
<path class="st10" d="M610.9,346.6c-0.1,0.2-0.2,0.4-0.4,0.5c2.5,2.6,5.4,4.1,8.8,5.3c-0.6,0.6-1.3,1.4-1.6,2.2
	c-0.8-0.4-1.5-0.7-2.2-1.1v6h-2.7v-0.6h-7.5v0.6h-2.6v-5.7c-0.8,0.4-1.5,0.7-2.4,1.1c-0.4-0.6-1-1.6-1.6-2.1
	c4.1-1.4,7.9-3.9,9.9-7.2L610.9,346.6z M602.2,345.5h-2.6v-4.7h8.1c-0.2-0.5-0.4-1-0.6-1.4l2.8-0.6c0.3,0.6,0.7,1.3,0.9,2h7.6v4.7
	h-2.7v-2.4h-13.5V345.5z M607.5,344.4c-1.4,2-3.6,3.9-5.7,5c-0.4-0.5-1.3-1.5-1.8-2c1.9-0.9,3.9-2.3,5-3.8L607.5,344.4z
	 M612.8,356.6v-2.3h-7.5v2.3H612.8z M612.8,352c-1.3-0.9-2.5-1.9-3.7-3.1c-1,1.2-2.2,2.2-3.4,3.1H612.8z M612.2,343.6
	c1.8,1.1,4.3,2.8,5.5,4l-1.9,1.7c-1.1-1.2-3.5-3-5.4-4.2L612.2,343.6z"/>
<path class="st10" d="M627.4,352.6c0-0.3-0.1-0.6-0.2-0.9c-4.4,0.7-5.2,0.8-5.7,1.1c-0.1-0.5-0.5-1.6-0.8-2.3c0.5-0.1,1-0.6,1.7-1.4
	c0.3-0.3,0.8-0.9,1.4-1.8c-1.7,0.2-2.1,0.3-2.5,0.5c-0.1-0.5-0.5-1.6-0.8-2.2c0.4-0.1,0.8-0.6,1.3-1.2s1.8-3.1,2.6-5.4l2.3,0.9
	c-0.8,1.8-1.8,3.7-2.9,5.3l1.5-0.1c0.5-0.9,1.1-1.9,1.5-2.9l2.2,1.3c-1.2,2.3-2.8,4.6-4.5,6.6l2.3-0.3c-0.2-0.6-0.4-1.2-0.5-1.7
	l1.9-0.6c0.5,1.5,1.1,3.4,1.4,4.5L627.4,352.6z M623.7,353.8c-0.2,2-0.5,4.2-1,5.6c-0.5-0.3-1.5-0.6-2-0.7c0.5-1.3,0.8-3.4,0.9-5.2
	L623.7,353.8z M626,353.4c0.3,1.5,0.5,3.3,0.6,4.5l-2,0.4c0-1.2-0.2-3.1-0.5-4.6L626,353.4z M628.2,352.7c0.4,1.1,0.8,2.4,1,3.3
	l-1.8,0.7c-0.2-0.9-0.6-2.3-0.9-3.4L628.2,352.7z M641.3,356.6v2.4h-12.6v-2.4h5v-3h-4v-2.3h10.7v2.3h-4.1v3H641.3z M633.4,343.1
	c-0.7,1.1-1.4,2.4-2.1,3.4c0.9,1.2,1.8,2.6,2.3,3.5l-2.1,0.8c-0.5-1.1-1.5-2.8-2.6-4.3c0.9-1.3,1.8-2.9,2.3-4L633.4,343.1z
	 M641.1,342.2h-11.9v-2.3h11.9V342.2z M635.2,350.8c-0.5-1.1-1.5-2.8-2.7-4.2c0.9-1.3,1.8-2.9,2.3-3.9l2.2,0.5
	c-0.7,1.1-1.4,2.4-2.1,3.4c0.9,1.2,1.8,2.5,2.3,3.4L635.2,350.8z M639.1,350.9c-0.5-1.1-1.7-2.8-2.9-4.3c0.9-1.3,1.9-2.9,2.4-4
	l2.2,0.5c-0.7,1.2-1.5,2.4-2.2,3.4c1,1.2,2,2.5,2.5,3.4L639.1,350.9z"/>
<path class="st10" d="M659.1,339c-0.1,1.4-0.2,2.5-0.5,3.5c1.4,0.7,3.2,1.6,4.2,2.3l-1.1,1.3h0.9v4.2H660v-2.2h-13.7v2.2h-2.5v-4.2
	h0.4c-0.3-0.5-0.7-1.1-1.1-1.5c3.8-0.9,4.2-2.5,4.4-5.6h2.3c-0.1,1.4-0.2,2.6-0.6,3.6c1.1,0.6,2.4,1.4,3.1,1.9l-1.6,1.6
	c-0.5-0.5-1.6-1.1-2.5-1.7c-0.6,0.7-1.5,1.3-2.7,1.7h8.1c-0.3-0.6-0.7-1.3-1.2-1.6c3.8-0.8,4.2-2.3,4.4-5.5L659.1,339L659.1,339z
	 M645,342.7c-0.4-0.6-1.1-1.5-1.7-2.2l1.6-1.2c0.6,0.6,1.4,1.5,1.8,2L645,342.7z M652.8,354.1h8.3v5.4h-2.6V359H648v0.5h-2.5v-5.4
	h5.1c0.1-0.3,0.2-0.6,0.4-0.9h-3.9v-4.4H659v4.4h-5.7L652.8,354.1z M658.5,355.9H648v1.3h10.5V355.9z M649.5,351.6h6.9v-1.2h-6.9
	V351.6z M649.6,342.2c0.5-0.7,1.1-1.6,1.4-2.3l1.7,0.5l1.6-1.2c0.6,0.6,1.4,1.5,1.8,2l-1.6,1.3c-0.3-0.5-0.9-1.3-1.4-1.9
	c-0.7,0.8-1.3,1.6-1.8,2L649.6,342.2z M660.5,346.1c-0.8-0.5-2-1.2-3-1.7c-0.6,0.7-1.6,1.3-3,1.7H660.5z M662.9,340.6
	c-0.7,0.9-1.5,1.7-2.1,2.3l-1.6-0.6c0.5-0.7,1.1-1.7,1.4-2.4L662.9,340.6z"/>
<path class="st10" d="M667.5,342.2c0-1.2,0.9-2.1,2.1-2.1c1.2,0,2.1,0.9,2.1,2.1s-0.9,2-2.1,2C668.4,344.3,667.5,343.4,667.5,342.2z
	 M667.5,352.7c0-1.2,0.9-2.1,2.1-2.1c1.2,0,2.1,0.9,2.1,2.1s-0.9,2-2.1,2C668.4,354.8,667.5,353.9,667.5,352.7z"/>
<g>
	<g>
		<path class="st11" d="M582.9,120.5c0.6,4.2,2.2,8.3,4.5,10.6c-0.8,0.5-1.8,1.5-2.5,2.3c-0.4,8.5-0.7,11.7-1.5,12.7
			c-0.6,0.8-1.3,1.1-2.1,1.3c-0.8,0.1-2,0.1-3.4,0.1c0-1-0.4-2.3-0.9-3.1c1,0.1,1.9,0.1,2.4,0.1c0.4,0,0.7-0.1,1-0.4
			c0.4-0.6,0.8-2.9,1-8.8h-3.3c-0.6,5.9-2.4,10-6.4,12.6c-0.4-0.7-1.6-2-2.3-2.5c3.4-1.9,4.9-5.3,5.3-10h-2.5v-2.2l-0.2,0.2
			c-0.4-0.4-1-1.1-1.7-1.7v1.6h-3.8v2.1l1.2-0.9c0.6,0.7,2.8,3.9,3.3,4.7l-2.3,2.5c-0.5-1.2-1.5-3.4-2.3-4.9v11.1h-3.3v-10.8
			c-0.7,2.9-1.8,6.1-3.3,7.8c-0.3-1.2-1-2.9-1.5-4c1.2-1.5,2.4-4.3,2.9-6.5l1.9,0.7v-1.8h-4.3V130h4.3v-9.9h3.3v9.9h3.8v0.1
			c1.5-2.1,2.5-5.1,3.1-8.2l3.3,0.6c-0.7,3.7-1.9,7.2-3.7,9.8h10.2c-1.5-2.3-2.5-5.2-3.1-8.1h-2.9v-3.7L582.9,120.5L582.9,120.5z
			 M560.4,129.1c-0.1-1.9-0.6-4.8-1.3-7l2.5-0.6c0.8,2.2,1.4,5,1.5,6.9L560.4,129.1z M571.4,122.1c-0.8,2.4-1.7,5.2-2.4,7l-2.3-0.6
			c0.7-1.9,1.4-4.9,1.7-7L571.4,122.1z"/>
		<path class="st11" d="M593.1,140c-0.4,2.5-1.2,5.3-1.9,7.1c-0.6-0.3-1.9-0.7-2.6-0.8c0.8-1.8,1.5-4.4,1.8-6.8L593.1,140z
			 M599.3,137.8c-0.1-0.4-0.2-0.7-0.3-1.2c-7.2,1.1-8.3,1.4-9.1,1.8c-0.1-0.6-0.7-2.1-1-3c0.8-0.2,1.5-0.8,2.6-2
			c0.5-0.4,1.3-1.4,2.2-2.6c-2.8,0.3-3.5,0.5-4,0.7c-0.2-0.6-0.7-2.1-1-2.9c0.6-0.1,1.2-0.7,1.8-1.6c0.7-0.9,2.9-4.3,4.1-7.5
			l2.9,1.2c-1.3,2.5-2.9,5.2-4.5,7.4l2.8-0.2c0.9-1.4,1.8-2.8,2.6-4.3l2.7,1.8c-2,3.3-4.5,6.5-7,9.2l4.1-0.5
			c-0.3-0.8-0.6-1.7-0.9-2.5l2.5-0.7c0.8,1.9,1.8,4.4,2.1,6L599.3,137.8z M596.4,139.2c0.4,2,0.8,4.5,0.9,6.2l-2.7,0.7
			c-0.1-1.8-0.4-4.3-0.7-6.3L596.4,139.2z M599.7,138.3c0.8,1.6,1.5,3.8,1.9,5.2l-2.5,1c-0.3-1.4-1-3.6-1.7-5.3L599.7,138.3z
			 M607.1,138.3c-0.6,2.8-1.6,5.5-2.9,7.3c-0.6-0.4-2-1.1-2.8-1.4c1.3-1.6,2.1-4.1,2.6-6.5L607.1,138.3z M611,136v8.4
			c0,1.5-0.2,2.3-1.2,2.8c-0.9,0.4-2.1,0.5-3.8,0.5c-0.1-0.9-0.5-2.1-0.9-3c0.9,0.1,1.9,0.1,2.2,0c0.3,0,0.4-0.1,0.4-0.4v-8
			c-3.1,0.4-3.9,0.5-4.4,0.8c-0.2-0.6-0.7-2.2-1-3c0.8-0.1,1.5-0.8,2.6-1.9c0.5-0.4,1.3-1.3,2.3-2.6c-2.8,0.3-3.5,0.5-3.9,0.7
			c-0.2-0.6-0.7-2.1-1-2.8c0.5-0.1,1-0.6,1.6-1.4c0.6-0.7,2.5-3.5,3.6-6.3l2.9,1.3c-1,2-2.4,4.2-3.8,6l2.8-0.2
			c0.9-1.2,1.7-2.5,2.5-3.8l2.7,1.8c-2,3.1-4.6,6.2-7.2,8.8l5.2-0.4c-0.5-1-1-1.9-1.5-2.8l2.5-1.2c1.3,2.1,2.7,4.8,3.2,6.6l-2.7,1.3
			c-0.1-0.4-0.3-0.9-0.5-1.5L611,136z M614.5,137.6c1,2.1,2.1,4.8,2.6,6.6l-3,1.1c-0.4-1.8-1.4-4.6-2.4-6.7L614.5,137.6z"/>
		<path class="st11" d="M645.5,120.7v27h-3.4v-1.4h-18.6v1.5h-3.2v-27.1C620.3,120.7,645.5,120.7,645.5,120.7z M642.1,143.6v-20.2
			h-18.6v20.2H642.1z M641.4,139.3h-3.9v1.9c0,1.1-0.2,1.5-1.1,1.8c-0.8,0.2-2,0.2-3.7,0.2c-0.1-0.6-0.4-1.3-0.7-1.8
			c0.8,0,1.8,0,2.1,0s0.4-0.1,0.4-0.4v-1.8h-5.3c0.8,0.8,1.6,1.7,2,2.4l-2.4,1.2c-0.4-0.7-1.3-1.9-2.1-2.7l1.9-0.9H624v-1.9h10.5
			v-0.8h2.9v0.9h1.6c-0.2-0.3-0.5-0.7-0.9-1c-4.9,0.2-9.9,0.3-13.6,0.4l-0.1-1.9c1.9,0,4.2,0,6.7,0v-1h-5.9v-6.1h5.9v-0.9h-6.8V125
			h6.8v-1.1h2.9v1.1h6.8v1.9H634v0.9h6v6.1h-1.5c1,0.8,1.9,1.6,2.5,2.3l-1.6,1.2h1.8v1.9H641.4z M628.1,130.1h3.2v-0.9h-3.2V130.1z
			 M631.3,132.4v-0.9h-3.2v0.9H631.3z M634.2,129.2v0.9h3.2v-0.9H634.2z M637.4,131.5h-3.2v0.9h3.2V131.5z M634.2,134.8h2.4
			l-0.3-0.3l1-0.7h-3.1L634.2,134.8L634.2,134.8z"/>
		<path class="st11" d="M655.7,121h2.9l-7.4,29.6h-2.9L655.7,121z"/>
		<path class="st11" d="M675,126.8c-0.6,1.4-1.2,3-1.8,4.3h3.5v3.2h-15.9v-3.2h3.8c-0.3-1.2-0.9-2.9-1.5-4.2l2.4-0.6h-4v-3.2h5.7
			c-0.2-0.9-0.6-1.8-1-2.6l3.3-0.9c0.5,1.1,1.1,2.5,1.4,3.5h5.1v3.2h-3.5L675,126.8z M662.2,136.4h13.3v11.1H672v-1.2h-6.4v1.4h-3.4
			L662.2,136.4L662.2,136.4z M665.6,139.6v3.7h6.4v-3.7H665.6z M666.3,126.2c0.7,1.4,1.3,3.1,1.6,4.3l-1.8,0.5h3.6
			c0.6-1.4,1.3-3.3,1.7-4.8H666.3z M688.5,122.5c-1,2.9-2.3,6.3-3.4,8.9c2.4,2.7,2.8,5.1,2.8,7c0,2.2-0.5,3.6-1.6,4.4
			c-0.5,0.4-1.2,0.6-2,0.7c-0.7,0.1-1.5,0.1-2.3,0.1c-0.1-0.9-0.3-2.3-0.9-3.3c0.7,0.1,1.3,0.1,1.7,0.1s0.8-0.1,1.1-0.3
			c0.5-0.3,0.7-1,0.7-2.1c0-1.6-0.6-3.8-2.9-6.2c0.8-2.2,1.8-5.3,2.5-7.5h-3.4v23.3h-3v-26.5h7.7l0.5-0.1L688.5,122.5z"/>
		<path class="st11" d="M695.5,137.5c-1.1-0.8-3.4-2.3-5.1-3.3l2.1-2.4c1.6,0.9,3.9,2.2,5.1,3L695.5,137.5z M691,145
			c1.6-1.6,4-4.3,6-6.8l2.1,2.6c-1.7,2.3-3.7,4.8-5.5,7L691,145z M697.2,124.5h-6v-3.1h6v-1.6h3.5v1.6h3.1v3.1h-3.1v2h-3.5V124.5z
			 M694.4,126c1.5,0.9,3.9,2.2,5.2,2.9l-2.1,2.7c-1.2-0.8-3.5-2.2-5.1-3.1L694.4,126z M716.8,129.1c-1.3,1.9-3,3.6-5,5
			c2.2,0.8,4.7,1.4,7.2,1.8c-0.7,0.7-1.6,2-2.1,2.9c-0.5-0.1-0.9-0.2-1.4-0.3v9.2H712v-1.2h-8v1.2h-3.4v-8.8
			c-0.4,0.1-0.8,0.2-1.2,0.3c-0.3-0.8-1.1-2.2-1.7-2.9c2.6-0.5,5.2-1.3,7.6-2.3c-0.8-0.6-1.6-1.2-2.3-1.9c-0.9,0.9-1.8,1.7-2.9,2.5
			c-0.6-0.7-1.7-1.7-2.5-2.1c3-2,5.3-4.6,6.6-6.7l3.4,0.7c-0.3,0.4-0.6,0.9-1,1.4h7.1l0.6-0.2L716.8,129.1z M715,138.4
			c-2.3-0.6-4.4-1.4-6.4-2.4c-1.9,1-3.9,1.7-5.9,2.4H715z M712,143.8v-2.7h-8v2.7H712z M705.2,130.4c0.8,0.8,1.9,1.5,3.2,2.2
			c1.1-0.7,2.2-1.4,3.1-2.2H705.2z M708.2,124.5h-3v-3.1h3v-1.6h3.5v1.6h6.1v3.1h-6.1v2h-3.5V124.5z"/>
		<path class="st11" d="M747.5,123.6c-1.2,2.9-3,5.3-5.3,7.2c2,1,4.1,1.7,6.5,2.2c-0.5,0.9-1,2.4-1.1,3.4c-3.1-0.8-5.8-1.9-8.2-3.4
			c-2.1,1.4-4.5,2.5-7,3.3h13.8v11.2h-3.6V146h-7.3v1.6h-3.4v-11.2c-0.3,0.1-0.6,0.2-0.9,0.3c-0.2-0.5-0.6-1.3-1-2l-0.7,0.9
			c-0.4-0.7-1-1.9-1.6-2.9v15.1h-3.4v-11.9c-0.8,2.5-1.6,4.8-2.6,6.3c-0.3-1-1.1-2.7-1.7-3.6c1.7-2.3,3.1-6.4,3.9-9.9h-3.2v-3.3h3.6
			v-5.6h3.4v5.6h2.7v1.6c2.1-1.8,4-4.6,5-7.5l3.1,0.9c-0.3,0.7-0.6,1.4-0.9,2.1h7l0.6-0.1L747.5,123.6z M736.7,130.8
			c-0.9-0.9-1.8-1.8-2.5-2.8c-0.5,0.7-1.1,1.4-1.7,1.9c-0.4-0.7-1.4-2.1-2-2.8v1.5h-2.7c0.8,0.7,3.1,3.6,3.6,4.3
			C733.3,132.4,735.1,131.6,736.7,130.8z M735.4,139.3v3.5h7.3v-3.5H735.4z M736.2,125.5c0.8,1.3,1.9,2.4,3.2,3.4
			c1.3-1,2.4-2.1,3.3-3.4C742.7,125.5,736.2,125.5,736.2,125.5z"/>
	</g>
</g>
<path class="st11" d="M578.9,163.4v2.2h-16v4.5c0,3.6-0.3,8.8-2.3,12.2c-0.5-0.4-1.6-1.1-2.2-1.3c1.8-3.1,2-7.7,2-10.9v-6.7h8.1
	c-0.1-0.4-0.2-0.8-0.4-1.2l2.7-0.5c0.2,0.5,0.4,1.2,0.6,1.7H578.9z M573.8,178.7c1.8,0.7,3.8,1.4,5,1.9l-1.2,1.8
	c-1.4-0.6-3.7-1.6-5.7-2.4l0.8-1.3h-4.2l1.5,1.3c-1.9,0.8-4.5,1.8-6.2,2.4c-0.3-0.5-0.9-1.3-1.4-1.8c1.5-0.5,3.6-1.3,5.1-2h-3.4
	v-6.3h13.6v6.3h-3.9L573.8,178.7L573.8,178.7z M563.3,170.4h15.5v1.5h-15.5V170.4z M568.6,165.8v0.8h4.2v-0.8h2.6v0.8h2.7v1.5h-2.7
	v1.8h-9.3v-1.8h-2.5v-1.5h2.5v-0.8H568.6z M566.4,174.8h3.2v-0.9h-3.2V174.8z M566.4,177.2h3.2v-1h-3.2V177.2z M568.6,168.1v0.7h4.2
	v-0.7H568.6z M575.1,173.9H572v0.9h3.1V173.9z M575.1,176.2H572v1h3.1V176.2z"/>
<path class="st11" d="M585,169.5c0,3.7-0.3,9.2-2.1,12.8c-0.5-0.4-1.7-0.9-2.4-1.1c1.8-3.4,1.9-8.3,1.9-11.6v-5.9h8.2
	c-0.2-0.5-0.3-1-0.5-1.5l2.7-0.6c0.3,0.6,0.6,1.4,0.8,2h7.3v2.4h-15.8v3.5L585,169.5L585,169.5z M599.5,175.2
	c-0.9,1.7-2.2,3-3.9,4.1c1.7,0.4,3.5,0.6,5.5,0.8c-0.5,0.5-1.2,1.6-1.5,2.3c-2.7-0.3-5.1-0.8-7.1-1.6c-2.1,0.7-4.5,1.2-7,1.5
	c-0.2-0.6-0.7-1.6-1.1-2.2c1.8-0.2,3.6-0.4,5.2-0.8c-1-0.7-1.9-1.5-2.7-2.4l0.9-0.4h-2.3v-2h11.8l0.5-0.1L599.5,175.2z M588.4,173.6
	v-3.4h-3v-2h3v-1.5h2.5v1.5h4v-1.5h2.6v1.5h3.2v2h-3.2v3.4H588.4z M589.8,176.5c0.8,0.7,1.8,1.3,2.9,1.8c1.1-0.5,2.1-1.1,2.9-1.8
	H589.8z M590.8,170.1v1.5h4v-1.5H590.8z"/>
<path class="st11" d="M621.8,179.2c0,1.4-0.3,2.2-1.2,2.6c-0.9,0.4-2.3,0.5-4.2,0.5c-0.1-0.8-0.5-2-0.9-2.7c1.2,0.1,2.7,0.1,3.1,0.1
	c0.4,0,0.5-0.1,0.5-0.5v-3.9c-0.5,0.6-1.2,1.3-1.5,1.9c-2.3-1.4-3.8-3.5-4.8-6c-1,2.8-2.5,4.9-5,6.2c-0.2-0.4-0.7-1-1.1-1.5v6.4H604
	v-15.6h7.8c-0.1-0.6-0.1-1.1-0.2-1.7h-3.7v-2.3h6c0.1,1.4,0.2,2.7,0.4,4h7.5V179.2L621.8,179.2z M606.7,175c2.1-1.2,3.5-3.2,4.2-5.7
	h-4.2V175z M614.9,169.2c0.8,2.4,2.1,4.3,4.2,5.5v-5.5H614.9z"/>
<path class="st11" d="M636.7,169.4c-0.1,0.2-0.2,0.4-0.4,0.5c2.5,2.6,5.4,4.1,8.8,5.3c-0.6,0.6-1.3,1.4-1.6,2.2
	c-0.8-0.4-1.5-0.7-2.2-1.1v6h-2.7v-0.6h-7.5v0.6h-2.6v-5.7c-0.8,0.4-1.5,0.7-2.4,1.1c-0.4-0.6-1-1.6-1.6-2.1
	c4.1-1.4,7.9-3.9,9.9-7.2L636.7,169.4z M628,168.3h-2.6v-4.8h8.1c-0.2-0.5-0.4-1-0.6-1.4l2.8-0.6c0.3,0.6,0.7,1.3,0.9,2h7.6v4.7
	h-2.7v-2.4H628V168.3z M633.3,167.2c-1.4,2-3.6,3.9-5.7,5c-0.4-0.5-1.3-1.5-1.8-2c1.9-0.9,3.9-2.3,5-3.8L633.3,167.2z M638.6,179.4
	v-2.3h-7.5v2.3H638.6z M638.6,174.8c-1.3-0.9-2.5-1.9-3.7-3.1c-1,1.2-2.2,2.2-3.4,3.1H638.6z M638,166.4c1.8,1.1,4.3,2.8,5.5,4
	l-1.9,1.7c-1.1-1.2-3.5-3-5.4-4.2L638,166.4z"/>
<path class="st11" d="M653.2,175.4c0-0.3-0.1-0.6-0.2-0.9c-4.4,0.7-5.2,0.8-5.7,1.1c-0.1-0.5-0.5-1.6-0.8-2.3c0.5-0.1,1-0.6,1.7-1.4
	c0.3-0.3,0.8-0.9,1.4-1.8c-1.7,0.2-2.1,0.3-2.5,0.5c-0.1-0.5-0.5-1.6-0.8-2.2c0.4-0.1,0.8-0.6,1.3-1.2c0.5-0.6,1.8-3.1,2.6-5.4
	l2.3,0.9c-0.8,1.8-1.8,3.7-2.9,5.3l1.5-0.1c0.5-0.9,1.1-1.9,1.5-2.9l2.2,1.3c-1.2,2.3-2.8,4.6-4.5,6.6l2.3-0.3
	c-0.2-0.6-0.4-1.2-0.5-1.7l1.9-0.6c0.5,1.5,1.1,3.4,1.4,4.5L653.2,175.4z M649.5,176.6c-0.2,2-0.5,4.2-1,5.6c-0.5-0.3-1.5-0.6-2-0.7
	c0.5-1.3,0.8-3.4,0.9-5.2L649.5,176.6z M651.8,176.2c0.3,1.5,0.5,3.3,0.6,4.5l-2,0.4c0-1.2-0.2-3.1-0.5-4.6L651.8,176.2z M654,175.5
	c0.4,1.1,0.8,2.4,1,3.3l-1.8,0.7c-0.2-0.9-0.6-2.3-0.9-3.4L654,175.5z M667.1,179.4v2.4h-12.6v-2.4h5v-3h-4v-2.3h10.7v2.3h-4.1v3
	H667.1z M659.2,165.9c-0.7,1.1-1.4,2.4-2.1,3.4c0.9,1.2,1.8,2.6,2.3,3.5l-2.1,0.8c-0.5-1.1-1.5-2.8-2.6-4.3c0.9-1.3,1.8-2.9,2.3-4
	L659.2,165.9z M666.9,165H655v-2.3h11.9V165z M661,173.6c-0.5-1.1-1.5-2.8-2.7-4.2c0.9-1.3,1.8-2.9,2.3-3.9l2.2,0.5
	c-0.7,1.1-1.4,2.4-2.1,3.4c0.9,1.2,1.8,2.5,2.3,3.4L661,173.6z M664.9,173.7c-0.5-1.1-1.7-2.8-2.9-4.3c0.9-1.3,1.9-2.9,2.4-4
	l2.2,0.5c-0.7,1.2-1.5,2.4-2.2,3.4c1,1.2,2,2.5,2.5,3.4L664.9,173.7z"/>
<path class="st11" d="M684.9,161.8c-0.1,1.4-0.2,2.5-0.5,3.5c1.4,0.7,3.2,1.6,4.2,2.3l-1.1,1.3h0.9v4.2h-2.6v-2.2h-13.7v2.2h-2.5
	v-4.2h0.4c-0.3-0.5-0.7-1.1-1.1-1.5c3.8-0.9,4.2-2.5,4.4-5.6h2.3c-0.1,1.4-0.2,2.6-0.6,3.6c1.1,0.6,2.4,1.4,3.1,1.9l-1.6,1.6
	c-0.5-0.5-1.6-1.1-2.5-1.7c-0.6,0.7-1.5,1.3-2.7,1.7h8.1c-0.3-0.6-0.7-1.3-1.2-1.6c3.8-0.8,4.2-2.3,4.4-5.5H684.9z M670.8,165.5
	c-0.4-0.6-1.1-1.5-1.7-2.2l1.6-1.2c0.6,0.6,1.4,1.5,1.8,2L670.8,165.5z M678.6,176.9h8.3v5.4h-2.6v-0.5h-10.5v0.5h-2.5v-5.4h5.1
	c0.1-0.3,0.2-0.6,0.4-0.9h-3.9v-4.4h11.9v4.4h-5.7L678.6,176.9z M684.3,178.7h-10.5v1.3h10.5V178.7z M675.3,174.4h6.9v-1.2h-6.9
	V174.4z M675.4,165c0.5-0.7,1.1-1.6,1.4-2.3l1.7,0.5l1.6-1.2c0.6,0.6,1.4,1.5,1.8,2l-1.6,1.3c-0.3-0.5-0.9-1.3-1.4-1.9
	c-0.7,0.8-1.3,1.6-1.8,2L675.4,165z M686.3,168.9c-0.8-0.5-2-1.2-3-1.7c-0.6,0.7-1.6,1.3-3,1.7H686.3z M688.7,163.4
	c-0.7,0.9-1.5,1.7-2.1,2.3l-1.6-0.6c0.5-0.7,1.1-1.7,1.4-2.4L688.7,163.4z"/>
<path class="st11" d="M693.3,167c0-1.2,0.9-2.1,2.1-2.1c1.2,0,2.1,0.9,2.1,2.1c0,1.2-0.9,2-2.1,2C694.2,169.1,693.3,168.2,693.3,167
	z M693.3,177.5c0-1.2,0.9-2.1,2.1-2.1c1.2,0,2.1,0.9,2.1,2.1c0,1.2-0.9,2-2.1,2C694.2,179.6,693.3,178.7,693.3,177.5z"/>
<path class="st11" d="M557.7,197.7h8v1.3h-8V197.7z M565,201.9h-6.4v-1.3h6.4V201.9z M558.6,203.5h6.4v1.3h-6.4V203.5z M565.2,212.8
	h-5.1v1h-1.4v-7.4h6.6L565.2,212.8L565.2,212.8z M560.1,207.8v3.6h3.7v-3.6H560.1L560.1,207.8z M561.8,197.5c-0.3-0.8-1-2-1.6-2.9
	l1.3-0.6c0.6,0.9,1.4,2,1.7,2.8L561.8,197.5z M572.7,202.3v3.7h3.9v8.1H575v-0.8h-6.3v0.9h-1.5V206h3.9v-3.7h-4.8v-1.6h4.8v-3.9
	c-1.4,0.2-2.9,0.4-4.2,0.6c0-0.4-0.2-0.9-0.4-1.3c3.2-0.4,7-1.1,9.1-1.9l1.1,1.3c-1.1,0.4-2.5,0.8-4,1.1v4.2h5.1v1.6h-5.1
	L572.7,202.3L572.7,202.3z M575,207.4h-6.3v4.3h6.3V207.4z"/>
<path class="st11" d="M585.6,211.4c1.7,0.7,4,0.9,6.6,0.9c0.8,0,6.6,0,7.7,0c-0.2,0.4-0.5,1-0.6,1.4h-7.1c-4.7,0-7.9-0.5-9.9-3.5
	c-0.3,1.5-0.8,2.9-1.7,4c-0.2-0.3-0.7-0.8-1-1c1.4-1.6,1.7-4.6,1.8-7.3h1.4c0,0.9-0.1,1.7-0.2,2.5c0.4,0.9,1,1.6,1.7,2.1v-5.9h-4.4
	v-1.3h9.9v1.3h-4.1v2.3h3.8v1.3h-3.8L585.6,211.4L585.6,211.4z M588.4,201.8h-7.3v-6.9h7.3V201.8z M586.9,196.2h-4.3v1.6h4.3V196.2z
	 M586.9,198.9h-4.3v1.7h4.3V198.9z M593.6,208.5c-1,1.3-2.6,2.5-4,3.3c-0.2-0.3-0.7-0.8-1-1.1c1.4-0.7,2.8-1.6,3.7-2.6L593.6,208.5z
	 M593.2,198c0.2-0.5,0.3-1.1,0.5-1.7h-4.1V195h10v1.3h-4.4c-0.2,0.6-0.4,1.1-0.6,1.7h4.1v9.7h-8.3V198H593.2z M597.1,199.2h-5.3v1.6
	h5.3V199.2z M597.1,202h-5.3v1.7h5.3V202z M597.1,204.8h-5.3v1.7h5.3V204.8z M596.4,208c1.3,0.8,2.8,2,3.5,2.9l-1.1,0.8
	c-0.7-0.9-2.2-2.2-3.4-3L596.4,208z"/>
<path class="st11" d="M621.3,212v1.5h-19.1V212H621.3z M604.2,200.3h-1.6v-4.2h8.5c-0.3-0.6-0.6-1.2-0.9-1.7l1.6-0.5
	c0.4,0.6,0.9,1.5,1.1,2.2h8v4.2h-1.6v-2.8h-15.1V200.3z M618.2,200.8h-12.9v-1.3h12.9V200.8z M605.6,210.5v-8h12.2v8.1h-12.2V210.5z
	 M607.2,205.8h9v-2.1h-9V205.8z M607.2,209.2h9v-2.1h-9V209.2z"/>
<path class="st11" d="M630.2,194.6c-0.6,1.6-1.4,3.2-2.3,4.7V214h-1.5v-12.3c-0.7,1-1.5,1.9-2.2,2.7c-0.2-0.4-0.7-1.1-1-1.5
	c2.2-2.1,4.2-5.4,5.5-8.7L630.2,194.6z M640.7,208h3.1v1.3h-3.1v3.2c0,0.9-0.2,1.3-0.9,1.5c-0.7,0.3-1.8,0.3-3.4,0.3
	c-0.1-0.4-0.3-1.1-0.5-1.5c1.3,0,2.5,0,2.8,0c0.4,0,0.4-0.1,0.4-0.4v-3.1h-6.3c1,0.8,2.1,2,2.7,2.8l-1.2,0.9c-0.5-0.8-1.7-2.1-2.8-3
	l1-0.7h-3.4V208h9.9v-1.5c-3.5,0.1-6.9,0.2-9.4,0.3l-0.2-1.3c1.6,0,3.8,0,6.2-0.1v-1.3h-4.9v-5.8h5.1v-1.2h-6v-1.3h6v-1.5h1.6v1.5
	h6.2v1.3h-6.2v1.2h5.3v5.8h-1.6c1.1,0.8,2.2,1.8,2.8,2.6l-1.1,0.8c-0.2-0.3-0.5-0.6-0.9-1h-1.1L640.7,208L640.7,208z M632.2,200.6
	h3.7v-1.4h-3.7V200.6z M635.8,203v-1.4h-3.7v1.4H635.8z M637.4,199.2v1.4h3.7v-1.4H637.4z M641.1,203v-1.4h-3.7v1.4H641.1z
	 M637.4,205.3l3.2-0.1c-0.4-0.4-0.8-0.7-1.3-1l0.3-0.2h-2.2V205.3z"/>
<path class="st11" d="M653.4,206l-1.5,1.3c-1.4-1.7-3.3-3.6-4.9-4.9l1.4-1.3C650.1,202.4,652.1,204.4,653.4,206z"/>
<path class="st11" d="M661.1,205.8v6.3c0,0.9-0.2,1.4-0.7,1.7s-1.3,0.3-2.7,0.3c-0.1-0.4-0.3-1.1-0.5-1.6c0.9,0,1.7,0,2,0
	s0.4-0.1,0.4-0.4v-5.7c-1,0.3-1.9,0.6-2.7,0.9l-0.4-1.6c0.9-0.2,1.9-0.6,3.1-0.9v-4.7h-2.9v-1.5h2.8v-4.4h1.5v4.4h2.3v1.5H661v4.2
	l2.1-0.7l0.2,1.5L661.1,205.8z M676.8,202.9v1.2h-11.3c0,3.2-0.4,7.4-2.6,10.2c-0.2-0.3-0.8-0.8-1.1-1c2.1-2.6,2.3-6.5,2.3-9.5v-8.1
	h6c-0.2-0.5-0.4-1-0.6-1.4l1.5-0.4c0.3,0.6,0.6,1.3,0.8,1.8h4.7v1.3h-11v5.9H676.8L676.8,202.9z M670.1,212c-1.3,0.7-2.9,1.5-4,2
	c-0.2-0.3-0.5-0.8-0.8-1.1c1.1-0.5,2.7-1.3,3.6-1.9L670.1,212z M667.9,202v-2.2h-1.8v-1h1.8v-1.3h1.4v1.3h3.6v-1.3h1.4v1.3h1.9v1
	h-1.9v2.2H667.9z M676,210.8h-9.5v-5.9h9.5V210.8z M667.7,207.3h2.6v-1.4h-2.6V207.3z M667.7,209.7h2.6v-1.4h-2.6V209.7z
	 M669.3,199.8v1.1h3.6v-1.1H669.3z M674.6,205.9h-2.8v1.4h2.8V205.9z M674.6,208.3h-2.8v1.4h2.8V208.3z M673,211.1
	c1.3,0.7,2.8,1.5,3.7,2l-0.9,1c-0.9-0.6-2.3-1.4-3.6-2.1L673,211.1z"/>
<path class="st11" d="M689.4,202.1h-10.7v-1.4h2.6v-2.6h-2.2v-1.4h2.2v-2.5h1.5v2.5h2.8v-2.5h1.5v2.5h2.2v1.4h-2.2v2.6h2.3
	L689.4,202.1L689.4,202.1z M688.1,212.4c0,0.8-0.2,1.2-0.7,1.4s-1.4,0.3-2.7,0.3c-0.1-0.4-0.3-1-0.5-1.4c0.9,0,1.8,0,2,0
	c0.3,0,0.4-0.1,0.4-0.3v-2.7c-1.5,0.6-3.1,1.3-4.4,1.8l-0.6-1.3c1.3-0.4,3.1-1,5-1.7v-3.9h-4.8v2.9c0,2.1-0.2,4.8-1.7,6.7
	c-0.3-0.3-0.9-0.7-1.2-0.9c1.3-1.7,1.4-4,1.4-5.8v-4.2h7.8V212.4z M682.8,205.4c1.2,0.6,2.6,1.3,3.3,1.8l-0.7,1.1
	c-0.7-0.5-2.1-1.4-3.3-2L682.8,205.4z M682.8,200.7h2.8v-2.6h-2.8V200.7z M697.4,199.6c-0.5,3.6-1.3,6.6-2.5,9
	c1.1,1.8,2.4,3.3,4.1,4.2c-0.4,0.3-0.9,0.9-1.1,1.3c-1.6-0.9-2.9-2.3-3.9-4c-1.1,1.6-2.5,2.9-4.3,4c-0.1-0.3-0.6-1-0.9-1.3
	c1.9-1.1,3.3-2.5,4.4-4.2c-0.9-1.9-1.6-4.1-2.1-6.5c-0.4,1.1-0.9,2-1.5,2.9c-0.2-0.3-0.8-1-1.1-1.3c1.6-2.3,2.5-6,3.1-9.7l1.5,0.2
	c-0.2,1.3-0.5,2.6-0.8,3.8h6.4v1.5h-1.3L697.4,199.6L697.4,199.6z M694,207c0.9-2,1.5-4.5,1.8-7.3h-3.9
	C692.4,202.3,693,204.8,694,207z"/>
<path class="st11" d="M563.7,237.8v6.2c0,0.9-0.2,1.4-0.8,1.6c-0.6,0.3-1.5,0.3-3,0.3c-0.1-0.4-0.3-1.1-0.5-1.5c1.1,0,2,0,2.3,0
	s0.4-0.1,0.4-0.4v-5.7c-1.1,0.3-2,0.6-2.9,0.9l-0.5-1.6c0.9-0.2,2.1-0.6,3.4-0.9V232H559v-1.5h3.1v-4.4h1.6v4.4h2.7v1.5h-2.7v4.3
	c0.9-0.2,1.8-0.5,2.7-0.8l0.2,1.5L563.7,237.8z M577.4,235c-0.9,2-2.3,4-3.9,5.7c0.8,2,1.8,3.3,3.1,3.4c0.6,0,0.9-1.1,1.2-3.6
	c0.3,0.4,1,0.8,1.4,0.9c-0.5,3.6-1.4,4.7-2.5,4.6c-2-0.2-3.4-1.6-4.5-4c-1.5,1.4-3.2,2.6-5,3.3c-0.3-0.4-0.8-0.9-1.3-1.3
	c2-0.8,4-2.1,5.6-3.7c-0.7-1.9-1.1-4.3-1.5-7l-3.4,0.4l-0.2-1.5l3.4-0.4c-0.2-1.8-0.3-3.7-0.4-5.8h1.6c0.1,2,0.2,3.8,0.4,5.6
	l6.7-0.7l0.2,1.5l-6.7,0.7c0.3,2.2,0.7,4.2,1.1,5.8c1.3-1.5,2.4-3.1,3.1-4.8L577.4,235z M575.7,230.6c-0.6-0.9-1.9-2.3-2.9-3.3
	l1.2-0.8c1.1,0.9,2.4,2.2,3,3.1L575.7,230.6z"/>
<path class="st11" d="M587.9,242.3c1.5-0.3,3.1-0.6,4.6-0.9l0.1,1.4c-3.9,0.7-8.1,1.5-10.9,2.1l-0.4-1.5c1.3-0.2,3.1-0.5,5-0.9v-3.7
	H582v-1.5h4.3v-2.4h1.6v2.4h4.4v1.5h-4.4L587.9,242.3L587.9,242.3z M581.5,227.5h11.2v1.5h-5.9c-0.7,1.5-1.7,2.9-2.5,4.1l5.6-0.5
	c-0.5-0.8-1.1-1.5-1.6-2.2l1.2-0.7c1.2,1.5,2.7,3.5,3.3,4.7l-1.3,0.8c-0.2-0.4-0.4-0.9-0.8-1.4c-6.8,0.7-7.6,0.7-8.2,1
	c-0.1-0.4-0.4-1.1-0.6-1.5c0.4-0.1,0.7-0.4,1.1-1c0.3-0.4,1.2-1.8,1.9-3.4h-3.5L581.5,227.5L581.5,227.5z M595.5,241.1H594v-13.2
	h1.5V241.1z M599.9,226.4v17.1c0,1-0.2,1.5-0.9,1.8s-1.8,0.3-3.4,0.3c-0.1-0.4-0.4-1.2-0.6-1.6c1.3,0,2.5,0,2.9,0s0.5-0.1,0.5-0.5
	v-17.2L599.9,226.4L599.9,226.4z"/>
<path class="st11" d="M610.6,230.4c-0.4,0.9-0.9,1.7-1.3,2.6h10.6v11.1c0,1-0.2,1.5-0.9,1.7c-0.7,0.3-2,0.3-3.8,0.3
	c-0.1-0.5-0.3-1.1-0.6-1.6c1.5,0.1,2.8,0,3.2,0s0.5-0.1,0.5-0.5v-2.3h-9.5c-0.3,1.6-0.9,3.3-2.2,4.5c-0.2-0.4-0.8-1-1.1-1.3
	c1.8-1.8,2-4.2,2-6.3v-3.1c-1,1.3-2.2,2.4-3.6,3.4c-0.2-0.4-0.7-0.9-1-1.3c2.6-1.7,4.6-4.3,5.9-7.2h-5.5v-1.5h6.2
	c0.4-0.9,0.7-1.9,1-2.8l1.6,0.4c-0.2,0.8-0.5,1.7-0.9,2.4h11.2v1.5L610.6,230.4L610.6,230.4z M618.3,240.4v-2.3h-9.2v0.7
	c0,0.5,0,1.1-0.1,1.6H618.3L618.3,240.4z M618.3,234.4h-9.2v2.2h9.2V234.4z"/>
<path class="st11" d="M644.7,239.4v1.5H625v-1.5h1.8l-0.4-11.7c1.3-0.4,2.8-0.9,3.8-1.4l0.8,1.4c-0.9,0.3-2,0.7-3.1,0.9l0.1,2.6h2.5
	v1.4h-2.4l0.1,2.7h2.5v1.4h-2.4l0.1,2.7h2.9v-12.3h7.6v12.3h2.9c0-0.8,0.1-1.7,0.1-2.6h-2.5v-1.4h2.5c0-0.9,0.1-1.8,0.1-2.7h-2.5
	v-1.4h2.5c0-1,0-2,0-2.9h-2.7V227h4.1c0,3.9-0.2,9-0.4,12.4H644.7L644.7,239.4z M632.7,242.3c-1.8,1.3-4.4,2.8-6.6,3.8
	c-0.2-0.3-0.6-0.9-1-1.2c2.1-0.9,4.8-2.3,6.1-3.5L632.7,242.3z M632.3,239.4h5.1v-11h-5.1V239.4z M636.7,230v1.1h-3.8V230H636.7z
	 M633.2,232.6h3.3v5.1h-3.3V232.6z M634,236.6h1.6v-2.9H634V236.6z M637.9,241.2c2.3,1.1,4.8,2.5,6.4,3.5l-1.1,1.3
	c-1.5-1.1-3.9-2.5-6.2-3.7L637.9,241.2z"/>
<path class="st11" d="M652.5,243c1.4,0.7,3.3,1,5.8,1c1,0,7.5,0,8.8,0c-0.3,0.4-0.5,1.1-0.7,1.6h-8.1c-4.8,0-7.5-0.8-9.1-4
	c-0.3,1.6-0.7,3.2-1.6,4.5c-0.2-0.3-0.7-0.8-1.1-1c1.5-2.6,1.7-6.3,1.6-9.2l1.4,0.1c0,0.9,0,1.8,0,2.8c0.4,1.3,0.9,2.4,1.6,3.1v-7.7
	h-4v-1.5h3.5v-2.6h-3v-1.5h3V226h1.5v2.6h2.4v1.5h-2.4v2.6h2.8v1.5h-2.4v2.9h2.3v1.5h-2.3V243z M655.7,228.3h-1.2v-1.4h7.4v1.4h-1.1
	v13.2c1.1-1.2,2-2.9,2.7-5c-0.7-1.6-1.6-3.2-2.4-4.6l1.2-0.4c0.6,1,1.2,2.1,1.7,3.2c0.4-1.4,0.7-3,0.9-4.7h-3.5v-1.4h3.9h0.3
	l0.9,0.3c-0.3,2.8-0.8,5.4-1.5,7.6c0.9,1.8,1.7,3.6,2,5l-1.3,0.5c-0.3-1-0.8-2.3-1.4-3.7c-0.7,1.8-1.6,3.3-2.5,4.4
	c-0.2-0.3-0.6-0.8-0.9-1v1.6h-1.4v-3.2c-1.7,0.4-3.3,0.9-4.6,1.2l-0.3-1.4l1.3-0.2v-11.4L655.7,228.3L655.7,228.3z M659.4,228.3H657
	v2.6h2.4V228.3z M659.4,232.2H657v2.7h2.4V232.2z M657.1,239.4c0.7-0.2,1.5-0.4,2.4-0.6v-2.6h-2.4V239.4z"/>
<path class="st11" d="M674.9,226.3c-0.4,1.1-0.8,2.3-1.1,3.2h3.7v14.3h-6.1v1.7h-1.6v-16h2.5c0.3-1.1,0.7-2.5,0.9-3.6L674.9,226.3z
	 M675.9,231h-4.6v4.6h4.6V231z M675.9,242.3V237h-4.6v5.3H675.9z M688.2,230.3c-0.4,10-0.6,13.4-1.5,14.5c-0.5,0.6-1,0.8-1.7,0.9
	c-0.8,0.1-2,0-3.3,0c0-0.5-0.2-1.1-0.5-1.6c1.4,0.1,2.8,0.1,3.3,0.1c0.4,0,0.7,0,0.9-0.3c0.7-0.8,1.1-4.1,1.3-12.9h-5.6
	c-0.6,1.5-1.3,2.8-2.1,3.9c-0.3-0.3-1-0.7-1.3-0.9c1.5-1.9,2.7-5,3.4-8l1.6,0.4c-0.3,1.1-0.6,2.1-0.9,3.2h6.6v0.7L688.2,230.3
	L688.2,230.3z M683.3,240.2c-0.7-1.3-2.1-3.5-3.3-5.1l1.3-0.7c1.2,1.6,2.8,3.7,3.5,5L683.3,240.2z"/>
<path class="st11" d="M707.5,236.9c-1.1,2.3-2.9,4.1-5,5.5c2.3,1.1,5.1,1.8,8.1,2.1c-0.4,0.4-0.8,1.1-1,1.5
	c-3.3-0.5-6.3-1.4-8.8-2.7c-2.6,1.4-5.7,2.2-8.9,2.7c-0.2-0.4-0.6-1.1-1-1.5c3-0.4,5.9-1.1,8.3-2.2c-1.8-1.2-3.3-2.8-4.4-4.5
	l0.2-0.1h-0.9v-1.5h12l0.3-0.1L707.5,236.9z M693,236.8h-1.5v-4.5h3.5c-0.3-0.8-0.9-2-1.5-2.9l1.4-0.4c0.6,0.9,1.3,2.1,1.6,2.9
	l-1.3,0.4h9.6c0.7-1.1,1.6-2.6,2-3.7l1.7,0.5c-0.6,1.1-1.4,2.3-2,3.2h3.8v4.5h-1.6v-3h-15.6v3H693z M709,227.3
	c-4.4,0.9-11.2,1.5-16.9,1.7c0-0.4-0.2-1-0.4-1.4c5.6-0.2,12.4-0.8,16.1-1.6L709,227.3z M696.6,237.8c1.1,1.5,2.5,2.8,4.3,3.8
	c1.7-1,3.2-2.2,4.2-3.8H696.6z M700.5,232.2c-0.1-0.9-0.6-2.2-1.1-3.2l1.5-0.3c0.5,1,1,2.4,1.2,3.2L700.5,232.2z"/>
<path class="st11" d="M718.9,236.9c-0.2,0.8-0.4,1.7-0.8,2.6c1.2,0.9,2.6,2,3.3,2.9l-0.9,1.1c-0.6-0.7-1.8-1.9-2.9-2.8
	c-0.8,1.6-2.1,3.2-4,4.2c-0.2-0.4-0.7-0.9-1-1.2c3.1-1.6,4.2-4.8,4.7-6.9L718.9,236.9L718.9,236.9z M731.9,234.9
	c-2.2,0.4-5.2,0.7-8.3,0.9v10.6H722v-10.5c-2.5,0.2-5.1,0.2-7.3,0.3c-0.2-0.4-0.6-1.2-1-1.5c5.5,0.1,12.8-0.3,16.9-0.9L731.9,234.9z
	 M731.5,232.7h-17.3v-5.8h17.3V232.7z M719.4,228.3h-3.6v2.9h3.6V228.3z M724.6,228.3h-3.7v2.9h3.7V228.3z M729.6,236.5
	c-0.2,0.9-0.4,1.9-0.7,2.8c0.8,1.4,2.3,3.3,3.9,4.2c-0.4,0.3-0.8,0.8-1.1,1.2c-1.3-0.9-2.6-2.6-3.5-3.9c-0.7,1.6-1.9,3-3.6,4
	c-0.2-0.4-0.7-1-1.1-1.2c3-1.7,3.9-4.9,4.4-7.2L729.6,236.5L729.6,236.5L729.6,236.5z M729.9,228.3h-3.8v2.9h3.8V228.3z"/>
<path class="st10" d="M536.3,349.7c-0.8-0.8-2.4-1.9-3.7-2.6l1.5-1.8c1.2,0.7,2.9,1.7,3.7,2.4L536.3,349.7z M538.7,352.1
	c-1,2.3-2.1,4.8-3.2,6.9l-2.3-1.6c1-1.7,2.4-4.4,3.5-6.9L538.7,352.1z M537.4,343.9c-0.7-0.8-2.4-2-3.6-2.8l1.6-1.7
	c1.2,0.7,2.9,1.7,3.7,2.5L537.4,343.9z M548.5,352.2c1.3,1.6,3.1,3.1,4.9,4c-0.6,0.5-1.4,1.4-1.8,2c-1.7-1-3.3-2.6-4.6-4.4v5.7h-2.6
	v-5.6c-1.3,1.8-3.1,3.4-5,4.4c-0.4-0.6-1.2-1.6-1.7-2.1c2-0.8,3.9-2.3,5.1-4H539v-2.3h5.5v-2.2h2.6v2.2h5.6v2.3H548.5z M545.3,342.8
	c-0.2,3.1-1.1,4.9-5.7,5.7c-0.2-0.6-0.8-1.5-1.3-2c3.9-0.5,4.4-1.5,4.5-3.7H545.3z M541.6,344.5h-2.4V340h13.4v4.4h-2.5v-2.1h-8.5
	V344.5z M551.5,345.8c0.4,0,1.1,0,1.5-0.2c0,0.6,0.1,1.6,0.2,2.2c-0.4,0.1-1,0.2-1.6,0.2h-2.2c-2.3,0-2.8-0.7-2.8-2.9v-2.3h2.3v2.3
	c0,0.5,0.1,0.7,0.5,0.7L551.5,345.8L551.5,345.8z"/>
<path class="st10" d="M559.2,346.7c0,3.7-0.3,9.2-2.1,12.8c-0.5-0.4-1.7-0.9-2.4-1.1c1.8-3.4,1.9-8.3,1.9-11.6v-5.9h8.2
	c-0.2-0.5-0.3-1-0.5-1.5l2.7-0.6c0.3,0.6,0.6,1.4,0.8,2h7.3v2.4h-15.8v3.5L559.2,346.7L559.2,346.7z M573.7,352.4
	c-0.9,1.7-2.2,3-3.9,4.1c1.7,0.4,3.5,0.6,5.5,0.8c-0.5,0.5-1.2,1.6-1.5,2.3c-2.7-0.3-5.1-0.8-7.1-1.6c-2.1,0.7-4.5,1.2-7,1.5
	c-0.2-0.6-0.7-1.6-1.1-2.2c1.8-0.2,3.6-0.4,5.2-0.8c-1-0.7-1.9-1.5-2.7-2.4l0.9-0.4h-2.3v-2h11.8l0.5-0.1L573.7,352.4z M562.6,350.8
	v-3.4h-3v-2h3v-1.6h2.5v1.5h4v-1.5h2.6v1.5h3.2v2h-3.2v3.4h-9.1V350.8z M564,353.7c0.8,0.7,1.8,1.3,2.9,1.8c1.1-0.5,2.1-1.1,2.9-1.8
	H564z M565,347.3v1.5h4v-1.5H565z"/>
<path class="st10" d="M596,356.4c0,1.4-0.3,2.2-1.2,2.6s-2.3,0.5-4.2,0.5c-0.1-0.8-0.5-2-0.9-2.7c1.2,0.1,2.7,0.1,3.1,0.1
	c0.4,0,0.5-0.1,0.5-0.5v-3.9c-0.5,0.6-1.2,1.3-1.5,1.9c-2.3-1.4-3.8-3.5-4.8-6c-1,2.8-2.5,4.9-5,6.2c-0.2-0.4-0.7-1-1.1-1.5v6.4
	h-2.7v-15.6h7.8c-0.1-0.6-0.1-1.1-0.2-1.7h-3.7v-2.3h6c0.1,1.4,0.2,2.7,0.4,4h7.5L596,356.4L596,356.4z M580.9,352.2
	c2.1-1.2,3.5-3.2,4.2-5.7h-4.2V352.2z M589.1,346.4c0.8,2.4,2.1,4.3,4.2,5.5v-5.5H589.1z"/>
<g>
	<g>
		<path class="st10" d="M534.8,301.9h4.4v18.5h9v3.7h-13.4V301.9z"/>
		<path class="st10" d="M552.1,301.9h4.4v22.2h-4.4V301.9z"/>
		<path class="st10" d="M562,301.9h4.5l6.5,11.8l2.2,4.8h0.2c-0.2-2.3-0.6-5.3-0.6-7.8v-8.8h4.2v22.2h-4.5l-6.4-11.9l-2.3-4.8h-0.2
			c0.2,2.4,0.5,5.2,0.5,7.7v8.9H562V301.9L562,301.9z"/>
		<path class="st10" d="M584.5,301.9h13.6v3.7h-9.2v5.1h7.8v3.7h-7.8v5.9h9.5v3.7h-13.9L584.5,301.9L584.5,301.9z"/>
		<path class="st10" d="M635,301.1v5.9h-3.8v-2.5h-18.8v2.5h-3.6v-5.9h11.7c-0.2-0.7-0.5-1.3-0.8-1.9l3.6-0.8
			c0.5,0.8,0.9,1.8,1.1,2.7L635,301.1L635,301.1z M616.3,316.7h16v9.9h-3.7v-1.1h-12.3v1.2h-3.7v-20.4h18.6v8.4h-14.9L616.3,316.7
			L616.3,316.7z M616.3,309.3v2.3h11.3v-2.3H616.3z M616.3,319.7v2.6h12.3v-2.6H616.3z"/>
		<path class="st10" d="M650.2,307c-0.1,1.2-0.2,2.4-0.3,3.6h12.9c0,0,0,1.1-0.1,1.6c-0.5,8.1-1.2,11.5-2.4,12.7
			c-0.9,1-1.9,1.3-3.2,1.4c-1.2,0.1-3.2,0.1-5.2,0c-0.1-1-0.6-2.5-1.3-3.5c2,0.2,4.1,0.2,5,0.2c0.7,0,1-0.1,1.5-0.4
			c0.8-0.7,1.3-3.2,1.7-8.6h-9.4c-1,5-3.2,9.7-8.6,12.8c-0.5-1-1.7-2.2-2.6-3c7.2-3.8,7.8-10.6,8.1-16.9h-7.6v-3.5h12.7
			c-0.5-1.2-1.2-2.7-1.8-3.9l3.5-1.3c0.8,1.3,1.7,3.1,2.2,4.3l-2.1,0.9h12.3v3.5L650.2,307L650.2,307z"/>
		<path class="st10" d="M679.1,317c0,1.1-0.1,2-0.8,2.5c-0.6,0.5-1.3,0.6-2.4,0.6c0-0.8-0.3-1.9-0.7-2.7v9.3h-2.9v-19.4h-1.1v13.2
			h-2.6v-16.3h3.8v-5.5h2.9v5.5h3.8V317z M676.3,317.2c0.1,0,0.2-0.1,0.2-0.3v-9.5h-1.3v9.8H676.3z M695.4,317.4
			c-1.4,0.9-2.8,1.8-4,2.5c1.3,1.4,3,2.6,4.8,3.4c-0.8,0.7-1.8,2-2.4,2.9c-4.1-2.1-7-6.2-8.7-11.1h-1v7.1l4-1.1
			c0,0.9,0.1,2.2,0.2,2.9c-5.7,1.8-6.7,2.3-7.3,2.8c-0.2-0.9-1-2.5-1.6-3.2c0.6-0.4,1.5-1.3,1.5-2.6v-5.9h-1.1v-3h1.7v-12.3h13.6
			v2.8h-10.2v1.4h8.9v2.5h-8.9v1.5h9v2.5h-9v1.5h10.9v3h-7.4c0.5,0.9,1,1.8,1.5,2.6c1.1-0.8,2.4-1.8,3.1-2.6L695.4,317.4z"/>
		<path class="st10" d="M708.1,315.1c0,0,0,0.8-0.1,1.2c-0.4,5.6-0.8,8-1.5,8.9c-0.5,0.7-1.1,0.9-2,1.1c-0.7,0.1-1.9,0.1-3.2,0
			c-0.1-0.9-0.4-2.1-0.8-2.9c1.1,0.1,2.1,0.1,2.6,0.1c0.4,0,0.7,0,0.9-0.3c0.4-0.5,0.7-1.9,0.9-5.3h-2.8l0,0H699
			c0.4-1.3,0.8-3.1,1.1-4.8H698V310h11.2v3.1h-5.9c-0.1,0.7-0.3,1.4-0.4,2H708.1L708.1,315.1z M708.5,308.3h-9.1v-8.5h9.1V308.3z
			 M705.8,302.3h-4v3.5h4V302.3z M722.1,312.4c0.6,0,1.7-0.1,2.1-0.2c0.1,0.9,0.1,1.7,0.2,2.5c-0.5,0.2-1.4,0.2-2.2,0.2H719
			c-2.5,0-3-1.2-3.1-3.5l-2.1,0.2l-0.3-2.3l2.4-0.2v-1.8h-2.8v4.9c0,4.3-0.5,10.5-2.9,14.5c-0.6-0.5-1.9-1.5-2.6-1.9
			c2.2-3.7,2.4-8.9,2.4-12.7v-7.7h5.8v-5.8h3.4v1.6h5.7v2.8h-5.7v1.3h4.3l0.5-0.1l2.2,0.5c-0.3,2-0.8,4.3-1.2,5.8l-2.6-0.7
			c0.1-0.7,0.3-1.7,0.4-2.7H719v1.5l2.8-0.3l0.3,2.3l-3.1,0.3v0.2c0,0.8,0.1,1.1,0.7,1.1h2.4L722.1,312.4L722.1,312.4z M717.6,315.9
			c-0.2,4.9-0.8,8.6-4.2,10.9c-0.4-0.8-1.2-1.9-1.9-2.3c2.6-1.8,3-4.6,3.1-8.5h3L717.6,315.9L717.6,315.9z M723.1,323.1
			c0.2,0,0.4,0,0.5-0.1s0.2-0.3,0.3-0.6c0-0.5,0.1-1.5,0.1-2.8c0.5,0.5,1.6,1.1,2.4,1.4c-0.1,1.4-0.2,2.9-0.4,3.5s-0.5,1-1,1.3
			c-0.4,0.3-1.1,0.4-1.6,0.4h-1.6c-0.8,0-1.5-0.2-2-0.7s-0.6-1-0.6-2.7v-6.9h2.9v6.6c0,0.2,0.1,0.4,0.1,0.4c0.1,0.1,0.3,0.2,0.4,0.2
			L723.1,323.1L723.1,323.1z"/>
	</g>
</g>
<line class="st12" x1="522" y1="134.9" x2="548.7" y2="134.9"/>
<line class="st12" x1="416.9" y1="313.9" x2="522.9" y2="313.9"/>
<g>
	<path class="st10" d="M547.7,371.8c1,3.3,3.3,6.4,6.2,8c-0.5,0.4-1.1,1.3-1.5,1.9c-0.7-0.5-1.4-1-2-1.6c0,0.1,0,0.3,0,0.4
		c-0.3,6.7-0.6,9.2-1.3,10.1c-0.5,0.6-1,0.8-1.8,0.9c-0.7,0.1-2.1,0.1-3.4,0c0-0.6-0.3-1.5-0.7-2.1c1.3,0.1,2.6,0.2,3.1,0.2
		c0.4,0,0.7-0.1,0.9-0.3c0.5-0.5,0.8-2.6,1-7.7h-5c-0.6,4.3-2,8.1-7.6,10.2c-0.2-0.5-0.8-1.4-1.3-1.8c5.1-1.7,6.2-4.9,6.7-8.4h-4.1
		V380c-0.6,0.6-1.2,1.2-1.8,1.7c-0.4-0.4-1.2-1.2-1.7-1.5c2.5-1.8,4.5-4.7,5.6-8l2.1,0.5c-0.9,2.6-2.2,5-3.8,6.9H550
		c-1.6-1.7-2.9-3.7-3.7-5.9h-3.7v-1.9L547.7,371.8L547.7,371.8z"/>
	<path class="st10" d="M561.7,382.6c-0.2,0.8-0.4,1.6-0.7,2.5c1.1,0.8,2.4,1.9,3,2.6l-1.1,1.5c-0.5-0.7-1.6-1.7-2.6-2.5
		c-0.8,1.5-2,2.9-3.8,3.9c-0.2-0.5-0.8-1.2-1.3-1.5c3.1-1.5,4-4.4,4.4-6.4h2.1L561.7,382.6L561.7,382.6z M572.6,382.1
		c-0.1,0.9-0.3,1.8-0.6,2.7c0.7,1.3,2.2,3,3.7,4c-0.4,0.3-1.1,1-1.4,1.5c-1.2-0.9-2.3-2.3-3.1-3.6c-0.7,1.4-1.8,2.8-3.4,3.8
		c-0.2-0.5-0.7-1.1-1.2-1.5v2.7h-2v-10.2c-2.4,0.2-4.8,0.3-6.9,0.3c-0.3-0.5-0.8-1.5-1.2-1.9c5.6,0.1,12.8-0.3,16.8-0.9l1.5,1.5
		c-2.2,0.4-5.2,0.7-8.2,0.9v7.4c2.8-1.6,3.6-4.6,4-6.7L572.6,382.1L572.6,382.1z M574.3,378.1h-17.4v-6h17.4V378.1z M561.9,374h-3.1
		v2.4h3.1V374z M567.1,374h-3.2v2.4h3.2V374z M572.2,374h-3.3v2.4h3.3V374z"/>
	<path class="st10" d="M585.5,376.7h-7.9v-1.6h3.7c-0.3-0.8-0.9-2.1-1.5-3l1.5-0.8c0.5,0.9,1.2,2.1,1.5,2.9l-1.4,0.9h4.1
		L585.5,376.7L585.5,376.7z M578.5,379.6V378h6.2v1.6H578.5z M578.5,380.9h6.2v1.6h-6.2V380.9z M584.7,390.3h-4.6v1h-1.6v-7.4h6.2
		L584.7,390.3L584.7,390.3z M580.1,385.5v3.1h3v-3.1H580.1z M595.4,372.6c-0.2,8.1-0.2,16.3,0.9,16.6c0.1,0,0.3-1.4,0.4-2.9
		c0.3,0.5,0.8,1.3,1.1,1.6c-0.3,3.1-1.2,3.8-2.3,3.3c-2.1-0.7-2.1-8.1-2.1-16.7h-3.2v6.2h2.6v1.9h-2.6v9h-2v-9h-2.7v-1.9h2.7v-6.2
		h-2.5v-1.9H595.4z"/>
	<path class="st10" d="M599.5,389.6c0.8-1.2,1.6-3.1,2.2-4.5l1.8,0.7c-0.5,1.4-1.3,3.4-2.1,4.6L599.5,389.6z M608.9,383.9h-6.1
		v-10.5h5.1c0.3-0.7,0.6-1.6,0.7-2.2l2.4,0.4c-0.3,0.7-0.7,1.3-1,1.8h6.3v10.5h-6.7c1,0.9,2.1,2.2,2.6,3.1l-1.7,1
		c-0.5-1-1.7-2.4-2.8-3.4L608.9,383.9z M612.2,389.3c1.1,0,1.3-0.3,1.4-2.5c0.5,0.3,1.3,0.6,1.9,0.7c-0.3,2.9-0.9,3.6-3.2,3.6h-4.6
		c-2.8,0-3.5-0.6-3.5-2.5v-3.3h2v3.3c0,0.6,0.2,0.7,1.6,0.7L612.2,389.3L612.2,389.3z M604.7,376.4h9.5V375h-9.5V376.4z
		 M604.7,379.3h9.5v-1.4h-9.5V379.3z M604.7,382.3h9.5v-1.4h-9.5V382.3z M616.8,384.8c1,1.4,2.1,3.2,2.4,4.5l-1.9,0.9
		c-0.3-1.3-1.3-3.1-2.3-4.6L616.8,384.8z"/>
	<path class="st10" d="M629.4,383.3l-1.9,1.6c-1.4-1.7-3.3-3.6-4.8-4.9l1.8-1.6C626.1,379.7,628.1,381.8,629.4,383.3z"/>
	<path class="st10" d="M637,380.3c-1,1-2.2,2-3.4,2.5c-0.3-0.4-0.8-1-1.2-1.3c1.4-0.5,2.9-1.5,3.9-2.5h-2.9v-3.9h3.6v-0.9h-4.1v-1.5
		h4.1v-1.2h1.8v1.2h4v1.5h-4v0.9h3.5v1.7c1.4-1.3,2.5-3.2,3-5.3l1.8,0.4c-0.2,0.6-0.4,1.3-0.7,1.9h5.8v1.6h-1.4
		c-0.5,1.6-1.2,2.9-2.1,4c1,0.8,2.3,1.5,3.8,2c-0.4,0.4-0.9,1.1-1.1,1.6c-1.5-0.5-2.8-1.3-3.9-2.3c-1.1,1-2.5,1.7-4.1,2.3
		c-0.2-0.4-0.8-1.1-1.2-1.5c1.6-0.5,2.9-1.1,4-2c-0.7-0.8-1.2-1.7-1.6-2.5c-0.4,0.5-0.7,0.9-1.1,1.3c-0.3-0.4-0.9-1-1.3-1.4v2.2
		h-2.6c0.9,0.5,2.1,1.2,2.6,1.7l-0.9,1.2c-0.6-0.5-1.7-1.3-2.7-1.8v2.5h-1.8v-2.4L637,380.3L637,380.3z M643.4,389.3h8.9v1.7h-19.8
		v-1.7h3.4v-3.5h1.9v3.5h3.5v-4.5h-7.4v-1.7h17v1.7h-7.6v1.4h6v1.6h-6L643.4,389.3L643.4,389.3z M635,377.7h2v-1.4h-2V377.7z
		 M638.8,376.3v1.4h1.8v-1.4H638.8z M639.4,379h-0.7v0.8L639.4,379z M645.7,375.4c0.4,0.9,1,1.9,1.8,2.8c0.6-0.8,1.1-1.7,1.4-2.8
		H645.7z"/>
	<path class="st10" d="M666.5,372.2c-0.2,0.3-0.4,0.7-0.7,1c2.7,2.6,5.7,4.3,8.9,5.6c-0.5,0.5-1.1,1.2-1.4,1.9
		c-1.2-0.6-2.3-1.1-3.4-1.8v1.4H659v-1.1c-1,0.6-2.1,1.2-3.2,1.7c-0.4-0.5-0.9-1.3-1.5-1.8c4.1-1.6,8.2-4.4,10.4-7.8L666.5,372.2z
		 M657.7,382.6h13.7v8.8h-2.2v-1h-9.5v1.1h-2.1L657.7,382.6L657.7,382.6z M659.8,384.5v4.1h9.5v-4.1H659.8z M669.3,378.5
		c-1.6-1-3.1-2.2-4.7-3.8c-1.3,1.4-2.8,2.7-4.4,3.8H669.3z"/>
	<path class="st10" d="M687.9,371.9c-0.1,0.1-0.2,0.3-0.3,0.4c2,1.9,5.8,3.6,9.2,4.3c-0.4,0.4-1,1.1-1.3,1.6
		c-0.5-0.2-1.1-0.3-1.6-0.5v5.7H679v-5.5c-0.5,0.2-1.1,0.4-1.6,0.5c-0.2-0.4-0.7-1.2-1.1-1.6c4-1,7.9-2.9,9.9-5.5L687.9,371.9z
		 M693.7,377.6c-1.2-0.4-2.4-0.9-3.5-1.6v0.6h-7.6v-0.5c-1,0.6-2.1,1-3.2,1.4h14.3V377.6z M680.2,384.2h12.5v7.2h-2.1v-0.6h-8.4v0.7
		h-2V384.2z M683.2,379.1c0.5,0.7,1,1.8,1.1,2.4l-1.5,0.5h2.6v-3h-4.8v3h2.1c-0.2-0.7-0.6-1.7-1-2.5L683.2,379.1z M682.3,385.6v1.2
		h8.4v-1.2H682.3z M690.7,389.5v-1.2h-8.4v1.2H690.7z M688.9,375.3c-0.9-0.5-1.7-1.2-2.4-1.8c-0.7,0.7-1.5,1.3-2.4,1.8H688.9z
		 M692,379h-4.8v3h2.5l-1.4-0.4c0.4-0.7,0.9-1.8,1.1-2.6l1.7,0.5c-0.5,0.9-1,1.9-1.4,2.5h2.3L692,379L692,379z"/>
	<path class="st10" d="M712.1,387.9c2.2,0.6,4.8,1.6,6.5,2.3l-1.8,1.4c-1.6-0.7-4.6-1.9-6.9-2.5l1.6-1.2h-6.4l1.5,1
		c-1.8,1.1-4.6,2.1-6.8,2.7c-0.4-0.4-1-1.1-1.5-1.5c2.1-0.5,4.7-1.4,6.1-2.2h-3.8v-9.5h15.7v9.5L712.1,387.9L712.1,387.9z
		 M715.4,377.3h-13.9v-5.1h13.9V377.3z M702.6,381.1h11.5v-1.3h-11.5V381.1z M702.6,383.7h11.5v-1.3h-11.5V383.7z M702.6,386.4h11.5
		v-1.3h-11.5V386.4z M713.3,373.8h-9.7v1.9h9.7V373.8z"/>
	<path class="st10" d="M724,374.5c-0.7,1.1-1.5,2-2.3,2.8c-0.3-0.3-1-1-1.4-1.3c1.3-1.1,2.5-2.9,3.3-4.7l1.8,0.5
		c-0.2,0.4-0.3,0.7-0.5,1.1h5.3v1.6h-3.7c0.6,0.5,1.3,1.2,1.6,1.6l-1.3,1.1c-0.4-0.6-1.3-1.5-2-2.1l0.8-0.7H724V374.5L724,374.5z
		 M730.7,375.8c0.4,0.5,0.7,1.1,0.9,1.7h7.9v3.7h-2.1v-2.1h-14.1v2.1h-2v-3.7h8.1c-0.2-0.4-0.4-0.9-0.6-1.3L730.7,375.8z M726,386.1
		h12v5.4h-2v-0.6h-10v0.7h-2.1v-11.4h12.9v4.6h-10.9L726,386.1L726,386.1z M726,381.7v1.5h8.9v-1.5H726z M726,387.6v1.7h10v-1.7H726
		z M740.3,372.9v1.6H736c0.7,0.6,1.6,1.3,2,1.8l-1.4,1.2c-0.5-0.6-1.5-1.5-2.4-2.2l0.9-0.8h-2.3c-0.5,0.7-1,1.3-1.6,1.8
		c-0.3-0.3-1.1-0.9-1.5-1.2c1.2-0.9,2.2-2.3,2.7-3.8l1.9,0.5c-0.2,0.4-0.3,0.8-0.5,1.2h6.5L740.3,372.9L740.3,372.9z"/>
	<path class="st10" d="M749.5,387.1c-2.4,0.8-4.9,1.7-6.9,2.3l-0.5-2.1c0.8-0.2,1.8-0.5,2.8-0.8v-5.6h-2.4V379h2.4v-4.4h-2.6v-1.9h7
		v1.9h-2.4v4.4h2.1v1.9h-2.1v5c0.7-0.2,1.5-0.5,2.3-0.7L749.5,387.1z M762.5,389v1.9h-14V389h6.4v-2.6h-4.8v-1.8h4.8v-2.3h-4.6v-9.9
		h11.2v9.9h-4.6v2.3h4.9v1.8h-4.9v2.6H762.5z M752.2,376.5h2.9v-2.4h-2.9V376.5z M752.2,380.5h2.9v-2.4h-2.9V380.5z M759.6,374.1
		h-2.8v2.4h2.8V374.1z M759.6,378.1h-2.8v2.4h2.8V378.1z"/>
	<path class="st10" d="M766.4,384.5c1.7-0.6,2.7-1.6,2.8-3c-0.1,0-0.2,0-0.3,0c-1,0-1.8-0.6-1.8-1.8c0-1.1,0.9-1.8,1.9-1.8
		c1.4,0,2.1,1.1,2.1,2.7c0,2.4-1.5,4.3-4,5.1L766.4,384.5z"/>
	<path class="st10" d="M541.2,414.4c1.1,1.8,2.5,4.2,3,5.6l-1.9,1c-0.2-0.5-0.5-1.3-0.9-2c-5.4,1.8-6.2,2.1-6.7,2.5
		c-0.1-0.6-0.5-1.6-0.8-2.1c0.4-0.2,1-0.6,1-1.5V403h8.7v10.5H537v4.9l3.6-1.1c-0.4-0.7-0.8-1.4-1.2-2.1L541.2,414.4z M537,404.9
		v2.4h4.6v-2.4H537z M541.6,411.7v-2.6H537v2.6H541.6z M552.7,415.8c0,1-0.2,1.6-0.8,1.9c-0.7,0.4-1.7,0.4-3.2,0.4
		c-0.1-0.5-0.3-1.4-0.6-1.9c1,0,1.9,0,2.2,0s0.4-0.1,0.4-0.4v-10.6h-3.4v17h-2v-18.9h7.4L552.7,415.8L552.7,415.8z"/>
	<path class="st10" d="M562.7,417.9h-4.6v1.9h-1.9v-16.4h6.5V417.9z M558.1,405.2v4.4h2.7v-4.4H558.1z M560.8,416v-4.6h-2.7v4.6
		H560.8z M570.3,406.3v2.5h4.6v1.8h-1.8v2.1h2.4v1.8h-2.4v5.4c0,1.1-0.2,1.6-1,1.9s-1.9,0.4-3.6,0.4c-0.1-0.5-0.4-1.4-0.7-1.9
		c1.2,0,2.4,0,2.8,0c0.4,0,0.5-0.1,0.5-0.4v-5.4h-8v-1.8h8v-2.1h-7.2v-1.8h4.3v-2.5H563v-1.8h5.2V402h2v2.5h5.3v1.8H570.3z M566,415
		c1,1.1,2.2,2.6,2.7,3.6l-1.8,1.1c-0.5-1-1.7-2.6-2.6-3.8L566,415z"/>
	<path class="st10" d="M583.5,402.6c-0.5,1.4-1.1,2.9-1.7,4.2v15.3h-2v-11.9c-0.6,0.9-1.2,1.7-1.8,2.4c-0.2-0.5-0.7-1.6-1-2.2
		c1.9-2.1,3.6-5.3,4.6-8.5L583.5,402.6z M596.9,403.2v18.7H595v-1.1h-9.1v1.3H584v-18.9H596.9z M595,419v-14h-9.1v14H595z
		 M591.3,409.4v2.2h2.3v5.8h-6.2v-5.8h2.2v-2.2h-2.9v-1.5h2.9v-2.4h1.6v2.4h3.1v1.5H591.3z M592,413.1h-3.1v2.9h3.1V413.1z"/>
	<path class="st10" d="M610.6,402c0,0.8,0,2-0.2,3.3c0.3,2.7,1.6,11.5,9.3,14.9c-0.6,0.5-1.2,1.2-1.5,1.7c-5.2-2.4-7.6-7.3-8.7-11.2
		c-1.1,4.1-3.4,8.6-8.4,11.3c-0.4-0.5-1-1.2-1.7-1.6c9-4.7,8.7-14.9,8.8-18.4L610.6,402L610.6,402z"/>
	<path class="st10" d="M629,402.7c-0.6,1.4-1.3,2.8-2.2,4.2v15.3h-1.9v-12.5c-0.8,1.1-1.7,2.1-2.6,2.9c-0.2-0.5-0.7-1.6-1.1-2.1
		c2.3-2,4.6-5.2,6-8.4L629,402.7z M638,419.6c1.2,0,1.4-0.9,1.6-4.6c0.5,0.4,1.3,0.8,1.8,0.9c-0.3,4.1-0.8,5.6-3.3,5.6h-3.9
		c-2.4,0-3.1-0.7-3.1-3.4v-15.8h2v5.8h7.7v2h-7.7v8.1c0,1.2,0.2,1.5,1.3,1.5h3.6L638,419.6L638,419.6z"/>
	<path class="st10" d="M663.3,419.4v2h-19.7v-2h12.3c0.2-1,0.3-2.1,0.5-3.2h-9.8c0.8-2.9,1.8-7.6,2.4-11.2h-4.7v-2h18.3v2h-11.4
		c-0.2,1-0.4,2.2-0.6,3.3h7l0.4-0.1l1.5,0.2c-0.3,3.1-0.9,7.5-1.5,11.1L663.3,419.4L663.3,419.4z M656.8,414.3
		c0.2-1.5,0.4-2.9,0.5-4.2h-7c-0.3,1.5-0.6,2.9-0.9,4.2H656.8z"/>
	<path class="st10" d="M685,407c0,0,0,0.7,0,0.9c-0.2,9.1-0.4,12.2-1.1,13.1c-0.4,0.7-0.9,0.8-1.6,0.9c-0.7,0.1-1.7,0.1-2.7,0
		c0-0.5-0.3-1.4-0.6-1.9c1,0.1,1.9,0.1,2.3,0.1c0.4,0,0.6-0.1,0.8-0.4c0.5-0.6,0.7-3.4,0.9-11h-2.6c-0.3,5.8-1.3,10.5-5.1,13.4
		c-0.3-0.5-1-1.2-1.5-1.5c0.1-0.1,0.3-0.2,0.4-0.3c-3.2,0.4-6.3,0.7-8.7,0.9l-0.3-1.7c1.3-0.1,2.9-0.2,4.6-0.4v-1.7h-4v-1.5h4V415
		h-3.9v-6.6h3.9v-1.1h-4.5v-1.5h4.5v-1.2c-1.3,0.1-2.7,0.2-3.9,0.2c-0.1-0.4-0.3-1.1-0.5-1.5c3.3-0.2,7.1-0.6,9.4-1.1l1,1.5
		c-1.2,0.2-2.6,0.5-4.1,0.6v1.4h4.4v1.3h2.3c0-1.5,0-3.1,0-4.7h2c0,1.6,0,3.2,0,4.7L685,407L685,407z M667.7,411h2.3v-1.3h-2.3V411z
		 M670,413.6v-1.3h-2.3v1.3H670z M671.8,419.1c1.4-0.1,2.8-0.3,4.2-0.4c1.8-2.5,2.4-5.8,2.5-9.8h-2.3v-1.6h-4.4v1.1h4.1v6.6h-4.1
		v1.1h4.1v1.5h-4.1V419.1z M674.2,411v-1.3h-2.4v1.3H674.2z M671.8,412.3v1.3h2.4v-1.3H671.8z"/>
	<path class="st10" d="M689.5,415.1c1.7-0.6,2.7-1.6,2.8-3c-0.1,0-0.2,0-0.3,0c-1,0-1.8-0.6-1.8-1.8c0-1.1,0.9-1.8,1.9-1.8
		c1.4,0,2.1,1.1,2.1,2.7c0,2.4-1.5,4.3-4,5.1L689.5,415.1z"/>
	<path class="st10" d="M706.7,413.1l-3,0.9v5.7c0,1.1-0.2,1.6-0.9,1.9c-0.7,0.4-1.6,0.4-3.2,0.4c-0.1-0.5-0.4-1.4-0.6-1.9
		c1,0,1.9,0,2.2,0s0.4-0.1,0.4-0.4v-5.1l-2.7,0.7l-0.6-2c0.9-0.2,2-0.5,3.3-0.8v-4.3h-3.1v-1.9h3.1V402h2.1v4.3h2.8v1.9h-2.8v3.7
		l2.8-0.7L706.7,413.1z M718.5,405.8h-3.7v13.5c0,1.3-0.3,2-1.2,2.3c-0.9,0.4-2.3,0.4-4.3,0.4c-0.1-0.6-0.5-1.6-0.8-2.2
		c1.5,0.1,3.1,0.1,3.6,0.1c0.4,0,0.6-0.2,0.6-0.5v-13.5h-5.9v-2h11.8L718.5,405.8L718.5,405.8z"/>
	<path class="st10" d="M726.5,412.2c-0.5,2.1-1.3,4.2-2.1,5.9c0.4,0.2,0.8,0.5,1.3,0.9c1.5,0.9,3.5,1.1,6.1,1.1
		c2.7,0,6.3-0.2,8.8-0.5c-0.2,0.6-0.6,1.6-0.6,2.1c-1.7,0.1-5.7,0.2-8.3,0.2c-2.9,0-4.7-0.2-6.3-1.2c-0.9-0.5-1.7-1.3-2.1-1.3
		c-0.5,0-1.3,1.4-1.8,2.8l-1.4-1.9c0.9-1.2,1.8-2.1,2.6-2.5c0.6-1.1,1.2-2.6,1.5-4.1h-3c0.5-1.3,1.2-3,1.8-4.7h-2.6v-1.8h5.1
		c-0.5,1.5-1.2,3.3-1.7,4.8h1.6l0.3-0.1L726.5,412.2z M722.9,406.3c-0.3-0.9-0.8-2.4-1.2-3.6l1.9-0.5c0.4,1.1,0.9,2.5,1.2,3.5
		L722.9,406.3z M729.1,406.3c-0.5,0.8-1,1.5-1.6,2.1c-0.4-0.3-1.3-0.8-1.7-1c1.4-1.3,2.5-3.3,3.1-5.3l1.9,0.4
		c-0.2,0.6-0.5,1.3-0.8,1.9h2.1V402h2v2.6h5v1.8h-5v2.4h6v1.7h-14v-1.7h6v-2.4h-3V406.3z M736.6,418.6V418h-6.7v0.7h-2v-6.8h10.7
		v6.7L736.6,418.6L736.6,418.6z M736.6,416.2v-2.7h-6.7v2.7H736.6z"/>
	<path class="st10" d="M748.5,419c1.3,0.5,2.9,0.6,4.9,0.6c1.3,0,7.6,0,9.3,0c-0.3,0.5-0.7,1.4-0.8,2h-8.4c-4.4,0-7-0.6-8.7-3.4
		c-0.2,1.5-0.6,2.9-1.1,3.9c-0.3-0.2-1.2-0.7-1.6-0.9c1.2-2.2,1.4-5.6,1.4-9.4l1.8,0.1c0,1.1-0.1,2.1-0.1,3.1
		c0.4,1.3,0.9,2.2,1.6,2.9v-7.4h-4.2v-1.8h3.8v-2.4H743v-1.8h3.4V402h1.9v2.5h3.3v1.8h-3.4v2.4h3.7v0.8c1.7-1,2.6-2.6,3-4.8h-2.7
		V403h9.6c0,0,0,0.5,0,0.7c-0.2,3.8-0.4,5.4-0.9,5.9c-0.4,0.4-0.8,0.6-1.4,0.6c-0.5,0-1.4,0.1-2.4,0c0-0.5-0.2-1.3-0.5-1.7
		c0.8,0.1,1.6,0.1,1.9,0.1s0.5,0,0.7-0.2c0.3-0.3,0.4-1.3,0.5-3.7h-2.9c-0.5,3-1.7,5-3.9,6.3c-0.2-0.2-0.6-0.6-1-0.9v0.4h-3.4v2.8
		h3.2v1.8h-3.2L748.5,419L748.5,419z M752.8,411.2h8.4v6.8h-8.4V411.2z M754.7,416.3h4.5v-3.5h-4.5V416.3z"/>
	<path class="st10" d="M771.5,415.2c-0.1-0.4-0.1-0.7-0.3-1.2c-4.9,0.8-5.6,1-6.1,1.3c-0.1-0.4-0.4-1.4-0.7-1.9
		c0.5-0.1,1-0.6,1.7-1.5c0.3-0.4,0.9-1.1,1.6-2.2c-2,0.2-2.5,0.4-2.9,0.5c-0.1-0.4-0.4-1.3-0.6-1.8c0.4-0.1,0.8-0.5,1.2-1.2
		c0.5-0.6,1.9-3.1,2.8-5.4l1.9,0.8c-0.9,1.9-2,3.9-3.2,5.5l2-0.2c0.6-0.9,1.1-1.9,1.6-2.9l1.7,1.1c-1.4,2.4-3.1,4.8-4.8,6.7l3.1-0.4
		c-0.2-0.6-0.5-1.3-0.7-1.8l1.5-0.5c0.7,1.4,1.4,3.3,1.6,4.4L771.5,415.2z M767,416.4c-0.2,1.9-0.6,4-1.1,5.3
		c-0.4-0.2-1.1-0.4-1.5-0.6c0.5-1.3,0.8-3.3,1-5L767,416.4z M769.2,416c0.3,1.4,0.5,3.2,0.6,4.4l-1.5,0.4c0-1.2-0.2-3-0.5-4.4
		L769.2,416z M783.9,409.5c-0.5,3.2-1.6,5.9-3,8c1,1.2,2.2,2.1,3.6,2.7c-0.5,0.4-1.1,1.2-1.4,1.7c-1.4-0.7-2.5-1.7-3.5-2.8
		c-1.1,1.2-2.3,2.2-3.5,3c-0.3-0.5-0.9-1.2-1.3-1.6c1.3-0.7,2.6-1.8,3.6-3.1c-0.9-1.5-1.6-3.2-2.1-5.1c-0.4,3.9-1.3,7.1-3,9.6
		c-0.3-0.3-1.3-1-1.8-1.3c0.4-0.5,0.8-1.1,1.1-1.8l-1.5,0.5c-0.2-0.9-0.6-2.4-1-3.6l1.4-0.4c0.4,1.1,0.9,2.5,1.1,3.5
		c1.7-3.5,2-8.3,2.1-14h-2V403h7.6l0.3-0.1l1.4,0.2c-0.2,1.8-0.6,4.2-1,6.1h1.2l0.4-0.1L783.9,409.5z M776.7,404.9
		c0,1.5-0.1,2.9-0.2,4.3h2.5c0.3-1.4,0.5-2.9,0.7-4.3H776.7z M777.6,411c0.5,1.7,1.1,3.4,2,4.8c0.9-1.4,1.5-3.1,2-4.8H777.6z"/>
	<path class="st10" d="M794.9,415.8h-5.6l-1.4,4.6h-2.6l5.4-16.2h2.9l5.4,16.2h-2.8L794.9,415.8z M794.3,413.8l-0.6-2.2
		c-0.5-1.8-1-3.6-1.5-5.4h-0.1c-0.5,1.8-1,3.6-1.5,5.4l-0.7,2.2H794.3z"/>
	<path class="st10" d="M801.1,404.2h4.9c3.6,0,6.2,1.2,6.2,4.9c0,3.5-2.6,5.2-6.1,5.2h-2.4v6.1h-2.5L801.1,404.2L801.1,404.2z
		 M805.8,412.2c2.6,0,3.8-1,3.8-3.1s-1.3-2.8-3.9-2.8h-2.1v6h2.2V412.2z"/>
	<path class="st10" d="M815.3,404.2h4.9c3.6,0,6.2,1.2,6.2,4.9c0,3.5-2.6,5.2-6.1,5.2h-2.4v6.1h-2.5v-16.2H815.3z M820,412.2
		c2.6,0,3.8-1,3.8-3.1s-1.3-2.8-3.9-2.8h-2.1v6h2.2V412.2z"/>
</g>
</svg>
