<?xml version="1.0" encoding="utf-8"?>
<!-- Generator: Adobe Illustrator 24.3.0, SVG Export Plug-In . SVG Version: 6.00 Build 0)  -->
<svg version="1.1" id="圖層_1" xmlns="http://www.w3.org/2000/svg" xmlns:xlink="http://www.w3.org/1999/xlink" x="0px" y="0px"
	 viewBox="0 0 865 396.5" style="enable-background:new 0 0 865 396.5;" xml:space="preserve">
<style type="text/css">
	.st0{fill:#0052A5;stroke:#000000;stroke-width:1.5;stroke-miterlimit:10;}
	.st1{fill:#FFFFFF;stroke:#FFFFFF;stroke-width:4;stroke-miterlimit:10;}
	.st2{fill:#FFE500;stroke:#000000;stroke-width:1.5;stroke-miterlimit:10;}
	.st3{fill:#FFFFFF;stroke:#000000;stroke-width:1.5;stroke-miterlimit:10;}
</style>
<path class="st0" d="M114.3,270.3c-25.7,0-50.1-8-68.7-22.6c-22.7-17.8-35.1-43.9-35.1-73.5V-45h76.1v219.2c0,6.3,1.8,10.3,6,13.6
	c5.1,4,13.3,6.4,21.8,6.4L114.3,270.3L114.3,270.3z"/>
<g>
	<polygon class="st1" points="149.4,196.2 132.4,196.2 132.4,266.8 176.8,266.8 176.8,252.6 149.4,252.6 	"/>
	<rect x="189.1" y="196.2" class="st1" width="17" height="70.6"/>
	<path class="st1" d="M262.3,219.6c0,8.4,1.4,18.6,2.3,26.1h-0.5l-6.9-15.7l-17.6-33.8h-17.3v70.6h16.1v-23.5
		c0-8.5-1.4-18.2-2.2-26.1h0.5l6.9,15.5l17.5,34.1h17.3v-70.6h-16.1L262.3,219.6L262.3,219.6z"/>
	<polygon class="st1" points="311.9,237.6 335.5,237.6 335.5,223.4 311.9,223.4 311.9,210.3 339.7,210.3 339.7,196.2 294.9,196.2 
		294.9,266.8 340.8,266.8 340.8,252.6 311.9,252.6 	"/>
	<path class="st1" d="M400.2,185l-14.1,3.1c0.7,1.4,1.3,3.1,1.8,4.7h-36.4v19.6h11.9v63.4h14.1v-3.5h35.7v3.1h14.2v-32.8h-49.9v-4.5
		l46.5,0.2v-25.8h12.4v-19.6h-32.8C402.8,190.3,401.4,187.4,400.2,185z M410.1,221.6v4.8h-32.7v-4.8H410.1z M377.5,254.5h35.7v5.7
		h-35.7V254.5z M365.4,205.6h56.1v4.3h-56.1V205.6z"/>
	<path class="st1" d="M502.4,197.6c-1.5-3.7-4.3-9.3-6.9-13.5l-13.7,5.1c1.7,3.3,3.8,7.6,5.1,11.1h-39.2v13.5h23.1
		c-0.8,19.2-2.4,39.1-24.4,51.2c3.8,2.9,8,7.7,10.1,11.5c16.8-10.2,23.9-24.5,27.1-40h27.8c-1.1,14.6-2.8,22.3-5.1,24.2
		c-1.4,1-2.7,1.2-4.7,1.2c-3,0-9.6-0.1-16.1-0.7c2.7,3.8,4.8,9.6,5,13.6c2.9,0.1,5.9,0.2,8.6,0.2c3.1,0,5.9-0.1,8-0.4
		c4.9-0.5,8.3-1.6,11.5-5.1c4.1-4.3,6.1-15.2,7.7-40.6c0.3-1.7,0.4-5.7,0.4-5.7h-41c0.3-3.1,0.5-6.3,0.7-9.4c0,0,47.9,0,48.1,0.1
		v-13.5h-38.6L502.4,197.6z"/>
	<path class="st1" d="M632.8,247.2l-8.6-7.6h8.1V228H599v-3.2h26.9v-9.5H599v-3.2h26.8v-9.4H599v-2.9h30.8v-10.6h-44.1v38.9H581
		v11.6h3.3v15.2c0,4.3-3.2,7.7-5.6,9.2c2.3,2.8,5.5,9,6.4,12.3c2.1-1.6,5.8-3.2,23.7-8.6c-0.4-2.1-0.7-5.6-0.7-8.6
		c4.6,6.5,10.2,11.9,17.1,15.5c2-3.5,6.1-8.7,9.1-11.3c-5.4-2.3-10-5.5-13.9-9.5C624.2,252,628.4,249.6,632.8,247.2z M597.1,259.6
		v-19.8h1.3c2.2,6.3,4.9,12.2,8.2,17.3L597.1,259.6z M621.4,239.8c-2.2,1.9-4.9,4.1-7.6,6c-1.2-1.9-2.3-3.9-3.2-6H621.4z"/>
	<path class="st1" d="M580,202.8h-11.8v-17.2H557v17.2h-12V256h9.9v-41.1h2.1v61h11.2V247c0.8,2.7,1.4,5.6,1.5,7.8
		c3.2,0,5.4-0.4,7.7-2.4c2.2-2,2.6-5.6,2.6-9.6V202.8z M568.2,215h2.2v27.5c0,0.7-0.2,0.9-0.7,0.9v0.1h-1.5V215z"/>
	<path class="st1" d="M675.2,188.9h-30.1v28.4h30.1V188.9z M654.7,207.8v-9.5h10.4v9.5H654.7z"/>
	<path class="st1" d="M674.1,237.7h-16.2l0.9-4.7H677v-11.6h-36.2v11.8h6.6c-1,5.4-2.3,10.9-3.5,15.2h11.8v-0.1h6.4
		c-0.6,9.3-1.4,13.4-2.5,14.6c-0.8,0.8-1.7,1-3,1c-1.6,0-4.7-0.1-8-0.4c1.8,3,3.1,7.7,3.3,11.1c1.4,0.1,2.7,0.1,4,0.1
		c2.5,0,4.8-0.1,6.4-0.4c2.9-0.5,5-1.3,7-3.7c2.5-3,3.7-10.8,4.6-28.4C674,240.6,674.1,237.7,674.1,237.7z"/>
	<path class="st1" d="M723.5,252c0.1,3.8-0.1,7.1-0.2,8.5c-0.2,0.8-0.4,1.3-0.6,1.7c-0.1,0.3-0.5,0.4-0.9,0.4v-0.2h-0.7
		c-0.3,0-0.7-0.2-0.9-0.6c-0.1-0.2-0.2-0.7-0.2-1.2v-20.4h-11.2v21.9c0,6.1,0.4,7.8,2,9.7c1.6,1.8,4.1,2.6,6.8,2.6h5.1
		c1.9,0,4-0.6,5.3-1.5c1.6-1.1,2.5-2.5,3.3-4.7c0.5-2,1.1-6.5,1.3-11.1C729.7,256.2,725.6,253.9,723.5,252z"/>
	<path class="st1" d="M686.4,266.4c4-12.2,4.9-27,4.9-37.8l0.1-14.1h7.3v4l-6.3,0.5l1.1,8.9l5.2-0.5c0.3,7.2,2.5,10.9,11,10.9h9.2
		c2.6,0,5.8-0.2,7.5-0.9c-0.5-3-0.7-6.3-0.9-9.6c-1.5,0.5-5.2,0.8-7.2,0.8h-6.2c-1.6,0-2-0.8-2.2-2.2l8.1-0.7l-1-8.8l-7,0.6v-3h9.6
		c-0.2,3-0.5,5.7-0.8,7.8l9.9,2.4c1.2-5.1,2.5-12.9,3.4-19.6l-8.4-1.7l-1.8,0.4h-11.2v-2.9h17.7v-10.7h-17.7v-4.4h-13v18h-18.4v24.8
		c0,12.1-0.6,28.7-7.3,40.2c2.8,1.2,8.1,5,10.2,7.1c1.4-2.4,2.7-5.1,3.7-7.9c2.4,2.1,5.2,5.9,6.4,8.5c11-7.7,12.8-20.1,13.3-36.1
		h-11.2C694.1,251.9,693.3,260.6,686.4,266.4z"/>
</g>
<g>
	<path class="st1" d="M262.4,336.4l-6.2,1.8V327h7.4v-12.6h-7.4V297h-12.8v17.4h-8.5V327h8.5v14.9c-3.7,1.1-7.2,1.9-10,2.6l3,13.3
		l6.9-2.2v16.7c0,1-0.3,1.4-1.3,1.4c-0.9,0-3.4,0-5.7-0.1c1.5,3.5,3,8.8,3.3,12.2c5.6,0,9.6-0.5,12.6-2.6c3.1-2,3.9-5.3,3.9-11v-21
		c2.8-0.9,5.5-1.8,8.3-2.8L262.4,336.4z"/>
	<path class="st1" d="M311.5,365h11.7v-11h-22.8v-4.8H322v-23.3h-26.8v22.5h-2.8v-22.5h-25.9v23.3h20.9v4.8h-21.8v11h8.6
		c-3.2,4.8-8.5,10-13.3,13.3c2.8,2,7.3,6.3,9.4,8.6c5.3-4.4,11.8-11.8,16-18.4l-10.2-3.5h11.2v22.3h13.1V365h7.9l-7,5.9
		c5.2,4.7,11.7,11.3,14.5,15.8l9.3-8.1C322.1,374.7,316.4,369.2,311.5,365z M305.5,339.9V335h5.5v4.9H305.5z M281.7,335v4.9h-5.2
		V335H281.7z"/>
	<path class="st1" d="M313.2,300.2h-38.7v22.9h38.7V300.2z M286.1,313.7v-4.1h14.6v4.1H286.1z"/>
	<path class="st1" d="M395.5,301.1l-13.3-3.5c-4.1,13.6-11.5,27.2-19.8,35.6c2.9,2.2,8.2,7.1,10.4,9.7c4.2-4.8,8.3-10.9,12.1-17.7
		h1.8V387h14.2v-20h24.4v-12.8h-24.4v-8.5h23.2v-12.5h-23.2v-7.9l25.7-0.1v-13.1h-35.4C392.8,308.5,394.3,304.8,395.5,301.1z"/>
	<path class="st1" d="M355.8,297.3c-4.6,13.1-12.4,26.2-20.7,34.5c2.4,3.5,6.2,11.5,7.4,14.9c1.3-1.5,2.7-2.9,4-4.5V387h14v-66.2
		c3.4-6.4,6.3-12.9,8.7-19.3L355.8,297.3z"/>
	<path class="st1" d="M508.3,360.7c6.3-9.1,10.5-20.4,13.4-34.2l6.3,0.1v-13.2h-32.4c1.5-4.6,2.9-9.3,4-14l-13.7-2.8
		c-3.4,16.1-9.9,32.1-18.5,41.5c3.3,1.8,9.2,6,11.8,8.3c1.1-1.5,2.2-3,3.2-4.5c2.2,6.7,4.8,13,7.9,18.6
		c-6.6,6.2-15.2,10.8-26.2,13.9c2.4,3.1,6.2,9.5,7.3,12.8c11.1-3.8,19.9-8.7,27.1-15.3c5.8,6.5,12.9,11.6,21.9,15.3
		c2.1-3.9,6.4-9.7,9.5-12.5C521,371.5,514,366.8,508.3,360.7z M507.3,326.5c-1.7,8.4-4.2,15.7-7.6,21.9c-3.5-6.4-6.1-13.8-7.9-21.9
		H507.3z"/>
	<path class="st1" d="M476.9,350c-4.1,1-8.4,1.9-12.6,2.8V321h11.6v-13.2h-36.4V321h11.1v34.7c-4.8,1-9.3,1.8-12.9,2.5l3.2,14.3
		c10.7-2.9,24.6-6.6,37.4-10.2L476.9,350z"/>
	<path class="st1" d="M615.4,334.2c6.6-6.5,11.8-14.1,15.3-23.1l-7.8-4.7l-2.4,0.4H603c1-2.1,1.9-4.3,2.8-6.5l-11.5-3.4
		c-3.5,9.2-9.6,18-16.4,23.9v-17.5h-34.6v73.1h10.2v-6h24.4V346c1.1,2.9,2,6,2.5,8.1c1.4-0.4,2.8-0.8,4.2-1.3v33.8h12v-5.2h16.3v4.8
		h12.5v-33.6c1.1,0.3,2.3,0.7,3.4,1c0.2-3.9,1.6-10.5,2.8-14C625.7,338.5,620.2,336.7,615.4,334.2z M596.6,361.6h16.3v7.8h-16.3
		V361.6z M617.5,349.6h-24.9c4.3-2,8.6-4.2,12.5-6.9C608.9,345.3,612.9,347.6,617.5,349.6z M605,326.9c-2.6-2.4-4.8-5.1-6.6-7.9
		h14.1C610.3,321.9,607.8,324.5,605,326.9z M583.5,333c2.1-1.7,4.1-3.8,6.1-6c1.6,2.3,3.3,4.6,5.3,6.7c-5.1,2.8-10.8,5-16.9,6.6
		v-15.9C580.1,327.2,582.5,331,583.5,333z M565.1,331.2V315h3.2v16.2H565.1z M565.1,341.2h3.2v17.5h-3.2V341.2z M553.6,331.2V315
		h3.4v16.2H553.6z M553.6,341.2h3.4v17.5h-3.4V341.2z"/>
</g>
<path class="st2" d="M766.5,386.8l-0.1-254c0-6-1.9-9.5-6.9-12.4c-9-5.2-23.6-5.2-32.6,0c-5,2.9-6.9,6.3-6.9,12.3l-0.1,34.3
	l-72.1-0.2l0.1-34.2c0-31.6,15.6-58.9,42.9-74.7c31.3-18.1,73.4-18.1,104.7,0c27.3,15.8,43,43,42.9,74.8l0.1,253.9L766.5,386.8z"/>
<rect x="284.6" y="118.6" class="st3" width="295.2" height="48.4"/>
<g>
	<path d="M314.9,148.7v-15.4l-2.3,3.9c-0.9-0.7-2.2-1.6-3.6-2.4v1.9h-6.6v-1.1c-0.9,0.7-1.8,1.3-2.8,1.8h13.3v10.7h-11.3l-0.1,0.7
		h12.2v8.8h-4.1V157h-5v0.8h-3.9v-5.4c-0.4,1.6-1,3.1-1.7,4.4c-0.9-0.6-2.9-1.4-4.1-1.7c2.6-4.3,2.8-10.4,2.8-14.2v-2.4l-0.3,0.2
		c-0.4-1.1-1.6-3.5-2.4-4.5c3.9-1.5,7.8-4.1,10-7.2l4.3,1.7c-0.2,0.3-0.4,0.5-0.6,0.8c2.2,1.3,4.7,2.7,6.2,3.7v-2.8h4.4v18.4
		L314.9,148.7L314.9,148.7z M308.7,144.9v-0.8H302v0.8H308.7z M302.1,140.6v0.3v0.6h6.6v-0.9L302.1,140.6L302.1,140.6z M307.9,134
		l-2.1-1.3c-0.5,0.5-0.9,0.9-1.4,1.3H307.9z M304.7,151.9v1.7h5v-1.7H304.7z M325.1,127.1v25.2c0,2.4-0.4,3.6-1.7,4.4
		c-1.3,0.8-3.2,0.9-5.8,0.9c-0.2-1.3-0.8-3.4-1.4-4.7c1.6,0.1,3.2,0.1,3.7,0.1s0.7-0.2,0.7-0.7v-25.2
		C320.6,127.1,325.1,127.1,325.1,127.1z"/>
	<path d="M333.6,148.8c-0.8,2.3-2.2,5-3.3,6.7c-0.7-0.6-2.2-1.6-3-2.1c1-1.5,2.1-3.8,2.8-5.7L333.6,148.8z M338.4,147v10.5h-4.6V147
		H328v-3.9h5.8v-2h-6v-3.8h2.8c-0.2-0.8-0.5-1.9-0.7-2.7l2.5-0.6h-4v-3.8h5.1c-0.2-0.8-0.5-1.7-0.7-2.4l4.7-1.1
		c0.4,1.1,0.9,2.4,1.3,3.5h4.3v3.8h-3.6l2.5,0.5c-0.5,1.1-0.9,2-1.3,2.9h3v3.8h-5.2v2h4.5v3.9L338.4,147L338.4,147z M333.7,134
		c0.3,0.9,0.7,2,0.8,2.7l-2.3,0.6h4.3c0.4-1,0.9-2.3,1.1-3.3H333.7z M358.3,142h-2.7v15.7H351V142h-2.2c0,4.8-0.4,11.7-3.1,15.8
		c-0.7-0.8-2.7-2.3-3.6-2.8c0.6-0.9,0.9-1.8,1.3-2.9l-2.2,1.4c-0.5-1.2-1.6-3.2-2.5-4.6l3-1.7c0.7,1,1.5,2.3,2.1,3.4
		c0.6-2.8,0.7-6,0.7-8.6v-11.8c3.5-0.7,7.3-1.8,9.7-2.9l3.6,3.5c-2.7,1.1-5.9,1.9-8.9,2.5v4.5h9.5v4.2L358.3,142L358.3,142z"/>
	<path d="M390.4,152.6v4.6h-29.9v-4.6h17.6c0.2-1.2,0.4-2.4,0.6-3.6h-14.3c1.4-4.4,2.9-10.9,3.9-16.4h-6.9v-4.5h28v4.5h-16
		c-0.2,1.2-0.5,2.4-0.7,3.7h8.2l0.8-0.2l3.6,0.4c-0.5,4.9-1.5,10.9-2.3,16.2L390.4,152.6L390.4,152.6z M379.4,144.7
		c0.2-1.4,0.4-2.8,0.6-4h-8.2c-0.3,1.4-0.6,2.8-0.9,4H379.4z"/>
	<path d="M422.4,134.3c0,0,0,1.5,0,2c-0.3,13.1-0.5,18-1.5,19.5c-0.8,1.2-1.6,1.6-2.8,1.9c-1,0.2-2.5,0.2-4.1,0.2
		c-0.1-1.3-0.6-3.2-1.4-4.5c1.3,0.1,2.4,0.1,3,0.1c0.5,0,0.8-0.1,1.1-0.6c0.6-0.8,0.9-4.6,1-14.3h-2c-0.5,8.7-1.9,15.2-7.2,19.6
		c-0.4-0.7-1.3-1.7-2.1-2.6c-4.9,0.5-10,0.9-13.8,1.3l-0.5-3.9c1.8-0.1,3.9-0.2,6.3-0.4v-1.4H393v-3.3h5.4v-0.8h-5.3v-10.3h5.3V136
		h-6.1v-3.3h6.1v-0.8c-1.7,0.1-3.5,0.2-5.1,0.2c-0.1-0.9-0.6-2.4-1-3.3c4.9-0.2,10.3-0.8,14-1.6l2,3.5c-1.7,0.4-3.6,0.6-5.6,0.8v1.1
		h5.9v3.3h-5.9v0.8h5.4V147h-5.4v0.8h5.6v3.3c2-3.2,2.7-7.4,2.9-12.6h-2.6v-4.3h2.7c0-2,0-4.2,0-6.6h4.5c0,2.3,0,4.5,0,6.6h6.6
		V134.3z M397,140.6h1.6v-1H397V140.6z M398.6,144.2v-1H397v1H398.6z M402.9,139.6v1h1.6v-1H402.9z M404.4,143.2h-1.6v1h1.6V143.2z
		 M402.9,152.3c1.7-0.1,3.4-0.3,5.1-0.4c0.2-0.2,0.3-0.5,0.5-0.7h-5.6V152.3z"/>
	<path d="M437.5,144.7l-4.2,3.6c-1.9-2.3-4.6-5.1-6.9-7.1l4.1-3.5C432.9,139.5,436.1,142.9,437.5,144.7z"/>
	<path d="M453.5,135.3c-0.3,0.6-0.6,1.3-1,1.9h14.8V153c0,2.2-0.4,3.4-1.8,4.1c-1.4,0.7-3.3,0.8-5.9,0.8c-0.2-1.3-0.8-3.3-1.4-4.5
		c1.4,0.1,3.3,0.1,3.8,0.1s0.7-0.2,0.7-0.6v-1.2h-11.3c-0.6,2.5-1.7,4.8-3.8,6.4c-0.6-1-2.5-3-3.4-3.6c2.8-2.3,3-5.7,3-8.8v-1.5
		c-1,1-2.1,2-3.3,2.8c-0.7-1.1-2.2-2.8-3.1-3.7c3-2,5.5-4.9,7.3-8.2h-6.5v-4.4h8.5c0.5-1.3,0.9-2.6,1.2-3.8l4.9,1.1
		c-0.3,0.9-0.6,1.8-0.9,2.7h15.5v4.4h-17.3L453.5,135.3L453.5,135.3z M462.7,147.8v-1.4h-10.6c0,0.5,0,0.9-0.1,1.4H462.7z
		 M462.7,141.2h-10.6v1.3h10.6V141.2z"/>
	<path d="M502.2,137c-0.7,4.7-1.8,8.7-3.5,11.9c1.6,2.2,3.4,4,5.6,5.3c-1.1,0.9-2.5,2.6-3.2,3.8c-1.9-1.3-3.6-3-5-5
		c-1.8,2.1-4,3.8-6.7,5.1c-0.6-0.8-2.3-2.6-3.2-3.4c3.2-1.3,5.7-3.2,7.5-5.7c-0.7-1.5-1.4-3-2-4.7c-0.4,0.5-0.7,1-1.1,1.5
		c-0.4-0.7-1.4-2.2-2.3-3.2l-2,1.1c-0.1-0.4-0.3-0.7-0.4-1.2c-0.4,1.4-0.8,2.8-1.4,4c1.7,1.9,3.1,3.8,4,5.3l-3.8,2.9
		c-0.6-1.1-1.5-2.4-2.6-3.8c-1.7,2.6-3.7,4.8-6.2,6.4c-0.6-0.9-2.2-2.7-3.1-3.5c2.7-1.5,4.8-3.8,6.3-6.5c-0.8-1-1.7-2-2.6-2.9
		c-0.3,0.5-0.6,0.9-0.8,1.2c-0.7-0.8-2.2-2.3-3.1-3c1.5-1.8,3.1-4.5,4.1-7.1h-3.1v-4.2h6.1c-0.3-1-0.8-2.2-1.3-3.1l4.1-1.4
		c0.7,1.1,1.4,2.6,1.7,3.7l-2.3,0.8h7.6v4.2h-3.2c1,1.3,2,2.8,2.8,4.1c1.8-3.4,2.9-7.9,3.5-12.7l4.4,0.7c-0.3,1.7-0.6,3.3-0.9,4.9
		h7.5v4.3h-1.4V137z M485,140.8c-0.7-1.4-1.7-2.8-2.6-4l2-1.1h-6.2l2.8,0.9c-0.8,2-1.9,4.2-3.1,6.2l1.7-1.3c0.5,0.5,1,1,1.6,1.6
		c0.3-0.9,0.5-1.8,0.7-2.7L485,140.8z M494.8,137c-0.2,0.6-0.4,1.3-0.7,1.9c0.5,1.8,1.1,3.6,1.8,5.3c0.8-2.1,1.3-4.5,1.7-7.2H494.8z
		"/>
	<path d="M532.7,147.6h3.5v3.4h-3.5v2.9c0,1.9-0.4,2.9-1.7,3.5c-1.4,0.5-3.1,0.6-5.3,0.6c-0.1-1-0.6-2.2-0.9-3.2l-1.5,0.9
		c-0.5-1.1-1.5-2.8-2.6-4l1.2-0.7h-2.5v1.9h-4.8v4.8h-4.1V153h-5v-4.1h5v-1.5h-3.9v-12h3.9V134H506v-4h4.5v-2.8h4.1v2.8h4.4v4h-4.4
		v1.4h4.1v12h-4.1v1.5h4.8v-1.3h9.1v-1h4.3L532.7,147.6L532.7,147.6z M509.8,139.8h1.2v-1.3h-1.2V139.8z M509.8,144.2h1.2v-1.3h-1.2
		V144.2z M515.3,138.6H514v1.3h1.3V138.6z M515.3,142.9H514v1.3h1.3V142.9z M519.2,143.4c1.7,0,3.9,0,6.3-0.1v-1.1H520v-8.9h5.5
		v-0.8h-6v-3.4h6v-2h4v2h6.2v3.4h-6.2v0.8h5.7v8.9h-0.9c0.9,1.2,1.7,2.6,2.1,3.6l-3.3,1.6c-0.1-0.3-0.3-0.7-0.5-1.1
		c-4.8,0.2-9.6,0.3-13.2,0.4L519.2,143.4z M523.6,136.6h1.9v-0.8h-1.9V136.6z M525.5,139.8v-0.9h-1.9v0.9H525.5z M528.4,151h-3.6
		c0.7,0.9,1.4,1.8,1.7,2.6l-0.9,0.6c0.9,0,1.9,0,2.2,0c0.5,0,0.6-0.1,0.6-0.5V151z M529.5,135.8v0.8h1.9v-0.8H529.5z M531.4,138.9
		h-1.9v0.9h1.9V138.9z M529.5,143.2h1.3c-0.2-0.2-0.3-0.5-0.5-0.6l0.7-0.3h-1.6L529.5,143.2L529.5,143.2z"/>
	<path d="M563.4,150.8c1.9,1.5,4.4,3.2,5.7,4.4l-3,2.9c-1.4-1.5-4.6-3.9-6.7-5.7l1.8-1.7h-1.6c-1.2,3.5-3.9,5.7-10.5,7.1
		c-0.4-1.1-1.4-2.8-2.3-3.7c4.4-0.7,6.6-1.8,7.8-3.4H548V147h2v-8.8c-0.4-0.7-1.1-1.5-1.7-2.1v1.2h-2.6v3.8l2.5-0.7l0.6,4.2
		c-1,0.3-2.1,0.6-3.2,1v6.8c0,2.1-0.3,3.4-1.4,4.1c-1.1,0.8-2.6,1-4.7,1c-0.1-1.3-0.6-3.3-1.2-4.6c0.9,0,1.9,0,2.3,0
		c0.4,0,0.5-0.1,0.5-0.5v-5.6l-2.6,0.7l-1-4.5c1-0.2,2.3-0.5,3.6-0.8v-4.9h-3V133h3v-6h4.5v6h2.6v1.8c2.8-2.2,4.6-5.1,5.5-7.7
		l4.3,0.7c-0.3,0.6-0.5,1.3-0.8,1.9h3.6l0.6-0.2l2.8,1.8c-0.6,1.2-1.5,2.5-2.4,3.8h5V147h1.9v3.7h-5.3L563.4,150.8L563.4,150.8z
		 M553.7,142.2c1.1-0.9,2.1-2.1,2.9-3.4h-2.9V142.2z M560.5,144.8c0,0.8-0.1,1.6-0.2,2.3h2.6v-3.4l-1,1.2c-0.8-0.7-2.3-1.7-3.7-2.5
		c-0.8,1.1-1.7,2-2.6,2.7c-0.4-0.4-1.2-1-1.9-1.4v3.5h2.1c0.1-0.7,0.1-1.5,0.2-2.3h4.5L560.5,144.8L560.5,144.8z M555.2,133.3
		c-0.4,0.6-0.9,1.2-1.4,1.8h3.6c0.4-0.6,0.8-1.2,1.2-1.8H555.2z M562.9,138.8h-2.4c-0.2,0.4-0.4,0.7-0.6,1.1c1,0.5,2.1,1.1,3,1.7
		V138.8z"/>
</g>
<g>
	<g>
		<polygon points="149.4,196.2 132.4,196.2 132.4,266.8 176.8,266.8 176.8,252.6 149.4,252.6 		"/>
		<rect x="189.1" y="196.2" width="17" height="70.6"/>
		<path d="M262.3,219.6c0,8.4,1.4,18.6,2.3,26.1h-0.5l-6.9-15.7l-17.6-33.8h-17.3v70.6h16.1v-23.5c0-8.5-1.4-18.2-2.2-26.1h0.5
			l6.9,15.5l17.5,34.1h17.3v-70.6h-16.1L262.3,219.6L262.3,219.6z"/>
		<polygon points="311.9,237.6 335.5,237.6 335.5,223.4 311.9,223.4 311.9,210.3 339.7,210.3 339.7,196.2 294.9,196.2 294.9,266.8 
			340.8,266.8 340.8,252.6 311.9,252.6 		"/>
		<path d="M400.2,185l-14.1,3.1c0.7,1.4,1.3,3.1,1.8,4.7h-36.4v19.6h11.9v63.4h14.1v-3.5h35.7v3.1h14.2v-32.8h-49.9v-4.5l46.5,0.2
			v-25.8h12.4v-19.6h-32.8C402.8,190.3,401.4,187.4,400.2,185z M410.1,221.6v4.8h-32.7v-4.8H410.1z M377.5,254.5h35.7v5.7h-35.7
			V254.5z M365.4,205.6h56.1v4.3h-56.1V205.6z"/>
		<path d="M502.4,197.6c-1.5-3.7-4.3-9.3-6.9-13.5l-13.7,5.1c1.7,3.3,3.8,7.6,5.1,11.1h-39.2v13.5h23.1
			c-0.8,19.2-2.4,39.1-24.4,51.2c3.8,2.9,8,7.7,10.1,11.5c16.8-10.2,23.9-24.5,27.1-40h27.8c-1.1,14.6-2.8,22.3-5.1,24.2
			c-1.4,1-2.7,1.2-4.7,1.2c-3,0-9.6-0.1-16.1-0.7c2.7,3.8,4.8,9.6,5,13.6c2.9,0.1,5.9,0.2,8.6,0.2c3.1,0,5.9-0.1,8-0.4
			c4.9-0.5,8.3-1.6,11.5-5.1c4.1-4.3,6.1-15.2,7.7-40.6c0.3-1.7,0.4-5.7,0.4-5.7h-41c0.3-3.1,0.5-6.3,0.7-9.4c0,0,47.9,0,48.1,0.1
			v-13.5h-38.6L502.4,197.6z"/>
		<path d="M632.8,247.2l-8.6-7.6h8.1V228H599v-3.2h26.9v-9.5H599v-3.2h26.8v-9.4H599v-2.9h30.8v-10.6h-44.1v38.9H581v11.6h3.3v15.2
			c0,4.3-3.2,7.7-5.6,9.2c2.3,2.8,5.5,9,6.4,12.3c2.1-1.6,5.8-3.2,23.7-8.6c-0.4-2.1-0.7-5.6-0.7-8.6c4.6,6.5,10.2,11.9,17.1,15.5
			c2-3.5,6.1-8.7,9.1-11.3c-5.4-2.3-10-5.5-13.9-9.5C624.2,252,628.4,249.6,632.8,247.2z M597.1,259.6v-19.8h1.3
			c2.2,6.3,4.9,12.2,8.2,17.3L597.1,259.6z M621.4,239.8c-2.2,1.9-4.9,4.1-7.6,6c-1.2-1.9-2.3-3.9-3.2-6H621.4z"/>
		<path d="M580,202.8h-11.8v-17.2H557v17.2h-12V256h9.9v-41.1h2.1v61h11.2V247c0.8,2.7,1.4,5.6,1.5,7.8c3.2,0,5.4-0.4,7.7-2.4
			c2.2-2,2.6-5.6,2.6-9.6V202.8z M568.2,215h2.2v27.5c0,0.7-0.2,0.9-0.7,0.9v0.1h-1.5V215z"/>
		<path d="M675.2,188.9h-30.1v28.4h30.1V188.9z M654.7,207.8v-9.5h10.4v9.5H654.7z"/>
		<path d="M674.1,237.7h-16.2l0.9-4.7H677v-11.6h-36.2v11.8h6.6c-1,5.4-2.3,10.9-3.5,15.2h11.8v-0.1h6.4c-0.6,9.3-1.4,13.4-2.5,14.6
			c-0.8,0.8-1.7,1-3,1c-1.6,0-4.7-0.1-8-0.4c1.8,3,3.1,7.7,3.3,11.1c1.4,0.1,2.7,0.1,4,0.1c2.5,0,4.8-0.1,6.4-0.4
			c2.9-0.5,5-1.3,7-3.7c2.5-3,3.7-10.8,4.6-28.4C674,240.6,674.1,237.7,674.1,237.7z"/>
		<path d="M723.5,252c0.1,3.8-0.1,7.1-0.2,8.5c-0.2,0.8-0.4,1.3-0.6,1.7c-0.1,0.3-0.5,0.4-0.9,0.4v-0.2h-0.7c-0.3,0-0.7-0.2-0.9-0.6
			c-0.1-0.2-0.2-0.7-0.2-1.2v-20.4h-11.2v21.9c0,6.1,0.4,7.8,2,9.7c1.6,1.8,4.1,2.6,6.8,2.6h5.1c1.9,0,4-0.6,5.3-1.5
			c1.6-1.1,2.5-2.5,3.3-4.7c0.5-2,1.1-6.5,1.3-11.1C729.7,256.2,725.6,253.9,723.5,252z"/>
		<path d="M686.4,266.4c4-12.2,4.9-27,4.9-37.8l0.1-14.1h7.3v4l-6.3,0.5l1.1,8.9l5.2-0.5c0.3,7.2,2.5,10.9,11,10.9h9.2
			c2.6,0,5.8-0.2,7.5-0.9c-0.5-3-0.7-6.3-0.9-9.6c-1.5,0.5-5.2,0.8-7.2,0.8h-6.2c-1.6,0-2-0.8-2.2-2.2l8.1-0.7l-1-8.8l-7,0.6v-3h9.6
			c-0.2,3-0.5,5.7-0.8,7.8l9.9,2.4c1.2-5.1,2.5-12.9,3.4-19.6l-8.4-1.7l-1.8,0.4h-11.2v-2.9h17.7v-10.7h-17.7v-4.4h-13v18h-18.4
			v24.8c0,12.1-0.6,28.7-7.3,40.2c2.8,1.2,8.1,5,10.2,7.1c1.4-2.4,2.7-5.1,3.7-7.9c2.4,2.1,5.2,5.9,6.4,8.5
			c11-7.7,12.8-20.1,13.3-36.1h-11.2C694.1,251.9,693.3,260.6,686.4,266.4z"/>
	</g>
	<g>
		<path d="M262.4,336.4l-6.2,1.8V327h7.4v-12.6h-7.4V297h-12.8v17.4h-8.5V327h8.5v14.9c-3.7,1.1-7.2,1.9-10,2.6l3,13.3l6.9-2.2v16.7
			c0,1-0.3,1.4-1.3,1.4c-0.9,0-3.4,0-5.7-0.1c1.5,3.5,3,8.8,3.3,12.2c5.6,0,9.6-0.5,12.6-2.6c3.1-2,3.9-5.3,3.9-11v-21
			c2.8-0.9,5.5-1.8,8.3-2.8L262.4,336.4z"/>
		<path d="M311.5,365h11.7v-11h-22.8v-4.8H322v-23.3h-26.8v22.5h-2.8v-22.5h-25.9v23.3h20.9v4.8h-21.8v11h8.6
			c-3.2,4.8-8.5,10-13.3,13.3c2.8,2,7.3,6.3,9.4,8.6c5.3-4.4,11.8-11.8,16-18.4l-10.2-3.5h11.2v22.3h13.1V365h7.9l-7,5.9
			c5.2,4.7,11.7,11.3,14.5,15.8l9.3-8.1C322.1,374.7,316.4,369.2,311.5,365z M305.5,339.9V335h5.5v4.9H305.5z M281.7,335v4.9h-5.2
			V335H281.7z"/>
		<path d="M313.2,300.2h-38.7v22.9h38.7V300.2z M286.1,313.7v-4.1h14.6v4.1H286.1z"/>
		<path d="M395.5,301.1l-13.3-3.5c-4.1,13.6-11.5,27.2-19.8,35.6c2.9,2.2,8.2,7.1,10.4,9.7c4.2-4.8,8.3-10.9,12.1-17.7h1.8V387h14.2
			v-20h24.4v-12.8h-24.4v-8.5h23.2v-12.5h-23.2v-7.9l25.7-0.1v-13.1h-35.4C392.8,308.5,394.3,304.8,395.5,301.1z"/>
		<path d="M355.8,297.3c-4.6,13.1-12.4,26.2-20.7,34.5c2.4,3.5,6.2,11.5,7.4,14.9c1.3-1.5,2.7-2.9,4-4.5V387h14v-66.2
			c3.4-6.4,6.3-12.9,8.7-19.3L355.8,297.3z"/>
		<path d="M508.3,360.7c6.3-9.1,10.5-20.4,13.4-34.2l6.3,0.1v-13.2h-32.4c1.5-4.6,2.9-9.3,4-14l-13.7-2.8
			c-3.4,16.1-9.9,32.1-18.5,41.5c3.3,1.8,9.2,6,11.8,8.3c1.1-1.5,2.2-3,3.2-4.5c2.2,6.7,4.8,13,7.9,18.6
			c-6.6,6.2-15.2,10.8-26.2,13.9c2.4,3.1,6.2,9.5,7.3,12.8c11.1-3.8,19.9-8.7,27.1-15.3c5.8,6.5,12.9,11.6,21.9,15.3
			c2.1-3.9,6.4-9.7,9.5-12.5C521,371.5,514,366.8,508.3,360.7z M507.3,326.5c-1.7,8.4-4.2,15.7-7.6,21.9c-3.5-6.4-6.1-13.8-7.9-21.9
			H507.3z"/>
		<path d="M476.9,350c-4.1,1-8.4,1.9-12.6,2.8V321h11.6v-13.2h-36.4V321h11.1v34.7c-4.8,1-9.3,1.8-12.9,2.5l3.2,14.3
			c10.7-2.9,24.6-6.6,37.4-10.2L476.9,350z"/>
		<path d="M615.4,334.2c6.6-6.5,11.8-14.1,15.3-23.1l-7.8-4.7l-2.4,0.4H603c1-2.1,1.9-4.3,2.8-6.5l-11.5-3.4
			c-3.5,9.2-9.6,18-16.4,23.9v-17.5h-34.6v73.1h10.2v-6h24.4V346c1.1,2.9,2,6,2.5,8.1c1.4-0.4,2.8-0.8,4.2-1.3v33.8h12v-5.2h16.3
			v4.8h12.5v-33.6c1.1,0.3,2.3,0.7,3.4,1c0.2-3.9,1.6-10.5,2.8-14C625.7,338.5,620.2,336.7,615.4,334.2z M596.6,361.6h16.3v7.8
			h-16.3V361.6z M617.5,349.6h-24.9c4.3-2,8.6-4.2,12.5-6.9C608.9,345.3,612.9,347.6,617.5,349.6z M605,326.9
			c-2.6-2.4-4.8-5.1-6.6-7.9h14.1C610.3,321.9,607.8,324.5,605,326.9z M583.5,333c2.1-1.7,4.1-3.8,6.1-6c1.6,2.3,3.3,4.6,5.3,6.7
			c-5.1,2.8-10.8,5-16.9,6.6v-15.9C580.1,327.2,582.5,331,583.5,333z M565.1,331.2V315h3.2v16.2H565.1z M565.1,341.2h3.2v17.5h-3.2
			V341.2z M553.6,331.2V315h3.4v16.2H553.6z M553.6,341.2h3.4v17.5h-3.4V341.2z"/>
	</g>
</g>
</svg>
